<?xml version="1.0" encoding="utf-8" standalone="no"?>
<!DOCTYPE svg PUBLIC "-//W3C//DTD SVG 1.1//EN"
  "http://www.w3.org/Graphics/SVG/1.1/DTD/svg11.dtd">
<!-- Created with matplotlib (http://matplotlib.org/) -->
<svg height="86pt" version="1.1" viewBox="0 0 252 86" width="252pt" xmlns="http://www.w3.org/2000/svg" xmlns:xlink="http://www.w3.org/1999/xlink">
 <defs>
  <style type="text/css">
*{stroke-linecap:butt;stroke-linejoin:round;}
  </style>
 </defs>
 <g id="figure_1">
  <g id="patch_1">
   <path d="M 0 86.4 
L 252 86.4 
L 252 0 
L 0 0 
z
" style="fill:#ffffff;"/>
  </g>
  <g id="axes_1">
   <g id="patch_2">
    <path d="M 37.8 51.84 
L 239.4 51.84 
L 239.4 17.28 
L 37.8 17.28 
z
" style="fill:#ffffff;"/>
   </g>
   <g id="patch_3">
    <path clip-path="url(#p4115a41a67)" d="M 74.98835 36.71301 
L 74.98835 40.236117 
L 82.817476 40.236117 
L 82.817476 36.71301 
z
" style="fill:#ff0000;"/>
   </g>
   <g id="patch_4">
    <path clip-path="url(#p4115a41a67)" d="M 114.133981 28.883883 
L 114.133981 32.40699 
L 121.963107 32.40699 
L 121.963107 28.883883 
z
" style="fill:#ff0000;"/>
   </g>
   <g id="patch_5">
    <path clip-path="url(#p4115a41a67)" d="M 172.852427 36.71301 
L 172.852427 40.236117 
L 180.681553 40.236117 
L 180.681553 36.71301 
z
" style="fill:#ff0000;"/>
   </g>
   <g id="patch_6">
    <path clip-path="url(#p4115a41a67)" d="M 35.842718 36.46835 
L 35.842718 39.991456 
L 43.671845 39.991456 
L 43.671845 36.46835 
z
" style="fill:#0000ff;"/>
   </g>
   <g id="patch_7">
    <path clip-path="url(#p4115a41a67)" d="M 74.98835 36.71301 
L 74.98835 40.236117 
L 82.817476 40.236117 
L 82.817476 36.71301 
z
" style="fill:#ff0000;"/>
   </g>
   <g id="patch_8">
    <path clip-path="url(#p4115a41a67)" d="M 114.133981 28.883883 
L 114.133981 32.40699 
L 121.963107 32.40699 
L 121.963107 28.883883 
z
" style="fill:#ff0000;"/>
   </g>
   <g id="patch_9">
    <path clip-path="url(#p4115a41a67)" d="M 172.852427 36.71301 
L 172.852427 40.236117 
L 180.681553 40.236117 
L 180.681553 36.71301 
z
" style="fill:#ff0000;"/>
   </g>
   <g id="matplotlib.axis_1">
    <g id="xtick_1">
     <g id="line2d_1">
      <path clip-path="url(#p4115a41a67)" d="M 39.757282 51.84 
L 39.757282 17.28 
" style="fill:none;stroke:#b0b0b0;stroke-dasharray:1.85,0.8;stroke-dashoffset:0;stroke-width:0.5;"/>
     </g>
     <g id="line2d_2">
      <defs>
       <path d="M 0 0 
L 0 3.5 
" id="ma57c1c79bb" style="stroke:#000000;stroke-width:0.8;"/>
      </defs>
      <g>
       <use style="stroke:#000000;stroke-width:0.8;" x="39.757282" xlink:href="#ma57c1c79bb" y="51.84"/>
      </g>
     </g>
     <g id="text_1">
      <!-- 0 -->
      <defs>
       <path d="M 3.609375 32.71875 
Q 3.609375 44.046875 7.03125 52.21875 
Q 10.453125 60.40625 16.109375 64.40625 
Q 20.515625 67.578125 25.203125 67.578125 
Q 32.8125 67.578125 38.875 59.8125 
Q 46.4375 50.203125 46.4375 33.734375 
Q 46.4375 22.21875 43.109375 14.15625 
Q 39.796875 6.109375 34.640625 2.46875 
Q 29.5 -1.171875 24.703125 -1.171875 
Q 15.234375 -1.171875 8.9375 10.015625 
Q 3.609375 19.4375 3.609375 32.71875 
z
M 13.1875 31.5 
Q 13.1875 17.828125 16.546875 9.1875 
Q 19.34375 1.90625 24.859375 1.90625 
Q 27.484375 1.90625 30.3125 4.265625 
Q 33.15625 6.640625 34.625 12.203125 
Q 36.859375 20.609375 36.859375 35.890625 
Q 36.859375 47.21875 34.515625 54.78125 
Q 32.765625 60.40625 29.984375 62.75 
Q 27.984375 64.359375 25.140625 64.359375 
Q 21.828125 64.359375 19.234375 61.375 
Q 15.71875 57.328125 14.453125 48.625 
Q 13.1875 39.9375 13.1875 31.5 
z
" id="TimesNewRomanPSMT-30"/>
      </defs>
      <g transform="translate(37.257282 65.78375)scale(0.1 -0.1)">
       <use xlink:href="#TimesNewRomanPSMT-30"/>
      </g>
     </g>
    </g>
    <g id="xtick_2">
     <g id="line2d_3">
      <path clip-path="url(#p4115a41a67)" d="M 78.902913 51.84 
L 78.902913 17.28 
" style="fill:none;stroke:#b0b0b0;stroke-dasharray:1.85,0.8;stroke-dashoffset:0;stroke-width:0.5;"/>
     </g>
     <g id="line2d_4">
      <g>
       <use style="stroke:#000000;stroke-width:0.8;" x="78.902913" xlink:href="#ma57c1c79bb" y="51.84"/>
      </g>
     </g>
     <g id="text_2">
      <!-- 20 -->
      <defs>
       <path d="M 45.84375 12.75 
L 41.21875 0 
L 2.15625 0 
L 2.15625 1.8125 
Q 19.390625 17.53125 26.421875 27.484375 
Q 33.453125 37.453125 33.453125 45.703125 
Q 33.453125 52 29.59375 56.046875 
Q 25.734375 60.109375 20.359375 60.109375 
Q 15.484375 60.109375 11.59375 57.25 
Q 7.71875 54.390625 5.859375 48.875 
L 4.046875 48.875 
Q 5.28125 57.90625 10.328125 62.734375 
Q 15.375 67.578125 22.953125 67.578125 
Q 31 67.578125 36.390625 62.40625 
Q 41.796875 57.234375 41.796875 50.203125 
Q 41.796875 45.171875 39.453125 40.140625 
Q 35.84375 32.234375 27.734375 23.390625 
Q 15.578125 10.109375 12.546875 7.375 
L 29.828125 7.375 
Q 35.109375 7.375 37.234375 7.765625 
Q 39.359375 8.15625 41.0625 9.34375 
Q 42.78125 10.546875 44.046875 12.75 
z
" id="TimesNewRomanPSMT-32"/>
      </defs>
      <g transform="translate(73.902913 65.78375)scale(0.1 -0.1)">
       <use xlink:href="#TimesNewRomanPSMT-32"/>
       <use x="50" xlink:href="#TimesNewRomanPSMT-30"/>
      </g>
     </g>
    </g>
    <g id="xtick_3">
     <g id="line2d_5">
      <path clip-path="url(#p4115a41a67)" d="M 118.048544 51.84 
L 118.048544 17.28 
" style="fill:none;stroke:#b0b0b0;stroke-dasharray:1.85,0.8;stroke-dashoffset:0;stroke-width:0.5;"/>
     </g>
     <g id="line2d_6">
      <g>
       <use style="stroke:#000000;stroke-width:0.8;" x="118.048544" xlink:href="#ma57c1c79bb" y="51.84"/>
      </g>
     </g>
     <g id="text_3">
      <!-- 40 -->
      <defs>
       <path d="M 46.53125 24.421875 
L 46.53125 17.484375 
L 37.640625 17.484375 
L 37.640625 0 
L 29.59375 0 
L 29.59375 17.484375 
L 1.5625 17.484375 
L 1.5625 23.734375 
L 32.28125 67.578125 
L 37.640625 67.578125 
L 37.640625 24.421875 
z
M 29.59375 24.421875 
L 29.59375 57.28125 
L 6.34375 24.421875 
z
" id="TimesNewRomanPSMT-34"/>
      </defs>
      <g transform="translate(113.048544 65.78375)scale(0.1 -0.1)">
       <use xlink:href="#TimesNewRomanPSMT-34"/>
       <use x="50" xlink:href="#TimesNewRomanPSMT-30"/>
      </g>
     </g>
    </g>
    <g id="xtick_4">
     <g id="line2d_7">
      <path clip-path="url(#p4115a41a67)" d="M 157.194175 51.84 
L 157.194175 17.28 
" style="fill:none;stroke:#b0b0b0;stroke-dasharray:1.85,0.8;stroke-dashoffset:0;stroke-width:0.5;"/>
     </g>
     <g id="line2d_8">
      <g>
       <use style="stroke:#000000;stroke-width:0.8;" x="157.194175" xlink:href="#ma57c1c79bb" y="51.84"/>
      </g>
     </g>
     <g id="text_4">
      <!-- 60 -->
      <defs>
       <path d="M 44.828125 67.578125 
L 44.828125 65.765625 
Q 38.375 65.140625 34.296875 63.203125 
Q 30.21875 61.28125 26.234375 57.328125 
Q 22.265625 53.375 19.65625 48.515625 
Q 17.046875 43.65625 15.28125 36.96875 
Q 22.3125 41.796875 29.390625 41.796875 
Q 36.1875 41.796875 41.15625 36.328125 
Q 46.140625 30.859375 46.140625 22.265625 
Q 46.140625 13.96875 41.109375 7.125 
Q 35.0625 -1.171875 25.09375 -1.171875 
Q 18.3125 -1.171875 13.578125 3.328125 
Q 4.296875 12.0625 4.296875 25.984375 
Q 4.296875 34.859375 7.859375 42.859375 
Q 11.421875 50.875 18.03125 57.078125 
Q 24.65625 63.28125 30.703125 65.421875 
Q 36.765625 67.578125 42 67.578125 
z
M 14.453125 33.40625 
Q 13.578125 26.8125 13.578125 22.75 
Q 13.578125 18.0625 15.3125 12.5625 
Q 17.046875 7.078125 20.453125 3.859375 
Q 22.953125 1.5625 26.515625 1.5625 
Q 30.765625 1.5625 34.109375 5.5625 
Q 37.453125 9.578125 37.453125 17 
Q 37.453125 25.34375 34.125 31.4375 
Q 30.8125 37.546875 24.703125 37.546875 
Q 22.859375 37.546875 20.734375 36.765625 
Q 18.609375 35.984375 14.453125 33.40625 
z
" id="TimesNewRomanPSMT-36"/>
      </defs>
      <g transform="translate(152.194175 65.78375)scale(0.1 -0.1)">
       <use xlink:href="#TimesNewRomanPSMT-36"/>
       <use x="50" xlink:href="#TimesNewRomanPSMT-30"/>
      </g>
     </g>
    </g>
    <g id="xtick_5">
     <g id="line2d_9">
      <path clip-path="url(#p4115a41a67)" d="M 196.339806 51.84 
L 196.339806 17.28 
" style="fill:none;stroke:#b0b0b0;stroke-dasharray:1.85,0.8;stroke-dashoffset:0;stroke-width:0.5;"/>
     </g>
     <g id="line2d_10">
      <g>
       <use style="stroke:#000000;stroke-width:0.8;" x="196.339806" xlink:href="#ma57c1c79bb" y="51.84"/>
      </g>
     </g>
     <g id="text_5">
      <!-- 80 -->
      <defs>
       <path d="M 19.1875 33.34375 
Q 11.328125 39.796875 9.046875 43.703125 
Q 6.78125 47.609375 6.78125 51.8125 
Q 6.78125 58.25 11.765625 62.90625 
Q 16.75 67.578125 25 67.578125 
Q 33.015625 67.578125 37.890625 63.234375 
Q 42.78125 58.890625 42.78125 53.328125 
Q 42.78125 49.609375 40.140625 45.75 
Q 37.5 41.890625 29.15625 36.671875 
Q 37.75 30.03125 40.53125 26.21875 
Q 44.234375 21.234375 44.234375 15.71875 
Q 44.234375 8.734375 38.90625 3.78125 
Q 33.59375 -1.171875 24.953125 -1.171875 
Q 15.53125 -1.171875 10.25 4.734375 
Q 6.0625 9.46875 6.0625 15.09375 
Q 6.0625 19.484375 9.015625 23.796875 
Q 11.96875 28.125 19.1875 33.34375 
z
M 26.859375 38.578125 
Q 32.71875 43.84375 34.28125 46.890625 
Q 35.84375 49.953125 35.84375 53.8125 
Q 35.84375 58.9375 32.953125 61.84375 
Q 30.078125 64.75 25.09375 64.75 
Q 20.125 64.75 17 61.859375 
Q 13.875 58.984375 13.875 55.125 
Q 13.875 52.59375 15.15625 50.046875 
Q 16.453125 47.515625 18.84375 45.21875 
z
M 21.484375 31.5 
Q 17.4375 28.078125 15.484375 24.046875 
Q 13.53125 20.015625 13.53125 15.328125 
Q 13.53125 9.03125 16.96875 5.25 
Q 20.40625 1.46875 25.734375 1.46875 
Q 31 1.46875 34.171875 4.4375 
Q 37.359375 7.421875 37.359375 11.671875 
Q 37.359375 15.1875 35.5 17.96875 
Q 32.03125 23.140625 21.484375 31.5 
z
" id="TimesNewRomanPSMT-38"/>
      </defs>
      <g transform="translate(191.339806 65.78375)scale(0.1 -0.1)">
       <use xlink:href="#TimesNewRomanPSMT-38"/>
       <use x="50" xlink:href="#TimesNewRomanPSMT-30"/>
      </g>
     </g>
    </g>
    <g id="xtick_6">
     <g id="line2d_11">
      <path clip-path="url(#p4115a41a67)" d="M 235.485437 51.84 
L 235.485437 17.28 
" style="fill:none;stroke:#b0b0b0;stroke-dasharray:1.85,0.8;stroke-dashoffset:0;stroke-width:0.5;"/>
     </g>
     <g id="line2d_12">
      <g>
       <use style="stroke:#000000;stroke-width:0.8;" x="235.485437" xlink:href="#ma57c1c79bb" y="51.84"/>
      </g>
     </g>
     <g id="text_6">
      <!-- 100 -->
      <defs>
       <path d="M 11.71875 59.71875 
L 27.828125 67.578125 
L 29.4375 67.578125 
L 29.4375 11.671875 
Q 29.4375 6.109375 29.90625 4.734375 
Q 30.375 3.375 31.828125 2.640625 
Q 33.296875 1.90625 37.796875 1.8125 
L 37.796875 0 
L 12.890625 0 
L 12.890625 1.8125 
Q 17.578125 1.90625 18.9375 2.609375 
Q 20.3125 3.328125 20.84375 4.515625 
Q 21.390625 5.71875 21.390625 11.671875 
L 21.390625 47.40625 
Q 21.390625 54.640625 20.90625 56.6875 
Q 20.5625 58.25 19.65625 58.984375 
Q 18.75 59.71875 17.484375 59.71875 
Q 15.671875 59.71875 12.453125 58.203125 
z
" id="TimesNewRomanPSMT-31"/>
      </defs>
      <g transform="translate(227.985437 65.78375)scale(0.1 -0.1)">
       <use xlink:href="#TimesNewRomanPSMT-31"/>
       <use x="50" xlink:href="#TimesNewRomanPSMT-30"/>
       <use x="100" xlink:href="#TimesNewRomanPSMT-30"/>
      </g>
     </g>
    </g>
    <g id="text_7">
     <!-- x (m) -->
     <defs>
      <path d="M 1.3125 44.734375 
L 22.359375 44.734375 
L 22.359375 42.921875 
Q 20.359375 42.921875 19.546875 42.234375 
Q 18.75 41.546875 18.75 40.4375 
Q 18.75 39.265625 20.453125 36.8125 
Q 21 36.03125 22.078125 34.375 
L 25.25 29.296875 
L 28.90625 34.375 
Q 32.421875 39.203125 32.421875 40.484375 
Q 32.421875 41.5 31.59375 42.203125 
Q 30.765625 42.921875 28.90625 42.921875 
L 28.90625 44.734375 
L 44.046875 44.734375 
L 44.046875 42.921875 
Q 41.65625 42.78125 39.890625 41.609375 
Q 37.5 39.9375 33.34375 34.375 
L 27.25 26.21875 
L 38.375 10.203125 
Q 42.484375 4.296875 44.234375 3.09375 
Q 46 1.90625 48.78125 1.765625 
L 48.78125 0 
L 27.6875 0 
L 27.6875 1.765625 
Q 29.890625 1.765625 31.109375 2.734375 
Q 32.03125 3.421875 32.03125 4.546875 
Q 32.03125 5.671875 28.90625 10.203125 
L 22.359375 19.78125 
L 15.1875 10.203125 
Q 11.859375 5.765625 11.859375 4.9375 
Q 11.859375 3.765625 12.953125 2.8125 
Q 14.0625 1.859375 16.265625 1.765625 
L 16.265625 0 
L 1.65625 0 
L 1.65625 1.765625 
Q 3.421875 2 4.734375 2.984375 
Q 6.59375 4.390625 10.984375 10.203125 
L 20.359375 22.65625 
L 11.859375 34.96875 
Q 8.25 40.234375 6.265625 41.578125 
Q 4.296875 42.921875 1.3125 42.921875 
z
" id="TimesNewRomanPSMT-78"/>
      <path id="TimesNewRomanPSMT-20"/>
      <path d="M 31.0625 -19.578125 
L 31.0625 -21.390625 
Q 23.6875 -17.671875 18.75 -12.703125 
Q 11.71875 -5.609375 7.90625 4 
Q 4.109375 13.625 4.109375 23.96875 
Q 4.109375 39.109375 11.578125 51.578125 
Q 19.046875 64.0625 31.0625 69.4375 
L 31.0625 67.390625 
Q 25.046875 64.0625 21.1875 58.296875 
Q 17.328125 52.546875 15.421875 43.703125 
Q 13.53125 34.859375 13.53125 25.25 
Q 13.53125 14.796875 15.140625 6.25 
Q 16.40625 -0.484375 18.203125 -4.5625 
Q 20.015625 -8.640625 23.0625 -12.390625 
Q 26.125 -16.15625 31.0625 -19.578125 
z
" id="TimesNewRomanPSMT-28"/>
      <path d="M 16.40625 36.53125 
Q 21.296875 41.40625 22.171875 42.140625 
Q 24.359375 44 26.890625 45.015625 
Q 29.4375 46.046875 31.9375 46.046875 
Q 36.140625 46.046875 39.15625 43.59375 
Q 42.1875 41.15625 43.21875 36.53125 
Q 48.25 42.390625 51.703125 44.21875 
Q 55.171875 46.046875 58.84375 46.046875 
Q 62.40625 46.046875 65.15625 44.21875 
Q 67.921875 42.390625 69.53125 38.234375 
Q 70.609375 35.40625 70.609375 29.34375 
L 70.609375 10.109375 
Q 70.609375 5.90625 71.234375 4.34375 
Q 71.734375 3.265625 73.046875 2.515625 
Q 74.359375 1.765625 77.34375 1.765625 
L 77.34375 0 
L 55.28125 0 
L 55.28125 1.765625 
L 56.203125 1.765625 
Q 59.078125 1.765625 60.6875 2.875 
Q 61.8125 3.65625 62.3125 5.375 
Q 62.5 6.203125 62.5 10.109375 
L 62.5 29.34375 
Q 62.5 34.8125 61.1875 37.0625 
Q 59.28125 40.1875 55.078125 40.1875 
Q 52.484375 40.1875 49.875 38.890625 
Q 47.265625 37.59375 43.5625 34.078125 
L 43.453125 33.546875 
L 43.5625 31.453125 
L 43.5625 10.109375 
Q 43.5625 5.515625 44.0625 4.390625 
Q 44.578125 3.265625 45.984375 2.515625 
Q 47.40625 1.765625 50.828125 1.765625 
L 50.828125 0 
L 28.21875 0 
L 28.21875 1.765625 
Q 31.9375 1.765625 33.328125 2.640625 
Q 34.71875 3.515625 35.25 5.28125 
Q 35.5 6.109375 35.5 10.109375 
L 35.5 29.34375 
Q 35.5 34.8125 33.890625 37.203125 
Q 31.734375 40.328125 27.875 40.328125 
Q 25.25 40.328125 22.65625 38.921875 
Q 18.609375 36.765625 16.40625 34.078125 
L 16.40625 10.109375 
Q 16.40625 5.71875 17.015625 4.390625 
Q 17.625 3.078125 18.8125 2.421875 
Q 20.015625 1.765625 23.6875 1.765625 
L 23.6875 0 
L 1.5625 0 
L 1.5625 1.765625 
Q 4.640625 1.765625 5.859375 2.421875 
Q 7.078125 3.078125 7.703125 4.515625 
Q 8.34375 5.953125 8.34375 10.109375 
L 8.34375 27.203125 
Q 8.34375 34.578125 7.90625 36.71875 
Q 7.5625 38.328125 6.828125 38.9375 
Q 6.109375 39.546875 4.828125 39.546875 
Q 3.46875 39.546875 1.5625 38.8125 
L 0.828125 40.578125 
L 14.3125 46.046875 
L 16.40625 46.046875 
z
" id="TimesNewRomanPSMT-6d"/>
      <path d="M 2.25 67.390625 
L 2.25 69.4375 
Q 9.671875 65.765625 14.59375 60.796875 
Q 21.578125 53.65625 25.390625 44.0625 
Q 29.203125 34.46875 29.203125 24.078125 
Q 29.203125 8.9375 21.75 -3.53125 
Q 14.3125 -16.015625 2.25 -21.390625 
L 2.25 -19.578125 
Q 8.25 -16.21875 12.125 -10.46875 
Q 16.015625 -4.734375 17.890625 4.125 
Q 19.78125 12.984375 19.78125 22.609375 
Q 19.78125 33.015625 18.171875 41.609375 
Q 16.9375 48.34375 15.109375 52.390625 
Q 13.28125 56.453125 10.25 60.203125 
Q 7.234375 63.96875 2.25 67.390625 
z
" id="TimesNewRomanPSMT-29"/>
     </defs>
     <g transform="translate(127.63125 78.866563)scale(0.1 -0.1)">
      <use xlink:href="#TimesNewRomanPSMT-78"/>
      <use x="50" xlink:href="#TimesNewRomanPSMT-20"/>
      <use x="75" xlink:href="#TimesNewRomanPSMT-28"/>
      <use x="108.300781" xlink:href="#TimesNewRomanPSMT-6d"/>
      <use x="186.083984" xlink:href="#TimesNewRomanPSMT-29"/>
     </g>
    </g>
   </g>
   <g id="matplotlib.axis_2">
    <g id="ytick_1">
     <g id="line2d_13">
      <path clip-path="url(#p4115a41a67)" d="M 37.8 44.346408 
L 239.4 44.346408 
" style="fill:none;stroke:#b0b0b0;stroke-dasharray:1.85,0.8;stroke-dashoffset:0;stroke-width:0.5;"/>
     </g>
     <g id="line2d_14">
      <defs>
       <path d="M 0 0 
L -3.5 0 
" id="md715060e5c" style="stroke:#000000;stroke-width:0.8;"/>
      </defs>
      <g>
       <use style="stroke:#000000;stroke-width:0.8;" x="37.8" xlink:href="#md715060e5c" y="44.346408"/>
      </g>
     </g>
     <g id="text_8">
      <!-- −5 -->
      <defs>
       <path d="M 54.4375 31.25 
L 1.8125 31.25 
L 1.8125 35.25 
L 54.4375 35.25 
z
" id="TimesNewRomanPSMT-2212"/>
       <path d="M 43.40625 66.21875 
L 39.59375 57.90625 
L 19.671875 57.90625 
L 15.328125 49.03125 
Q 28.265625 47.125 35.84375 39.40625 
Q 42.328125 32.765625 42.328125 23.78125 
Q 42.328125 18.5625 40.203125 14.109375 
Q 38.09375 9.671875 34.859375 6.546875 
Q 31.640625 3.421875 27.6875 1.515625 
Q 22.078125 -1.171875 16.15625 -1.171875 
Q 10.203125 -1.171875 7.484375 0.84375 
Q 4.78125 2.875 4.78125 5.328125 
Q 4.78125 6.6875 5.90625 7.734375 
Q 7.03125 8.796875 8.734375 8.796875 
Q 10.015625 8.796875 10.96875 8.40625 
Q 11.921875 8.015625 14.203125 6.390625 
Q 17.875 3.859375 21.625 3.859375 
Q 27.34375 3.859375 31.65625 8.171875 
Q 35.984375 12.5 35.984375 18.703125 
Q 35.984375 24.703125 32.125 29.90625 
Q 28.265625 35.109375 21.484375 37.9375 
Q 16.15625 40.140625 6.984375 40.484375 
L 19.671875 66.21875 
z
" id="TimesNewRomanPSMT-35"/>
      </defs>
      <g transform="translate(20.160937 47.818283)scale(0.1 -0.1)">
       <use xlink:href="#TimesNewRomanPSMT-2212"/>
       <use x="56.396484" xlink:href="#TimesNewRomanPSMT-35"/>
      </g>
     </g>
    </g>
    <g id="ytick_2">
     <g id="line2d_15">
      <path clip-path="url(#p4115a41a67)" d="M 37.8 34.56 
L 239.4 34.56 
" style="fill:none;stroke:#b0b0b0;stroke-dasharray:1.85,0.8;stroke-dashoffset:0;stroke-width:0.5;"/>
     </g>
     <g id="line2d_16">
      <g>
       <use style="stroke:#000000;stroke-width:0.8;" x="37.8" xlink:href="#md715060e5c" y="34.56"/>
      </g>
     </g>
     <g id="text_9">
      <!-- 0 -->
      <g transform="translate(25.8 38.031875)scale(0.1 -0.1)">
       <use xlink:href="#TimesNewRomanPSMT-30"/>
      </g>
     </g>
    </g>
    <g id="ytick_3">
     <g id="line2d_17">
      <path clip-path="url(#p4115a41a67)" d="M 37.8 24.773592 
L 239.4 24.773592 
" style="fill:none;stroke:#b0b0b0;stroke-dasharray:1.85,0.8;stroke-dashoffset:0;stroke-width:0.5;"/>
     </g>
     <g id="line2d_18">
      <g>
       <use style="stroke:#000000;stroke-width:0.8;" x="37.8" xlink:href="#md715060e5c" y="24.773592"/>
      </g>
     </g>
     <g id="text_10">
      <!-- 5 -->
      <g transform="translate(25.8 28.245467)scale(0.1 -0.1)">
       <use xlink:href="#TimesNewRomanPSMT-35"/>
      </g>
     </g>
    </g>
    <g id="text_11">
     <!-- y (m) -->
     <defs>
      <path d="M 0.59375 44.734375 
L 21.4375 44.734375 
L 21.4375 42.921875 
L 20.40625 42.921875 
Q 18.21875 42.921875 17.109375 41.96875 
Q 16.015625 41.015625 16.015625 39.59375 
Q 16.015625 37.703125 17.625 34.328125 
L 28.515625 11.765625 
L 38.53125 36.46875 
Q 39.359375 38.484375 39.359375 40.4375 
Q 39.359375 41.3125 39.015625 41.75 
Q 38.625 42.28125 37.796875 42.59375 
Q 36.96875 42.921875 34.859375 42.921875 
L 34.859375 44.734375 
L 49.421875 44.734375 
L 49.421875 42.921875 
Q 47.609375 42.71875 46.625 42.125 
Q 45.65625 41.546875 44.484375 39.9375 
Q 44.046875 39.265625 42.828125 36.1875 
L 24.609375 -8.453125 
Q 21.96875 -14.9375 17.6875 -18.25 
Q 13.421875 -21.578125 9.46875 -21.578125 
Q 6.59375 -21.578125 4.734375 -19.921875 
Q 2.875 -18.265625 2.875 -16.109375 
Q 2.875 -14.0625 4.21875 -12.8125 
Q 5.5625 -11.578125 7.90625 -11.578125 
Q 9.515625 -11.578125 12.3125 -12.640625 
Q 14.265625 -13.375 14.75 -13.375 
Q 16.21875 -13.375 17.9375 -11.859375 
Q 19.671875 -10.359375 21.4375 -6 
L 24.609375 1.765625 
L 8.546875 35.5 
Q 7.8125 37.015625 6.203125 39.265625 
Q 4.984375 40.96875 4.203125 41.546875 
Q 3.078125 42.328125 0.59375 42.921875 
z
" id="TimesNewRomanPSMT-79"/>
     </defs>
     <g transform="translate(14.003125 45.52875)rotate(-90)scale(0.1 -0.1)">
      <use xlink:href="#TimesNewRomanPSMT-79"/>
      <use x="50" xlink:href="#TimesNewRomanPSMT-20"/>
      <use x="75" xlink:href="#TimesNewRomanPSMT-28"/>
      <use x="108.300781" xlink:href="#TimesNewRomanPSMT-6d"/>
      <use x="186.083984" xlink:href="#TimesNewRomanPSMT-29"/>
     </g>
    </g>
   </g>
   <g id="line2d_19">
    <path clip-path="url(#p4115a41a67)" d="M 39.757282 27.220194 
L 235.485437 27.220194 
" style="fill:none;stroke:#000000;stroke-linecap:square;stroke-width:1.5;"/>
   </g>
   <g id="line2d_20">
    <path clip-path="url(#p4115a41a67)" d="M 39.757282 34.56 
L 235.485437 34.56 
" style="fill:none;stroke:#000000;stroke-dasharray:3.7,1.6;stroke-dashoffset:0;"/>
   </g>
   <g id="line2d_21">
    <path clip-path="url(#p4115a41a67)" d="M 39.757282 41.899806 
L 235.485437 41.899806 
" style="fill:none;stroke:#000000;stroke-linecap:square;stroke-width:1.5;"/>
   </g>
   <g id="line2d_22">
    <path clip-path="url(#p4115a41a67)" d="M 82.817476 36.71301 
L 82.817476 40.236117 
" style="fill:none;stroke:#000000;stroke-linecap:square;stroke-width:0.2;"/>
   </g>
   <g id="line2d_23">
    <path clip-path="url(#p4115a41a67)" d="M 82.817476 40.236117 
L 74.98835 40.236117 
" style="fill:none;stroke:#000000;stroke-linecap:square;stroke-width:0.2;"/>
   </g>
   <g id="line2d_24">
    <path clip-path="url(#p4115a41a67)" d="M 82.817476 36.71301 
L 74.98835 36.71301 
" style="fill:none;stroke:#000000;stroke-linecap:square;stroke-width:0.2;"/>
   </g>
   <g id="line2d_25">
    <path clip-path="url(#p4115a41a67)" d="M 74.98835 36.71301 
L 74.98835 40.236117 
" style="fill:none;stroke:#000000;stroke-linecap:square;stroke-width:0.2;"/>
   </g>
   <g id="line2d_26">
    <path clip-path="url(#p4115a41a67)" d="M 121.963107 28.883883 
L 121.963107 32.40699 
" style="fill:none;stroke:#000000;stroke-linecap:square;stroke-width:0.2;"/>
   </g>
   <g id="line2d_27">
    <path clip-path="url(#p4115a41a67)" d="M 121.963107 32.40699 
L 114.133981 32.40699 
" style="fill:none;stroke:#000000;stroke-linecap:square;stroke-width:0.2;"/>
   </g>
   <g id="line2d_28">
    <path clip-path="url(#p4115a41a67)" d="M 121.963107 28.883883 
L 114.133981 28.883883 
" style="fill:none;stroke:#000000;stroke-linecap:square;stroke-width:0.2;"/>
   </g>
   <g id="line2d_29">
    <path clip-path="url(#p4115a41a67)" d="M 114.133981 28.883883 
L 114.133981 32.40699 
" style="fill:none;stroke:#000000;stroke-linecap:square;stroke-width:0.2;"/>
   </g>
   <g id="line2d_30">
    <path clip-path="url(#p4115a41a67)" d="M 180.681553 36.71301 
L 180.681553 40.236117 
" style="fill:none;stroke:#000000;stroke-linecap:square;stroke-width:0.2;"/>
   </g>
   <g id="line2d_31">
    <path clip-path="url(#p4115a41a67)" d="M 180.681553 40.236117 
L 172.852427 40.236117 
" style="fill:none;stroke:#000000;stroke-linecap:square;stroke-width:0.2;"/>
   </g>
   <g id="line2d_32">
    <path clip-path="url(#p4115a41a67)" d="M 180.681553 36.71301 
L 172.852427 36.71301 
" style="fill:none;stroke:#000000;stroke-linecap:square;stroke-width:0.2;"/>
   </g>
   <g id="line2d_33">
    <path clip-path="url(#p4115a41a67)" d="M 172.852427 36.71301 
L 172.852427 40.236117 
" style="fill:none;stroke:#000000;stroke-linecap:square;stroke-width:0.2;"/>
   </g>
   <g id="line2d_34">
    <path clip-path="url(#p4115a41a67)" d="M 39.757282 38.229903 
L 41.714563 38.229903 
L 43.671845 38.229903 
L 45.629126 38.229903 
L 47.586408 38.229903 
L 49.543689 38.229903 
L 51.500971 38.229903 
L 53.458252 38.229903 
L 55.415534 38.229903 
L 57.372816 38.229903 
L 59.330097 38.229903 
L 61.287379 38.229903 
L 63.24466 38.229903 
L 65.201942 38.229903 
L 67.159223 38.229903 
L 69.116505 38.229903 
L 71.073786 38.229903 
L 73.031068 38.229903 
L 74.98835 38.229903 
L 76.945631 38.229903 
L 78.902913 38.229903 
L 80.860194 38.229903 
L 82.817476 38.229903 
L 84.774757 38.229903 
L 86.732039 38.229903 
L 88.68932 38.229903 
L 90.646602 38.229903 
L 92.603883 38.229903 
L 94.561165 38.229903 
L 96.518447 38.229903 
L 98.475728 38.229903 
L 100.43301 38.229903 
L 102.390291 38.229903 
L 104.347573 38.229903 
L 106.304854 38.229903 
L 108.262136 38.229903 
L 110.219417 38.229903 
L 112.176699 38.229903 
L 114.133981 38.229903 
L 116.091262 38.229903 
L 118.048544 38.229903 
L 120.005825 38.229903 
L 121.963107 38.229903 
L 123.920388 38.229903 
L 125.87767 38.229903 
L 127.834951 38.229903 
L 129.792233 38.229903 
L 131.749515 38.229903 
L 133.706796 38.229903 
L 135.664078 38.229903 
L 137.621359 38.229903 
L 139.578641 38.229903 
L 141.535922 38.229903 
L 143.493204 38.229903 
L 145.450485 38.229903 
L 147.407767 38.229903 
L 149.365049 38.229903 
L 151.32233 38.229903 
L 153.279612 38.229903 
L 155.236893 38.229903 
L 157.194175 38.229903 
L 159.151456 38.229903 
L 161.108738 38.229903 
L 163.066019 38.229903 
L 165.023301 38.229903 
L 166.980583 38.229903 
L 168.937864 38.229903 
L 170.895146 38.229903 
L 172.852427 38.229903 
L 174.809709 38.229903 
L 176.76699 38.229903 
L 178.724272 38.229903 
L 180.681553 38.229903 
L 182.638835 38.229903 
L 184.596117 38.229903 
L 186.553398 38.229903 
L 188.51068 38.229903 
L 190.467961 38.229903 
L 192.425243 38.229903 
L 194.382524 38.229903 
L 196.339806 38.229903 
L 198.297087 38.229903 
L 200.254369 38.229903 
L 202.21165 38.229903 
L 204.168932 38.229903 
L 206.126214 38.229903 
L 208.083495 38.229903 
L 210.040777 38.229903 
L 211.998058 38.229903 
L 213.95534 38.229903 
L 215.912621 38.229903 
L 217.869903 38.229903 
L 219.827184 38.229903 
L 221.784466 38.229903 
L 223.741748 38.229903 
L 225.699029 38.229903 
L 227.656311 38.229903 
L 229.613592 38.229903 
L 231.570874 38.229903 
L 233.528155 38.229903 
" style="fill:none;stroke:#008000;stroke-dasharray:4.44,1.92;stroke-dashoffset:0;stroke-width:1.2;"/>
   </g>
   <g id="line2d_35">
    <path clip-path="url(#p4115a41a67)" d="M 39.757282 38.474563 
L 43.476117 38.36288 
L 47.586408 38.016559 
L 52.67534 37.352339 
L 60.895922 36.008952 
L 68.725049 34.808982 
L 73.422524 34.305459 
L 77.532816 34.086486 
L 81.25165 34.111266 
L 85.55767 34.371608 
L 90.646602 34.916225 
L 98.084272 35.969251 
L 107.87068 37.328974 
L 112.959612 37.803975 
L 117.265631 37.980608 
L 121.180194 37.914092 
L 125.486214 37.614996 
L 130.770874 37.013575 
L 139.382913 35.764442 
L 147.407767 34.68233 
L 152.300971 34.238883 
L 156.411262 34.075314 
L 167.567767 34.07068 
L 200.254369 34.180287 
L 204.756117 34.535723 
L 210.236505 35.200412 
L 229.417864 37.732255 
L 233.723883 37.962175 
L 235.289709 37.98495 
L 235.289709 37.98495 
" style="fill:none;stroke:#0000ff;stroke-linecap:square;stroke-width:0.8;"/>
   </g>
   <g id="line2d_36">
    <path clip-path="url(#p4115a41a67)" d="M 41.714563 38.229903 
L 43.671845 38.229903 
L 45.629126 38.177175 
L 47.586408 38.072056 
L 49.543689 37.914526 
L 51.500971 37.703971 
L 53.458252 37.439336 
L 55.415534 37.119606 
L 57.372816 36.744563 
L 59.330097 36.31579 
L 61.287379 35.837842 
L 63.24466 35.319512 
L 65.201942 34.775061 
L 67.159223 34.225194 
L 69.116505 33.697492 
L 71.073786 33.225858 
L 73.031068 32.848369 
L 74.98835 32.602718 
L 76.945631 32.51818 
L 78.902913 32.602718 
L 80.860194 32.846507 
L 82.817476 33.219125 
L 84.774757 33.682214 
L 86.732039 34.197363 
L 88.68932 34.730578 
L 90.646602 35.254396 
L 92.603883 35.748461 
L 94.561165 36.199147 
L 96.518447 36.598672 
L 98.475728 36.943983 
L 100.43301 37.235616 
L 102.390291 37.476636 
L 104.347573 37.671724 
L 106.304854 37.82644 
L 108.262136 37.946654 
L 110.219417 38.038126 
L 112.176699 38.10623 
L 114.133981 38.155777 
L 116.091262 38.19092 
L 118.048544 38.215122 
L 120.005825 38.231156 
L 121.963107 38.241131 
L 123.920388 38.24652 
L 125.87767 38.248191 
L 127.834951 38.24643 
L 129.792233 38.240942 
L 131.749515 38.230849 
L 133.706796 38.214668 
L 135.664078 38.190281 
L 137.621359 38.154907 
L 139.578641 38.105074 
L 141.535922 38.036621 
L 143.493204 37.944735 
L 145.450485 37.824041 
L 147.407767 37.668782 
L 149.365049 37.473102 
L 151.32233 37.23146 
L 153.279612 36.939205 
L 155.236893 36.593315 
L 157.194175 36.193311 
L 159.151456 35.74231 
L 161.108738 35.248168 
L 163.066019 34.724583 
L 165.023301 34.191971 
L 166.980583 33.677822 
L 168.937864 33.216091 
L 170.895146 32.845042 
L 172.852427 32.602718 
L 174.809709 32.518975 
L 176.76699 32.602718 
L 178.724272 32.845056 
L 180.681553 33.216138 
L 182.638835 33.677928 
L 184.596117 34.192161 
L 186.553398 34.724879 
L 188.51068 35.248593 
L 190.467961 35.742878 
L 192.425243 36.194029 
L 194.382524 36.594179 
L 196.339806 36.940196 
L 198.297087 37.232539 
L 200.254369 37.474205 
L 202.21165 37.669817 
L 204.168932 37.82488 
L 206.126214 37.945212 
L 208.083495 38.036533 
L 210.040777 38.104185 
L 211.998058 38.15296 
L 213.95534 38.187025 
L 215.912621 38.209893 
L 217.869903 38.224453 
L 219.827184 38.233017 
L 221.784466 38.23739 
L 223.741748 38.238939 
L 225.699029 38.238673 
L 227.656311 38.237303 
L 229.613592 38.235313 
L 231.570874 38.233008 
L 233.528155 38.230564 
L 235.485437 38.228067 
L 237.442718 38.225546 
L 239.4 38.223005 
L 241.357282 38.220442 
" style="fill:none;stroke:#00ffff;stroke-linecap:square;"/>
   </g>
   <g id="line2d_37">
    <path clip-path="url(#p4115a41a67)" d="M 43.671845 36.46835 
L 43.671845 39.991456 
" style="fill:none;stroke:#000000;stroke-linecap:square;stroke-width:0.2;"/>
   </g>
   <g id="line2d_38">
    <path clip-path="url(#p4115a41a67)" d="M 43.671845 39.991456 
L 35.842718 39.991456 
" style="fill:none;stroke:#000000;stroke-linecap:square;stroke-width:0.2;"/>
   </g>
   <g id="line2d_39">
    <path clip-path="url(#p4115a41a67)" d="M 43.671845 36.46835 
L 35.842718 36.46835 
" style="fill:none;stroke:#000000;stroke-linecap:square;stroke-width:0.2;"/>
   </g>
   <g id="line2d_40">
    <path clip-path="url(#p4115a41a67)" d="M 35.842718 36.46835 
L 35.842718 39.991456 
" style="fill:none;stroke:#000000;stroke-linecap:square;stroke-width:0.2;"/>
   </g>
   <g id="line2d_41">
    <path clip-path="url(#p4115a41a67)" d="M 82.817476 36.71301 
L 82.817476 40.236117 
" style="fill:none;stroke:#000000;stroke-linecap:square;stroke-width:0.2;"/>
   </g>
   <g id="line2d_42">
    <path clip-path="url(#p4115a41a67)" d="M 82.817476 40.236117 
L 74.98835 40.236117 
" style="fill:none;stroke:#000000;stroke-linecap:square;stroke-width:0.2;"/>
   </g>
   <g id="line2d_43">
    <path clip-path="url(#p4115a41a67)" d="M 82.817476 36.71301 
L 74.98835 36.71301 
" style="fill:none;stroke:#000000;stroke-linecap:square;stroke-width:0.2;"/>
   </g>
   <g id="line2d_44">
    <path clip-path="url(#p4115a41a67)" d="M 74.98835 36.71301 
L 74.98835 40.236117 
" style="fill:none;stroke:#000000;stroke-linecap:square;stroke-width:0.2;"/>
   </g>
   <g id="line2d_45">
    <path clip-path="url(#p4115a41a67)" d="M 121.963107 28.883883 
L 121.963107 32.40699 
" style="fill:none;stroke:#000000;stroke-linecap:square;stroke-width:0.2;"/>
   </g>
   <g id="line2d_46">
    <path clip-path="url(#p4115a41a67)" d="M 121.963107 32.40699 
L 114.133981 32.40699 
" style="fill:none;stroke:#000000;stroke-linecap:square;stroke-width:0.2;"/>
   </g>
   <g id="line2d_47">
    <path clip-path="url(#p4115a41a67)" d="M 121.963107 28.883883 
L 114.133981 28.883883 
" style="fill:none;stroke:#000000;stroke-linecap:square;stroke-width:0.2;"/>
   </g>
   <g id="line2d_48">
    <path clip-path="url(#p4115a41a67)" d="M 114.133981 28.883883 
L 114.133981 32.40699 
" style="fill:none;stroke:#000000;stroke-linecap:square;stroke-width:0.2;"/>
   </g>
   <g id="line2d_49">
    <path clip-path="url(#p4115a41a67)" d="M 180.681553 36.71301 
L 180.681553 40.236117 
" style="fill:none;stroke:#000000;stroke-linecap:square;stroke-width:0.2;"/>
   </g>
   <g id="line2d_50">
    <path clip-path="url(#p4115a41a67)" d="M 180.681553 40.236117 
L 172.852427 40.236117 
" style="fill:none;stroke:#000000;stroke-linecap:square;stroke-width:0.2;"/>
   </g>
   <g id="line2d_51">
    <path clip-path="url(#p4115a41a67)" d="M 180.681553 36.71301 
L 172.852427 36.71301 
" style="fill:none;stroke:#000000;stroke-linecap:square;stroke-width:0.2;"/>
   </g>
   <g id="line2d_52">
    <path clip-path="url(#p4115a41a67)" d="M 172.852427 36.71301 
L 172.852427 40.236117 
" style="fill:none;stroke:#000000;stroke-linecap:square;stroke-width:0.2;"/>
   </g>
   <g id="patch_10">
    <path d="M 37.8 51.84 
L 37.8 17.28 
" style="fill:none;stroke:#000000;stroke-linecap:square;stroke-linejoin:miter;stroke-width:0.8;"/>
   </g>
   <g id="patch_11">
    <path d="M 239.4 51.84 
L 239.4 17.28 
" style="fill:none;stroke:#000000;stroke-linecap:square;stroke-linejoin:miter;stroke-width:0.8;"/>
   </g>
   <g id="patch_12">
    <path d="M 37.8 51.84 
L 239.4 51.84 
" style="fill:none;stroke:#000000;stroke-linecap:square;stroke-linejoin:miter;stroke-width:0.8;"/>
   </g>
   <g id="patch_13">
    <path d="M 37.8 17.28 
L 239.4 17.28 
" style="fill:none;stroke:#000000;stroke-linecap:square;stroke-linejoin:miter;stroke-width:0.8;"/>
   </g>
   <g id="text_12">
    <!-- x-y Graph -->
    <defs>
     <path d="M 4.046875 26.125 
L 29.296875 26.125 
L 29.296875 18.75 
L 4.046875 18.75 
z
" id="TimesNewRomanPSMT-2d"/>
     <path d="M 61.375 67.71875 
L 63.09375 46.828125 
L 61.375 46.828125 
Q 58.796875 54.640625 54.6875 58.59375 
Q 48.78125 64.3125 39.5 64.3125 
Q 26.859375 64.3125 20.265625 54.296875 
Q 14.75 45.84375 14.75 34.1875 
Q 14.75 24.703125 18.40625 16.890625 
Q 22.078125 9.078125 28 5.4375 
Q 33.9375 1.8125 40.1875 1.8125 
Q 43.84375 1.8125 47.265625 2.734375 
Q 50.6875 3.65625 53.859375 5.46875 
L 53.859375 24.609375 
Q 53.859375 29.59375 53.09375 31.125 
Q 52.34375 32.671875 50.75 33.46875 
Q 49.171875 34.28125 45.171875 34.28125 
L 45.171875 36.140625 
L 70.796875 36.140625 
L 70.796875 34.28125 
L 69.578125 34.28125 
Q 65.765625 34.28125 64.359375 31.734375 
Q 63.375 29.9375 63.375 24.609375 
L 63.375 4.34375 
Q 57.765625 1.3125 52.296875 -0.09375 
Q 46.828125 -1.515625 40.140625 -1.515625 
Q 20.953125 -1.515625 10.984375 10.796875 
Q 3.515625 20.015625 3.515625 32.078125 
Q 3.515625 40.828125 7.71875 48.828125 
Q 12.703125 58.34375 21.390625 63.484375 
Q 28.65625 67.71875 38.578125 67.71875 
Q 42.1875 67.71875 45.140625 67.125 
Q 48.09375 66.546875 53.515625 64.546875 
Q 56.25 63.53125 57.171875 63.53125 
Q 58.109375 63.53125 58.765625 64.375 
Q 59.421875 65.234375 59.578125 67.71875 
z
" id="TimesNewRomanPSMT-47"/>
     <path d="M 16.21875 46.046875 
L 16.21875 35.984375 
Q 21.828125 46.046875 27.734375 46.046875 
Q 30.421875 46.046875 32.171875 44.40625 
Q 33.9375 42.78125 33.9375 40.625 
Q 33.9375 38.71875 32.65625 37.390625 
Q 31.390625 36.078125 29.640625 36.078125 
Q 27.9375 36.078125 25.8125 37.765625 
Q 23.6875 39.453125 22.65625 39.453125 
Q 21.78125 39.453125 20.75 38.484375 
Q 18.5625 36.46875 16.21875 31.890625 
L 16.21875 10.453125 
Q 16.21875 6.734375 17.140625 4.828125 
Q 17.78125 3.515625 19.390625 2.640625 
Q 21 1.765625 24.03125 1.765625 
L 24.03125 0 
L 1.125 0 
L 1.125 1.765625 
Q 4.546875 1.765625 6.203125 2.828125 
Q 7.421875 3.609375 7.90625 5.328125 
Q 8.15625 6.15625 8.15625 10.0625 
L 8.15625 27.390625 
Q 8.15625 35.203125 7.828125 36.6875 
Q 7.515625 38.1875 6.65625 38.859375 
Q 5.8125 39.546875 4.546875 39.546875 
Q 3.03125 39.546875 1.125 38.8125 
L 0.640625 40.578125 
L 14.15625 46.046875 
z
" id="TimesNewRomanPSMT-72"/>
     <path d="M 28.46875 6.453125 
Q 21.578125 1.125 19.828125 0.296875 
Q 17.1875 -0.921875 14.203125 -0.921875 
Q 9.578125 -0.921875 6.5625 2.25 
Q 3.5625 5.421875 3.5625 10.59375 
Q 3.5625 13.875 5.03125 16.265625 
Q 7.03125 19.578125 11.984375 22.5 
Q 16.9375 25.4375 28.46875 29.640625 
L 28.46875 31.390625 
Q 28.46875 38.09375 26.34375 40.578125 
Q 24.21875 43.0625 20.171875 43.0625 
Q 17.09375 43.0625 15.28125 41.40625 
Q 13.421875 39.75 13.421875 37.59375 
L 13.53125 34.765625 
Q 13.53125 32.515625 12.375 31.296875 
Q 11.234375 30.078125 9.375 30.078125 
Q 7.5625 30.078125 6.421875 31.34375 
Q 5.28125 32.625 5.28125 34.8125 
Q 5.28125 39.015625 9.578125 42.53125 
Q 13.875 46.046875 21.625 46.046875 
Q 27.59375 46.046875 31.390625 44.046875 
Q 34.28125 42.53125 35.640625 39.3125 
Q 36.53125 37.203125 36.53125 30.71875 
L 36.53125 15.53125 
Q 36.53125 9.125 36.765625 7.6875 
Q 37.015625 6.25 37.578125 5.765625 
Q 38.140625 5.28125 38.875 5.28125 
Q 39.65625 5.28125 40.234375 5.609375 
Q 41.265625 6.25 44.1875 9.1875 
L 44.1875 6.453125 
Q 38.71875 -0.875 33.734375 -0.875 
Q 31.34375 -0.875 29.921875 0.78125 
Q 28.515625 2.4375 28.46875 6.453125 
z
M 28.46875 9.625 
L 28.46875 26.65625 
Q 21.09375 23.734375 18.953125 22.515625 
Q 15.09375 20.359375 13.421875 18.015625 
Q 11.765625 15.671875 11.765625 12.890625 
Q 11.765625 9.375 13.859375 7.046875 
Q 15.96875 4.734375 18.703125 4.734375 
Q 22.40625 4.734375 28.46875 9.625 
z
" id="TimesNewRomanPSMT-61"/>
     <path d="M -0.09375 40.28125 
L 13.671875 45.84375 
L 15.53125 45.84375 
L 15.53125 35.40625 
Q 19 41.3125 22.484375 43.671875 
Q 25.984375 46.046875 29.828125 46.046875 
Q 36.578125 46.046875 41.0625 40.765625 
Q 46.578125 34.328125 46.578125 23.96875 
Q 46.578125 12.40625 39.9375 4.828125 
Q 34.46875 -1.375 26.171875 -1.375 
Q 22.5625 -1.375 19.921875 -0.34375 
Q 17.96875 0.390625 15.53125 2.59375 
L 15.53125 -11.03125 
Q 15.53125 -15.625 16.09375 -16.859375 
Q 16.65625 -18.109375 18.046875 -18.84375 
Q 19.4375 -19.578125 23.09375 -19.578125 
L 23.09375 -21.390625 
L -0.34375 -21.390625 
L -0.34375 -19.578125 
L 0.875 -19.578125 
Q 3.5625 -19.625 5.46875 -18.5625 
Q 6.390625 -18.015625 6.90625 -16.8125 
Q 7.421875 -15.625 7.421875 -10.75 
L 7.421875 31.546875 
Q 7.421875 35.890625 7.03125 37.0625 
Q 6.640625 38.234375 5.78125 38.8125 
Q 4.9375 39.40625 3.46875 39.40625 
Q 2.296875 39.40625 0.484375 38.71875 
z
M 15.53125 32.515625 
L 15.53125 15.828125 
Q 15.53125 10.40625 15.96875 8.6875 
Q 16.65625 5.859375 19.3125 3.703125 
Q 21.96875 1.5625 26.03125 1.5625 
Q 30.90625 1.5625 33.9375 5.375 
Q 37.890625 10.359375 37.890625 19.390625 
Q 37.890625 29.640625 33.40625 35.15625 
Q 30.28125 38.96875 25.984375 38.96875 
Q 23.640625 38.96875 21.34375 37.796875 
Q 19.578125 36.921875 15.53125 32.515625 
z
" id="TimesNewRomanPSMT-70"/>
     <path d="M 16.265625 69.4375 
L 16.265625 36.71875 
Q 21.6875 42.671875 24.859375 44.359375 
Q 28.03125 46.046875 31.203125 46.046875 
Q 35.015625 46.046875 37.75 43.9375 
Q 40.484375 41.84375 41.796875 37.359375 
Q 42.71875 34.234375 42.71875 25.921875 
L 42.71875 10.109375 
Q 42.71875 5.859375 43.40625 4.296875 
Q 43.890625 3.125 45.0625 2.4375 
Q 46.234375 1.765625 49.359375 1.765625 
L 49.359375 0 
L 27.390625 0 
L 27.390625 1.765625 
L 28.421875 1.765625 
Q 31.546875 1.765625 32.765625 2.703125 
Q 33.984375 3.65625 34.46875 5.515625 
Q 34.625 6.296875 34.625 10.109375 
L 34.625 25.921875 
Q 34.625 33.25 33.859375 35.546875 
Q 33.109375 37.84375 31.4375 38.984375 
Q 29.78125 40.140625 27.4375 40.140625 
Q 25.046875 40.140625 22.453125 38.859375 
Q 19.875 37.59375 16.265625 33.734375 
L 16.265625 10.109375 
Q 16.265625 5.515625 16.765625 4.390625 
Q 17.28125 3.265625 18.671875 2.515625 
Q 20.0625 1.765625 23.484375 1.765625 
L 23.484375 0 
L 1.3125 0 
L 1.3125 1.765625 
Q 4.296875 1.765625 6 2.6875 
Q 6.984375 3.171875 7.5625 4.53125 
Q 8.15625 5.90625 8.15625 10.109375 
L 8.15625 50.59375 
Q 8.15625 58.25 7.78125 60 
Q 7.421875 61.765625 6.65625 62.390625 
Q 5.90625 63.03125 4.640625 63.03125 
Q 3.609375 63.03125 1.3125 62.25 
L 0.640625 63.96875 
L 14.015625 69.4375 
z
" id="TimesNewRomanPSMT-68"/>
    </defs>
    <g transform="translate(118.189844 11.28)scale(0.1 -0.1)">
     <use xlink:href="#TimesNewRomanPSMT-78"/>
     <use x="50" xlink:href="#TimesNewRomanPSMT-2d"/>
     <use x="83.300781" xlink:href="#TimesNewRomanPSMT-79"/>
     <use x="133.300781" xlink:href="#TimesNewRomanPSMT-20"/>
     <use x="158.300781" xlink:href="#TimesNewRomanPSMT-47"/>
     <use x="230.517578" xlink:href="#TimesNewRomanPSMT-72"/>
     <use x="263.818359" xlink:href="#TimesNewRomanPSMT-61"/>
     <use x="308.203125" xlink:href="#TimesNewRomanPSMT-70"/>
     <use x="358.203125" xlink:href="#TimesNewRomanPSMT-68"/>
    </g>
   </g>
  </g>
 </g>
 <defs>
  <clipPath id="p4115a41a67">
   <rect height="34.56" width="201.6" x="37.8" y="17.28"/>
  </clipPath>
 </defs>
</svg>
