<?xml version="1.0" encoding="utf-8" standalone="no"?>
<!DOCTYPE svg PUBLIC "-//W3C//DTD SVG 1.1//EN"
  "http://www.w3.org/Graphics/SVG/1.1/DTD/svg11.dtd">
<!-- Created with matplotlib (http://matplotlib.org/) -->
<svg height="129pt" version="1.1" viewBox="0 0 252 129" width="252pt" xmlns="http://www.w3.org/2000/svg" xmlns:xlink="http://www.w3.org/1999/xlink">
 <defs>
  <style type="text/css">
*{stroke-linecap:butt;stroke-linejoin:round;}
  </style>
 </defs>
 <g id="figure_1">
  <g id="patch_1">
   <path d="M 0 129.6 
L 252 129.6 
L 252 0 
L 0 0 
z
" style="fill:#ffffff;"/>
  </g>
  <g id="axes_1">
   <g id="patch_2">
    <path d="M 50.4 97.2 
L 226.8 97.2 
L 226.8 19.44 
L 50.4 19.44 
z
" style="fill:#ffffff;"/>
   </g>
   <g id="matplotlib.axis_1">
    <g id="xtick_1">
     <g id="line2d_1">
      <path clip-path="url(#p65449f797b)" d="M 65.1 97.2 
L 65.1 19.44 
" style="fill:none;stroke:#b0b0b0;stroke-dasharray:1.85,0.8;stroke-dashoffset:0;stroke-width:0.5;"/>
     </g>
     <g id="line2d_2">
      <defs>
       <path d="M 0 0 
L 0 3.5 
" id="mfa3fcb68cb" style="stroke:#000000;stroke-width:0.8;"/>
      </defs>
      <g>
       <use style="stroke:#000000;stroke-width:0.8;" x="65.1" xlink:href="#mfa3fcb68cb" y="97.2"/>
      </g>
     </g>
     <g id="text_1">
      <!-- 100 -->
      <defs>
       <path d="M 11.71875 59.71875 
L 27.828125 67.578125 
L 29.4375 67.578125 
L 29.4375 11.671875 
Q 29.4375 6.109375 29.90625 4.734375 
Q 30.375 3.375 31.828125 2.640625 
Q 33.296875 1.90625 37.796875 1.8125 
L 37.796875 0 
L 12.890625 0 
L 12.890625 1.8125 
Q 17.578125 1.90625 18.9375 2.609375 
Q 20.3125 3.328125 20.84375 4.515625 
Q 21.390625 5.71875 21.390625 11.671875 
L 21.390625 47.40625 
Q 21.390625 54.640625 20.90625 56.6875 
Q 20.5625 58.25 19.65625 58.984375 
Q 18.75 59.71875 17.484375 59.71875 
Q 15.671875 59.71875 12.453125 58.203125 
z
" id="TimesNewRomanPSMT-31"/>
       <path d="M 3.609375 32.71875 
Q 3.609375 44.046875 7.03125 52.21875 
Q 10.453125 60.40625 16.109375 64.40625 
Q 20.515625 67.578125 25.203125 67.578125 
Q 32.8125 67.578125 38.875 59.8125 
Q 46.4375 50.203125 46.4375 33.734375 
Q 46.4375 22.21875 43.109375 14.15625 
Q 39.796875 6.109375 34.640625 2.46875 
Q 29.5 -1.171875 24.703125 -1.171875 
Q 15.234375 -1.171875 8.9375 10.015625 
Q 3.609375 19.4375 3.609375 32.71875 
z
M 13.1875 31.5 
Q 13.1875 17.828125 16.546875 9.1875 
Q 19.34375 1.90625 24.859375 1.90625 
Q 27.484375 1.90625 30.3125 4.265625 
Q 33.15625 6.640625 34.625 12.203125 
Q 36.859375 20.609375 36.859375 35.890625 
Q 36.859375 47.21875 34.515625 54.78125 
Q 32.765625 60.40625 29.984375 62.75 
Q 27.984375 64.359375 25.140625 64.359375 
Q 21.828125 64.359375 19.234375 61.375 
Q 15.71875 57.328125 14.453125 48.625 
Q 13.1875 39.9375 13.1875 31.5 
z
" id="TimesNewRomanPSMT-30"/>
      </defs>
      <g transform="translate(57.6 111.14375)scale(0.1 -0.1)">
       <use xlink:href="#TimesNewRomanPSMT-31"/>
       <use x="50" xlink:href="#TimesNewRomanPSMT-30"/>
       <use x="100" xlink:href="#TimesNewRomanPSMT-30"/>
      </g>
     </g>
    </g>
    <g id="xtick_2">
     <g id="line2d_3">
      <path clip-path="url(#p65449f797b)" d="M 101.85 97.2 
L 101.85 19.44 
" style="fill:none;stroke:#b0b0b0;stroke-dasharray:1.85,0.8;stroke-dashoffset:0;stroke-width:0.5;"/>
     </g>
     <g id="line2d_4">
      <g>
       <use style="stroke:#000000;stroke-width:0.8;" x="101.85" xlink:href="#mfa3fcb68cb" y="97.2"/>
      </g>
     </g>
     <g id="text_2">
      <!-- 125 -->
      <defs>
       <path d="M 45.84375 12.75 
L 41.21875 0 
L 2.15625 0 
L 2.15625 1.8125 
Q 19.390625 17.53125 26.421875 27.484375 
Q 33.453125 37.453125 33.453125 45.703125 
Q 33.453125 52 29.59375 56.046875 
Q 25.734375 60.109375 20.359375 60.109375 
Q 15.484375 60.109375 11.59375 57.25 
Q 7.71875 54.390625 5.859375 48.875 
L 4.046875 48.875 
Q 5.28125 57.90625 10.328125 62.734375 
Q 15.375 67.578125 22.953125 67.578125 
Q 31 67.578125 36.390625 62.40625 
Q 41.796875 57.234375 41.796875 50.203125 
Q 41.796875 45.171875 39.453125 40.140625 
Q 35.84375 32.234375 27.734375 23.390625 
Q 15.578125 10.109375 12.546875 7.375 
L 29.828125 7.375 
Q 35.109375 7.375 37.234375 7.765625 
Q 39.359375 8.15625 41.0625 9.34375 
Q 42.78125 10.546875 44.046875 12.75 
z
" id="TimesNewRomanPSMT-32"/>
       <path d="M 43.40625 66.21875 
L 39.59375 57.90625 
L 19.671875 57.90625 
L 15.328125 49.03125 
Q 28.265625 47.125 35.84375 39.40625 
Q 42.328125 32.765625 42.328125 23.78125 
Q 42.328125 18.5625 40.203125 14.109375 
Q 38.09375 9.671875 34.859375 6.546875 
Q 31.640625 3.421875 27.6875 1.515625 
Q 22.078125 -1.171875 16.15625 -1.171875 
Q 10.203125 -1.171875 7.484375 0.84375 
Q 4.78125 2.875 4.78125 5.328125 
Q 4.78125 6.6875 5.90625 7.734375 
Q 7.03125 8.796875 8.734375 8.796875 
Q 10.015625 8.796875 10.96875 8.40625 
Q 11.921875 8.015625 14.203125 6.390625 
Q 17.875 3.859375 21.625 3.859375 
Q 27.34375 3.859375 31.65625 8.171875 
Q 35.984375 12.5 35.984375 18.703125 
Q 35.984375 24.703125 32.125 29.90625 
Q 28.265625 35.109375 21.484375 37.9375 
Q 16.15625 40.140625 6.984375 40.484375 
L 19.671875 66.21875 
z
" id="TimesNewRomanPSMT-35"/>
      </defs>
      <g transform="translate(94.35 111.14375)scale(0.1 -0.1)">
       <use xlink:href="#TimesNewRomanPSMT-31"/>
       <use x="50" xlink:href="#TimesNewRomanPSMT-32"/>
       <use x="100" xlink:href="#TimesNewRomanPSMT-35"/>
      </g>
     </g>
    </g>
    <g id="xtick_3">
     <g id="line2d_5">
      <path clip-path="url(#p65449f797b)" d="M 138.6 97.2 
L 138.6 19.44 
" style="fill:none;stroke:#b0b0b0;stroke-dasharray:1.85,0.8;stroke-dashoffset:0;stroke-width:0.5;"/>
     </g>
     <g id="line2d_6">
      <g>
       <use style="stroke:#000000;stroke-width:0.8;" x="138.6" xlink:href="#mfa3fcb68cb" y="97.2"/>
      </g>
     </g>
     <g id="text_3">
      <!-- 150 -->
      <g transform="translate(131.1 111.14375)scale(0.1 -0.1)">
       <use xlink:href="#TimesNewRomanPSMT-31"/>
       <use x="50" xlink:href="#TimesNewRomanPSMT-35"/>
       <use x="100" xlink:href="#TimesNewRomanPSMT-30"/>
      </g>
     </g>
    </g>
    <g id="xtick_4">
     <g id="line2d_7">
      <path clip-path="url(#p65449f797b)" d="M 175.35 97.2 
L 175.35 19.44 
" style="fill:none;stroke:#b0b0b0;stroke-dasharray:1.85,0.8;stroke-dashoffset:0;stroke-width:0.5;"/>
     </g>
     <g id="line2d_8">
      <g>
       <use style="stroke:#000000;stroke-width:0.8;" x="175.35" xlink:href="#mfa3fcb68cb" y="97.2"/>
      </g>
     </g>
     <g id="text_4">
      <!-- 175 -->
      <defs>
       <path d="M 10.0625 66.21875 
L 45.5625 66.21875 
L 45.5625 64.359375 
L 23.484375 -1.375 
L 18.015625 -1.375 
L 37.796875 58.25 
L 19.578125 58.25 
Q 14.0625 58.25 11.71875 56.9375 
Q 7.625 54.6875 5.125 50 
L 3.71875 50.53125 
z
" id="TimesNewRomanPSMT-37"/>
      </defs>
      <g transform="translate(167.85 111.14375)scale(0.1 -0.1)">
       <use xlink:href="#TimesNewRomanPSMT-31"/>
       <use x="50" xlink:href="#TimesNewRomanPSMT-37"/>
       <use x="100" xlink:href="#TimesNewRomanPSMT-35"/>
      </g>
     </g>
    </g>
    <g id="xtick_5">
     <g id="line2d_9">
      <path clip-path="url(#p65449f797b)" d="M 212.1 97.2 
L 212.1 19.44 
" style="fill:none;stroke:#b0b0b0;stroke-dasharray:1.85,0.8;stroke-dashoffset:0;stroke-width:0.5;"/>
     </g>
     <g id="line2d_10">
      <g>
       <use style="stroke:#000000;stroke-width:0.8;" x="212.1" xlink:href="#mfa3fcb68cb" y="97.2"/>
      </g>
     </g>
     <g id="text_5">
      <!-- 200 -->
      <g transform="translate(204.6 111.14375)scale(0.1 -0.1)">
       <use xlink:href="#TimesNewRomanPSMT-32"/>
       <use x="50" xlink:href="#TimesNewRomanPSMT-30"/>
       <use x="100" xlink:href="#TimesNewRomanPSMT-30"/>
      </g>
     </g>
    </g>
    <g id="text_6">
     <!-- s (m) -->
     <defs>
      <path d="M 32.03125 46.046875 
L 32.03125 30.8125 
L 30.421875 30.8125 
Q 28.5625 37.984375 25.65625 40.578125 
Q 22.75 43.171875 18.265625 43.171875 
Q 14.84375 43.171875 12.734375 41.359375 
Q 10.640625 39.546875 10.640625 37.359375 
Q 10.640625 34.625 12.203125 32.671875 
Q 13.71875 30.671875 18.359375 28.421875 
L 25.484375 24.953125 
Q 35.40625 20.125 35.40625 12.203125 
Q 35.40625 6.109375 30.78125 2.359375 
Q 26.171875 -1.375 20.453125 -1.375 
Q 16.359375 -1.375 11.078125 0.09375 
Q 9.46875 0.59375 8.453125 0.59375 
Q 7.328125 0.59375 6.6875 -0.6875 
L 5.078125 -0.6875 
L 5.078125 15.28125 
L 6.6875 15.28125 
Q 8.0625 8.453125 11.90625 4.984375 
Q 15.765625 1.515625 20.5625 1.515625 
Q 23.921875 1.515625 26.046875 3.484375 
Q 28.171875 5.46875 28.171875 8.25 
Q 28.171875 11.625 25.796875 13.921875 
Q 23.4375 16.21875 16.359375 19.734375 
Q 9.28125 23.25 7.078125 26.078125 
Q 4.890625 28.859375 4.890625 33.109375 
Q 4.890625 38.625 8.671875 42.328125 
Q 12.453125 46.046875 18.453125 46.046875 
Q 21.09375 46.046875 24.859375 44.921875 
Q 27.34375 44.1875 28.171875 44.1875 
Q 28.953125 44.1875 29.390625 44.53125 
Q 29.828125 44.875 30.421875 46.046875 
z
" id="TimesNewRomanPSMT-73"/>
      <path id="TimesNewRomanPSMT-20"/>
      <path d="M 31.0625 -19.578125 
L 31.0625 -21.390625 
Q 23.6875 -17.671875 18.75 -12.703125 
Q 11.71875 -5.609375 7.90625 4 
Q 4.109375 13.625 4.109375 23.96875 
Q 4.109375 39.109375 11.578125 51.578125 
Q 19.046875 64.0625 31.0625 69.4375 
L 31.0625 67.390625 
Q 25.046875 64.0625 21.1875 58.296875 
Q 17.328125 52.546875 15.421875 43.703125 
Q 13.53125 34.859375 13.53125 25.25 
Q 13.53125 14.796875 15.140625 6.25 
Q 16.40625 -0.484375 18.203125 -4.5625 
Q 20.015625 -8.640625 23.0625 -12.390625 
Q 26.125 -16.15625 31.0625 -19.578125 
z
" id="TimesNewRomanPSMT-28"/>
      <path d="M 16.40625 36.53125 
Q 21.296875 41.40625 22.171875 42.140625 
Q 24.359375 44 26.890625 45.015625 
Q 29.4375 46.046875 31.9375 46.046875 
Q 36.140625 46.046875 39.15625 43.59375 
Q 42.1875 41.15625 43.21875 36.53125 
Q 48.25 42.390625 51.703125 44.21875 
Q 55.171875 46.046875 58.84375 46.046875 
Q 62.40625 46.046875 65.15625 44.21875 
Q 67.921875 42.390625 69.53125 38.234375 
Q 70.609375 35.40625 70.609375 29.34375 
L 70.609375 10.109375 
Q 70.609375 5.90625 71.234375 4.34375 
Q 71.734375 3.265625 73.046875 2.515625 
Q 74.359375 1.765625 77.34375 1.765625 
L 77.34375 0 
L 55.28125 0 
L 55.28125 1.765625 
L 56.203125 1.765625 
Q 59.078125 1.765625 60.6875 2.875 
Q 61.8125 3.65625 62.3125 5.375 
Q 62.5 6.203125 62.5 10.109375 
L 62.5 29.34375 
Q 62.5 34.8125 61.1875 37.0625 
Q 59.28125 40.1875 55.078125 40.1875 
Q 52.484375 40.1875 49.875 38.890625 
Q 47.265625 37.59375 43.5625 34.078125 
L 43.453125 33.546875 
L 43.5625 31.453125 
L 43.5625 10.109375 
Q 43.5625 5.515625 44.0625 4.390625 
Q 44.578125 3.265625 45.984375 2.515625 
Q 47.40625 1.765625 50.828125 1.765625 
L 50.828125 0 
L 28.21875 0 
L 28.21875 1.765625 
Q 31.9375 1.765625 33.328125 2.640625 
Q 34.71875 3.515625 35.25 5.28125 
Q 35.5 6.109375 35.5 10.109375 
L 35.5 29.34375 
Q 35.5 34.8125 33.890625 37.203125 
Q 31.734375 40.328125 27.875 40.328125 
Q 25.25 40.328125 22.65625 38.921875 
Q 18.609375 36.765625 16.40625 34.078125 
L 16.40625 10.109375 
Q 16.40625 5.71875 17.015625 4.390625 
Q 17.625 3.078125 18.8125 2.421875 
Q 20.015625 1.765625 23.6875 1.765625 
L 23.6875 0 
L 1.5625 0 
L 1.5625 1.765625 
Q 4.640625 1.765625 5.859375 2.421875 
Q 7.078125 3.078125 7.703125 4.515625 
Q 8.34375 5.953125 8.34375 10.109375 
L 8.34375 27.203125 
Q 8.34375 34.578125 7.90625 36.71875 
Q 7.5625 38.328125 6.828125 38.9375 
Q 6.109375 39.546875 4.828125 39.546875 
Q 3.46875 39.546875 1.5625 38.8125 
L 0.828125 40.578125 
L 14.3125 46.046875 
L 16.40625 46.046875 
z
" id="TimesNewRomanPSMT-6d"/>
      <path d="M 2.25 67.390625 
L 2.25 69.4375 
Q 9.671875 65.765625 14.59375 60.796875 
Q 21.578125 53.65625 25.390625 44.0625 
Q 29.203125 34.46875 29.203125 24.078125 
Q 29.203125 8.9375 21.75 -3.53125 
Q 14.3125 -16.015625 2.25 -21.390625 
L 2.25 -19.578125 
Q 8.25 -16.21875 12.125 -10.46875 
Q 16.015625 -4.734375 17.890625 4.125 
Q 19.78125 12.984375 19.78125 22.609375 
Q 19.78125 33.015625 18.171875 41.609375 
Q 16.9375 48.34375 15.109375 52.390625 
Q 13.28125 56.453125 10.25 60.203125 
Q 7.234375 63.96875 2.25 67.390625 
z
" id="TimesNewRomanPSMT-29"/>
     </defs>
     <g transform="translate(128.185156 124.226562)scale(0.1 -0.1)">
      <use xlink:href="#TimesNewRomanPSMT-73"/>
      <use x="38.916016" xlink:href="#TimesNewRomanPSMT-20"/>
      <use x="63.916016" xlink:href="#TimesNewRomanPSMT-28"/>
      <use x="97.216797" xlink:href="#TimesNewRomanPSMT-6d"/>
      <use x="175" xlink:href="#TimesNewRomanPSMT-29"/>
     </g>
    </g>
   </g>
   <g id="matplotlib.axis_2">
    <g id="ytick_1">
     <g id="line2d_11">
      <path clip-path="url(#p65449f797b)" d="M 50.4 77.76 
L 226.8 77.76 
" style="fill:none;stroke:#b0b0b0;stroke-dasharray:1.85,0.8;stroke-dashoffset:0;stroke-width:0.5;"/>
     </g>
     <g id="line2d_12">
      <defs>
       <path d="M 0 0 
L -3.5 0 
" id="md9169e0936" style="stroke:#000000;stroke-width:0.8;"/>
      </defs>
      <g>
       <use style="stroke:#000000;stroke-width:0.8;" x="50.4" xlink:href="#md9169e0936" y="77.76"/>
      </g>
     </g>
     <g id="text_7">
      <!-- 0.0 -->
      <defs>
       <path d="M 12.5 9.46875 
Q 14.796875 9.46875 16.359375 7.875 
Q 17.921875 6.296875 17.921875 4.046875 
Q 17.921875 1.8125 16.328125 0.21875 
Q 14.75 -1.375 12.5 -1.375 
Q 10.25 -1.375 8.65625 0.21875 
Q 7.078125 1.8125 7.078125 4.046875 
Q 7.078125 6.34375 8.65625 7.90625 
Q 10.25 9.46875 12.5 9.46875 
z
" id="TimesNewRomanPSMT-2e"/>
      </defs>
      <g transform="translate(30.9 81.231875)scale(0.1 -0.1)">
       <use xlink:href="#TimesNewRomanPSMT-30"/>
       <use x="50" xlink:href="#TimesNewRomanPSMT-2e"/>
       <use x="75" xlink:href="#TimesNewRomanPSMT-30"/>
      </g>
     </g>
    </g>
    <g id="ytick_2">
     <g id="line2d_13">
      <path clip-path="url(#p65449f797b)" d="M 50.4 38.88 
L 226.8 38.88 
" style="fill:none;stroke:#b0b0b0;stroke-dasharray:1.85,0.8;stroke-dashoffset:0;stroke-width:0.5;"/>
     </g>
     <g id="line2d_14">
      <g>
       <use style="stroke:#000000;stroke-width:0.8;" x="50.4" xlink:href="#md9169e0936" y="38.88"/>
      </g>
     </g>
     <g id="text_8">
      <!-- 0.2 -->
      <g transform="translate(30.9 42.351875)scale(0.1 -0.1)">
       <use xlink:href="#TimesNewRomanPSMT-30"/>
       <use x="50" xlink:href="#TimesNewRomanPSMT-2e"/>
       <use x="75" xlink:href="#TimesNewRomanPSMT-32"/>
      </g>
     </g>
    </g>
    <g id="text_9">
     <!-- kappa (1/m) -->
     <defs>
      <path d="M 16.359375 69.4375 
L 16.359375 24.90625 
L 27.734375 35.296875 
Q 31.34375 38.625 31.9375 39.5 
Q 32.328125 40.09375 32.328125 40.671875 
Q 32.328125 41.65625 31.515625 42.359375 
Q 30.71875 43.0625 28.859375 43.171875 
L 28.859375 44.734375 
L 48.296875 44.734375 
L 48.296875 43.171875 
Q 44.28125 43.0625 41.625 41.9375 
Q 38.96875 40.828125 35.796875 37.9375 
L 24.3125 27.34375 
L 35.796875 12.84375 
Q 40.578125 6.84375 42.234375 5.21875 
Q 44.578125 2.9375 46.34375 2.25 
Q 47.5625 1.765625 50.59375 1.765625 
L 50.59375 0 
L 28.859375 0 
L 28.859375 1.765625 
Q 30.71875 1.8125 31.375 2.3125 
Q 32.03125 2.828125 32.03125 3.765625 
Q 32.03125 4.890625 30.078125 7.375 
L 16.359375 24.90625 
L 16.359375 10.0625 
Q 16.359375 5.71875 16.96875 4.34375 
Q 17.578125 2.984375 18.703125 2.390625 
Q 19.828125 1.8125 23.578125 1.765625 
L 23.578125 0 
L 0.828125 0 
L 0.828125 1.765625 
Q 4.25 1.765625 5.953125 2.59375 
Q 6.984375 3.125 7.515625 4.25 
Q 8.25 5.859375 8.25 9.8125 
L 8.25 50.53125 
Q 8.25 58.296875 7.90625 60.03125 
Q 7.5625 61.765625 6.78125 62.421875 
Q 6 63.09375 4.734375 63.09375 
Q 3.71875 63.09375 1.65625 62.25 
L 0.828125 63.96875 
L 14.109375 69.4375 
z
" id="TimesNewRomanPSMT-6b"/>
      <path d="M 28.46875 6.453125 
Q 21.578125 1.125 19.828125 0.296875 
Q 17.1875 -0.921875 14.203125 -0.921875 
Q 9.578125 -0.921875 6.5625 2.25 
Q 3.5625 5.421875 3.5625 10.59375 
Q 3.5625 13.875 5.03125 16.265625 
Q 7.03125 19.578125 11.984375 22.5 
Q 16.9375 25.4375 28.46875 29.640625 
L 28.46875 31.390625 
Q 28.46875 38.09375 26.34375 40.578125 
Q 24.21875 43.0625 20.171875 43.0625 
Q 17.09375 43.0625 15.28125 41.40625 
Q 13.421875 39.75 13.421875 37.59375 
L 13.53125 34.765625 
Q 13.53125 32.515625 12.375 31.296875 
Q 11.234375 30.078125 9.375 30.078125 
Q 7.5625 30.078125 6.421875 31.34375 
Q 5.28125 32.625 5.28125 34.8125 
Q 5.28125 39.015625 9.578125 42.53125 
Q 13.875 46.046875 21.625 46.046875 
Q 27.59375 46.046875 31.390625 44.046875 
Q 34.28125 42.53125 35.640625 39.3125 
Q 36.53125 37.203125 36.53125 30.71875 
L 36.53125 15.53125 
Q 36.53125 9.125 36.765625 7.6875 
Q 37.015625 6.25 37.578125 5.765625 
Q 38.140625 5.28125 38.875 5.28125 
Q 39.65625 5.28125 40.234375 5.609375 
Q 41.265625 6.25 44.1875 9.1875 
L 44.1875 6.453125 
Q 38.71875 -0.875 33.734375 -0.875 
Q 31.34375 -0.875 29.921875 0.78125 
Q 28.515625 2.4375 28.46875 6.453125 
z
M 28.46875 9.625 
L 28.46875 26.65625 
Q 21.09375 23.734375 18.953125 22.515625 
Q 15.09375 20.359375 13.421875 18.015625 
Q 11.765625 15.671875 11.765625 12.890625 
Q 11.765625 9.375 13.859375 7.046875 
Q 15.96875 4.734375 18.703125 4.734375 
Q 22.40625 4.734375 28.46875 9.625 
z
" id="TimesNewRomanPSMT-61"/>
      <path d="M -0.09375 40.28125 
L 13.671875 45.84375 
L 15.53125 45.84375 
L 15.53125 35.40625 
Q 19 41.3125 22.484375 43.671875 
Q 25.984375 46.046875 29.828125 46.046875 
Q 36.578125 46.046875 41.0625 40.765625 
Q 46.578125 34.328125 46.578125 23.96875 
Q 46.578125 12.40625 39.9375 4.828125 
Q 34.46875 -1.375 26.171875 -1.375 
Q 22.5625 -1.375 19.921875 -0.34375 
Q 17.96875 0.390625 15.53125 2.59375 
L 15.53125 -11.03125 
Q 15.53125 -15.625 16.09375 -16.859375 
Q 16.65625 -18.109375 18.046875 -18.84375 
Q 19.4375 -19.578125 23.09375 -19.578125 
L 23.09375 -21.390625 
L -0.34375 -21.390625 
L -0.34375 -19.578125 
L 0.875 -19.578125 
Q 3.5625 -19.625 5.46875 -18.5625 
Q 6.390625 -18.015625 6.90625 -16.8125 
Q 7.421875 -15.625 7.421875 -10.75 
L 7.421875 31.546875 
Q 7.421875 35.890625 7.03125 37.0625 
Q 6.640625 38.234375 5.78125 38.8125 
Q 4.9375 39.40625 3.46875 39.40625 
Q 2.296875 39.40625 0.484375 38.71875 
z
M 15.53125 32.515625 
L 15.53125 15.828125 
Q 15.53125 10.40625 15.96875 8.6875 
Q 16.65625 5.859375 19.3125 3.703125 
Q 21.96875 1.5625 26.03125 1.5625 
Q 30.90625 1.5625 33.9375 5.375 
Q 37.890625 10.359375 37.890625 19.390625 
Q 37.890625 29.640625 33.40625 35.15625 
Q 30.28125 38.96875 25.984375 38.96875 
Q 23.640625 38.96875 21.34375 37.796875 
Q 19.578125 36.921875 15.53125 32.515625 
z
" id="TimesNewRomanPSMT-70"/>
      <path d="M 28.03125 69.4375 
L 4.046875 -1.375 
L 0.140625 -1.375 
L 24.125 69.4375 
z
" id="TimesNewRomanPSMT-2f"/>
     </defs>
     <g transform="translate(24.760938 82.616875)rotate(-90)scale(0.1 -0.1)">
      <use xlink:href="#TimesNewRomanPSMT-6b"/>
      <use x="50" xlink:href="#TimesNewRomanPSMT-61"/>
      <use x="94.384766" xlink:href="#TimesNewRomanPSMT-70"/>
      <use x="144.384766" xlink:href="#TimesNewRomanPSMT-70"/>
      <use x="194.384766" xlink:href="#TimesNewRomanPSMT-61"/>
      <use x="238.769531" xlink:href="#TimesNewRomanPSMT-20"/>
      <use x="263.769531" xlink:href="#TimesNewRomanPSMT-28"/>
      <use x="297.070312" xlink:href="#TimesNewRomanPSMT-31"/>
      <use x="347.070312" xlink:href="#TimesNewRomanPSMT-2f"/>
      <use x="374.853516" xlink:href="#TimesNewRomanPSMT-6d"/>
      <use x="452.636719" xlink:href="#TimesNewRomanPSMT-29"/>
     </g>
    </g>
   </g>
   <g id="line2d_15">
    <path clip-path="url(#p65449f797b)" d="M 65.1 68.660117 
L 65.688 69.428761 
L 66.276 69.864533 
L 66.864 70.012655 
L 67.452 69.885815 
L 67.746 69.715039 
L 68.04 72.124 
L 68.628 72.279079 
L 69.216 72.180068 
L 69.804 71.833501 
L 70.392 71.210247 
L 70.686 70.775289 
L 70.98 75.731619 
L 72.303 74.182136 
L 73.038 72.997239 
L 73.626 71.70973 
L 73.92 79.093684 
L 74.949 76.683243 
L 76.125 73.933109 
L 76.566 72.616827 
L 76.86 82.072378 
L 77.595 79.44846 
L 79.506 73.638842 
L 79.8 84.653876 
L 80.535 81.339502 
L 81.564 77.959926 
L 82.446 74.954286 
L 82.74 86.842046 
L 83.328 83.672442 
L 84.063 80.920797 
L 85.386 76.786071 
L 85.68 88.609779 
L 86.268 85.234283 
L 86.856 83.024746 
L 87.591 81.083518 
L 88.326 79.485433 
L 88.62 89.719814 
L 89.208 86.535073 
L 89.796 84.712797 
L 90.237 83.909071 
L 90.678 83.469351 
L 91.119 83.368076 
L 91.266 83.41599 
L 91.56 89.835442 
L 92.001 87.829722 
L 92.442 86.693724 
L 92.883 86.19491 
L 93.177 86.166846 
L 93.471 86.380245 
L 93.765 86.857794 
L 94.206 88.183691 
L 94.5 78.891785 
L 95.235 78.642321 
L 96.117 78.614459 
L 96.852 78.789322 
L 97.44 79.021567 
L 98.028 78.772505 
L 98.763 78.686714 
L 99.498 78.792703 
L 100.086 79.058728 
L 100.38 79.151691 
L 100.968 78.87707 
L 101.703 78.781593 
L 102.438 78.896849 
L 103.026 79.187595 
L 103.173 79.309632 
L 103.467 79.184033 
L 104.055 78.946338 
L 104.79 78.889398 
L 105.525 79.062923 
L 106.26 79.413106 
L 106.848 79.102048 
L 107.583 78.992393 
L 108.318 79.123776 
L 108.906 79.452766 
L 109.053 79.579647 
L 109.347 79.438847 
L 109.935 79.180125 
L 110.67 79.118011 
L 111.405 79.310292 
L 112.14 79.67613 
L 112.728 79.354112 
L 113.463 79.239633 
L 114.198 79.382026 
L 114.786 79.728632 
L 114.933 79.848252 
L 115.374 79.619342 
L 115.962 79.415479 
L 116.697 79.406353 
L 117.285 79.588748 
L 118.02 79.940531 
L 118.608 79.639725 
L 119.343 79.533271 
L 120.078 79.678605 
L 120.666 80.01508 
L 120.813 80.113895 
L 122.577 79.728011 
L 123.312 79.975392 
L 123.9 80.2058 
L 124.635 79.929657 
L 125.37 79.891824 
L 126.105 80.074491 
L 126.84 80.338577 
L 127.575 80.113654 
L 128.31 80.089434 
L 129.045 80.255389 
L 129.78 80.471386 
L 130.662 80.296369 
L 131.544 80.340905 
L 133.014 80.556821 
L 134.043 80.519829 
L 135.072 80.678744 
L 135.66 80.73721 
L 137.424 80.797491 
L 140.952 81.061203 
L 142.128 81.163422 
L 143.157 81.289881 
L 144.186 81.212081 
L 144.48 81.139545 
L 145.362 81.466484 
L 146.244 81.54242 
L 147.126 81.357644 
L 147.42 81.27642 
L 148.302 81.709956 
L 149.037 81.802239 
L 149.772 81.633772 
L 150.36 81.415864 
L 151.095 81.884166 
L 151.683 82.044324 
L 152.271 81.989579 
L 152.859 81.731471 
L 153.3 81.558731 
L 154.035 82.092745 
L 154.623 82.270075 
L 155.211 82.195107 
L 155.799 81.884001 
L 156.093 81.645201 
L 156.387 81.845416 
L 157.122 82.350051 
L 157.71 82.467295 
L 158.298 82.309257 
L 159.18 81.857751 
L 159.915 82.433704 
L 160.503 82.615502 
L 161.091 82.517017 
L 161.679 82.158339 
L 161.973 81.941054 
L 162.414 82.267347 
L 163.002 82.615384 
L 163.59 82.71493 
L 164.178 82.553482 
L 164.913 82.13864 
L 166.089 82.683102 
L 166.677 82.665054 
L 167.265 82.435917 
L 168 82.111892 
L 168.735 82.296377 
L 169.47 82.266596 
L 170.205 82.021309 
L 170.793 81.796083 
L 171.528 81.854565 
L 172.704 81.727159 
L 174.468 81.434628 
L 176.526 81.164897 
L 176.82 81.222956 
L 177.849 80.92357 
L 179.025 80.825206 
L 180.054 80.755461 
L 180.936 80.476092 
L 181.818 80.434503 
L 182.406 80.536635 
L 182.7 80.591624 
L 183.435 80.204128 
L 184.17 80.0489 
L 184.905 80.091553 
L 185.64 80.267034 
L 186.375 79.849139 
L 187.11 79.692616 
L 187.845 79.750722 
L 188.58 79.937416 
L 189.168 79.575967 
L 189.903 79.378258 
L 190.638 79.396487 
L 191.667 79.495912 
L 192.402 79.159465 
L 193.137 79.05773 
L 193.872 79.151372 
L 194.46 79.264644 
L 195.195 78.908649 
L 196.077 78.773588 
L 196.959 78.881402 
L 197.4 78.921833 
L 198.135 78.623779 
L 199.017 78.502422 
L 199.899 78.566654 
L 200.34 78.574777 
L 201.222 78.317401 
L 202.398 78.229482 
L 203.574 78.147715 
L 204.897 77.973545 
L 208.572 77.620207 
L 211.659 77.257763 
L 211.659 77.257763 
" style="fill:none;stroke:#ff00ff;stroke-linecap:square;stroke-width:0.5;"/>
   </g>
   <g id="line2d_16">
    <path clip-path="url(#p65449f797b)" d="M 66.57 77.688328 
L 68.04 77.470468 
L 69.51 77.233107 
L 70.98 76.724366 
L 72.45 76.249402 
L 73.92 75.490294 
L 75.39 74.87788 
L 76.86 74.026116 
L 78.33 73.543015 
L 79.8 72.943255 
L 81.27 73.04882 
L 82.74 73.191588 
L 84.21 74.362796 
L 85.68 75.631137 
L 87.15 78.027622 
L 88.62 80.088 
L 90.09 82.325044 
L 91.56 82.345398 
L 93.03 82.537191 
L 94.5 82.551033 
L 95.97 82.908865 
L 97.44 82.768515 
L 98.91 82.77926 
L 100.38 82.347711 
L 101.85 82.118118 
L 103.32 81.558242 
L 104.79 81.292832 
L 106.26 80.759631 
L 107.73 80.586617 
L 109.2 80.154714 
L 110.67 80.112962 
L 112.14 79.794778 
L 113.61 79.869493 
L 115.08 79.648041 
L 116.55 79.804024 
L 118.02 79.655554 
L 119.49 79.856546 
L 120.96 79.761544 
L 122.43 79.978191 
L 123.9 79.924757 
L 125.37 80.135966 
L 126.84 80.119279 
L 128.31 80.310671 
L 129.78 80.330987 
L 131.25 80.492701 
L 132.72 80.553148 
L 134.19 80.678052 
L 135.66 80.782738 
L 137.13 80.865394 
L 138.6 81.017909 
L 140.07 81.054246 
L 141.54 81.256488 
L 143.01 81.244009 
L 144.48 81.495207 
L 145.95 81.433539 
L 147.42 81.729426 
L 148.89 81.621034 
L 150.36 81.953146 
L 151.83 81.804054 
L 153.3 82.159221 
L 154.77 81.979602 
L 156.24 82.339739 
L 157.71 82.14424 
L 159.18 82.48654 
L 160.65 82.294208 
L 162.12 82.591851 
L 163.59 82.435945 
L 165.06 82.575818 
L 166.53 82.282739 
L 168 82.177968 
L 169.47 81.913506 
L 170.94 81.736317 
L 172.41 81.546623 
L 173.88 81.30118 
L 175.35 81.178418 
L 176.82 80.88224 
L 178.29 80.8141 
L 179.76 80.485201 
L 181.23 80.457165 
L 182.7 80.112517 
L 184.17 80.109581 
L 185.64 79.76416 
L 187.11 79.772022 
L 188.58 79.438288 
L 190.05 79.444086 
L 191.52 79.131779 
L 192.99 79.124503 
L 194.46 78.840611 
L 195.93 78.811305 
L 197.4 78.5601 
L 198.87 78.50195 
L 200.34 78.285006 
L 201.81 78.193418 
L 203.28 78.009538 
L 204.75 77.882254 
L 206.22 77.727265 
L 207.69 77.564601 
L 209.16 77.430942 
L 210.63 77.236193 
L 212.1 77.112255 
L 213.57 76.892347 
" style="fill:none;stroke:#00ffff;stroke-linecap:square;stroke-width:0.5;"/>
   </g>
   <g id="line2d_17">
    <path clip-path="url(#p65449f797b)" d="M 66.57 72.943255 
L 68.04 72.943255 
L 69.51 72.943255 
L 70.98 72.943255 
L 72.45 72.943255 
L 73.92 72.943255 
L 75.39 72.943255 
L 76.86 72.943255 
L 78.33 72.943255 
L 79.8 72.943255 
L 81.27 72.943255 
L 82.74 72.943255 
L 84.21 72.943255 
L 85.68 72.943255 
L 87.15 72.943255 
L 88.62 72.943255 
L 90.09 72.943255 
L 91.56 72.943255 
L 93.03 72.943255 
L 94.5 72.943255 
L 95.97 72.943255 
L 97.44 72.943255 
L 98.91 72.943255 
L 100.38 72.943255 
L 101.85 72.943255 
L 103.32 72.943255 
L 104.79 72.943255 
L 106.26 72.943255 
L 107.73 72.943255 
L 109.2 72.943255 
L 110.67 72.943255 
L 112.14 72.943255 
L 113.61 72.943255 
L 115.08 72.943255 
L 116.55 72.943255 
L 118.02 72.943255 
L 119.49 72.943255 
L 120.96 72.943255 
L 122.43 72.943255 
L 123.9 72.943255 
L 125.37 72.943255 
L 126.84 72.943255 
L 128.31 72.943255 
L 129.78 72.943255 
L 131.25 72.943255 
L 132.72 72.943255 
L 134.19 72.943255 
L 135.66 72.943255 
L 137.13 72.943255 
L 138.6 72.943255 
L 140.07 72.943255 
L 141.54 72.943255 
L 143.01 72.943255 
L 144.48 72.943255 
L 145.95 72.943255 
L 147.42 72.943255 
L 148.89 72.943255 
L 150.36 72.943255 
L 151.83 72.943255 
L 153.3 72.943255 
L 154.77 72.943255 
L 156.24 72.943255 
L 157.71 72.943255 
L 159.18 72.943255 
L 160.65 72.943255 
L 162.12 72.943255 
L 163.59 72.943255 
L 165.06 72.943255 
L 166.53 72.943255 
L 168 72.943255 
L 169.47 72.943255 
L 170.94 72.943255 
L 172.41 72.943255 
L 173.88 72.943255 
L 175.35 72.943255 
L 176.82 72.943255 
L 178.29 72.943255 
L 179.76 72.943255 
L 181.23 72.943255 
L 182.7 72.943255 
L 184.17 72.943255 
L 185.64 72.943255 
L 187.11 72.943255 
L 188.58 72.943255 
L 190.05 72.943255 
L 191.52 72.943255 
L 192.99 72.943255 
L 194.46 72.943255 
L 195.93 72.943255 
L 197.4 72.943255 
L 198.87 72.943255 
L 200.34 72.943255 
L 201.81 72.943255 
L 203.28 72.943255 
L 204.75 72.943255 
L 206.22 72.943255 
L 207.69 72.943255 
L 209.16 72.943255 
L 210.63 72.943255 
L 212.1 72.943255 
L 213.57 72.943255 
" style="fill:none;stroke:#000000;stroke-dasharray:1.85,0.8;stroke-dashoffset:0;stroke-width:0.5;"/>
   </g>
   <g id="line2d_18">
    <path clip-path="url(#p65449f797b)" d="M 66.57 82.908865 
L 68.04 82.908865 
L 69.51 82.908865 
L 70.98 82.908865 
L 72.45 82.908865 
L 73.92 82.908865 
L 75.39 82.908865 
L 76.86 82.908865 
L 78.33 82.908865 
L 79.8 82.908865 
L 81.27 82.908865 
L 82.74 82.908865 
L 84.21 82.908865 
L 85.68 82.908865 
L 87.15 82.908865 
L 88.62 82.908865 
L 90.09 82.908865 
L 91.56 82.908865 
L 93.03 82.908865 
L 94.5 82.908865 
L 95.97 82.908865 
L 97.44 82.908865 
L 98.91 82.908865 
L 100.38 82.908865 
L 101.85 82.908865 
L 103.32 82.908865 
L 104.79 82.908865 
L 106.26 82.908865 
L 107.73 82.908865 
L 109.2 82.908865 
L 110.67 82.908865 
L 112.14 82.908865 
L 113.61 82.908865 
L 115.08 82.908865 
L 116.55 82.908865 
L 118.02 82.908865 
L 119.49 82.908865 
L 120.96 82.908865 
L 122.43 82.908865 
L 123.9 82.908865 
L 125.37 82.908865 
L 126.84 82.908865 
L 128.31 82.908865 
L 129.78 82.908865 
L 131.25 82.908865 
L 132.72 82.908865 
L 134.19 82.908865 
L 135.66 82.908865 
L 137.13 82.908865 
L 138.6 82.908865 
L 140.07 82.908865 
L 141.54 82.908865 
L 143.01 82.908865 
L 144.48 82.908865 
L 145.95 82.908865 
L 147.42 82.908865 
L 148.89 82.908865 
L 150.36 82.908865 
L 151.83 82.908865 
L 153.3 82.908865 
L 154.77 82.908865 
L 156.24 82.908865 
L 157.71 82.908865 
L 159.18 82.908865 
L 160.65 82.908865 
L 162.12 82.908865 
L 163.59 82.908865 
L 165.06 82.908865 
L 166.53 82.908865 
L 168 82.908865 
L 169.47 82.908865 
L 170.94 82.908865 
L 172.41 82.908865 
L 173.88 82.908865 
L 175.35 82.908865 
L 176.82 82.908865 
L 178.29 82.908865 
L 179.76 82.908865 
L 181.23 82.908865 
L 182.7 82.908865 
L 184.17 82.908865 
L 185.64 82.908865 
L 187.11 82.908865 
L 188.58 82.908865 
L 190.05 82.908865 
L 191.52 82.908865 
L 192.99 82.908865 
L 194.46 82.908865 
L 195.93 82.908865 
L 197.4 82.908865 
L 198.87 82.908865 
L 200.34 82.908865 
L 201.81 82.908865 
L 203.28 82.908865 
L 204.75 82.908865 
L 206.22 82.908865 
L 207.69 82.908865 
L 209.16 82.908865 
L 210.63 82.908865 
L 212.1 82.908865 
L 213.57 82.908865 
" style="fill:none;stroke:#000000;stroke-dasharray:1.85,0.8;stroke-dashoffset:0;stroke-width:0.5;"/>
   </g>
   <g id="patch_3">
    <path d="M 50.4 97.2 
L 50.4 19.44 
" style="fill:none;stroke:#000000;stroke-linecap:square;stroke-linejoin:miter;stroke-width:0.8;"/>
   </g>
   <g id="patch_4">
    <path d="M 226.8 97.2 
L 226.8 19.44 
" style="fill:none;stroke:#000000;stroke-linecap:square;stroke-linejoin:miter;stroke-width:0.8;"/>
   </g>
   <g id="patch_5">
    <path d="M 50.4 97.2 
L 226.8 97.2 
" style="fill:none;stroke:#000000;stroke-linecap:square;stroke-linejoin:miter;stroke-width:0.8;"/>
   </g>
   <g id="patch_6">
    <path d="M 50.4 19.44 
L 226.8 19.44 
" style="fill:none;stroke:#000000;stroke-linecap:square;stroke-linejoin:miter;stroke-width:0.8;"/>
   </g>
   <g id="text_10">
    <!-- Curvature Profile -->
    <defs>
     <path d="M 60.203125 67.71875 
L 61.71875 45.21875 
L 60.203125 45.21875 
Q 57.171875 55.328125 51.5625 59.765625 
Q 45.953125 64.203125 38.09375 64.203125 
Q 31.5 64.203125 26.171875 60.859375 
Q 20.84375 57.515625 17.796875 50.1875 
Q 14.75 42.875 14.75 31.984375 
Q 14.75 23 17.625 16.40625 
Q 20.515625 9.8125 26.296875 6.296875 
Q 32.078125 2.78125 39.5 2.78125 
Q 45.953125 2.78125 50.875 5.53125 
Q 55.8125 8.296875 61.71875 16.5 
L 63.234375 15.53125 
Q 58.25 6.6875 51.609375 2.578125 
Q 44.96875 -1.515625 35.84375 -1.515625 
Q 19.390625 -1.515625 10.359375 10.6875 
Q 3.609375 19.78125 3.609375 32.078125 
Q 3.609375 42 8.046875 50.296875 
Q 12.5 58.59375 20.28125 63.15625 
Q 28.078125 67.71875 37.3125 67.71875 
Q 44.484375 67.71875 51.46875 64.203125 
Q 53.515625 63.140625 54.390625 63.140625 
Q 55.71875 63.140625 56.6875 64.0625 
Q 57.953125 65.375 58.5 67.71875 
z
" id="TimesNewRomanPSMT-43"/>
     <path d="M 42.328125 44.734375 
L 42.328125 17.625 
Q 42.328125 9.859375 42.6875 8.125 
Q 43.0625 6.390625 43.859375 5.703125 
Q 44.671875 5.03125 45.75 5.03125 
Q 47.265625 5.03125 49.171875 5.859375 
L 49.859375 4.15625 
L 36.46875 -1.375 
L 34.28125 -1.375 
L 34.28125 8.109375 
Q 28.515625 1.859375 25.484375 0.234375 
Q 22.46875 -1.375 19.09375 -1.375 
Q 15.328125 -1.375 12.5625 0.796875 
Q 9.8125 2.984375 8.734375 6.390625 
Q 7.671875 9.8125 7.671875 16.0625 
L 7.671875 36.03125 
Q 7.671875 39.203125 6.984375 40.421875 
Q 6.296875 41.65625 4.953125 42.3125 
Q 3.609375 42.96875 0.09375 42.921875 
L 0.09375 44.734375 
L 15.765625 44.734375 
L 15.765625 14.796875 
Q 15.765625 8.546875 17.9375 6.59375 
Q 20.125 4.640625 23.1875 4.640625 
Q 25.296875 4.640625 27.953125 5.953125 
Q 30.609375 7.28125 34.28125 10.984375 
L 34.28125 36.328125 
Q 34.28125 40.140625 32.890625 41.484375 
Q 31.5 42.828125 27.09375 42.921875 
L 27.09375 44.734375 
z
" id="TimesNewRomanPSMT-75"/>
     <path d="M 16.21875 46.046875 
L 16.21875 35.984375 
Q 21.828125 46.046875 27.734375 46.046875 
Q 30.421875 46.046875 32.171875 44.40625 
Q 33.9375 42.78125 33.9375 40.625 
Q 33.9375 38.71875 32.65625 37.390625 
Q 31.390625 36.078125 29.640625 36.078125 
Q 27.9375 36.078125 25.8125 37.765625 
Q 23.6875 39.453125 22.65625 39.453125 
Q 21.78125 39.453125 20.75 38.484375 
Q 18.5625 36.46875 16.21875 31.890625 
L 16.21875 10.453125 
Q 16.21875 6.734375 17.140625 4.828125 
Q 17.78125 3.515625 19.390625 2.640625 
Q 21 1.765625 24.03125 1.765625 
L 24.03125 0 
L 1.125 0 
L 1.125 1.765625 
Q 4.546875 1.765625 6.203125 2.828125 
Q 7.421875 3.609375 7.90625 5.328125 
Q 8.15625 6.15625 8.15625 10.0625 
L 8.15625 27.390625 
Q 8.15625 35.203125 7.828125 36.6875 
Q 7.515625 38.1875 6.65625 38.859375 
Q 5.8125 39.546875 4.546875 39.546875 
Q 3.03125 39.546875 1.125 38.8125 
L 0.640625 40.578125 
L 14.15625 46.046875 
z
" id="TimesNewRomanPSMT-72"/>
     <path d="M 0.828125 44.734375 
L 21.875 44.734375 
L 21.875 42.921875 
L 20.515625 42.921875 
Q 18.609375 42.921875 17.609375 41.984375 
Q 16.609375 41.0625 16.609375 39.5 
Q 16.609375 37.796875 17.625 35.453125 
L 28.03125 10.75 
L 38.484375 36.375 
Q 39.59375 39.109375 39.59375 40.53125 
Q 39.59375 41.21875 39.203125 41.65625 
Q 38.671875 42.390625 37.84375 42.65625 
Q 37.015625 42.921875 34.46875 42.921875 
L 34.46875 44.734375 
L 49.078125 44.734375 
L 49.078125 42.921875 
Q 46.53125 42.71875 45.5625 41.890625 
Q 43.84375 40.4375 42.484375 37.015625 
L 26.609375 -1.375 
L 24.609375 -1.375 
L 8.640625 36.375 
Q 7.5625 39.015625 6.578125 40.15625 
Q 5.609375 41.3125 4.109375 42.09375 
Q 3.265625 42.53125 0.828125 42.921875 
z
" id="TimesNewRomanPSMT-76"/>
     <path d="M 16.109375 59.421875 
L 16.109375 44.734375 
L 26.5625 44.734375 
L 26.5625 41.3125 
L 16.109375 41.3125 
L 16.109375 12.3125 
Q 16.109375 7.953125 17.359375 6.4375 
Q 18.609375 4.9375 20.5625 4.9375 
Q 22.171875 4.9375 23.6875 5.9375 
Q 25.203125 6.9375 26.03125 8.890625 
L 27.9375 8.890625 
Q 26.21875 4.109375 23.09375 1.6875 
Q 19.96875 -0.734375 16.65625 -0.734375 
Q 14.40625 -0.734375 12.25 0.515625 
Q 10.109375 1.765625 9.078125 4.078125 
Q 8.0625 6.390625 8.0625 11.234375 
L 8.0625 41.3125 
L 0.984375 41.3125 
L 0.984375 42.921875 
Q 3.65625 44 6.46875 46.5625 
Q 9.28125 49.125 11.46875 52.640625 
Q 12.59375 54.5 14.59375 59.421875 
z
" id="TimesNewRomanPSMT-74"/>
     <path d="M 10.640625 27.875 
Q 10.59375 17.921875 15.484375 12.25 
Q 20.359375 6.59375 26.953125 6.59375 
Q 31.34375 6.59375 34.59375 9 
Q 37.84375 11.421875 40.046875 17.28125 
L 41.546875 16.3125 
Q 40.53125 9.625 35.59375 4.125 
Q 30.671875 -1.375 23.25 -1.375 
Q 15.1875 -1.375 9.453125 4.90625 
Q 3.71875 11.1875 3.71875 21.78125 
Q 3.71875 33.25 9.59375 39.671875 
Q 15.484375 46.09375 24.359375 46.09375 
Q 31.890625 46.09375 36.71875 41.140625 
Q 41.546875 36.1875 41.546875 27.875 
z
M 10.640625 30.71875 
L 31.34375 30.71875 
Q 31.109375 35.015625 30.328125 36.765625 
Q 29.109375 39.5 26.6875 41.0625 
Q 24.265625 42.625 21.625 42.625 
Q 17.578125 42.625 14.375 39.46875 
Q 11.1875 36.328125 10.640625 30.71875 
z
" id="TimesNewRomanPSMT-65"/>
     <path d="M 20.515625 31 
L 20.515625 11.71875 
Q 20.515625 5.46875 21.875 3.953125 
Q 23.734375 1.8125 27.484375 1.8125 
L 30.03125 1.8125 
L 30.03125 0 
L 1.65625 0 
L 1.65625 1.8125 
L 4.15625 1.8125 
Q 8.34375 1.8125 10.15625 4.546875 
Q 11.140625 6.0625 11.140625 11.71875 
L 11.140625 54.5 
Q 11.140625 60.75 9.8125 62.25 
Q 7.90625 64.40625 4.15625 64.40625 
L 1.65625 64.40625 
L 1.65625 66.21875 
L 25.921875 66.21875 
Q 34.8125 66.21875 39.9375 64.375 
Q 45.0625 62.546875 48.578125 58.203125 
Q 52.09375 53.859375 52.09375 47.90625 
Q 52.09375 39.796875 46.75 34.71875 
Q 41.40625 29.640625 31.640625 29.640625 
Q 29.25 29.640625 26.46875 29.984375 
Q 23.6875 30.328125 20.515625 31 
z
M 20.515625 33.796875 
Q 23.09375 33.296875 25.09375 33.046875 
Q 27.09375 32.8125 28.515625 32.8125 
Q 33.59375 32.8125 37.28125 36.734375 
Q 40.96875 40.671875 40.96875 46.921875 
Q 40.96875 51.21875 39.203125 54.90625 
Q 37.453125 58.59375 34.21875 60.421875 
Q 31 62.25 26.90625 62.25 
Q 24.421875 62.25 20.515625 61.328125 
z
" id="TimesNewRomanPSMT-50"/>
     <path d="M 25 46.046875 
Q 35.15625 46.046875 41.3125 38.328125 
Q 46.53125 31.734375 46.53125 23.1875 
Q 46.53125 17.1875 43.640625 11.03125 
Q 40.765625 4.890625 35.71875 1.75 
Q 30.671875 -1.375 24.46875 -1.375 
Q 14.359375 -1.375 8.40625 6.6875 
Q 3.375 13.484375 3.375 21.921875 
Q 3.375 28.078125 6.421875 34.15625 
Q 9.46875 40.234375 14.453125 43.140625 
Q 19.4375 46.046875 25 46.046875 
z
M 23.484375 42.875 
Q 20.90625 42.875 18.28125 41.328125 
Q 15.671875 39.796875 14.0625 35.9375 
Q 12.453125 32.078125 12.453125 26.03125 
Q 12.453125 16.265625 16.328125 9.171875 
Q 20.21875 2.09375 26.5625 2.09375 
Q 31.296875 2.09375 34.375 6 
Q 37.453125 9.90625 37.453125 19.4375 
Q 37.453125 31.34375 32.328125 38.1875 
Q 28.859375 42.875 23.484375 42.875 
z
" id="TimesNewRomanPSMT-6f"/>
     <path d="M 20.609375 41.21875 
L 20.609375 11.8125 
Q 20.609375 5.5625 21.96875 3.90625 
Q 23.78125 1.765625 26.8125 1.765625 
L 30.859375 1.765625 
L 30.859375 0 
L 4.15625 0 
L 4.15625 1.765625 
L 6.15625 1.765625 
Q 8.109375 1.765625 9.71875 2.734375 
Q 11.328125 3.71875 11.9375 5.375 
Q 12.546875 7.03125 12.546875 11.8125 
L 12.546875 41.21875 
L 3.859375 41.21875 
L 3.859375 44.734375 
L 12.546875 44.734375 
L 12.546875 47.65625 
Q 12.546875 54.34375 14.6875 58.984375 
Q 16.84375 63.625 21.265625 66.484375 
Q 25.6875 69.34375 31.203125 69.34375 
Q 36.328125 69.34375 40.625 66.015625 
Q 43.453125 63.8125 43.453125 61.078125 
Q 43.453125 59.625 42.1875 58.328125 
Q 40.921875 57.03125 39.453125 57.03125 
Q 38.328125 57.03125 37.078125 57.828125 
Q 35.84375 58.640625 34.03125 61.296875 
Q 32.234375 63.96875 30.71875 64.890625 
Q 29.203125 65.828125 27.34375 65.828125 
Q 25.09375 65.828125 23.53125 64.625 
Q 21.96875 63.421875 21.28125 60.90625 
Q 20.609375 58.40625 20.609375 47.953125 
L 20.609375 44.734375 
L 32.125 44.734375 
L 32.125 41.21875 
z
" id="TimesNewRomanPSMT-66"/>
     <path d="M 14.5 69.4375 
Q 16.546875 69.4375 17.984375 67.984375 
Q 19.4375 66.546875 19.4375 64.5 
Q 19.4375 62.453125 17.984375 60.984375 
Q 16.546875 59.515625 14.5 59.515625 
Q 12.453125 59.515625 10.984375 60.984375 
Q 9.515625 62.453125 9.515625 64.5 
Q 9.515625 66.546875 10.953125 67.984375 
Q 12.40625 69.4375 14.5 69.4375 
z
M 18.5625 46.046875 
L 18.5625 10.109375 
Q 18.5625 5.90625 19.171875 4.515625 
Q 19.78125 3.125 20.96875 2.4375 
Q 22.171875 1.765625 25.34375 1.765625 
L 25.34375 0 
L 3.609375 0 
L 3.609375 1.765625 
Q 6.890625 1.765625 8 2.390625 
Q 9.125 3.03125 9.78125 4.484375 
Q 10.453125 5.953125 10.453125 10.109375 
L 10.453125 27.34375 
Q 10.453125 34.625 10.015625 36.765625 
Q 9.671875 38.328125 8.9375 38.9375 
Q 8.203125 39.546875 6.9375 39.546875 
Q 5.5625 39.546875 3.609375 38.8125 
L 2.9375 40.578125 
L 16.40625 46.046875 
z
" id="TimesNewRomanPSMT-69"/>
     <path d="M 18.5 69.4375 
L 18.5 10.109375 
Q 18.5 5.90625 19.109375 4.53125 
Q 19.734375 3.171875 21 2.46875 
Q 22.265625 1.765625 25.734375 1.765625 
L 25.734375 0 
L 3.8125 0 
L 3.8125 1.765625 
Q 6.890625 1.765625 8 2.390625 
Q 9.125 3.03125 9.765625 4.484375 
Q 10.40625 5.953125 10.40625 10.109375 
L 10.40625 50.734375 
Q 10.40625 58.296875 10.0625 60.03125 
Q 9.71875 61.765625 8.953125 62.390625 
Q 8.203125 63.03125 7.03125 63.03125 
Q 5.765625 63.03125 3.8125 62.25 
L 2.984375 63.96875 
L 16.3125 69.4375 
z
" id="TimesNewRomanPSMT-6c"/>
    </defs>
    <g transform="translate(103.749219 13.44)scale(0.1 -0.1)">
     <use xlink:href="#TimesNewRomanPSMT-43"/>
     <use x="66.699219" xlink:href="#TimesNewRomanPSMT-75"/>
     <use x="116.699219" xlink:href="#TimesNewRomanPSMT-72"/>
     <use x="150" xlink:href="#TimesNewRomanPSMT-76"/>
     <use x="200" xlink:href="#TimesNewRomanPSMT-61"/>
     <use x="244.384766" xlink:href="#TimesNewRomanPSMT-74"/>
     <use x="272.167969" xlink:href="#TimesNewRomanPSMT-75"/>
     <use x="322.167969" xlink:href="#TimesNewRomanPSMT-72"/>
     <use x="355.46875" xlink:href="#TimesNewRomanPSMT-65"/>
     <use x="399.853516" xlink:href="#TimesNewRomanPSMT-20"/>
     <use x="424.853516" xlink:href="#TimesNewRomanPSMT-50"/>
     <use x="480.46875" xlink:href="#TimesNewRomanPSMT-72"/>
     <use x="513.769531" xlink:href="#TimesNewRomanPSMT-6f"/>
     <use x="563.769531" xlink:href="#TimesNewRomanPSMT-66"/>
     <use x="597.070312" xlink:href="#TimesNewRomanPSMT-69"/>
     <use x="624.853516" xlink:href="#TimesNewRomanPSMT-6c"/>
     <use x="652.636719" xlink:href="#TimesNewRomanPSMT-65"/>
    </g>
   </g>
   <g id="legend_1">
    <g id="patch_7">
     <path d="M 63.664062 55.736875 
L 219.8 55.736875 
Q 221.8 55.736875 221.8 53.736875 
L 221.8 26.44 
Q 221.8 24.44 219.8 24.44 
L 63.664062 24.44 
Q 61.664062 24.44 61.664062 26.44 
L 61.664062 53.736875 
Q 61.664062 55.736875 63.664062 55.736875 
z
" style="fill:#ffffff;opacity:0.8;stroke:#cccccc;stroke-linejoin:miter;"/>
    </g>
    <g id="line2d_19">
     <path d="M 65.664062 31.94 
L 85.664062 31.94 
" style="fill:none;stroke:#ff00ff;stroke-linecap:square;stroke-width:0.5;"/>
    </g>
    <g id="line2d_20"/>
    <g id="text_11">
     <!-- Rough Path Curvature Profile -->
     <defs>
      <path d="M 67.578125 0 
L 49.90625 0 
L 27.484375 30.953125 
Q 25 30.859375 23.4375 30.859375 
Q 22.796875 30.859375 22.0625 30.875 
Q 21.34375 30.90625 20.5625 30.953125 
L 20.5625 11.71875 
Q 20.5625 5.46875 21.921875 3.953125 
Q 23.78125 1.8125 27.484375 1.8125 
L 30.078125 1.8125 
L 30.078125 0 
L 1.703125 0 
L 1.703125 1.8125 
L 4.203125 1.8125 
Q 8.40625 1.8125 10.203125 4.546875 
Q 11.234375 6.0625 11.234375 11.71875 
L 11.234375 54.5 
Q 11.234375 60.75 9.859375 62.25 
Q 7.953125 64.40625 4.203125 64.40625 
L 1.703125 64.40625 
L 1.703125 66.21875 
L 25.828125 66.21875 
Q 36.375 66.21875 41.375 64.671875 
Q 46.390625 63.140625 49.875 59.015625 
Q 53.375 54.890625 53.375 49.171875 
Q 53.375 43.0625 49.390625 38.5625 
Q 45.40625 34.078125 37.0625 32.234375 
L 50.734375 13.234375 
Q 55.421875 6.6875 58.78125 4.53125 
Q 62.15625 2.390625 67.578125 1.8125 
z
M 20.5625 34.03125 
Q 21.484375 34.03125 22.171875 34 
Q 22.859375 33.984375 23.296875 33.984375 
Q 32.765625 33.984375 37.578125 38.078125 
Q 42.390625 42.1875 42.390625 48.53125 
Q 42.390625 54.734375 38.5 58.609375 
Q 34.625 62.5 28.21875 62.5 
Q 25.390625 62.5 20.5625 61.578125 
z
" id="TimesNewRomanPSMT-52"/>
      <path d="M 15.09375 16.3125 
Q 10.984375 18.3125 8.78125 21.890625 
Q 6.59375 25.484375 6.59375 29.828125 
Q 6.59375 36.46875 11.59375 41.25 
Q 16.609375 46.046875 24.421875 46.046875 
Q 30.8125 46.046875 35.5 42.921875 
L 44.96875 42.921875 
Q 47.078125 42.921875 47.40625 42.796875 
Q 47.75 42.671875 47.90625 42.390625 
Q 48.1875 41.9375 48.1875 40.828125 
Q 48.1875 39.546875 47.953125 39.0625 
Q 47.796875 38.8125 47.4375 38.671875 
Q 47.078125 38.53125 44.96875 38.53125 
L 39.15625 38.53125 
Q 41.890625 35.015625 41.890625 29.546875 
Q 41.890625 23.296875 37.109375 18.84375 
Q 32.328125 14.40625 24.265625 14.40625 
Q 20.953125 14.40625 17.484375 15.375 
Q 15.328125 13.53125 14.5625 12.140625 
Q 13.8125 10.75 13.8125 9.765625 
Q 13.8125 8.9375 14.625 8.15625 
Q 15.4375 7.375 17.78125 7.03125 
Q 19.140625 6.84375 24.609375 6.6875 
Q 34.671875 6.453125 37.640625 6 
Q 42.1875 5.375 44.890625 2.640625 
Q 47.609375 -0.09375 47.609375 -4.109375 
Q 47.609375 -9.625 42.4375 -14.453125 
Q 34.8125 -21.578125 22.5625 -21.578125 
Q 13.140625 -21.578125 6.640625 -17.328125 
Q 2.984375 -14.890625 2.984375 -12.25 
Q 2.984375 -11.078125 3.515625 -9.90625 
Q 4.34375 -8.109375 6.9375 -4.890625 
Q 7.28125 -4.4375 11.921875 0.390625 
Q 9.375 1.90625 8.328125 3.09375 
Q 7.28125 4.296875 7.28125 5.8125 
Q 7.28125 7.515625 8.671875 9.8125 
Q 10.0625 12.109375 15.09375 16.3125 
z
M 23.578125 43.703125 
Q 19.96875 43.703125 17.53125 40.8125 
Q 15.09375 37.9375 15.09375 31.984375 
Q 15.09375 24.265625 18.40625 20.015625 
Q 20.953125 16.796875 24.859375 16.796875 
Q 28.5625 16.796875 30.953125 19.578125 
Q 33.34375 22.359375 33.34375 28.328125 
Q 33.34375 36.078125 29.984375 40.484375 
Q 27.484375 43.703125 23.578125 43.703125 
z
M 14.59375 0 
Q 12.3125 -2.484375 11.140625 -4.625 
Q 9.96875 -6.78125 9.96875 -8.59375 
Q 9.96875 -10.9375 12.796875 -12.703125 
Q 17.671875 -15.71875 26.90625 -15.71875 
Q 35.6875 -15.71875 39.859375 -12.609375 
Q 44.046875 -9.515625 44.046875 -6 
Q 44.046875 -3.46875 41.546875 -2.390625 
Q 39.015625 -1.3125 31.5 -1.125 
Q 20.515625 -0.828125 14.59375 0 
z
" id="TimesNewRomanPSMT-67"/>
      <path d="M 16.265625 69.4375 
L 16.265625 36.71875 
Q 21.6875 42.671875 24.859375 44.359375 
Q 28.03125 46.046875 31.203125 46.046875 
Q 35.015625 46.046875 37.75 43.9375 
Q 40.484375 41.84375 41.796875 37.359375 
Q 42.71875 34.234375 42.71875 25.921875 
L 42.71875 10.109375 
Q 42.71875 5.859375 43.40625 4.296875 
Q 43.890625 3.125 45.0625 2.4375 
Q 46.234375 1.765625 49.359375 1.765625 
L 49.359375 0 
L 27.390625 0 
L 27.390625 1.765625 
L 28.421875 1.765625 
Q 31.546875 1.765625 32.765625 2.703125 
Q 33.984375 3.65625 34.46875 5.515625 
Q 34.625 6.296875 34.625 10.109375 
L 34.625 25.921875 
Q 34.625 33.25 33.859375 35.546875 
Q 33.109375 37.84375 31.4375 38.984375 
Q 29.78125 40.140625 27.4375 40.140625 
Q 25.046875 40.140625 22.453125 38.859375 
Q 19.875 37.59375 16.265625 33.734375 
L 16.265625 10.109375 
Q 16.265625 5.515625 16.765625 4.390625 
Q 17.28125 3.265625 18.671875 2.515625 
Q 20.0625 1.765625 23.484375 1.765625 
L 23.484375 0 
L 1.3125 0 
L 1.3125 1.765625 
Q 4.296875 1.765625 6 2.6875 
Q 6.984375 3.171875 7.5625 4.53125 
Q 8.15625 5.90625 8.15625 10.109375 
L 8.15625 50.59375 
Q 8.15625 58.25 7.78125 60 
Q 7.421875 61.765625 6.65625 62.390625 
Q 5.90625 63.03125 4.640625 63.03125 
Q 3.609375 63.03125 1.3125 62.25 
L 0.640625 63.96875 
L 14.015625 69.4375 
z
" id="TimesNewRomanPSMT-68"/>
     </defs>
     <g transform="translate(93.664062 35.44)scale(0.1 -0.1)">
      <use xlink:href="#TimesNewRomanPSMT-52"/>
      <use x="66.699219" xlink:href="#TimesNewRomanPSMT-6f"/>
      <use x="116.699219" xlink:href="#TimesNewRomanPSMT-75"/>
      <use x="166.699219" xlink:href="#TimesNewRomanPSMT-67"/>
      <use x="216.699219" xlink:href="#TimesNewRomanPSMT-68"/>
      <use x="266.699219" xlink:href="#TimesNewRomanPSMT-20"/>
      <use x="291.699219" xlink:href="#TimesNewRomanPSMT-50"/>
      <use x="347.314453" xlink:href="#TimesNewRomanPSMT-61"/>
      <use x="391.699219" xlink:href="#TimesNewRomanPSMT-74"/>
      <use x="419.482422" xlink:href="#TimesNewRomanPSMT-68"/>
      <use x="469.482422" xlink:href="#TimesNewRomanPSMT-20"/>
      <use x="494.482422" xlink:href="#TimesNewRomanPSMT-43"/>
      <use x="561.181641" xlink:href="#TimesNewRomanPSMT-75"/>
      <use x="611.181641" xlink:href="#TimesNewRomanPSMT-72"/>
      <use x="644.482422" xlink:href="#TimesNewRomanPSMT-76"/>
      <use x="694.482422" xlink:href="#TimesNewRomanPSMT-61"/>
      <use x="738.867188" xlink:href="#TimesNewRomanPSMT-74"/>
      <use x="766.650391" xlink:href="#TimesNewRomanPSMT-75"/>
      <use x="816.650391" xlink:href="#TimesNewRomanPSMT-72"/>
      <use x="849.951172" xlink:href="#TimesNewRomanPSMT-65"/>
      <use x="894.335938" xlink:href="#TimesNewRomanPSMT-20"/>
      <use x="919.335938" xlink:href="#TimesNewRomanPSMT-50"/>
      <use x="974.951172" xlink:href="#TimesNewRomanPSMT-72"/>
      <use x="1008.251953" xlink:href="#TimesNewRomanPSMT-6f"/>
      <use x="1058.251953" xlink:href="#TimesNewRomanPSMT-66"/>
      <use x="1091.552734" xlink:href="#TimesNewRomanPSMT-69"/>
      <use x="1119.335938" xlink:href="#TimesNewRomanPSMT-6c"/>
      <use x="1147.119141" xlink:href="#TimesNewRomanPSMT-65"/>
     </g>
    </g>
    <g id="line2d_21">
     <path d="M 65.664062 46.097813 
L 85.664062 46.097813 
" style="fill:none;stroke:#00ffff;stroke-linecap:square;stroke-width:0.5;"/>
    </g>
    <g id="line2d_22"/>
    <g id="text_12">
     <!-- Refined Path Curvature Profile -->
     <defs>
      <path d="M 16.15625 36.578125 
Q 24.03125 46.046875 31.15625 46.046875 
Q 34.8125 46.046875 37.453125 44.21875 
Q 40.09375 42.390625 41.65625 38.1875 
Q 42.71875 35.25 42.71875 29.203125 
L 42.71875 10.109375 
Q 42.71875 5.859375 43.40625 4.34375 
Q 43.953125 3.125 45.140625 2.4375 
Q 46.34375 1.765625 49.5625 1.765625 
L 49.5625 0 
L 27.4375 0 
L 27.4375 1.765625 
L 28.375 1.765625 
Q 31.5 1.765625 32.734375 2.703125 
Q 33.984375 3.65625 34.46875 5.515625 
Q 34.671875 6.25 34.671875 10.109375 
L 34.671875 28.421875 
Q 34.671875 34.515625 33.078125 37.28125 
Q 31.5 40.046875 27.734375 40.046875 
Q 21.921875 40.046875 16.15625 33.6875 
L 16.15625 10.109375 
Q 16.15625 5.5625 16.703125 4.5 
Q 17.390625 3.078125 18.578125 2.421875 
Q 19.78125 1.765625 23.4375 1.765625 
L 23.4375 0 
L 1.3125 0 
L 1.3125 1.765625 
L 2.296875 1.765625 
Q 5.71875 1.765625 6.90625 3.484375 
Q 8.109375 5.21875 8.109375 10.109375 
L 8.109375 26.703125 
Q 8.109375 34.765625 7.734375 36.515625 
Q 7.375 38.28125 6.609375 38.90625 
Q 5.859375 39.546875 4.59375 39.546875 
Q 3.21875 39.546875 1.3125 38.8125 
L 0.59375 40.578125 
L 14.0625 46.046875 
L 16.15625 46.046875 
z
" id="TimesNewRomanPSMT-6e"/>
      <path d="M 34.71875 5.03125 
Q 31.453125 1.609375 28.328125 0.109375 
Q 25.203125 -1.375 21.578125 -1.375 
Q 14.265625 -1.375 8.796875 4.75 
Q 3.328125 10.890625 3.328125 20.515625 
Q 3.328125 30.125 9.375 38.109375 
Q 15.4375 46.09375 24.953125 46.09375 
Q 30.859375 46.09375 34.71875 42.328125 
L 34.71875 50.59375 
Q 34.71875 58.25 34.34375 60 
Q 33.984375 61.765625 33.203125 62.390625 
Q 32.421875 63.03125 31.25 63.03125 
Q 29.984375 63.03125 27.875 62.25 
L 27.25 63.96875 
L 40.578125 69.4375 
L 42.78125 69.4375 
L 42.78125 17.71875 
Q 42.78125 9.859375 43.140625 8.125 
Q 43.5 6.390625 44.3125 5.703125 
Q 45.125 5.03125 46.1875 5.03125 
Q 47.515625 5.03125 49.703125 5.859375 
L 50.25 4.15625 
L 36.96875 -1.375 
L 34.71875 -1.375 
z
M 34.71875 8.453125 
L 34.71875 31.5 
Q 34.421875 34.8125 32.953125 37.546875 
Q 31.5 40.28125 29.078125 41.671875 
Q 26.65625 43.0625 24.359375 43.0625 
Q 20.0625 43.0625 16.703125 39.203125 
Q 12.25 34.125 12.25 24.359375 
Q 12.25 14.5 16.546875 9.25 
Q 20.84375 4 26.125 4 
Q 30.5625 4 34.71875 8.453125 
z
" id="TimesNewRomanPSMT-64"/>
     </defs>
     <g transform="translate(93.664062 49.597813)scale(0.1 -0.1)">
      <use xlink:href="#TimesNewRomanPSMT-52"/>
      <use x="66.699219" xlink:href="#TimesNewRomanPSMT-65"/>
      <use x="111.083984" xlink:href="#TimesNewRomanPSMT-66"/>
      <use x="144.384766" xlink:href="#TimesNewRomanPSMT-69"/>
      <use x="172.167969" xlink:href="#TimesNewRomanPSMT-6e"/>
      <use x="222.167969" xlink:href="#TimesNewRomanPSMT-65"/>
      <use x="266.552734" xlink:href="#TimesNewRomanPSMT-64"/>
      <use x="316.552734" xlink:href="#TimesNewRomanPSMT-20"/>
      <use x="341.552734" xlink:href="#TimesNewRomanPSMT-50"/>
      <use x="397.167969" xlink:href="#TimesNewRomanPSMT-61"/>
      <use x="441.552734" xlink:href="#TimesNewRomanPSMT-74"/>
      <use x="469.335938" xlink:href="#TimesNewRomanPSMT-68"/>
      <use x="519.335938" xlink:href="#TimesNewRomanPSMT-20"/>
      <use x="544.335938" xlink:href="#TimesNewRomanPSMT-43"/>
      <use x="611.035156" xlink:href="#TimesNewRomanPSMT-75"/>
      <use x="661.035156" xlink:href="#TimesNewRomanPSMT-72"/>
      <use x="694.335938" xlink:href="#TimesNewRomanPSMT-76"/>
      <use x="744.335938" xlink:href="#TimesNewRomanPSMT-61"/>
      <use x="788.720703" xlink:href="#TimesNewRomanPSMT-74"/>
      <use x="816.503906" xlink:href="#TimesNewRomanPSMT-75"/>
      <use x="866.503906" xlink:href="#TimesNewRomanPSMT-72"/>
      <use x="899.804688" xlink:href="#TimesNewRomanPSMT-65"/>
      <use x="944.189453" xlink:href="#TimesNewRomanPSMT-20"/>
      <use x="969.189453" xlink:href="#TimesNewRomanPSMT-50"/>
      <use x="1024.804688" xlink:href="#TimesNewRomanPSMT-72"/>
      <use x="1058.105469" xlink:href="#TimesNewRomanPSMT-6f"/>
      <use x="1108.105469" xlink:href="#TimesNewRomanPSMT-66"/>
      <use x="1141.40625" xlink:href="#TimesNewRomanPSMT-69"/>
      <use x="1169.189453" xlink:href="#TimesNewRomanPSMT-6c"/>
      <use x="1196.972656" xlink:href="#TimesNewRomanPSMT-65"/>
     </g>
    </g>
   </g>
  </g>
 </g>
 <defs>
  <clipPath id="p65449f797b">
   <rect height="77.76" width="176.4" x="50.4" y="19.44"/>
  </clipPath>
 </defs>
</svg>
