<?xml version="1.0" encoding="utf-8" standalone="no"?>
<!DOCTYPE svg PUBLIC "-//W3C//DTD SVG 1.1//EN"
  "http://www.w3.org/Graphics/SVG/1.1/DTD/svg11.dtd">
<!-- Created with matplotlib (http://matplotlib.org/) -->
<svg height="461pt" version="1.1" viewBox="0 0 534 461" width="534pt" xmlns="http://www.w3.org/2000/svg" xmlns:xlink="http://www.w3.org/1999/xlink">
 <defs>
  <style type="text/css">
*{stroke-linecap:butt;stroke-linejoin:round;}
  </style>
 </defs>
 <g id="figure_1">
  <g id="patch_1">
   <path d="M 0 461.52 
L 534.96 461.52 
L 534.96 0 
L 0 0 
z
" style="fill:#ffffff;"/>
  </g>
  <g id="axes_1">
   <g id="patch_2">
    <path d="M 58.8456 212.340967 
L 260.355196 212.340967 
L 260.355196 36.9216 
L 58.8456 36.9216 
z
" style="fill:#ffffff;"/>
   </g>
   <g id="matplotlib.axis_1">
    <g id="xtick_1">
     <g id="line2d_1">
      <defs>
       <path d="M 0 0 
L 0 3.5 
" id="mc062047202" style="stroke:#000000;stroke-width:0.8;"/>
      </defs>
      <g>
       <use style="stroke:#000000;stroke-width:0.8;" x="68.005127" xlink:href="#mc062047202" y="212.340967"/>
      </g>
     </g>
     <g id="text_1">
      <!-- 0 -->
      <defs>
       <path d="M 31.78125 66.40625 
Q 24.171875 66.40625 20.328125 58.90625 
Q 16.5 51.421875 16.5 36.375 
Q 16.5 21.390625 20.328125 13.890625 
Q 24.171875 6.390625 31.78125 6.390625 
Q 39.453125 6.390625 43.28125 13.890625 
Q 47.125 21.390625 47.125 36.375 
Q 47.125 51.421875 43.28125 58.90625 
Q 39.453125 66.40625 31.78125 66.40625 
z
M 31.78125 74.21875 
Q 44.046875 74.21875 50.515625 64.515625 
Q 56.984375 54.828125 56.984375 36.375 
Q 56.984375 17.96875 50.515625 8.265625 
Q 44.046875 -1.421875 31.78125 -1.421875 
Q 19.53125 -1.421875 13.0625 8.265625 
Q 6.59375 17.96875 6.59375 36.375 
Q 6.59375 54.828125 13.0625 64.515625 
Q 19.53125 74.21875 31.78125 74.21875 
z
" id="DejaVuSans-30"/>
      </defs>
      <g transform="translate(64.823877 226.939404)scale(0.1 -0.1)">
       <use xlink:href="#DejaVuSans-30"/>
      </g>
     </g>
    </g>
    <g id="xtick_2">
     <g id="line2d_2">
      <g>
       <use style="stroke:#000000;stroke-width:0.8;" x="112.147426" xlink:href="#mc062047202" y="212.340967"/>
      </g>
     </g>
     <g id="text_2">
      <!-- 2 -->
      <defs>
       <path d="M 19.1875 8.296875 
L 53.609375 8.296875 
L 53.609375 0 
L 7.328125 0 
L 7.328125 8.296875 
Q 12.9375 14.109375 22.625 23.890625 
Q 32.328125 33.6875 34.8125 36.53125 
Q 39.546875 41.84375 41.421875 45.53125 
Q 43.3125 49.21875 43.3125 52.78125 
Q 43.3125 58.59375 39.234375 62.25 
Q 35.15625 65.921875 28.609375 65.921875 
Q 23.96875 65.921875 18.8125 64.3125 
Q 13.671875 62.703125 7.8125 59.421875 
L 7.8125 69.390625 
Q 13.765625 71.78125 18.9375 73 
Q 24.125 74.21875 28.421875 74.21875 
Q 39.75 74.21875 46.484375 68.546875 
Q 53.21875 62.890625 53.21875 53.421875 
Q 53.21875 48.921875 51.53125 44.890625 
Q 49.859375 40.875 45.40625 35.40625 
Q 44.1875 33.984375 37.640625 27.21875 
Q 31.109375 20.453125 19.1875 8.296875 
z
" id="DejaVuSans-32"/>
      </defs>
      <g transform="translate(108.966176 226.939404)scale(0.1 -0.1)">
       <use xlink:href="#DejaVuSans-32"/>
      </g>
     </g>
    </g>
    <g id="xtick_3">
     <g id="line2d_3">
      <g>
       <use style="stroke:#000000;stroke-width:0.8;" x="156.289726" xlink:href="#mc062047202" y="212.340967"/>
      </g>
     </g>
     <g id="text_3">
      <!-- 4 -->
      <defs>
       <path d="M 37.796875 64.3125 
L 12.890625 25.390625 
L 37.796875 25.390625 
z
M 35.203125 72.90625 
L 47.609375 72.90625 
L 47.609375 25.390625 
L 58.015625 25.390625 
L 58.015625 17.1875 
L 47.609375 17.1875 
L 47.609375 0 
L 37.796875 0 
L 37.796875 17.1875 
L 4.890625 17.1875 
L 4.890625 26.703125 
z
" id="DejaVuSans-34"/>
      </defs>
      <g transform="translate(153.108476 226.939404)scale(0.1 -0.1)">
       <use xlink:href="#DejaVuSans-34"/>
      </g>
     </g>
    </g>
    <g id="xtick_4">
     <g id="line2d_4">
      <g>
       <use style="stroke:#000000;stroke-width:0.8;" x="200.432025" xlink:href="#mc062047202" y="212.340967"/>
      </g>
     </g>
     <g id="text_4">
      <!-- 6 -->
      <defs>
       <path d="M 33.015625 40.375 
Q 26.375 40.375 22.484375 35.828125 
Q 18.609375 31.296875 18.609375 23.390625 
Q 18.609375 15.53125 22.484375 10.953125 
Q 26.375 6.390625 33.015625 6.390625 
Q 39.65625 6.390625 43.53125 10.953125 
Q 47.40625 15.53125 47.40625 23.390625 
Q 47.40625 31.296875 43.53125 35.828125 
Q 39.65625 40.375 33.015625 40.375 
z
M 52.59375 71.296875 
L 52.59375 62.3125 
Q 48.875 64.0625 45.09375 64.984375 
Q 41.3125 65.921875 37.59375 65.921875 
Q 27.828125 65.921875 22.671875 59.328125 
Q 17.53125 52.734375 16.796875 39.40625 
Q 19.671875 43.65625 24.015625 45.921875 
Q 28.375 48.1875 33.59375 48.1875 
Q 44.578125 48.1875 50.953125 41.515625 
Q 57.328125 34.859375 57.328125 23.390625 
Q 57.328125 12.15625 50.6875 5.359375 
Q 44.046875 -1.421875 33.015625 -1.421875 
Q 20.359375 -1.421875 13.671875 8.265625 
Q 6.984375 17.96875 6.984375 36.375 
Q 6.984375 53.65625 15.1875 63.9375 
Q 23.390625 74.21875 37.203125 74.21875 
Q 40.921875 74.21875 44.703125 73.484375 
Q 48.484375 72.75 52.59375 71.296875 
z
" id="DejaVuSans-36"/>
      </defs>
      <g transform="translate(197.250775 226.939404)scale(0.1 -0.1)">
       <use xlink:href="#DejaVuSans-36"/>
      </g>
     </g>
    </g>
    <g id="xtick_5">
     <g id="line2d_5">
      <g>
       <use style="stroke:#000000;stroke-width:0.8;" x="244.574324" xlink:href="#mc062047202" y="212.340967"/>
      </g>
     </g>
     <g id="text_5">
      <!-- 8 -->
      <defs>
       <path d="M 31.78125 34.625 
Q 24.75 34.625 20.71875 30.859375 
Q 16.703125 27.09375 16.703125 20.515625 
Q 16.703125 13.921875 20.71875 10.15625 
Q 24.75 6.390625 31.78125 6.390625 
Q 38.8125 6.390625 42.859375 10.171875 
Q 46.921875 13.96875 46.921875 20.515625 
Q 46.921875 27.09375 42.890625 30.859375 
Q 38.875 34.625 31.78125 34.625 
z
M 21.921875 38.8125 
Q 15.578125 40.375 12.03125 44.71875 
Q 8.5 49.078125 8.5 55.328125 
Q 8.5 64.0625 14.71875 69.140625 
Q 20.953125 74.21875 31.78125 74.21875 
Q 42.671875 74.21875 48.875 69.140625 
Q 55.078125 64.0625 55.078125 55.328125 
Q 55.078125 49.078125 51.53125 44.71875 
Q 48 40.375 41.703125 38.8125 
Q 48.828125 37.15625 52.796875 32.3125 
Q 56.78125 27.484375 56.78125 20.515625 
Q 56.78125 9.90625 50.3125 4.234375 
Q 43.84375 -1.421875 31.78125 -1.421875 
Q 19.734375 -1.421875 13.25 4.234375 
Q 6.78125 9.90625 6.78125 20.515625 
Q 6.78125 27.484375 10.78125 32.3125 
Q 14.796875 37.15625 21.921875 38.8125 
z
M 18.3125 54.390625 
Q 18.3125 48.734375 21.84375 45.5625 
Q 25.390625 42.390625 31.78125 42.390625 
Q 38.140625 42.390625 41.71875 45.5625 
Q 45.3125 48.734375 45.3125 54.390625 
Q 45.3125 60.0625 41.71875 63.234375 
Q 38.140625 66.40625 31.78125 66.40625 
Q 25.390625 66.40625 21.84375 63.234375 
Q 18.3125 60.0625 18.3125 54.390625 
z
" id="DejaVuSans-38"/>
      </defs>
      <g transform="translate(241.393074 226.939404)scale(0.1 -0.1)">
       <use xlink:href="#DejaVuSans-38"/>
      </g>
     </g>
    </g>
    <g id="text_6">
     <!-- time -->
     <defs>
      <path d="M 18.3125 70.21875 
L 18.3125 54.6875 
L 36.8125 54.6875 
L 36.8125 47.703125 
L 18.3125 47.703125 
L 18.3125 18.015625 
Q 18.3125 11.328125 20.140625 9.421875 
Q 21.96875 7.515625 27.59375 7.515625 
L 36.8125 7.515625 
L 36.8125 0 
L 27.59375 0 
Q 17.1875 0 13.234375 3.875 
Q 9.28125 7.765625 9.28125 18.015625 
L 9.28125 47.703125 
L 2.6875 47.703125 
L 2.6875 54.6875 
L 9.28125 54.6875 
L 9.28125 70.21875 
z
" id="DejaVuSans-74"/>
      <path d="M 9.421875 54.6875 
L 18.40625 54.6875 
L 18.40625 0 
L 9.421875 0 
z
M 9.421875 75.984375 
L 18.40625 75.984375 
L 18.40625 64.59375 
L 9.421875 64.59375 
z
" id="DejaVuSans-69"/>
      <path d="M 52 44.1875 
Q 55.375 50.25 60.0625 53.125 
Q 64.75 56 71.09375 56 
Q 79.640625 56 84.28125 50.015625 
Q 88.921875 44.046875 88.921875 33.015625 
L 88.921875 0 
L 79.890625 0 
L 79.890625 32.71875 
Q 79.890625 40.578125 77.09375 44.375 
Q 74.3125 48.1875 68.609375 48.1875 
Q 61.625 48.1875 57.5625 43.546875 
Q 53.515625 38.921875 53.515625 30.90625 
L 53.515625 0 
L 44.484375 0 
L 44.484375 32.71875 
Q 44.484375 40.625 41.703125 44.40625 
Q 38.921875 48.1875 33.109375 48.1875 
Q 26.21875 48.1875 22.15625 43.53125 
Q 18.109375 38.875 18.109375 30.90625 
L 18.109375 0 
L 9.078125 0 
L 9.078125 54.6875 
L 18.109375 54.6875 
L 18.109375 46.1875 
Q 21.1875 51.21875 25.484375 53.609375 
Q 29.78125 56 35.6875 56 
Q 41.65625 56 45.828125 52.96875 
Q 50 49.953125 52 44.1875 
z
" id="DejaVuSans-6d"/>
      <path d="M 56.203125 29.59375 
L 56.203125 25.203125 
L 14.890625 25.203125 
Q 15.484375 15.921875 20.484375 11.0625 
Q 25.484375 6.203125 34.421875 6.203125 
Q 39.59375 6.203125 44.453125 7.46875 
Q 49.3125 8.734375 54.109375 11.28125 
L 54.109375 2.78125 
Q 49.265625 0.734375 44.1875 -0.34375 
Q 39.109375 -1.421875 33.890625 -1.421875 
Q 20.796875 -1.421875 13.15625 6.1875 
Q 5.515625 13.8125 5.515625 26.8125 
Q 5.515625 40.234375 12.765625 48.109375 
Q 20.015625 56 32.328125 56 
Q 43.359375 56 49.78125 48.890625 
Q 56.203125 41.796875 56.203125 29.59375 
z
M 47.21875 32.234375 
Q 47.125 39.59375 43.09375 43.984375 
Q 39.0625 48.390625 32.421875 48.390625 
Q 24.90625 48.390625 20.390625 44.140625 
Q 15.875 39.890625 15.1875 32.171875 
z
" id="DejaVuSans-65"/>
     </defs>
     <g transform="translate(148.304304 240.617529)scale(0.1 -0.1)">
      <use xlink:href="#DejaVuSans-74"/>
      <use x="39.208984" xlink:href="#DejaVuSans-69"/>
      <use x="66.992188" xlink:href="#DejaVuSans-6d"/>
      <use x="164.404297" xlink:href="#DejaVuSans-65"/>
     </g>
    </g>
   </g>
   <g id="matplotlib.axis_2">
    <g id="ytick_1">
     <g id="line2d_6">
      <defs>
       <path d="M 0 0 
L -3.5 0 
" id="md74e694a8f" style="stroke:#000000;stroke-width:0.8;"/>
      </defs>
      <g>
       <use style="stroke:#000000;stroke-width:0.8;" x="58.8456" xlink:href="#md74e694a8f" y="204.367359"/>
      </g>
     </g>
     <g id="text_7">
      <!-- 0 -->
      <g transform="translate(45.4831 208.166578)scale(0.1 -0.1)">
       <use xlink:href="#DejaVuSans-30"/>
      </g>
     </g>
    </g>
    <g id="ytick_2">
     <g id="line2d_7">
      <g>
       <use style="stroke:#000000;stroke-width:0.8;" x="58.8456" xlink:href="#md74e694a8f" y="176.494691"/>
      </g>
     </g>
     <g id="text_8">
      <!-- 10 -->
      <defs>
       <path d="M 12.40625 8.296875 
L 28.515625 8.296875 
L 28.515625 63.921875 
L 10.984375 60.40625 
L 10.984375 69.390625 
L 28.421875 72.90625 
L 38.28125 72.90625 
L 38.28125 8.296875 
L 54.390625 8.296875 
L 54.390625 0 
L 12.40625 0 
z
" id="DejaVuSans-31"/>
      </defs>
      <g transform="translate(39.1206 180.29391)scale(0.1 -0.1)">
       <use xlink:href="#DejaVuSans-31"/>
       <use x="63.623047" xlink:href="#DejaVuSans-30"/>
      </g>
     </g>
    </g>
    <g id="ytick_3">
     <g id="line2d_8">
      <g>
       <use style="stroke:#000000;stroke-width:0.8;" x="58.8456" xlink:href="#md74e694a8f" y="148.622023"/>
      </g>
     </g>
     <g id="text_9">
      <!-- 20 -->
      <g transform="translate(39.1206 152.421242)scale(0.1 -0.1)">
       <use xlink:href="#DejaVuSans-32"/>
       <use x="63.623047" xlink:href="#DejaVuSans-30"/>
      </g>
     </g>
    </g>
    <g id="ytick_4">
     <g id="line2d_9">
      <g>
       <use style="stroke:#000000;stroke-width:0.8;" x="58.8456" xlink:href="#md74e694a8f" y="120.749355"/>
      </g>
     </g>
     <g id="text_10">
      <!-- 30 -->
      <defs>
       <path d="M 40.578125 39.3125 
Q 47.65625 37.796875 51.625 33 
Q 55.609375 28.21875 55.609375 21.1875 
Q 55.609375 10.40625 48.1875 4.484375 
Q 40.765625 -1.421875 27.09375 -1.421875 
Q 22.515625 -1.421875 17.65625 -0.515625 
Q 12.796875 0.390625 7.625 2.203125 
L 7.625 11.71875 
Q 11.71875 9.328125 16.59375 8.109375 
Q 21.484375 6.890625 26.8125 6.890625 
Q 36.078125 6.890625 40.9375 10.546875 
Q 45.796875 14.203125 45.796875 21.1875 
Q 45.796875 27.640625 41.28125 31.265625 
Q 36.765625 34.90625 28.71875 34.90625 
L 20.21875 34.90625 
L 20.21875 43.015625 
L 29.109375 43.015625 
Q 36.375 43.015625 40.234375 45.921875 
Q 44.09375 48.828125 44.09375 54.296875 
Q 44.09375 59.90625 40.109375 62.90625 
Q 36.140625 65.921875 28.71875 65.921875 
Q 24.65625 65.921875 20.015625 65.03125 
Q 15.375 64.15625 9.8125 62.3125 
L 9.8125 71.09375 
Q 15.4375 72.65625 20.34375 73.4375 
Q 25.25 74.21875 29.59375 74.21875 
Q 40.828125 74.21875 47.359375 69.109375 
Q 53.90625 64.015625 53.90625 55.328125 
Q 53.90625 49.265625 50.4375 45.09375 
Q 46.96875 40.921875 40.578125 39.3125 
z
" id="DejaVuSans-33"/>
      </defs>
      <g transform="translate(39.1206 124.548574)scale(0.1 -0.1)">
       <use xlink:href="#DejaVuSans-33"/>
       <use x="63.623047" xlink:href="#DejaVuSans-30"/>
      </g>
     </g>
    </g>
    <g id="ytick_5">
     <g id="line2d_10">
      <g>
       <use style="stroke:#000000;stroke-width:0.8;" x="58.8456" xlink:href="#md74e694a8f" y="92.876687"/>
      </g>
     </g>
     <g id="text_11">
      <!-- 40 -->
      <g transform="translate(39.1206 96.675906)scale(0.1 -0.1)">
       <use xlink:href="#DejaVuSans-34"/>
       <use x="63.623047" xlink:href="#DejaVuSans-30"/>
      </g>
     </g>
    </g>
    <g id="ytick_6">
     <g id="line2d_11">
      <g>
       <use style="stroke:#000000;stroke-width:0.8;" x="58.8456" xlink:href="#md74e694a8f" y="65.004019"/>
      </g>
     </g>
     <g id="text_12">
      <!-- 50 -->
      <defs>
       <path d="M 10.796875 72.90625 
L 49.515625 72.90625 
L 49.515625 64.59375 
L 19.828125 64.59375 
L 19.828125 46.734375 
Q 21.96875 47.46875 24.109375 47.828125 
Q 26.265625 48.1875 28.421875 48.1875 
Q 40.625 48.1875 47.75 41.5 
Q 54.890625 34.8125 54.890625 23.390625 
Q 54.890625 11.625 47.5625 5.09375 
Q 40.234375 -1.421875 26.90625 -1.421875 
Q 22.3125 -1.421875 17.546875 -0.640625 
Q 12.796875 0.140625 7.71875 1.703125 
L 7.71875 11.625 
Q 12.109375 9.234375 16.796875 8.0625 
Q 21.484375 6.890625 26.703125 6.890625 
Q 35.15625 6.890625 40.078125 11.328125 
Q 45.015625 15.765625 45.015625 23.390625 
Q 45.015625 31 40.078125 35.4375 
Q 35.15625 39.890625 26.703125 39.890625 
Q 22.75 39.890625 18.8125 39.015625 
Q 14.890625 38.140625 10.796875 36.28125 
z
" id="DejaVuSans-35"/>
      </defs>
      <g transform="translate(39.1206 68.803238)scale(0.1 -0.1)">
       <use xlink:href="#DejaVuSans-35"/>
       <use x="63.623047" xlink:href="#DejaVuSans-30"/>
      </g>
     </g>
    </g>
    <g id="ytick_7">
     <g id="line2d_12">
      <g>
       <use style="stroke:#000000;stroke-width:0.8;" x="58.8456" xlink:href="#md74e694a8f" y="37.131351"/>
      </g>
     </g>
     <g id="text_13">
      <!-- 60 -->
      <g transform="translate(39.1206 40.93057)scale(0.1 -0.1)">
       <use xlink:href="#DejaVuSans-36"/>
       <use x="63.623047" xlink:href="#DejaVuSans-30"/>
      </g>
     </g>
    </g>
    <g id="text_14">
     <!-- station -->
     <defs>
      <path d="M 44.28125 53.078125 
L 44.28125 44.578125 
Q 40.484375 46.53125 36.375 47.5 
Q 32.28125 48.484375 27.875 48.484375 
Q 21.1875 48.484375 17.84375 46.4375 
Q 14.5 44.390625 14.5 40.28125 
Q 14.5 37.15625 16.890625 35.375 
Q 19.28125 33.59375 26.515625 31.984375 
L 29.59375 31.296875 
Q 39.15625 29.25 43.1875 25.515625 
Q 47.21875 21.78125 47.21875 15.09375 
Q 47.21875 7.46875 41.1875 3.015625 
Q 35.15625 -1.421875 24.609375 -1.421875 
Q 20.21875 -1.421875 15.453125 -0.5625 
Q 10.6875 0.296875 5.421875 2 
L 5.421875 11.28125 
Q 10.40625 8.6875 15.234375 7.390625 
Q 20.0625 6.109375 24.8125 6.109375 
Q 31.15625 6.109375 34.5625 8.28125 
Q 37.984375 10.453125 37.984375 14.40625 
Q 37.984375 18.0625 35.515625 20.015625 
Q 33.0625 21.96875 24.703125 23.78125 
L 21.578125 24.515625 
Q 13.234375 26.265625 9.515625 29.90625 
Q 5.8125 33.546875 5.8125 39.890625 
Q 5.8125 47.609375 11.28125 51.796875 
Q 16.75 56 26.8125 56 
Q 31.78125 56 36.171875 55.265625 
Q 40.578125 54.546875 44.28125 53.078125 
z
" id="DejaVuSans-73"/>
      <path d="M 34.28125 27.484375 
Q 23.390625 27.484375 19.1875 25 
Q 14.984375 22.515625 14.984375 16.5 
Q 14.984375 11.71875 18.140625 8.90625 
Q 21.296875 6.109375 26.703125 6.109375 
Q 34.1875 6.109375 38.703125 11.40625 
Q 43.21875 16.703125 43.21875 25.484375 
L 43.21875 27.484375 
z
M 52.203125 31.203125 
L 52.203125 0 
L 43.21875 0 
L 43.21875 8.296875 
Q 40.140625 3.328125 35.546875 0.953125 
Q 30.953125 -1.421875 24.3125 -1.421875 
Q 15.921875 -1.421875 10.953125 3.296875 
Q 6 8.015625 6 15.921875 
Q 6 25.140625 12.171875 29.828125 
Q 18.359375 34.515625 30.609375 34.515625 
L 43.21875 34.515625 
L 43.21875 35.40625 
Q 43.21875 41.609375 39.140625 45 
Q 35.0625 48.390625 27.6875 48.390625 
Q 23 48.390625 18.546875 47.265625 
Q 14.109375 46.140625 10.015625 43.890625 
L 10.015625 52.203125 
Q 14.9375 54.109375 19.578125 55.046875 
Q 24.21875 56 28.609375 56 
Q 40.484375 56 46.34375 49.84375 
Q 52.203125 43.703125 52.203125 31.203125 
z
" id="DejaVuSans-61"/>
      <path d="M 30.609375 48.390625 
Q 23.390625 48.390625 19.1875 42.75 
Q 14.984375 37.109375 14.984375 27.296875 
Q 14.984375 17.484375 19.15625 11.84375 
Q 23.34375 6.203125 30.609375 6.203125 
Q 37.796875 6.203125 41.984375 11.859375 
Q 46.1875 17.53125 46.1875 27.296875 
Q 46.1875 37.015625 41.984375 42.703125 
Q 37.796875 48.390625 30.609375 48.390625 
z
M 30.609375 56 
Q 42.328125 56 49.015625 48.375 
Q 55.71875 40.765625 55.71875 27.296875 
Q 55.71875 13.875 49.015625 6.21875 
Q 42.328125 -1.421875 30.609375 -1.421875 
Q 18.84375 -1.421875 12.171875 6.21875 
Q 5.515625 13.875 5.515625 27.296875 
Q 5.515625 40.765625 12.171875 48.375 
Q 18.84375 56 30.609375 56 
z
" id="DejaVuSans-6f"/>
      <path d="M 54.890625 33.015625 
L 54.890625 0 
L 45.90625 0 
L 45.90625 32.71875 
Q 45.90625 40.484375 42.875 44.328125 
Q 39.84375 48.1875 33.796875 48.1875 
Q 26.515625 48.1875 22.3125 43.546875 
Q 18.109375 38.921875 18.109375 30.90625 
L 18.109375 0 
L 9.078125 0 
L 9.078125 54.6875 
L 18.109375 54.6875 
L 18.109375 46.1875 
Q 21.34375 51.125 25.703125 53.5625 
Q 30.078125 56 35.796875 56 
Q 45.21875 56 50.046875 50.171875 
Q 54.890625 44.34375 54.890625 33.015625 
z
" id="DejaVuSans-6e"/>
     </defs>
     <g transform="translate(33.040913 141.837533)rotate(-90)scale(0.1 -0.1)">
      <use xlink:href="#DejaVuSans-73"/>
      <use x="52.099609" xlink:href="#DejaVuSans-74"/>
      <use x="91.308594" xlink:href="#DejaVuSans-61"/>
      <use x="152.587891" xlink:href="#DejaVuSans-74"/>
      <use x="191.796875" xlink:href="#DejaVuSans-69"/>
      <use x="219.580078" xlink:href="#DejaVuSans-6f"/>
      <use x="280.761719" xlink:href="#DejaVuSans-6e"/>
     </g>
    </g>
   </g>
   <g id="line2d_13">
    <path clip-path="url(#p8423e33102)" d="M 68.005127 204.367359 
L 70.212242 204.367359 
L 72.419357 204.367359 
L 74.626472 204.367359 
L 76.833587 204.353423 
L 79.040702 204.311614 
L 81.247817 204.227996 
L 83.454932 204.088643 
L 85.662047 203.884392 
L 87.869162 203.610696 
L 90.076277 203.26732 
L 92.283392 202.854261 
L 94.490507 202.371521 
L 96.697622 201.819099 
L 98.904737 201.196995 
L 101.111852 200.50521 
L 103.318967 199.743743 
L 105.526082 198.912595 
L 107.733197 198.011764 
L 109.940311 197.041253 
L 112.147426 196.001059 
L 114.354541 194.891184 
L 116.561656 193.711627 
L 118.768771 192.462388 
L 120.975886 191.143468 
L 123.183001 189.754866 
L 125.390116 188.296583 
L 127.597231 186.768618 
L 129.804346 185.170971 
L 132.011461 183.503825 
L 134.218576 181.767959 
L 136.425691 179.964657 
L 138.632806 178.095617 
L 140.839921 176.162869 
L 143.047036 174.168704 
L 145.254151 172.115611 
L 147.461266 170.006223 
L 149.668381 167.84327 
L 151.875496 165.629538 
L 154.082611 163.367833 
L 156.289726 161.060957 
L 158.496841 158.711676 
L 160.703956 156.322706 
L 162.911071 153.896692 
L 165.118186 151.436198 
L 167.325301 148.943695 
L 169.532416 146.42155 
L 171.739531 143.872027 
L 173.946645 141.297277 
L 176.15376 138.699339 
L 178.360875 136.080137 
L 180.56799 133.441483 
L 182.775105 130.785077 
L 184.98222 128.112506 
L 187.189335 125.425253 
L 189.39645 122.724695 
L 191.603565 120.01211 
L 193.81068 117.28868 
L 196.017795 114.555494 
L 198.22491 111.813555 
L 200.432025 109.063782 
L 202.63914 106.307019 
L 204.846255 103.544033 
L 207.05337 100.775526 
L 209.260485 98.002133 
L 211.4676 95.224431 
L 213.674715 92.442942 
L 215.88183 89.658135 
L 218.088945 86.870436 
L 220.29606 84.080225 
L 222.503175 81.287845 
L 224.71029 78.493601 
L 226.917405 75.69777 
L 229.12452 72.900599 
L 231.331635 70.102309 
L 233.53875 67.303103 
L 235.745865 64.50316 
L 237.95298 61.702649 
L 240.160094 58.901723 
L 242.367209 56.100527 
L 244.574324 53.299197 
L 246.781439 50.497867 
L 248.988554 47.696537 
L 251.195669 44.895208 
" style="fill:none;stroke:#1f77b4;stroke-linecap:square;"/>
   </g>
   <g id="patch_3">
    <path d="M 58.8456 212.340967 
L 58.8456 36.9216 
" style="fill:none;stroke:#000000;stroke-linecap:square;stroke-linejoin:miter;stroke-width:0.8;"/>
   </g>
   <g id="patch_4">
    <path d="M 260.355196 212.340967 
L 260.355196 36.9216 
" style="fill:none;stroke:#000000;stroke-linecap:square;stroke-linejoin:miter;stroke-width:0.8;"/>
   </g>
   <g id="patch_5">
    <path d="M 58.8456 212.340967 
L 260.355196 212.340967 
" style="fill:none;stroke:#000000;stroke-linecap:square;stroke-linejoin:miter;stroke-width:0.8;"/>
   </g>
   <g id="patch_6">
    <path d="M 58.8456 36.9216 
L 260.355196 36.9216 
" style="fill:none;stroke:#000000;stroke-linecap:square;stroke-linejoin:miter;stroke-width:0.8;"/>
   </g>
   <g id="legend_1">
    <g id="patch_7">
     <path d="M 65.8456 59.599725 
L 110.5831 59.599725 
Q 112.5831 59.599725 112.5831 57.599725 
L 112.5831 43.9216 
Q 112.5831 41.9216 110.5831 41.9216 
L 65.8456 41.9216 
Q 63.8456 41.9216 63.8456 43.9216 
L 63.8456 57.599725 
Q 63.8456 59.599725 65.8456 59.599725 
z
" style="fill:#ffffff;opacity:0.8;stroke:#cccccc;stroke-linejoin:miter;"/>
    </g>
    <g id="line2d_14">
     <path d="M 67.8456 50.020037 
L 87.8456 50.020037 
" style="fill:none;stroke:#1f77b4;stroke-linecap:square;"/>
    </g>
    <g id="line2d_15"/>
    <g id="text_15">
     <!-- s-t -->
     <defs>
      <path d="M 4.890625 31.390625 
L 31.203125 31.390625 
L 31.203125 23.390625 
L 4.890625 23.390625 
z
" id="DejaVuSans-2d"/>
     </defs>
     <g transform="translate(95.8456 53.520037)scale(0.1 -0.1)">
      <use xlink:href="#DejaVuSans-73"/>
      <use x="52.099609" xlink:href="#DejaVuSans-2d"/>
      <use x="88.183594" xlink:href="#DejaVuSans-74"/>
     </g>
    </g>
   </g>
  </g>
  <g id="axes_2">
   <g id="patch_8">
    <path d="M 306.702404 212.340967 
L 508.212 212.340967 
L 508.212 36.9216 
L 306.702404 36.9216 
z
" style="fill:#ffffff;"/>
   </g>
   <g id="matplotlib.axis_3">
    <g id="xtick_6">
     <g id="line2d_16">
      <g>
       <use style="stroke:#000000;stroke-width:0.8;" x="315.861931" xlink:href="#mc062047202" y="212.340967"/>
      </g>
     </g>
     <g id="text_16">
      <!-- 0 -->
      <g transform="translate(312.680681 226.939404)scale(0.1 -0.1)">
       <use xlink:href="#DejaVuSans-30"/>
      </g>
     </g>
    </g>
    <g id="xtick_7">
     <g id="line2d_17">
      <g>
       <use style="stroke:#000000;stroke-width:0.8;" x="360.542551" xlink:href="#mc062047202" y="212.340967"/>
      </g>
     </g>
     <g id="text_17">
      <!-- 2 -->
      <g transform="translate(357.361301 226.939404)scale(0.1 -0.1)">
       <use xlink:href="#DejaVuSans-32"/>
      </g>
     </g>
    </g>
    <g id="xtick_8">
     <g id="line2d_18">
      <g>
       <use style="stroke:#000000;stroke-width:0.8;" x="405.223171" xlink:href="#mc062047202" y="212.340967"/>
      </g>
     </g>
     <g id="text_18">
      <!-- 4 -->
      <g transform="translate(402.041921 226.939404)scale(0.1 -0.1)">
       <use xlink:href="#DejaVuSans-34"/>
      </g>
     </g>
    </g>
    <g id="xtick_9">
     <g id="line2d_19">
      <g>
       <use style="stroke:#000000;stroke-width:0.8;" x="449.903791" xlink:href="#mc062047202" y="212.340967"/>
      </g>
     </g>
     <g id="text_19">
      <!-- 6 -->
      <g transform="translate(446.722541 226.939404)scale(0.1 -0.1)">
       <use xlink:href="#DejaVuSans-36"/>
      </g>
     </g>
    </g>
    <g id="xtick_10">
     <g id="line2d_20">
      <g>
       <use style="stroke:#000000;stroke-width:0.8;" x="494.584411" xlink:href="#mc062047202" y="212.340967"/>
      </g>
     </g>
     <g id="text_20">
      <!-- 8 -->
      <g transform="translate(491.403161 226.939404)scale(0.1 -0.1)">
       <use xlink:href="#DejaVuSans-38"/>
      </g>
     </g>
    </g>
    <g id="text_21">
     <!-- time -->
     <g transform="translate(396.161108 240.617529)scale(0.1 -0.1)">
      <use xlink:href="#DejaVuSans-74"/>
      <use x="39.208984" xlink:href="#DejaVuSans-69"/>
      <use x="66.992188" xlink:href="#DejaVuSans-6d"/>
      <use x="164.404297" xlink:href="#DejaVuSans-65"/>
     </g>
    </g>
   </g>
   <g id="matplotlib.axis_4">
    <g id="ytick_8">
     <g id="line2d_21">
      <g>
       <use style="stroke:#000000;stroke-width:0.8;" x="306.702404" xlink:href="#md74e694a8f" y="204.367359"/>
      </g>
     </g>
     <g id="text_22">
      <!-- 0 -->
      <g transform="translate(293.339904 208.166578)scale(0.1 -0.1)">
       <use xlink:href="#DejaVuSans-30"/>
      </g>
     </g>
    </g>
    <g id="ytick_9">
     <g id="line2d_22">
      <g>
       <use style="stroke:#000000;stroke-width:0.8;" x="306.702404" xlink:href="#md74e694a8f" y="172.633042"/>
      </g>
     </g>
     <g id="text_23">
      <!-- 2 -->
      <g transform="translate(293.339904 176.432261)scale(0.1 -0.1)">
       <use xlink:href="#DejaVuSans-32"/>
      </g>
     </g>
    </g>
    <g id="ytick_10">
     <g id="line2d_23">
      <g>
       <use style="stroke:#000000;stroke-width:0.8;" x="306.702404" xlink:href="#md74e694a8f" y="140.898725"/>
      </g>
     </g>
     <g id="text_24">
      <!-- 4 -->
      <g transform="translate(293.339904 144.697944)scale(0.1 -0.1)">
       <use xlink:href="#DejaVuSans-34"/>
      </g>
     </g>
    </g>
    <g id="ytick_11">
     <g id="line2d_24">
      <g>
       <use style="stroke:#000000;stroke-width:0.8;" x="306.702404" xlink:href="#md74e694a8f" y="109.164408"/>
      </g>
     </g>
     <g id="text_25">
      <!-- 6 -->
      <g transform="translate(293.339904 112.963626)scale(0.1 -0.1)">
       <use xlink:href="#DejaVuSans-36"/>
      </g>
     </g>
    </g>
    <g id="ytick_12">
     <g id="line2d_25">
      <g>
       <use style="stroke:#000000;stroke-width:0.8;" x="306.702404" xlink:href="#md74e694a8f" y="77.430091"/>
      </g>
     </g>
     <g id="text_26">
      <!-- 8 -->
      <g transform="translate(293.339904 81.229309)scale(0.1 -0.1)">
       <use xlink:href="#DejaVuSans-38"/>
      </g>
     </g>
    </g>
    <g id="ytick_13">
     <g id="line2d_26">
      <g>
       <use style="stroke:#000000;stroke-width:0.8;" x="306.702404" xlink:href="#md74e694a8f" y="45.695773"/>
      </g>
     </g>
     <g id="text_27">
      <!-- 10 -->
      <g transform="translate(286.977404 49.494992)scale(0.1 -0.1)">
       <use xlink:href="#DejaVuSans-31"/>
       <use x="63.623047" xlink:href="#DejaVuSans-30"/>
      </g>
     </g>
    </g>
    <g id="text_28">
     <!-- speed -->
     <defs>
      <path d="M 18.109375 8.203125 
L 18.109375 -20.796875 
L 9.078125 -20.796875 
L 9.078125 54.6875 
L 18.109375 54.6875 
L 18.109375 46.390625 
Q 20.953125 51.265625 25.265625 53.625 
Q 29.59375 56 35.59375 56 
Q 45.5625 56 51.78125 48.09375 
Q 58.015625 40.1875 58.015625 27.296875 
Q 58.015625 14.40625 51.78125 6.484375 
Q 45.5625 -1.421875 35.59375 -1.421875 
Q 29.59375 -1.421875 25.265625 0.953125 
Q 20.953125 3.328125 18.109375 8.203125 
z
M 48.6875 27.296875 
Q 48.6875 37.203125 44.609375 42.84375 
Q 40.53125 48.484375 33.40625 48.484375 
Q 26.265625 48.484375 22.1875 42.84375 
Q 18.109375 37.203125 18.109375 27.296875 
Q 18.109375 17.390625 22.1875 11.75 
Q 26.265625 6.109375 33.40625 6.109375 
Q 40.53125 6.109375 44.609375 11.75 
Q 48.6875 17.390625 48.6875 27.296875 
z
" id="DejaVuSans-70"/>
      <path d="M 45.40625 46.390625 
L 45.40625 75.984375 
L 54.390625 75.984375 
L 54.390625 0 
L 45.40625 0 
L 45.40625 8.203125 
Q 42.578125 3.328125 38.25 0.953125 
Q 33.9375 -1.421875 27.875 -1.421875 
Q 17.96875 -1.421875 11.734375 6.484375 
Q 5.515625 14.40625 5.515625 27.296875 
Q 5.515625 40.1875 11.734375 48.09375 
Q 17.96875 56 27.875 56 
Q 33.9375 56 38.25 53.625 
Q 42.578125 51.265625 45.40625 46.390625 
z
M 14.796875 27.296875 
Q 14.796875 17.390625 18.875 11.75 
Q 22.953125 6.109375 30.078125 6.109375 
Q 37.203125 6.109375 41.296875 11.75 
Q 45.40625 17.390625 45.40625 27.296875 
Q 45.40625 37.203125 41.296875 42.84375 
Q 37.203125 48.484375 30.078125 48.484375 
Q 22.953125 48.484375 18.875 42.84375 
Q 14.796875 37.203125 14.796875 27.296875 
z
" id="DejaVuSans-64"/>
     </defs>
     <g transform="translate(280.897716 139.737533)rotate(-90)scale(0.1 -0.1)">
      <use xlink:href="#DejaVuSans-73"/>
      <use x="52.099609" xlink:href="#DejaVuSans-70"/>
      <use x="115.576172" xlink:href="#DejaVuSans-65"/>
      <use x="177.099609" xlink:href="#DejaVuSans-65"/>
      <use x="238.623047" xlink:href="#DejaVuSans-64"/>
     </g>
    </g>
   </g>
   <g id="line2d_27">
    <path clip-path="url(#p5022a68d6a)" d="M 315.861931 204.367359 
L 318.095962 204.367359 
L 320.329993 204.367359 
L 322.564024 203.574001 
L 324.798055 201.987285 
L 327.032086 199.607213 
L 329.266117 196.434379 
L 331.500148 192.739894 
L 333.734179 188.786627 
L 335.96821 184.819838 
L 338.202241 180.853048 
L 340.436272 176.886259 
L 342.670303 172.919469 
L 344.904334 168.95268 
L 347.138365 164.985891 
L 349.372396 161.019101 
L 351.606427 157.052312 
L 353.840458 153.085523 
L 356.074489 149.118734 
L 358.30852 145.151945 
L 360.542551 141.185156 
L 362.776582 137.218367 
L 365.010613 133.251578 
L 367.244644 129.284789 
L 369.478675 125.318 
L 371.712706 121.351211 
L 373.946737 117.384423 
L 376.180768 113.417634 
L 378.414799 109.461236 
L 380.64883 105.549176 
L 382.882861 101.710228 
L 385.116892 97.967939 
L 387.350923 94.341222 
L 389.584954 90.844921 
L 391.818985 87.49032 
L 394.053016 84.285604 
L 396.287047 81.236279 
L 398.521078 78.345544 
L 400.755109 75.614631 
L 402.98914 73.043105 
L 405.223171 70.629134 
L 407.457202 68.369725 
L 409.691233 66.260938 
L 411.925264 64.298073 
L 414.159295 62.475831 
L 416.393326 60.78846 
L 418.627357 59.229878 
L 420.861388 57.793783 
L 423.095419 56.473742 
L 425.32945 55.263276 
L 427.563481 54.155921 
L 429.797512 53.145289 
L 432.031543 52.225112 
L 434.265574 51.389284 
L 436.499605 50.631886 
L 438.733636 49.947218 
L 440.967667 49.32981 
L 443.201698 48.774442 
L 445.435729 48.276149 
L 447.66976 47.83023 
L 449.903791 47.432251 
L 452.137822 47.078041 
L 454.371853 46.763695 
L 456.605884 46.485569 
L 458.839915 46.240272 
L 461.073946 46.024665 
L 463.307977 45.83585 
L 465.542008 45.671163 
L 467.776039 45.52817 
L 470.01007 45.404654 
L 472.244101 45.298611 
L 474.478132 45.208239 
L 476.712163 45.131936 
L 478.946194 45.068285 
L 481.180225 45.016055 
L 483.414256 44.974191 
L 485.648287 44.941809 
L 487.882318 44.918194 
L 490.116349 44.902791 
L 492.35038 44.895208 
L 494.584411 44.895208 
L 496.818442 44.895208 
L 499.052473 44.895208 
" style="fill:none;stroke:#1f77b4;stroke-linecap:square;"/>
   </g>
   <g id="patch_9">
    <path d="M 306.702404 212.340967 
L 306.702404 36.9216 
" style="fill:none;stroke:#000000;stroke-linecap:square;stroke-linejoin:miter;stroke-width:0.8;"/>
   </g>
   <g id="patch_10">
    <path d="M 508.212 212.340967 
L 508.212 36.9216 
" style="fill:none;stroke:#000000;stroke-linecap:square;stroke-linejoin:miter;stroke-width:0.8;"/>
   </g>
   <g id="patch_11">
    <path d="M 306.702404 212.340967 
L 508.212 212.340967 
" style="fill:none;stroke:#000000;stroke-linecap:square;stroke-linejoin:miter;stroke-width:0.8;"/>
   </g>
   <g id="patch_12">
    <path d="M 306.702404 36.9216 
L 508.212 36.9216 
" style="fill:none;stroke:#000000;stroke-linecap:square;stroke-linejoin:miter;stroke-width:0.8;"/>
   </g>
   <g id="legend_2">
    <g id="patch_13">
     <path d="M 313.702404 59.599725 
L 359.146154 59.599725 
Q 361.146154 59.599725 361.146154 57.599725 
L 361.146154 43.9216 
Q 361.146154 41.9216 359.146154 41.9216 
L 313.702404 41.9216 
Q 311.702404 41.9216 311.702404 43.9216 
L 311.702404 57.599725 
Q 311.702404 59.599725 313.702404 59.599725 
z
" style="fill:#ffffff;opacity:0.8;stroke:#cccccc;stroke-linejoin:miter;"/>
    </g>
    <g id="line2d_28">
     <path d="M 315.702404 50.020037 
L 335.702404 50.020037 
" style="fill:none;stroke:#1f77b4;stroke-linecap:square;"/>
    </g>
    <g id="line2d_29"/>
    <g id="text_29">
     <!-- v-t -->
     <defs>
      <path d="M 2.984375 54.6875 
L 12.5 54.6875 
L 29.59375 8.796875 
L 46.6875 54.6875 
L 56.203125 54.6875 
L 35.6875 0 
L 23.484375 0 
z
" id="DejaVuSans-76"/>
     </defs>
     <g transform="translate(343.702404 53.520037)scale(0.1 -0.1)">
      <use xlink:href="#DejaVuSans-76"/>
      <use x="59.148438" xlink:href="#DejaVuSans-2d"/>
      <use x="95.232422" xlink:href="#DejaVuSans-74"/>
     </g>
    </g>
   </g>
  </g>
  <g id="axes_3">
   <g id="patch_14">
    <path d="M 58.8456 424.5984 
L 260.355196 424.5984 
L 260.355196 249.179033 
L 58.8456 249.179033 
z
" style="fill:#ffffff;"/>
   </g>
   <g id="matplotlib.axis_5">
    <g id="xtick_11">
     <g id="line2d_30">
      <g>
       <use style="stroke:#000000;stroke-width:0.8;" x="68.005127" xlink:href="#mc062047202" y="424.5984"/>
      </g>
     </g>
     <g id="text_30">
      <!-- 0 -->
      <g transform="translate(64.823877 439.196838)scale(0.1 -0.1)">
       <use xlink:href="#DejaVuSans-30"/>
      </g>
     </g>
    </g>
    <g id="xtick_12">
     <g id="line2d_31">
      <g>
       <use style="stroke:#000000;stroke-width:0.8;" x="113.23736" xlink:href="#mc062047202" y="424.5984"/>
      </g>
     </g>
     <g id="text_31">
      <!-- 2 -->
      <g transform="translate(110.05611 439.196838)scale(0.1 -0.1)">
       <use xlink:href="#DejaVuSans-32"/>
      </g>
     </g>
    </g>
    <g id="xtick_13">
     <g id="line2d_32">
      <g>
       <use style="stroke:#000000;stroke-width:0.8;" x="158.469592" xlink:href="#mc062047202" y="424.5984"/>
      </g>
     </g>
     <g id="text_32">
      <!-- 4 -->
      <g transform="translate(155.288342 439.196838)scale(0.1 -0.1)">
       <use xlink:href="#DejaVuSans-34"/>
      </g>
     </g>
    </g>
    <g id="xtick_14">
     <g id="line2d_33">
      <g>
       <use style="stroke:#000000;stroke-width:0.8;" x="203.701825" xlink:href="#mc062047202" y="424.5984"/>
      </g>
     </g>
     <g id="text_33">
      <!-- 6 -->
      <g transform="translate(200.520575 439.196838)scale(0.1 -0.1)">
       <use xlink:href="#DejaVuSans-36"/>
      </g>
     </g>
    </g>
    <g id="xtick_15">
     <g id="line2d_34">
      <g>
       <use style="stroke:#000000;stroke-width:0.8;" x="248.934058" xlink:href="#mc062047202" y="424.5984"/>
      </g>
     </g>
     <g id="text_34">
      <!-- 8 -->
      <g transform="translate(245.752808 439.196838)scale(0.1 -0.1)">
       <use xlink:href="#DejaVuSans-38"/>
      </g>
     </g>
    </g>
    <g id="text_35">
     <!-- time -->
     <g transform="translate(148.304304 452.874962)scale(0.1 -0.1)">
      <use xlink:href="#DejaVuSans-74"/>
      <use x="39.208984" xlink:href="#DejaVuSans-69"/>
      <use x="66.992188" xlink:href="#DejaVuSans-6d"/>
      <use x="164.404297" xlink:href="#DejaVuSans-65"/>
     </g>
    </g>
   </g>
   <g id="matplotlib.axis_6">
    <g id="ytick_14">
     <g id="line2d_35">
      <g>
       <use style="stroke:#000000;stroke-width:0.8;" x="58.8456" xlink:href="#md74e694a8f" y="416.624792"/>
      </g>
     </g>
     <g id="text_36">
      <!-- 0.0 -->
      <defs>
       <path d="M 10.6875 12.40625 
L 21 12.40625 
L 21 0 
L 10.6875 0 
z
" id="DejaVuSans-2e"/>
      </defs>
      <g transform="translate(35.942475 420.424011)scale(0.1 -0.1)">
       <use xlink:href="#DejaVuSans-30"/>
       <use x="63.623047" xlink:href="#DejaVuSans-2e"/>
       <use x="95.410156" xlink:href="#DejaVuSans-30"/>
      </g>
     </g>
    </g>
    <g id="ytick_15">
     <g id="line2d_36">
      <g>
       <use style="stroke:#000000;stroke-width:0.8;" x="58.8456" xlink:href="#md74e694a8f" y="384.730361"/>
      </g>
     </g>
     <g id="text_37">
      <!-- 0.5 -->
      <g transform="translate(35.942475 388.52958)scale(0.1 -0.1)">
       <use xlink:href="#DejaVuSans-30"/>
       <use x="63.623047" xlink:href="#DejaVuSans-2e"/>
       <use x="95.410156" xlink:href="#DejaVuSans-35"/>
      </g>
     </g>
    </g>
    <g id="ytick_16">
     <g id="line2d_37">
      <g>
       <use style="stroke:#000000;stroke-width:0.8;" x="58.8456" xlink:href="#md74e694a8f" y="352.83593"/>
      </g>
     </g>
     <g id="text_38">
      <!-- 1.0 -->
      <g transform="translate(35.942475 356.635148)scale(0.1 -0.1)">
       <use xlink:href="#DejaVuSans-31"/>
       <use x="63.623047" xlink:href="#DejaVuSans-2e"/>
       <use x="95.410156" xlink:href="#DejaVuSans-30"/>
      </g>
     </g>
    </g>
    <g id="ytick_17">
     <g id="line2d_38">
      <g>
       <use style="stroke:#000000;stroke-width:0.8;" x="58.8456" xlink:href="#md74e694a8f" y="320.941498"/>
      </g>
     </g>
     <g id="text_39">
      <!-- 1.5 -->
      <g transform="translate(35.942475 324.740717)scale(0.1 -0.1)">
       <use xlink:href="#DejaVuSans-31"/>
       <use x="63.623047" xlink:href="#DejaVuSans-2e"/>
       <use x="95.410156" xlink:href="#DejaVuSans-35"/>
      </g>
     </g>
    </g>
    <g id="ytick_18">
     <g id="line2d_39">
      <g>
       <use style="stroke:#000000;stroke-width:0.8;" x="58.8456" xlink:href="#md74e694a8f" y="289.047067"/>
      </g>
     </g>
     <g id="text_40">
      <!-- 2.0 -->
      <g transform="translate(35.942475 292.846286)scale(0.1 -0.1)">
       <use xlink:href="#DejaVuSans-32"/>
       <use x="63.623047" xlink:href="#DejaVuSans-2e"/>
       <use x="95.410156" xlink:href="#DejaVuSans-30"/>
      </g>
     </g>
    </g>
    <g id="ytick_19">
     <g id="line2d_40">
      <g>
       <use style="stroke:#000000;stroke-width:0.8;" x="58.8456" xlink:href="#md74e694a8f" y="257.152636"/>
      </g>
     </g>
     <g id="text_41">
      <!-- 2.5 -->
      <g transform="translate(35.942475 260.951854)scale(0.1 -0.1)">
       <use xlink:href="#DejaVuSans-32"/>
       <use x="63.623047" xlink:href="#DejaVuSans-2e"/>
       <use x="95.410156" xlink:href="#DejaVuSans-35"/>
      </g>
     </g>
    </g>
    <g id="text_42">
     <!-- acceleration -->
     <defs>
      <path d="M 48.78125 52.59375 
L 48.78125 44.1875 
Q 44.96875 46.296875 41.140625 47.34375 
Q 37.3125 48.390625 33.40625 48.390625 
Q 24.65625 48.390625 19.8125 42.84375 
Q 14.984375 37.3125 14.984375 27.296875 
Q 14.984375 17.28125 19.8125 11.734375 
Q 24.65625 6.203125 33.40625 6.203125 
Q 37.3125 6.203125 41.140625 7.25 
Q 44.96875 8.296875 48.78125 10.40625 
L 48.78125 2.09375 
Q 45.015625 0.34375 40.984375 -0.53125 
Q 36.96875 -1.421875 32.421875 -1.421875 
Q 20.0625 -1.421875 12.78125 6.34375 
Q 5.515625 14.109375 5.515625 27.296875 
Q 5.515625 40.671875 12.859375 48.328125 
Q 20.21875 56 33.015625 56 
Q 37.15625 56 41.109375 55.140625 
Q 45.0625 54.296875 48.78125 52.59375 
z
" id="DejaVuSans-63"/>
      <path d="M 9.421875 75.984375 
L 18.40625 75.984375 
L 18.40625 0 
L 9.421875 0 
z
" id="DejaVuSans-6c"/>
      <path d="M 41.109375 46.296875 
Q 39.59375 47.171875 37.8125 47.578125 
Q 36.03125 48 33.890625 48 
Q 26.265625 48 22.1875 43.046875 
Q 18.109375 38.09375 18.109375 28.8125 
L 18.109375 0 
L 9.078125 0 
L 9.078125 54.6875 
L 18.109375 54.6875 
L 18.109375 46.1875 
Q 20.953125 51.171875 25.484375 53.578125 
Q 30.03125 56 36.53125 56 
Q 37.453125 56 38.578125 55.875 
Q 39.703125 55.765625 41.0625 55.515625 
z
" id="DejaVuSans-72"/>
     </defs>
     <g transform="translate(29.862787 367.690279)rotate(-90)scale(0.1 -0.1)">
      <use xlink:href="#DejaVuSans-61"/>
      <use x="61.279297" xlink:href="#DejaVuSans-63"/>
      <use x="116.259766" xlink:href="#DejaVuSans-63"/>
      <use x="171.240234" xlink:href="#DejaVuSans-65"/>
      <use x="232.763672" xlink:href="#DejaVuSans-6c"/>
      <use x="260.546875" xlink:href="#DejaVuSans-65"/>
      <use x="322.070312" xlink:href="#DejaVuSans-72"/>
      <use x="363.183594" xlink:href="#DejaVuSans-61"/>
      <use x="424.462891" xlink:href="#DejaVuSans-74"/>
      <use x="463.671875" xlink:href="#DejaVuSans-69"/>
      <use x="491.455078" xlink:href="#DejaVuSans-6f"/>
      <use x="552.636719" xlink:href="#DejaVuSans-6e"/>
     </g>
    </g>
   </g>
   <g id="line2d_41">
    <path clip-path="url(#pf39177311b)" d="M 68.005127 416.624792 
L 70.266739 416.624792 
L 72.52835 384.730364 
L 74.789962 352.835938 
L 77.051574 320.941532 
L 79.313185 289.071104 
L 81.574797 268.099795 
L 83.836409 257.696268 
L 86.09802 257.152641 
L 88.359632 257.152642 
L 90.621243 257.152645 
L 92.882855 257.152647 
L 95.144467 257.152647 
L 97.406078 257.152648 
L 99.66769 257.152649 
L 101.929302 257.152651 
L 104.190913 257.152653 
L 106.452525 257.152655 
L 108.714136 257.152658 
L 110.975748 257.15266 
L 113.23736 257.152664 
L 115.498971 257.152668 
L 117.760583 257.152671 
L 120.022195 257.152666 
L 122.283806 257.152659 
L 124.545418 257.152689 
L 126.80703 257.152684 
L 129.068641 257.570389 
L 131.330253 259.352859 
L 133.591864 262.292104 
L 135.853476 266.177945 
L 138.115088 270.824178 
L 140.376699 276.067149 
L 142.638311 281.763734 
L 144.899923 287.789395 
L 147.161534 294.036369 
L 149.423146 300.411987 
L 151.684757 306.837128 
L 153.946369 313.244786 
L 156.207981 319.578756 
L 158.469592 325.792439 
L 160.731204 331.847735 
L 162.992816 337.714042 
L 165.254427 343.367349 
L 167.516039 348.789404 
L 169.777651 353.966969 
L 172.039262 358.891145 
L 174.300874 363.556762 
L 176.562485 367.961842 
L 178.824097 372.107105 
L 181.085709 375.995542 
L 183.34732 379.632026 
L 185.608932 383.022972 
L 187.870544 386.176041 
L 190.132155 389.099875 
L 192.393767 391.803869 
L 194.655379 394.29797 
L 196.91699 396.59251 
L 199.178602 398.698058 
L 201.440213 400.625296 
L 203.701825 402.384914 
L 205.963437 403.987529 
L 208.225048 405.44361 
L 210.48666 406.763424 
L 212.748272 407.956994 
L 215.009883 409.034067 
L 217.271495 410.004091 
L 219.533106 410.876204 
L 221.794718 411.659226 
L 224.05633 412.36166 
L 226.317941 412.991701 
L 228.579553 413.557247 
L 230.841165 414.065913 
L 233.102776 414.525052 
L 235.364388 414.941778 
L 237.626 415.322992 
L 239.887611 415.675405 
L 242.149223 416.005574 
L 244.410834 416.319926 
L 246.672446 416.624792 
L 248.934058 416.624792 
L 251.195669 416.624792 
" style="fill:none;stroke:#1f77b4;stroke-linecap:square;"/>
   </g>
   <g id="patch_15">
    <path d="M 58.8456 424.5984 
L 58.8456 249.179033 
" style="fill:none;stroke:#000000;stroke-linecap:square;stroke-linejoin:miter;stroke-width:0.8;"/>
   </g>
   <g id="patch_16">
    <path d="M 260.355196 424.5984 
L 260.355196 249.179033 
" style="fill:none;stroke:#000000;stroke-linecap:square;stroke-linejoin:miter;stroke-width:0.8;"/>
   </g>
   <g id="patch_17">
    <path d="M 58.8456 424.5984 
L 260.355196 424.5984 
" style="fill:none;stroke:#000000;stroke-linecap:square;stroke-linejoin:miter;stroke-width:0.8;"/>
   </g>
   <g id="patch_18">
    <path d="M 58.8456 249.179033 
L 260.355196 249.179033 
" style="fill:none;stroke:#000000;stroke-linecap:square;stroke-linejoin:miter;stroke-width:0.8;"/>
   </g>
   <g id="legend_3">
    <g id="patch_19">
     <path d="M 196.702071 271.857158 
L 253.355196 271.857158 
Q 255.355196 271.857158 255.355196 269.857158 
L 255.355196 256.179033 
Q 255.355196 254.179033 253.355196 254.179033 
L 196.702071 254.179033 
Q 194.702071 254.179033 194.702071 256.179033 
L 194.702071 269.857158 
Q 194.702071 271.857158 196.702071 271.857158 
z
" style="fill:#ffffff;opacity:0.8;stroke:#cccccc;stroke-linejoin:miter;"/>
    </g>
    <g id="line2d_42">
     <path d="M 198.702071 262.277471 
L 218.702071 262.277471 
" style="fill:none;stroke:#1f77b4;stroke-linecap:square;"/>
    </g>
    <g id="line2d_43"/>
    <g id="text_43">
     <!-- acc-t -->
     <g transform="translate(226.702071 265.777471)scale(0.1 -0.1)">
      <use xlink:href="#DejaVuSans-61"/>
      <use x="61.279297" xlink:href="#DejaVuSans-63"/>
      <use x="116.259766" xlink:href="#DejaVuSans-63"/>
      <use x="171.240234" xlink:href="#DejaVuSans-2d"/>
      <use x="207.324219" xlink:href="#DejaVuSans-74"/>
     </g>
    </g>
   </g>
  </g>
  <g id="axes_4">
   <g id="patch_20">
    <path d="M 306.702404 424.5984 
L 508.212 424.5984 
L 508.212 249.179033 
L 306.702404 249.179033 
z
" style="fill:#ffffff;"/>
   </g>
   <g id="matplotlib.axis_7">
    <g id="xtick_16">
     <g id="line2d_44">
      <g>
       <use style="stroke:#000000;stroke-width:0.8;" x="315.861931" xlink:href="#mc062047202" y="424.5984"/>
      </g>
     </g>
     <g id="text_44">
      <!-- 0 -->
      <g transform="translate(312.680681 439.196838)scale(0.1 -0.1)">
       <use xlink:href="#DejaVuSans-30"/>
      </g>
     </g>
    </g>
    <g id="xtick_17">
     <g id="line2d_45">
      <g>
       <use style="stroke:#000000;stroke-width:0.8;" x="361.659566" xlink:href="#mc062047202" y="424.5984"/>
      </g>
     </g>
     <g id="text_45">
      <!-- 2 -->
      <g transform="translate(358.478316 439.196838)scale(0.1 -0.1)">
       <use xlink:href="#DejaVuSans-32"/>
      </g>
     </g>
    </g>
    <g id="xtick_18">
     <g id="line2d_46">
      <g>
       <use style="stroke:#000000;stroke-width:0.8;" x="407.457202" xlink:href="#mc062047202" y="424.5984"/>
      </g>
     </g>
     <g id="text_46">
      <!-- 4 -->
      <g transform="translate(404.275952 439.196838)scale(0.1 -0.1)">
       <use xlink:href="#DejaVuSans-34"/>
      </g>
     </g>
    </g>
    <g id="xtick_19">
     <g id="line2d_47">
      <g>
       <use style="stroke:#000000;stroke-width:0.8;" x="453.254837" xlink:href="#mc062047202" y="424.5984"/>
      </g>
     </g>
     <g id="text_47">
      <!-- 6 -->
      <g transform="translate(450.073587 439.196838)scale(0.1 -0.1)">
       <use xlink:href="#DejaVuSans-36"/>
      </g>
     </g>
    </g>
    <g id="xtick_20">
     <g id="line2d_48">
      <g>
       <use style="stroke:#000000;stroke-width:0.8;" x="499.052473" xlink:href="#mc062047202" y="424.5984"/>
      </g>
     </g>
     <g id="text_48">
      <!-- 8 -->
      <g transform="translate(495.871223 439.196838)scale(0.1 -0.1)">
       <use xlink:href="#DejaVuSans-38"/>
      </g>
     </g>
    </g>
    <g id="text_49">
     <!-- time -->
     <g transform="translate(396.161108 452.874962)scale(0.1 -0.1)">
      <use xlink:href="#DejaVuSans-74"/>
      <use x="39.208984" xlink:href="#DejaVuSans-69"/>
      <use x="66.992188" xlink:href="#DejaVuSans-6d"/>
      <use x="164.404297" xlink:href="#DejaVuSans-65"/>
     </g>
    </g>
   </g>
   <g id="matplotlib.axis_8">
    <g id="ytick_20">
     <g id="line2d_49">
      <g>
       <use style="stroke:#000000;stroke-width:0.8;" x="306.702404" xlink:href="#md74e694a8f" y="416.432297"/>
      </g>
     </g>
     <g id="text_50">
      <!-- −1 -->
      <defs>
       <path d="M 10.59375 35.5 
L 73.1875 35.5 
L 73.1875 27.203125 
L 10.59375 27.203125 
z
" id="DejaVuSans-2212"/>
      </defs>
      <g transform="translate(284.960216 420.231516)scale(0.1 -0.1)">
       <use xlink:href="#DejaVuSans-2212"/>
       <use x="83.789062" xlink:href="#DejaVuSans-31"/>
      </g>
     </g>
    </g>
    <g id="ytick_21">
     <g id="line2d_50">
      <g>
       <use style="stroke:#000000;stroke-width:0.8;" x="306.702404" xlink:href="#md74e694a8f" y="389.885686"/>
      </g>
     </g>
     <g id="text_51">
      <!-- 0 -->
      <g transform="translate(293.339904 393.684904)scale(0.1 -0.1)">
       <use xlink:href="#DejaVuSans-30"/>
      </g>
     </g>
    </g>
    <g id="ytick_22">
     <g id="line2d_51">
      <g>
       <use style="stroke:#000000;stroke-width:0.8;" x="306.702404" xlink:href="#md74e694a8f" y="363.339074"/>
      </g>
     </g>
     <g id="text_52">
      <!-- 1 -->
      <g transform="translate(293.339904 367.138293)scale(0.1 -0.1)">
       <use xlink:href="#DejaVuSans-31"/>
      </g>
     </g>
    </g>
    <g id="ytick_23">
     <g id="line2d_52">
      <g>
       <use style="stroke:#000000;stroke-width:0.8;" x="306.702404" xlink:href="#md74e694a8f" y="336.792463"/>
      </g>
     </g>
     <g id="text_53">
      <!-- 2 -->
      <g transform="translate(293.339904 340.591682)scale(0.1 -0.1)">
       <use xlink:href="#DejaVuSans-32"/>
      </g>
     </g>
    </g>
    <g id="ytick_24">
     <g id="line2d_53">
      <g>
       <use style="stroke:#000000;stroke-width:0.8;" x="306.702404" xlink:href="#md74e694a8f" y="310.245851"/>
      </g>
     </g>
     <g id="text_54">
      <!-- 3 -->
      <g transform="translate(293.339904 314.04507)scale(0.1 -0.1)">
       <use xlink:href="#DejaVuSans-33"/>
      </g>
     </g>
    </g>
    <g id="ytick_25">
     <g id="line2d_54">
      <g>
       <use style="stroke:#000000;stroke-width:0.8;" x="306.702404" xlink:href="#md74e694a8f" y="283.69924"/>
      </g>
     </g>
     <g id="text_55">
      <!-- 4 -->
      <g transform="translate(293.339904 287.498459)scale(0.1 -0.1)">
       <use xlink:href="#DejaVuSans-34"/>
      </g>
     </g>
    </g>
    <g id="ytick_26">
     <g id="line2d_55">
      <g>
       <use style="stroke:#000000;stroke-width:0.8;" x="306.702404" xlink:href="#md74e694a8f" y="257.152629"/>
      </g>
     </g>
     <g id="text_56">
      <!-- 5 -->
      <g transform="translate(293.339904 260.951847)scale(0.1 -0.1)">
       <use xlink:href="#DejaVuSans-35"/>
      </g>
     </g>
    </g>
    <g id="text_57">
     <!-- jerk -->
     <defs>
      <path d="M 9.421875 54.6875 
L 18.40625 54.6875 
L 18.40625 -0.984375 
Q 18.40625 -11.421875 14.421875 -16.109375 
Q 10.453125 -20.796875 1.609375 -20.796875 
L -1.8125 -20.796875 
L -1.8125 -13.1875 
L 0.59375 -13.1875 
Q 5.71875 -13.1875 7.5625 -10.8125 
Q 9.421875 -8.453125 9.421875 -0.984375 
z
M 9.421875 75.984375 
L 18.40625 75.984375 
L 18.40625 64.59375 
L 9.421875 64.59375 
z
" id="DejaVuSans-6a"/>
      <path d="M 9.078125 75.984375 
L 18.109375 75.984375 
L 18.109375 31.109375 
L 44.921875 54.6875 
L 56.390625 54.6875 
L 27.390625 29.109375 
L 57.625 0 
L 45.90625 0 
L 18.109375 26.703125 
L 18.109375 0 
L 9.078125 0 
z
" id="DejaVuSans-6b"/>
     </defs>
     <g transform="translate(278.880529 346.305123)rotate(-90)scale(0.1 -0.1)">
      <use xlink:href="#DejaVuSans-6a"/>
      <use x="27.783203" xlink:href="#DejaVuSans-65"/>
      <use x="89.306641" xlink:href="#DejaVuSans-72"/>
      <use x="130.419922" xlink:href="#DejaVuSans-6b"/>
     </g>
    </g>
   </g>
   <g id="line2d_56">
    <path clip-path="url(#p005e00db05)" d="M 315.861931 389.885686 
L 318.151812 257.152641 
L 320.441694 257.152651 
L 322.731576 257.152735 
L 325.021458 257.252521 
L 327.31134 302.610703 
L 329.601221 346.589978 
L 331.891103 387.623308 
L 334.180985 389.885688 
L 336.470867 389.8857 
L 338.760748 389.885692 
L 341.05063 389.885689 
L 343.340512 389.885689 
L 345.630394 389.88569 
L 347.920276 389.885692 
L 350.210157 389.885694 
L 352.500039 389.885696 
L 354.789921 389.885696 
L 357.079803 389.885697 
L 359.369684 389.8857 
L 361.659566 389.885703 
L 363.949448 389.885697 
L 366.23933 389.885668 
L 368.529212 389.885657 
L 370.819093 389.885807 
L 373.108975 389.885668 
L 375.398857 391.624021 
L 377.688739 397.303681 
L 379.97862 402.117758 
L 382.268502 406.057146 
L 384.558384 409.22162 
L 386.848266 411.70503 
L 389.138148 413.592808 
L 391.428029 414.962302 
L 393.717911 415.883325 
L 396.007793 416.418698 
L 398.297675 416.624792 
L 400.587556 416.552031 
L 402.877438 416.245375 
L 405.16732 415.744781 
L 407.457202 415.085629 
L 409.747084 414.29913 
L 412.036965 413.4127 
L 414.326847 412.450313 
L 416.616729 411.432833 
L 418.906611 410.378317 
L 421.196492 409.302293 
L 423.486374 408.21803 
L 425.776256 407.136769 
L 428.066138 406.06795 
L 430.35602 405.01941 
L 432.645901 403.997574 
L 434.935783 403.007617 
L 437.225665 402.053623 
L 439.515547 401.138726 
L 441.805428 400.26523 
L 444.09531 399.43473 
L 446.385192 398.648213 
L 448.675074 397.90615 
L 450.964956 397.208581 
L 453.254837 396.555189 
L 455.544719 395.945365 
L 457.834601 395.378272 
L 460.124483 394.852891 
L 462.414364 394.368073 
L 464.704246 393.922575 
L 466.994128 393.515103 
L 469.28401 393.144337 
L 471.573892 392.808962 
L 473.863773 392.50769 
L 476.153655 392.239283 
L 478.443537 392.002568 
L 480.733419 391.796456 
L 483.0233 391.619949 
L 485.313182 391.472157 
L 487.603064 391.352303 
L 489.892946 391.259729 
L 492.182828 391.193904 
L 494.472709 391.154429 
L 496.762591 389.885686 
L 499.052473 389.885686 
" style="fill:none;stroke:#1f77b4;stroke-linecap:square;"/>
   </g>
   <g id="patch_21">
    <path d="M 306.702404 424.5984 
L 306.702404 249.179033 
" style="fill:none;stroke:#000000;stroke-linecap:square;stroke-linejoin:miter;stroke-width:0.8;"/>
   </g>
   <g id="patch_22">
    <path d="M 508.212 424.5984 
L 508.212 249.179033 
" style="fill:none;stroke:#000000;stroke-linecap:square;stroke-linejoin:miter;stroke-width:0.8;"/>
   </g>
   <g id="patch_23">
    <path d="M 306.702404 424.5984 
L 508.212 424.5984 
" style="fill:none;stroke:#000000;stroke-linecap:square;stroke-linejoin:miter;stroke-width:0.8;"/>
   </g>
   <g id="patch_24">
    <path d="M 306.702404 249.179033 
L 508.212 249.179033 
" style="fill:none;stroke:#000000;stroke-linecap:square;stroke-linejoin:miter;stroke-width:0.8;"/>
   </g>
   <g id="legend_4">
    <g id="patch_25">
     <path d="M 442.851063 271.857158 
L 501.212 271.857158 
Q 503.212 271.857158 503.212 269.857158 
L 503.212 256.179033 
Q 503.212 254.179033 501.212 254.179033 
L 442.851063 254.179033 
Q 440.851063 254.179033 440.851063 256.179033 
L 440.851063 269.857158 
Q 440.851063 271.857158 442.851063 271.857158 
z
" style="fill:#ffffff;opacity:0.8;stroke:#cccccc;stroke-linejoin:miter;"/>
    </g>
    <g id="line2d_57">
     <path d="M 444.851063 262.277471 
L 464.851063 262.277471 
" style="fill:none;stroke:#1f77b4;stroke-linecap:square;"/>
    </g>
    <g id="line2d_58"/>
    <g id="text_58">
     <!-- jerk-t -->
     <g transform="translate(472.851063 265.777471)scale(0.1 -0.1)">
      <use xlink:href="#DejaVuSans-6a"/>
      <use x="27.783203" xlink:href="#DejaVuSans-65"/>
      <use x="89.306641" xlink:href="#DejaVuSans-72"/>
      <use x="130.419922" xlink:href="#DejaVuSans-6b"/>
      <use x="188.330078" xlink:href="#DejaVuSans-2d"/>
      <use x="224.414062" xlink:href="#DejaVuSans-74"/>
     </g>
    </g>
   </g>
  </g>
 </g>
 <defs>
  <clipPath id="p8423e33102">
   <rect height="175.419367" width="201.509596" x="58.8456" y="36.9216"/>
  </clipPath>
  <clipPath id="p5022a68d6a">
   <rect height="175.419367" width="201.509596" x="306.702404" y="36.9216"/>
  </clipPath>
  <clipPath id="pf39177311b">
   <rect height="175.419367" width="201.509596" x="58.8456" y="249.179033"/>
  </clipPath>
  <clipPath id="p005e00db05">
   <rect height="175.419367" width="201.509596" x="306.702404" y="249.179033"/>
  </clipPath>
 </defs>
</svg>
