<?xml version="1.0" encoding="utf-8" standalone="no"?>
<!DOCTYPE svg PUBLIC "-//W3C//DTD SVG 1.1//EN"
  "http://www.w3.org/Graphics/SVG/1.1/DTD/svg11.dtd">
<!-- Created with matplotlib (http://matplotlib.org/) -->
<svg height="302pt" version="1.1" viewBox="0 0 252 302" width="252pt" xmlns="http://www.w3.org/2000/svg" xmlns:xlink="http://www.w3.org/1999/xlink">
 <defs>
  <style type="text/css">
*{stroke-linecap:butt;stroke-linejoin:round;}
  </style>
 </defs>
 <g id="figure_1">
  <g id="patch_1">
   <path d="M 0 302.4 
L 252 302.4 
L 252 0 
L 0 0 
z
" style="fill:#ffffff;"/>
  </g>
  <g id="axes_1">
   <g id="patch_2">
    <path d="M 45.36 45.36 
L 226.8 45.36 
L 226.8 15.12 
L 45.36 15.12 
z
" style="fill:#ffffff;"/>
   </g>
   <g id="matplotlib.axis_1">
    <g id="xtick_1">
     <g id="line2d_1">
      <path clip-path="url(#p8e6d7e7399)" d="M 61.653392 45.36 
L 61.653392 15.12 
" style="fill:none;stroke:#b0b0b0;stroke-dasharray:1.85,0.8;stroke-dashoffset:0;stroke-width:0.5;"/>
     </g>
     <g id="line2d_2">
      <defs>
       <path d="M 0 0 
L 0 3.5 
" id="m5e52d5da3a" style="stroke:#000000;stroke-width:0.8;"/>
      </defs>
      <g>
       <use style="stroke:#000000;stroke-width:0.8;" x="61.653392" xlink:href="#m5e52d5da3a" y="45.36"/>
      </g>
     </g>
     <g id="text_1">
      <!-- 40.0 -->
      <defs>
       <path d="M 46.53125 24.421875 
L 46.53125 17.484375 
L 37.640625 17.484375 
L 37.640625 0 
L 29.59375 0 
L 29.59375 17.484375 
L 1.5625 17.484375 
L 1.5625 23.734375 
L 32.28125 67.578125 
L 37.640625 67.578125 
L 37.640625 24.421875 
z
M 29.59375 24.421875 
L 29.59375 57.28125 
L 6.34375 24.421875 
z
" id="TimesNewRomanPSMT-34"/>
       <path d="M 3.609375 32.71875 
Q 3.609375 44.046875 7.03125 52.21875 
Q 10.453125 60.40625 16.109375 64.40625 
Q 20.515625 67.578125 25.203125 67.578125 
Q 32.8125 67.578125 38.875 59.8125 
Q 46.4375 50.203125 46.4375 33.734375 
Q 46.4375 22.21875 43.109375 14.15625 
Q 39.796875 6.109375 34.640625 2.46875 
Q 29.5 -1.171875 24.703125 -1.171875 
Q 15.234375 -1.171875 8.9375 10.015625 
Q 3.609375 19.4375 3.609375 32.71875 
z
M 13.1875 31.5 
Q 13.1875 17.828125 16.546875 9.1875 
Q 19.34375 1.90625 24.859375 1.90625 
Q 27.484375 1.90625 30.3125 4.265625 
Q 33.15625 6.640625 34.625 12.203125 
Q 36.859375 20.609375 36.859375 35.890625 
Q 36.859375 47.21875 34.515625 54.78125 
Q 32.765625 60.40625 29.984375 62.75 
Q 27.984375 64.359375 25.140625 64.359375 
Q 21.828125 64.359375 19.234375 61.375 
Q 15.71875 57.328125 14.453125 48.625 
Q 13.1875 39.9375 13.1875 31.5 
z
" id="TimesNewRomanPSMT-30"/>
       <path d="M 12.5 9.46875 
Q 14.796875 9.46875 16.359375 7.875 
Q 17.921875 6.296875 17.921875 4.046875 
Q 17.921875 1.8125 16.328125 0.21875 
Q 14.75 -1.375 12.5 -1.375 
Q 10.25 -1.375 8.65625 0.21875 
Q 7.078125 1.8125 7.078125 4.046875 
Q 7.078125 6.34375 8.65625 7.90625 
Q 10.25 9.46875 12.5 9.46875 
z
" id="TimesNewRomanPSMT-2e"/>
      </defs>
      <g transform="translate(52.903392 59.30375)scale(0.1 -0.1)">
       <use xlink:href="#TimesNewRomanPSMT-34"/>
       <use x="50" xlink:href="#TimesNewRomanPSMT-30"/>
       <use x="100" xlink:href="#TimesNewRomanPSMT-2e"/>
       <use x="125" xlink:href="#TimesNewRomanPSMT-30"/>
      </g>
     </g>
    </g>
    <g id="xtick_2">
     <g id="line2d_3">
      <path clip-path="url(#p8e6d7e7399)" d="M 95.178891 45.36 
L 95.178891 15.12 
" style="fill:none;stroke:#b0b0b0;stroke-dasharray:1.85,0.8;stroke-dashoffset:0;stroke-width:0.5;"/>
     </g>
     <g id="line2d_4">
      <g>
       <use style="stroke:#000000;stroke-width:0.8;" x="95.178891" xlink:href="#m5e52d5da3a" y="45.36"/>
      </g>
     </g>
     <g id="text_2">
      <!-- 42.5 -->
      <defs>
       <path d="M 45.84375 12.75 
L 41.21875 0 
L 2.15625 0 
L 2.15625 1.8125 
Q 19.390625 17.53125 26.421875 27.484375 
Q 33.453125 37.453125 33.453125 45.703125 
Q 33.453125 52 29.59375 56.046875 
Q 25.734375 60.109375 20.359375 60.109375 
Q 15.484375 60.109375 11.59375 57.25 
Q 7.71875 54.390625 5.859375 48.875 
L 4.046875 48.875 
Q 5.28125 57.90625 10.328125 62.734375 
Q 15.375 67.578125 22.953125 67.578125 
Q 31 67.578125 36.390625 62.40625 
Q 41.796875 57.234375 41.796875 50.203125 
Q 41.796875 45.171875 39.453125 40.140625 
Q 35.84375 32.234375 27.734375 23.390625 
Q 15.578125 10.109375 12.546875 7.375 
L 29.828125 7.375 
Q 35.109375 7.375 37.234375 7.765625 
Q 39.359375 8.15625 41.0625 9.34375 
Q 42.78125 10.546875 44.046875 12.75 
z
" id="TimesNewRomanPSMT-32"/>
       <path d="M 43.40625 66.21875 
L 39.59375 57.90625 
L 19.671875 57.90625 
L 15.328125 49.03125 
Q 28.265625 47.125 35.84375 39.40625 
Q 42.328125 32.765625 42.328125 23.78125 
Q 42.328125 18.5625 40.203125 14.109375 
Q 38.09375 9.671875 34.859375 6.546875 
Q 31.640625 3.421875 27.6875 1.515625 
Q 22.078125 -1.171875 16.15625 -1.171875 
Q 10.203125 -1.171875 7.484375 0.84375 
Q 4.78125 2.875 4.78125 5.328125 
Q 4.78125 6.6875 5.90625 7.734375 
Q 7.03125 8.796875 8.734375 8.796875 
Q 10.015625 8.796875 10.96875 8.40625 
Q 11.921875 8.015625 14.203125 6.390625 
Q 17.875 3.859375 21.625 3.859375 
Q 27.34375 3.859375 31.65625 8.171875 
Q 35.984375 12.5 35.984375 18.703125 
Q 35.984375 24.703125 32.125 29.90625 
Q 28.265625 35.109375 21.484375 37.9375 
Q 16.15625 40.140625 6.984375 40.484375 
L 19.671875 66.21875 
z
" id="TimesNewRomanPSMT-35"/>
      </defs>
      <g transform="translate(86.428891 59.30375)scale(0.1 -0.1)">
       <use xlink:href="#TimesNewRomanPSMT-34"/>
       <use x="50" xlink:href="#TimesNewRomanPSMT-32"/>
       <use x="100" xlink:href="#TimesNewRomanPSMT-2e"/>
       <use x="125" xlink:href="#TimesNewRomanPSMT-35"/>
      </g>
     </g>
    </g>
    <g id="xtick_3">
     <g id="line2d_5">
      <path clip-path="url(#p8e6d7e7399)" d="M 128.70439 45.36 
L 128.70439 15.12 
" style="fill:none;stroke:#b0b0b0;stroke-dasharray:1.85,0.8;stroke-dashoffset:0;stroke-width:0.5;"/>
     </g>
     <g id="line2d_6">
      <g>
       <use style="stroke:#000000;stroke-width:0.8;" x="128.70439" xlink:href="#m5e52d5da3a" y="45.36"/>
      </g>
     </g>
     <g id="text_3">
      <!-- 45.0 -->
      <g transform="translate(119.95439 59.30375)scale(0.1 -0.1)">
       <use xlink:href="#TimesNewRomanPSMT-34"/>
       <use x="50" xlink:href="#TimesNewRomanPSMT-35"/>
       <use x="100" xlink:href="#TimesNewRomanPSMT-2e"/>
       <use x="125" xlink:href="#TimesNewRomanPSMT-30"/>
      </g>
     </g>
    </g>
    <g id="xtick_4">
     <g id="line2d_7">
      <path clip-path="url(#p8e6d7e7399)" d="M 162.229889 45.36 
L 162.229889 15.12 
" style="fill:none;stroke:#b0b0b0;stroke-dasharray:1.85,0.8;stroke-dashoffset:0;stroke-width:0.5;"/>
     </g>
     <g id="line2d_8">
      <g>
       <use style="stroke:#000000;stroke-width:0.8;" x="162.229889" xlink:href="#m5e52d5da3a" y="45.36"/>
      </g>
     </g>
     <g id="text_4">
      <!-- 47.5 -->
      <defs>
       <path d="M 10.0625 66.21875 
L 45.5625 66.21875 
L 45.5625 64.359375 
L 23.484375 -1.375 
L 18.015625 -1.375 
L 37.796875 58.25 
L 19.578125 58.25 
Q 14.0625 58.25 11.71875 56.9375 
Q 7.625 54.6875 5.125 50 
L 3.71875 50.53125 
z
" id="TimesNewRomanPSMT-37"/>
      </defs>
      <g transform="translate(153.479889 59.30375)scale(0.1 -0.1)">
       <use xlink:href="#TimesNewRomanPSMT-34"/>
       <use x="50" xlink:href="#TimesNewRomanPSMT-37"/>
       <use x="100" xlink:href="#TimesNewRomanPSMT-2e"/>
       <use x="125" xlink:href="#TimesNewRomanPSMT-35"/>
      </g>
     </g>
    </g>
    <g id="xtick_5">
     <g id="line2d_9">
      <path clip-path="url(#p8e6d7e7399)" d="M 195.755388 45.36 
L 195.755388 15.12 
" style="fill:none;stroke:#b0b0b0;stroke-dasharray:1.85,0.8;stroke-dashoffset:0;stroke-width:0.5;"/>
     </g>
     <g id="line2d_10">
      <g>
       <use style="stroke:#000000;stroke-width:0.8;" x="195.755388" xlink:href="#m5e52d5da3a" y="45.36"/>
      </g>
     </g>
     <g id="text_5">
      <!-- 50.0 -->
      <g transform="translate(187.005388 59.30375)scale(0.1 -0.1)">
       <use xlink:href="#TimesNewRomanPSMT-35"/>
       <use x="50" xlink:href="#TimesNewRomanPSMT-30"/>
       <use x="100" xlink:href="#TimesNewRomanPSMT-2e"/>
       <use x="125" xlink:href="#TimesNewRomanPSMT-30"/>
      </g>
     </g>
    </g>
    <g id="text_6">
     <!-- Time (s) -->
     <defs>
      <path d="M 57.859375 66.21875 
L 58.59375 50.6875 
L 56.734375 50.6875 
Q 56.203125 54.78125 55.28125 56.546875 
Q 53.765625 59.375 51.25 60.71875 
Q 48.734375 62.0625 44.625 62.0625 
L 35.296875 62.0625 
L 35.296875 11.46875 
Q 35.296875 5.375 36.625 3.859375 
Q 38.484375 1.8125 42.328125 1.8125 
L 44.625 1.8125 
L 44.625 0 
L 16.546875 0 
L 16.546875 1.8125 
L 18.890625 1.8125 
Q 23.09375 1.8125 24.859375 4.34375 
Q 25.921875 5.90625 25.921875 11.46875 
L 25.921875 62.0625 
L 17.96875 62.0625 
Q 13.328125 62.0625 11.375 61.375 
Q 8.84375 60.453125 7.03125 57.8125 
Q 5.21875 55.171875 4.890625 50.6875 
L 3.03125 50.6875 
L 3.8125 66.21875 
z
" id="TimesNewRomanPSMT-54"/>
      <path d="M 14.5 69.4375 
Q 16.546875 69.4375 17.984375 67.984375 
Q 19.4375 66.546875 19.4375 64.5 
Q 19.4375 62.453125 17.984375 60.984375 
Q 16.546875 59.515625 14.5 59.515625 
Q 12.453125 59.515625 10.984375 60.984375 
Q 9.515625 62.453125 9.515625 64.5 
Q 9.515625 66.546875 10.953125 67.984375 
Q 12.40625 69.4375 14.5 69.4375 
z
M 18.5625 46.046875 
L 18.5625 10.109375 
Q 18.5625 5.90625 19.171875 4.515625 
Q 19.78125 3.125 20.96875 2.4375 
Q 22.171875 1.765625 25.34375 1.765625 
L 25.34375 0 
L 3.609375 0 
L 3.609375 1.765625 
Q 6.890625 1.765625 8 2.390625 
Q 9.125 3.03125 9.78125 4.484375 
Q 10.453125 5.953125 10.453125 10.109375 
L 10.453125 27.34375 
Q 10.453125 34.625 10.015625 36.765625 
Q 9.671875 38.328125 8.9375 38.9375 
Q 8.203125 39.546875 6.9375 39.546875 
Q 5.5625 39.546875 3.609375 38.8125 
L 2.9375 40.578125 
L 16.40625 46.046875 
z
" id="TimesNewRomanPSMT-69"/>
      <path d="M 16.40625 36.53125 
Q 21.296875 41.40625 22.171875 42.140625 
Q 24.359375 44 26.890625 45.015625 
Q 29.4375 46.046875 31.9375 46.046875 
Q 36.140625 46.046875 39.15625 43.59375 
Q 42.1875 41.15625 43.21875 36.53125 
Q 48.25 42.390625 51.703125 44.21875 
Q 55.171875 46.046875 58.84375 46.046875 
Q 62.40625 46.046875 65.15625 44.21875 
Q 67.921875 42.390625 69.53125 38.234375 
Q 70.609375 35.40625 70.609375 29.34375 
L 70.609375 10.109375 
Q 70.609375 5.90625 71.234375 4.34375 
Q 71.734375 3.265625 73.046875 2.515625 
Q 74.359375 1.765625 77.34375 1.765625 
L 77.34375 0 
L 55.28125 0 
L 55.28125 1.765625 
L 56.203125 1.765625 
Q 59.078125 1.765625 60.6875 2.875 
Q 61.8125 3.65625 62.3125 5.375 
Q 62.5 6.203125 62.5 10.109375 
L 62.5 29.34375 
Q 62.5 34.8125 61.1875 37.0625 
Q 59.28125 40.1875 55.078125 40.1875 
Q 52.484375 40.1875 49.875 38.890625 
Q 47.265625 37.59375 43.5625 34.078125 
L 43.453125 33.546875 
L 43.5625 31.453125 
L 43.5625 10.109375 
Q 43.5625 5.515625 44.0625 4.390625 
Q 44.578125 3.265625 45.984375 2.515625 
Q 47.40625 1.765625 50.828125 1.765625 
L 50.828125 0 
L 28.21875 0 
L 28.21875 1.765625 
Q 31.9375 1.765625 33.328125 2.640625 
Q 34.71875 3.515625 35.25 5.28125 
Q 35.5 6.109375 35.5 10.109375 
L 35.5 29.34375 
Q 35.5 34.8125 33.890625 37.203125 
Q 31.734375 40.328125 27.875 40.328125 
Q 25.25 40.328125 22.65625 38.921875 
Q 18.609375 36.765625 16.40625 34.078125 
L 16.40625 10.109375 
Q 16.40625 5.71875 17.015625 4.390625 
Q 17.625 3.078125 18.8125 2.421875 
Q 20.015625 1.765625 23.6875 1.765625 
L 23.6875 0 
L 1.5625 0 
L 1.5625 1.765625 
Q 4.640625 1.765625 5.859375 2.421875 
Q 7.078125 3.078125 7.703125 4.515625 
Q 8.34375 5.953125 8.34375 10.109375 
L 8.34375 27.203125 
Q 8.34375 34.578125 7.90625 36.71875 
Q 7.5625 38.328125 6.828125 38.9375 
Q 6.109375 39.546875 4.828125 39.546875 
Q 3.46875 39.546875 1.5625 38.8125 
L 0.828125 40.578125 
L 14.3125 46.046875 
L 16.40625 46.046875 
z
" id="TimesNewRomanPSMT-6d"/>
      <path d="M 10.640625 27.875 
Q 10.59375 17.921875 15.484375 12.25 
Q 20.359375 6.59375 26.953125 6.59375 
Q 31.34375 6.59375 34.59375 9 
Q 37.84375 11.421875 40.046875 17.28125 
L 41.546875 16.3125 
Q 40.53125 9.625 35.59375 4.125 
Q 30.671875 -1.375 23.25 -1.375 
Q 15.1875 -1.375 9.453125 4.90625 
Q 3.71875 11.1875 3.71875 21.78125 
Q 3.71875 33.25 9.59375 39.671875 
Q 15.484375 46.09375 24.359375 46.09375 
Q 31.890625 46.09375 36.71875 41.140625 
Q 41.546875 36.1875 41.546875 27.875 
z
M 10.640625 30.71875 
L 31.34375 30.71875 
Q 31.109375 35.015625 30.328125 36.765625 
Q 29.109375 39.5 26.6875 41.0625 
Q 24.265625 42.625 21.625 42.625 
Q 17.578125 42.625 14.375 39.46875 
Q 11.1875 36.328125 10.640625 30.71875 
z
" id="TimesNewRomanPSMT-65"/>
      <path id="TimesNewRomanPSMT-20"/>
      <path d="M 31.0625 -19.578125 
L 31.0625 -21.390625 
Q 23.6875 -17.671875 18.75 -12.703125 
Q 11.71875 -5.609375 7.90625 4 
Q 4.109375 13.625 4.109375 23.96875 
Q 4.109375 39.109375 11.578125 51.578125 
Q 19.046875 64.0625 31.0625 69.4375 
L 31.0625 67.390625 
Q 25.046875 64.0625 21.1875 58.296875 
Q 17.328125 52.546875 15.421875 43.703125 
Q 13.53125 34.859375 13.53125 25.25 
Q 13.53125 14.796875 15.140625 6.25 
Q 16.40625 -0.484375 18.203125 -4.5625 
Q 20.015625 -8.640625 23.0625 -12.390625 
Q 26.125 -16.15625 31.0625 -19.578125 
z
" id="TimesNewRomanPSMT-28"/>
      <path d="M 32.03125 46.046875 
L 32.03125 30.8125 
L 30.421875 30.8125 
Q 28.5625 37.984375 25.65625 40.578125 
Q 22.75 43.171875 18.265625 43.171875 
Q 14.84375 43.171875 12.734375 41.359375 
Q 10.640625 39.546875 10.640625 37.359375 
Q 10.640625 34.625 12.203125 32.671875 
Q 13.71875 30.671875 18.359375 28.421875 
L 25.484375 24.953125 
Q 35.40625 20.125 35.40625 12.203125 
Q 35.40625 6.109375 30.78125 2.359375 
Q 26.171875 -1.375 20.453125 -1.375 
Q 16.359375 -1.375 11.078125 0.09375 
Q 9.46875 0.59375 8.453125 0.59375 
Q 7.328125 0.59375 6.6875 -0.6875 
L 5.078125 -0.6875 
L 5.078125 15.28125 
L 6.6875 15.28125 
Q 8.0625 8.453125 11.90625 4.984375 
Q 15.765625 1.515625 20.5625 1.515625 
Q 23.921875 1.515625 26.046875 3.484375 
Q 28.171875 5.46875 28.171875 8.25 
Q 28.171875 11.625 25.796875 13.921875 
Q 23.4375 16.21875 16.359375 19.734375 
Q 9.28125 23.25 7.078125 26.078125 
Q 4.890625 28.859375 4.890625 33.109375 
Q 4.890625 38.625 8.671875 42.328125 
Q 12.453125 46.046875 18.453125 46.046875 
Q 21.09375 46.046875 24.859375 44.921875 
Q 27.34375 44.1875 28.171875 44.1875 
Q 28.953125 44.1875 29.390625 44.53125 
Q 29.828125 44.875 30.421875 46.046875 
z
" id="TimesNewRomanPSMT-73"/>
      <path d="M 2.25 67.390625 
L 2.25 69.4375 
Q 9.671875 65.765625 14.59375 60.796875 
Q 21.578125 53.65625 25.390625 44.0625 
Q 29.203125 34.46875 29.203125 24.078125 
Q 29.203125 8.9375 21.75 -3.53125 
Q 14.3125 -16.015625 2.25 -21.390625 
L 2.25 -19.578125 
Q 8.25 -16.21875 12.125 -10.46875 
Q 16.015625 -4.734375 17.890625 4.125 
Q 19.78125 12.984375 19.78125 22.609375 
Q 19.78125 33.015625 18.171875 41.609375 
Q 16.9375 48.34375 15.109375 52.390625 
Q 13.28125 56.453125 10.25 60.203125 
Q 7.234375 63.96875 2.25 67.390625 
z
" id="TimesNewRomanPSMT-29"/>
     </defs>
     <g transform="translate(119.005 72.386562)scale(0.1 -0.1)">
      <use xlink:href="#TimesNewRomanPSMT-54"/>
      <use x="61.037109" xlink:href="#TimesNewRomanPSMT-69"/>
      <use x="88.820312" xlink:href="#TimesNewRomanPSMT-6d"/>
      <use x="166.603516" xlink:href="#TimesNewRomanPSMT-65"/>
      <use x="210.988281" xlink:href="#TimesNewRomanPSMT-20"/>
      <use x="235.988281" xlink:href="#TimesNewRomanPSMT-28"/>
      <use x="269.289062" xlink:href="#TimesNewRomanPSMT-73"/>
      <use x="308.205078" xlink:href="#TimesNewRomanPSMT-29"/>
     </g>
    </g>
   </g>
   <g id="matplotlib.axis_2">
    <g id="ytick_1">
     <g id="line2d_11">
      <path clip-path="url(#p8e6d7e7399)" d="M 45.36 43.768421 
L 226.8 43.768421 
" style="fill:none;stroke:#b0b0b0;stroke-dasharray:1.85,0.8;stroke-dashoffset:0;stroke-width:0.5;"/>
     </g>
     <g id="line2d_12">
      <defs>
       <path d="M 0 0 
L -3.5 0 
" id="md428c37c40" style="stroke:#000000;stroke-width:0.8;"/>
      </defs>
      <g>
       <use style="stroke:#000000;stroke-width:0.8;" x="45.36" xlink:href="#md428c37c40" y="43.768421"/>
      </g>
     </g>
     <g id="text_7">
      <!-- 400 -->
      <g transform="translate(23.36 47.240296)scale(0.1 -0.1)">
       <use xlink:href="#TimesNewRomanPSMT-34"/>
       <use x="50" xlink:href="#TimesNewRomanPSMT-30"/>
       <use x="100" xlink:href="#TimesNewRomanPSMT-30"/>
      </g>
     </g>
    </g>
    <g id="ytick_2">
     <g id="line2d_13">
      <path clip-path="url(#p8e6d7e7399)" d="M 45.36 27.852632 
L 226.8 27.852632 
" style="fill:none;stroke:#b0b0b0;stroke-dasharray:1.85,0.8;stroke-dashoffset:0;stroke-width:0.5;"/>
     </g>
     <g id="line2d_14">
      <g>
       <use style="stroke:#000000;stroke-width:0.8;" x="45.36" xlink:href="#md428c37c40" y="27.852632"/>
      </g>
     </g>
     <g id="text_8">
      <!-- 500 -->
      <g transform="translate(23.36 31.324507)scale(0.1 -0.1)">
       <use xlink:href="#TimesNewRomanPSMT-35"/>
       <use x="50" xlink:href="#TimesNewRomanPSMT-30"/>
       <use x="100" xlink:href="#TimesNewRomanPSMT-30"/>
      </g>
     </g>
    </g>
    <g id="text_9">
     <!-- s (m) -->
     <g transform="translate(17.220937 40.654844)rotate(-90)scale(0.1 -0.1)">
      <use xlink:href="#TimesNewRomanPSMT-73"/>
      <use x="38.916016" xlink:href="#TimesNewRomanPSMT-20"/>
      <use x="63.916016" xlink:href="#TimesNewRomanPSMT-28"/>
      <use x="97.216797" xlink:href="#TimesNewRomanPSMT-6d"/>
      <use x="175" xlink:href="#TimesNewRomanPSMT-29"/>
     </g>
    </g>
   </g>
   <g id="line2d_15">
    <path clip-path="url(#p8e6d7e7399)" d="M 53.607273 43.768421 
L 54.948293 43.68 
L 56.289313 43.591579 
L 57.630333 43.503158 
L 58.971353 43.413941 
L 60.312373 43.323133 
L 61.653392 43.229937 
L 62.994412 43.133581 
L 64.335432 43.033546 
L 65.676452 42.929564 
L 67.017472 42.821603 
L 68.358492 42.709662 
L 69.699512 42.593743 
L 71.040532 42.473845 
L 72.381552 42.349968 
L 73.722572 42.222112 
L 75.063592 42.090277 
L 76.404612 41.954463 
L 77.745632 41.81467 
L 79.086652 41.670898 
L 80.427672 41.523147 
L 81.768692 41.371418 
L 83.109712 41.215709 
L 84.450732 41.056021 
L 85.791752 40.892355 
L 87.132772 40.724709 
L 88.473792 40.553085 
L 89.814812 40.377481 
L 91.155831 40.197899 
L 92.496851 40.014338 
L 93.837871 39.826798 
L 95.178891 39.635278 
L 96.519911 39.43978 
L 97.860931 39.240303 
L 99.201951 39.036847 
L 100.542971 38.829412 
L 101.883991 38.617998 
L 103.225011 38.402606 
L 104.566031 38.183309 
L 105.907051 37.960243 
L 107.248071 37.733606 
L 108.589091 37.503639 
L 109.930111 37.270627 
L 111.271131 37.034887 
L 112.612151 36.79676 
L 113.953171 36.556608 
L 115.294191 36.314802 
L 116.635211 36.07172 
L 117.976231 35.827737 
L 119.317251 35.583223 
L 120.658271 35.33853 
L 121.99929 35.093995 
L 123.34031 34.849926 
L 124.68133 34.606598 
L 126.02235 34.36426 
L 127.36337 34.12313 
L 128.70439 33.883403 
L 130.04541 33.645251 
L 131.38643 33.408826 
L 132.72745 33.17426 
L 134.06847 32.941669 
L 135.40949 32.711153 
L 136.75051 32.482799 
L 138.09153 32.256678 
L 139.43255 32.03285 
L 140.77357 31.811363 
L 142.11459 31.592254 
L 143.45561 31.375548 
L 144.79663 31.161258 
L 146.13765 30.949385 
L 147.47867 30.739916 
L 148.81969 30.532827 
L 150.16071 30.328078 
L 151.501729 30.12561 
L 152.842749 29.925355 
L 154.183769 29.727231 
L 155.524789 29.531147 
L 156.865809 29.337005 
L 158.206829 29.144705 
L 159.547849 28.95414 
L 160.888869 28.765203 
L 162.229889 28.577786 
L 163.570909 28.391781 
L 164.911929 28.207081 
L 166.252949 28.023584 
L 167.593969 27.841186 
L 168.934989 27.659791 
L 170.276009 27.479305 
L 171.617029 27.299638 
L 172.958049 27.120705 
L 174.299069 26.942426 
L 175.640089 26.764724 
L 176.981109 26.58753 
L 178.322129 26.410778 
L 179.663149 26.234407 
L 181.004169 26.058362 
L 182.345188 25.88259 
L 183.686208 25.707047 
L 185.027228 25.531688 
L 186.368248 25.356478 
L 187.709268 25.181382 
L 189.050288 25.00637 
L 190.391308 24.831416 
L 191.732328 24.656498 
L 193.073348 24.481597 
L 194.414368 24.306695 
L 195.755388 24.131781 
L 197.096408 23.956842 
L 198.437428 23.781871 
L 199.778448 23.606863 
L 201.119468 23.431811 
L 202.460488 23.256716 
L 203.801508 23.081575 
L 205.142528 22.906391 
L 206.483548 22.731166 
L 207.824568 22.555902 
L 209.165588 22.380606 
L 210.506608 22.205282 
L 211.847627 22.029937 
L 213.188647 21.854577 
L 214.529667 21.679209 
L 215.870687 21.503841 
L 217.211707 21.328474 
L 218.552727 21.153106 
" style="fill:none;stroke:#0000ff;stroke-linecap:square;"/>
   </g>
   <g id="patch_3">
    <path d="M 45.36 45.36 
L 45.36 15.12 
" style="fill:none;stroke:#000000;stroke-linecap:square;stroke-linejoin:miter;stroke-width:0.8;"/>
   </g>
   <g id="patch_4">
    <path d="M 226.8 45.36 
L 226.8 15.12 
" style="fill:none;stroke:#000000;stroke-linecap:square;stroke-linejoin:miter;stroke-width:0.8;"/>
   </g>
   <g id="patch_5">
    <path d="M 45.36 45.36 
L 226.8 45.36 
" style="fill:none;stroke:#000000;stroke-linecap:square;stroke-linejoin:miter;stroke-width:0.8;"/>
   </g>
   <g id="patch_6">
    <path d="M 45.36 15.12 
L 226.8 15.12 
" style="fill:none;stroke:#000000;stroke-linecap:square;stroke-linejoin:miter;stroke-width:0.8;"/>
   </g>
   <g id="text_10">
    <!-- s-t Graph -->
    <defs>
     <path d="M 4.046875 26.125 
L 29.296875 26.125 
L 29.296875 18.75 
L 4.046875 18.75 
z
" id="TimesNewRomanPSMT-2d"/>
     <path d="M 16.109375 59.421875 
L 16.109375 44.734375 
L 26.5625 44.734375 
L 26.5625 41.3125 
L 16.109375 41.3125 
L 16.109375 12.3125 
Q 16.109375 7.953125 17.359375 6.4375 
Q 18.609375 4.9375 20.5625 4.9375 
Q 22.171875 4.9375 23.6875 5.9375 
Q 25.203125 6.9375 26.03125 8.890625 
L 27.9375 8.890625 
Q 26.21875 4.109375 23.09375 1.6875 
Q 19.96875 -0.734375 16.65625 -0.734375 
Q 14.40625 -0.734375 12.25 0.515625 
Q 10.109375 1.765625 9.078125 4.078125 
Q 8.0625 6.390625 8.0625 11.234375 
L 8.0625 41.3125 
L 0.984375 41.3125 
L 0.984375 42.921875 
Q 3.65625 44 6.46875 46.5625 
Q 9.28125 49.125 11.46875 52.640625 
Q 12.59375 54.5 14.59375 59.421875 
z
" id="TimesNewRomanPSMT-74"/>
     <path d="M 61.375 67.71875 
L 63.09375 46.828125 
L 61.375 46.828125 
Q 58.796875 54.640625 54.6875 58.59375 
Q 48.78125 64.3125 39.5 64.3125 
Q 26.859375 64.3125 20.265625 54.296875 
Q 14.75 45.84375 14.75 34.1875 
Q 14.75 24.703125 18.40625 16.890625 
Q 22.078125 9.078125 28 5.4375 
Q 33.9375 1.8125 40.1875 1.8125 
Q 43.84375 1.8125 47.265625 2.734375 
Q 50.6875 3.65625 53.859375 5.46875 
L 53.859375 24.609375 
Q 53.859375 29.59375 53.09375 31.125 
Q 52.34375 32.671875 50.75 33.46875 
Q 49.171875 34.28125 45.171875 34.28125 
L 45.171875 36.140625 
L 70.796875 36.140625 
L 70.796875 34.28125 
L 69.578125 34.28125 
Q 65.765625 34.28125 64.359375 31.734375 
Q 63.375 29.9375 63.375 24.609375 
L 63.375 4.34375 
Q 57.765625 1.3125 52.296875 -0.09375 
Q 46.828125 -1.515625 40.140625 -1.515625 
Q 20.953125 -1.515625 10.984375 10.796875 
Q 3.515625 20.015625 3.515625 32.078125 
Q 3.515625 40.828125 7.71875 48.828125 
Q 12.703125 58.34375 21.390625 63.484375 
Q 28.65625 67.71875 38.578125 67.71875 
Q 42.1875 67.71875 45.140625 67.125 
Q 48.09375 66.546875 53.515625 64.546875 
Q 56.25 63.53125 57.171875 63.53125 
Q 58.109375 63.53125 58.765625 64.375 
Q 59.421875 65.234375 59.578125 67.71875 
z
" id="TimesNewRomanPSMT-47"/>
     <path d="M 16.21875 46.046875 
L 16.21875 35.984375 
Q 21.828125 46.046875 27.734375 46.046875 
Q 30.421875 46.046875 32.171875 44.40625 
Q 33.9375 42.78125 33.9375 40.625 
Q 33.9375 38.71875 32.65625 37.390625 
Q 31.390625 36.078125 29.640625 36.078125 
Q 27.9375 36.078125 25.8125 37.765625 
Q 23.6875 39.453125 22.65625 39.453125 
Q 21.78125 39.453125 20.75 38.484375 
Q 18.5625 36.46875 16.21875 31.890625 
L 16.21875 10.453125 
Q 16.21875 6.734375 17.140625 4.828125 
Q 17.78125 3.515625 19.390625 2.640625 
Q 21 1.765625 24.03125 1.765625 
L 24.03125 0 
L 1.125 0 
L 1.125 1.765625 
Q 4.546875 1.765625 6.203125 2.828125 
Q 7.421875 3.609375 7.90625 5.328125 
Q 8.15625 6.15625 8.15625 10.0625 
L 8.15625 27.390625 
Q 8.15625 35.203125 7.828125 36.6875 
Q 7.515625 38.1875 6.65625 38.859375 
Q 5.8125 39.546875 4.546875 39.546875 
Q 3.03125 39.546875 1.125 38.8125 
L 0.640625 40.578125 
L 14.15625 46.046875 
z
" id="TimesNewRomanPSMT-72"/>
     <path d="M 28.46875 6.453125 
Q 21.578125 1.125 19.828125 0.296875 
Q 17.1875 -0.921875 14.203125 -0.921875 
Q 9.578125 -0.921875 6.5625 2.25 
Q 3.5625 5.421875 3.5625 10.59375 
Q 3.5625 13.875 5.03125 16.265625 
Q 7.03125 19.578125 11.984375 22.5 
Q 16.9375 25.4375 28.46875 29.640625 
L 28.46875 31.390625 
Q 28.46875 38.09375 26.34375 40.578125 
Q 24.21875 43.0625 20.171875 43.0625 
Q 17.09375 43.0625 15.28125 41.40625 
Q 13.421875 39.75 13.421875 37.59375 
L 13.53125 34.765625 
Q 13.53125 32.515625 12.375 31.296875 
Q 11.234375 30.078125 9.375 30.078125 
Q 7.5625 30.078125 6.421875 31.34375 
Q 5.28125 32.625 5.28125 34.8125 
Q 5.28125 39.015625 9.578125 42.53125 
Q 13.875 46.046875 21.625 46.046875 
Q 27.59375 46.046875 31.390625 44.046875 
Q 34.28125 42.53125 35.640625 39.3125 
Q 36.53125 37.203125 36.53125 30.71875 
L 36.53125 15.53125 
Q 36.53125 9.125 36.765625 7.6875 
Q 37.015625 6.25 37.578125 5.765625 
Q 38.140625 5.28125 38.875 5.28125 
Q 39.65625 5.28125 40.234375 5.609375 
Q 41.265625 6.25 44.1875 9.1875 
L 44.1875 6.453125 
Q 38.71875 -0.875 33.734375 -0.875 
Q 31.34375 -0.875 29.921875 0.78125 
Q 28.515625 2.4375 28.46875 6.453125 
z
M 28.46875 9.625 
L 28.46875 26.65625 
Q 21.09375 23.734375 18.953125 22.515625 
Q 15.09375 20.359375 13.421875 18.015625 
Q 11.765625 15.671875 11.765625 12.890625 
Q 11.765625 9.375 13.859375 7.046875 
Q 15.96875 4.734375 18.703125 4.734375 
Q 22.40625 4.734375 28.46875 9.625 
z
" id="TimesNewRomanPSMT-61"/>
     <path d="M -0.09375 40.28125 
L 13.671875 45.84375 
L 15.53125 45.84375 
L 15.53125 35.40625 
Q 19 41.3125 22.484375 43.671875 
Q 25.984375 46.046875 29.828125 46.046875 
Q 36.578125 46.046875 41.0625 40.765625 
Q 46.578125 34.328125 46.578125 23.96875 
Q 46.578125 12.40625 39.9375 4.828125 
Q 34.46875 -1.375 26.171875 -1.375 
Q 22.5625 -1.375 19.921875 -0.34375 
Q 17.96875 0.390625 15.53125 2.59375 
L 15.53125 -11.03125 
Q 15.53125 -15.625 16.09375 -16.859375 
Q 16.65625 -18.109375 18.046875 -18.84375 
Q 19.4375 -19.578125 23.09375 -19.578125 
L 23.09375 -21.390625 
L -0.34375 -21.390625 
L -0.34375 -19.578125 
L 0.875 -19.578125 
Q 3.5625 -19.625 5.46875 -18.5625 
Q 6.390625 -18.015625 6.90625 -16.8125 
Q 7.421875 -15.625 7.421875 -10.75 
L 7.421875 31.546875 
Q 7.421875 35.890625 7.03125 37.0625 
Q 6.640625 38.234375 5.78125 38.8125 
Q 4.9375 39.40625 3.46875 39.40625 
Q 2.296875 39.40625 0.484375 38.71875 
z
M 15.53125 32.515625 
L 15.53125 15.828125 
Q 15.53125 10.40625 15.96875 8.6875 
Q 16.65625 5.859375 19.3125 3.703125 
Q 21.96875 1.5625 26.03125 1.5625 
Q 30.90625 1.5625 33.9375 5.375 
Q 37.890625 10.359375 37.890625 19.390625 
Q 37.890625 29.640625 33.40625 35.15625 
Q 30.28125 38.96875 25.984375 38.96875 
Q 23.640625 38.96875 21.34375 37.796875 
Q 19.578125 36.921875 15.53125 32.515625 
z
" id="TimesNewRomanPSMT-70"/>
     <path d="M 16.265625 69.4375 
L 16.265625 36.71875 
Q 21.6875 42.671875 24.859375 44.359375 
Q 28.03125 46.046875 31.203125 46.046875 
Q 35.015625 46.046875 37.75 43.9375 
Q 40.484375 41.84375 41.796875 37.359375 
Q 42.71875 34.234375 42.71875 25.921875 
L 42.71875 10.109375 
Q 42.71875 5.859375 43.40625 4.296875 
Q 43.890625 3.125 45.0625 2.4375 
Q 46.234375 1.765625 49.359375 1.765625 
L 49.359375 0 
L 27.390625 0 
L 27.390625 1.765625 
L 28.421875 1.765625 
Q 31.546875 1.765625 32.765625 2.703125 
Q 33.984375 3.65625 34.46875 5.515625 
Q 34.625 6.296875 34.625 10.109375 
L 34.625 25.921875 
Q 34.625 33.25 33.859375 35.546875 
Q 33.109375 37.84375 31.4375 38.984375 
Q 29.78125 40.140625 27.4375 40.140625 
Q 25.046875 40.140625 22.453125 38.859375 
Q 19.875 37.59375 16.265625 33.734375 
L 16.265625 10.109375 
Q 16.265625 5.515625 16.765625 4.390625 
Q 17.28125 3.265625 18.671875 2.515625 
Q 20.0625 1.765625 23.484375 1.765625 
L 23.484375 0 
L 1.3125 0 
L 1.3125 1.765625 
Q 4.296875 1.765625 6 2.6875 
Q 6.984375 3.171875 7.5625 4.53125 
Q 8.15625 5.90625 8.15625 10.109375 
L 8.15625 50.59375 
Q 8.15625 58.25 7.78125 60 
Q 7.421875 61.765625 6.65625 62.390625 
Q 5.90625 63.03125 4.640625 63.03125 
Q 3.609375 63.03125 1.3125 62.25 
L 0.640625 63.96875 
L 14.015625 69.4375 
z
" id="TimesNewRomanPSMT-68"/>
    </defs>
    <g transform="translate(117.334687 9.12)scale(0.1 -0.1)">
     <use xlink:href="#TimesNewRomanPSMT-73"/>
     <use x="38.916016" xlink:href="#TimesNewRomanPSMT-2d"/>
     <use x="72.216797" xlink:href="#TimesNewRomanPSMT-74"/>
     <use x="100" xlink:href="#TimesNewRomanPSMT-20"/>
     <use x="125" xlink:href="#TimesNewRomanPSMT-47"/>
     <use x="197.216797" xlink:href="#TimesNewRomanPSMT-72"/>
     <use x="230.517578" xlink:href="#TimesNewRomanPSMT-61"/>
     <use x="274.902344" xlink:href="#TimesNewRomanPSMT-70"/>
     <use x="324.902344" xlink:href="#TimesNewRomanPSMT-68"/>
    </g>
   </g>
  </g>
  <g id="axes_2">
   <g id="patch_7">
    <path d="M 45.36 120.96 
L 226.8 120.96 
L 226.8 105.84 
L 45.36 105.84 
z
" style="fill:#ffffff;"/>
   </g>
   <g id="matplotlib.axis_3">
    <g id="xtick_6">
     <g id="line2d_16">
      <path clip-path="url(#p40407b82bf)" d="M 61.719344 120.96 
L 61.719344 105.84 
" style="fill:none;stroke:#b0b0b0;stroke-dasharray:1.85,0.8;stroke-dashoffset:0;stroke-width:0.5;"/>
     </g>
     <g id="line2d_17">
      <g>
       <use style="stroke:#000000;stroke-width:0.8;" x="61.719344" xlink:href="#m5e52d5da3a" y="120.96"/>
      </g>
     </g>
     <g id="text_11">
      <!-- 40.0 -->
      <g transform="translate(52.969344 134.90375)scale(0.1 -0.1)">
       <use xlink:href="#TimesNewRomanPSMT-34"/>
       <use x="50" xlink:href="#TimesNewRomanPSMT-30"/>
       <use x="100" xlink:href="#TimesNewRomanPSMT-2e"/>
       <use x="125" xlink:href="#TimesNewRomanPSMT-30"/>
      </g>
     </g>
    </g>
    <g id="xtick_7">
     <g id="line2d_18">
      <path clip-path="url(#p40407b82bf)" d="M 95.519642 120.96 
L 95.519642 105.84 
" style="fill:none;stroke:#b0b0b0;stroke-dasharray:1.85,0.8;stroke-dashoffset:0;stroke-width:0.5;"/>
     </g>
     <g id="line2d_19">
      <g>
       <use style="stroke:#000000;stroke-width:0.8;" x="95.519642" xlink:href="#m5e52d5da3a" y="120.96"/>
      </g>
     </g>
     <g id="text_12">
      <!-- 42.5 -->
      <g transform="translate(86.769642 134.90375)scale(0.1 -0.1)">
       <use xlink:href="#TimesNewRomanPSMT-34"/>
       <use x="50" xlink:href="#TimesNewRomanPSMT-32"/>
       <use x="100" xlink:href="#TimesNewRomanPSMT-2e"/>
       <use x="125" xlink:href="#TimesNewRomanPSMT-35"/>
      </g>
     </g>
    </g>
    <g id="xtick_8">
     <g id="line2d_20">
      <path clip-path="url(#p40407b82bf)" d="M 129.31994 120.96 
L 129.31994 105.84 
" style="fill:none;stroke:#b0b0b0;stroke-dasharray:1.85,0.8;stroke-dashoffset:0;stroke-width:0.5;"/>
     </g>
     <g id="line2d_21">
      <g>
       <use style="stroke:#000000;stroke-width:0.8;" x="129.31994" xlink:href="#m5e52d5da3a" y="120.96"/>
      </g>
     </g>
     <g id="text_13">
      <!-- 45.0 -->
      <g transform="translate(120.56994 134.90375)scale(0.1 -0.1)">
       <use xlink:href="#TimesNewRomanPSMT-34"/>
       <use x="50" xlink:href="#TimesNewRomanPSMT-35"/>
       <use x="100" xlink:href="#TimesNewRomanPSMT-2e"/>
       <use x="125" xlink:href="#TimesNewRomanPSMT-30"/>
      </g>
     </g>
    </g>
    <g id="xtick_9">
     <g id="line2d_22">
      <path clip-path="url(#p40407b82bf)" d="M 163.120238 120.96 
L 163.120238 105.84 
" style="fill:none;stroke:#b0b0b0;stroke-dasharray:1.85,0.8;stroke-dashoffset:0;stroke-width:0.5;"/>
     </g>
     <g id="line2d_23">
      <g>
       <use style="stroke:#000000;stroke-width:0.8;" x="163.120238" xlink:href="#m5e52d5da3a" y="120.96"/>
      </g>
     </g>
     <g id="text_14">
      <!-- 47.5 -->
      <g transform="translate(154.370238 134.90375)scale(0.1 -0.1)">
       <use xlink:href="#TimesNewRomanPSMT-34"/>
       <use x="50" xlink:href="#TimesNewRomanPSMT-37"/>
       <use x="100" xlink:href="#TimesNewRomanPSMT-2e"/>
       <use x="125" xlink:href="#TimesNewRomanPSMT-35"/>
      </g>
     </g>
    </g>
    <g id="xtick_10">
     <g id="line2d_24">
      <path clip-path="url(#p40407b82bf)" d="M 196.920537 120.96 
L 196.920537 105.84 
" style="fill:none;stroke:#b0b0b0;stroke-dasharray:1.85,0.8;stroke-dashoffset:0;stroke-width:0.5;"/>
     </g>
     <g id="line2d_25">
      <g>
       <use style="stroke:#000000;stroke-width:0.8;" x="196.920537" xlink:href="#m5e52d5da3a" y="120.96"/>
      </g>
     </g>
     <g id="text_15">
      <!-- 50.0 -->
      <g transform="translate(188.170537 134.90375)scale(0.1 -0.1)">
       <use xlink:href="#TimesNewRomanPSMT-35"/>
       <use x="50" xlink:href="#TimesNewRomanPSMT-30"/>
       <use x="100" xlink:href="#TimesNewRomanPSMT-2e"/>
       <use x="125" xlink:href="#TimesNewRomanPSMT-30"/>
      </g>
     </g>
    </g>
    <g id="text_16">
     <!-- Time (s) -->
     <g transform="translate(119.005 147.986562)scale(0.1 -0.1)">
      <use xlink:href="#TimesNewRomanPSMT-54"/>
      <use x="61.037109" xlink:href="#TimesNewRomanPSMT-69"/>
      <use x="88.820312" xlink:href="#TimesNewRomanPSMT-6d"/>
      <use x="166.603516" xlink:href="#TimesNewRomanPSMT-65"/>
      <use x="210.988281" xlink:href="#TimesNewRomanPSMT-20"/>
      <use x="235.988281" xlink:href="#TimesNewRomanPSMT-28"/>
      <use x="269.289062" xlink:href="#TimesNewRomanPSMT-73"/>
      <use x="308.205078" xlink:href="#TimesNewRomanPSMT-29"/>
     </g>
    </g>
   </g>
   <g id="matplotlib.axis_4">
    <g id="ytick_3">
     <g id="line2d_26">
      <path clip-path="url(#p40407b82bf)" d="M 45.36 121.05047 
L 226.8 121.05047 
" style="fill:none;stroke:#b0b0b0;stroke-dasharray:1.85,0.8;stroke-dashoffset:0;stroke-width:0.5;"/>
     </g>
     <g id="line2d_27">
      <g>
       <use style="stroke:#000000;stroke-width:0.8;" x="45.36" xlink:href="#md428c37c40" y="121.05047"/>
      </g>
     </g>
     <g id="text_17">
      <!-- 5 -->
      <g transform="translate(33.36 124.522345)scale(0.1 -0.1)">
       <use xlink:href="#TimesNewRomanPSMT-35"/>
      </g>
     </g>
    </g>
    <g id="ytick_4">
     <g id="line2d_28">
      <path clip-path="url(#p40407b82bf)" d="M 45.36 114.050789 
L 226.8 114.050789 
" style="fill:none;stroke:#b0b0b0;stroke-dasharray:1.85,0.8;stroke-dashoffset:0;stroke-width:0.5;"/>
     </g>
     <g id="line2d_29">
      <g>
       <use style="stroke:#000000;stroke-width:0.8;" x="45.36" xlink:href="#md428c37c40" y="114.050789"/>
      </g>
     </g>
     <g id="text_18">
      <!-- 10 -->
      <defs>
       <path d="M 11.71875 59.71875 
L 27.828125 67.578125 
L 29.4375 67.578125 
L 29.4375 11.671875 
Q 29.4375 6.109375 29.90625 4.734375 
Q 30.375 3.375 31.828125 2.640625 
Q 33.296875 1.90625 37.796875 1.8125 
L 37.796875 0 
L 12.890625 0 
L 12.890625 1.8125 
Q 17.578125 1.90625 18.9375 2.609375 
Q 20.3125 3.328125 20.84375 4.515625 
Q 21.390625 5.71875 21.390625 11.671875 
L 21.390625 47.40625 
Q 21.390625 54.640625 20.90625 56.6875 
Q 20.5625 58.25 19.65625 58.984375 
Q 18.75 59.71875 17.484375 59.71875 
Q 15.671875 59.71875 12.453125 58.203125 
z
" id="TimesNewRomanPSMT-31"/>
      </defs>
      <g transform="translate(28.36 117.522664)scale(0.1 -0.1)">
       <use xlink:href="#TimesNewRomanPSMT-31"/>
       <use x="50" xlink:href="#TimesNewRomanPSMT-30"/>
      </g>
     </g>
    </g>
    <g id="ytick_5">
     <g id="line2d_30">
      <path clip-path="url(#p40407b82bf)" d="M 45.36 107.051108 
L 226.8 107.051108 
" style="fill:none;stroke:#b0b0b0;stroke-dasharray:1.85,0.8;stroke-dashoffset:0;stroke-width:0.5;"/>
     </g>
     <g id="line2d_31">
      <g>
       <use style="stroke:#000000;stroke-width:0.8;" x="45.36" xlink:href="#md428c37c40" y="107.051108"/>
      </g>
     </g>
     <g id="text_19">
      <!-- 15 -->
      <g transform="translate(28.36 110.522983)scale(0.1 -0.1)">
       <use xlink:href="#TimesNewRomanPSMT-31"/>
       <use x="50" xlink:href="#TimesNewRomanPSMT-35"/>
      </g>
     </g>
    </g>
    <g id="text_20">
     <!-- v (m/s) -->
     <defs>
      <path d="M 0.828125 44.734375 
L 21.875 44.734375 
L 21.875 42.921875 
L 20.515625 42.921875 
Q 18.609375 42.921875 17.609375 41.984375 
Q 16.609375 41.0625 16.609375 39.5 
Q 16.609375 37.796875 17.625 35.453125 
L 28.03125 10.75 
L 38.484375 36.375 
Q 39.59375 39.109375 39.59375 40.53125 
Q 39.59375 41.21875 39.203125 41.65625 
Q 38.671875 42.390625 37.84375 42.65625 
Q 37.015625 42.921875 34.46875 42.921875 
L 34.46875 44.734375 
L 49.078125 44.734375 
L 49.078125 42.921875 
Q 46.53125 42.71875 45.5625 41.890625 
Q 43.84375 40.4375 42.484375 37.015625 
L 26.609375 -1.375 
L 24.609375 -1.375 
L 8.640625 36.375 
Q 7.5625 39.015625 6.578125 40.15625 
Q 5.609375 41.3125 4.109375 42.09375 
Q 3.265625 42.53125 0.828125 42.921875 
z
" id="TimesNewRomanPSMT-76"/>
      <path d="M 28.03125 69.4375 
L 4.046875 -1.375 
L 0.140625 -1.375 
L 24.125 69.4375 
z
" id="TimesNewRomanPSMT-2f"/>
     </defs>
     <g transform="translate(22.220937 127.703906)rotate(-90)scale(0.1 -0.1)">
      <use xlink:href="#TimesNewRomanPSMT-76"/>
      <use x="50" xlink:href="#TimesNewRomanPSMT-20"/>
      <use x="75" xlink:href="#TimesNewRomanPSMT-28"/>
      <use x="108.300781" xlink:href="#TimesNewRomanPSMT-6d"/>
      <use x="186.083984" xlink:href="#TimesNewRomanPSMT-2f"/>
      <use x="213.867188" xlink:href="#TimesNewRomanPSMT-73"/>
      <use x="252.783203" xlink:href="#TimesNewRomanPSMT-29"/>
     </g>
    </g>
   </g>
   <g id="line2d_32">
    <path clip-path="url(#p40407b82bf)" d="M 53.607273 120.272727 
L 54.959285 120.272727 
L 56.311297 120.272727 
L 57.663308 120.20273 
L 59.01532 120.062737 
L 60.367332 119.852746 
L 61.719344 119.574748 
L 63.071356 119.25124 
L 64.423368 118.903971 
L 65.77538 118.553987 
L 67.127392 118.204003 
L 68.479404 117.854019 
L 69.831416 117.504035 
L 71.183428 117.154051 
L 72.53544 116.804067 
L 73.887452 116.454083 
L 75.239463 116.104099 
L 76.591475 115.754115 
L 77.943487 115.404131 
L 79.295499 115.054147 
L 80.647511 114.704163 
L 81.999523 114.354179 
L 83.351535 114.004194 
L 84.703547 113.65421 
L 86.055559 113.304226 
L 87.407571 112.954242 
L 88.759583 112.604258 
L 90.111595 112.254274 
L 91.463607 111.90429 
L 92.815618 111.554306 
L 94.16763 111.204322 
L 95.519642 110.854338 
L 96.871654 110.504354 
L 98.223666 110.15437 
L 99.575678 109.804386 
L 100.92769 109.454402 
L 102.279702 109.104502 
L 103.631714 108.760963 
L 104.983726 108.429571 
L 106.335738 108.115335 
L 107.68775 107.822516 
L 109.039762 107.554672 
L 110.391773 107.314684 
L 111.743785 107.10479 
L 113.095797 106.926607 
L 114.447809 106.78116 
L 115.799821 106.668894 
L 117.151833 106.589692 
L 118.503845 106.542889 
L 119.855857 106.527273 
L 121.207869 106.541093 
L 122.559881 106.582058 
L 123.911893 106.647334 
L 125.263905 106.73431 
L 126.615917 106.840598 
L 127.967928 106.964011 
L 129.31994 107.10256 
L 130.671952 107.254434 
L 132.023964 107.417984 
L 133.375976 107.591711 
L 134.727988 107.774242 
L 136.08 107.964316 
L 137.432012 108.160764 
L 138.784024 108.362485 
L 140.136036 108.568428 
L 141.488048 108.777574 
L 142.84006 108.988906 
L 144.192072 109.201397 
L 145.544083 109.413979 
L 146.896095 109.625527 
L 148.248107 109.834834 
L 149.600119 110.040587 
L 150.952131 110.241348 
L 152.304143 110.435921 
L 153.656155 110.623326 
L 155.008167 110.802785 
L 156.360179 110.973696 
L 157.712191 111.135621 
L 159.064203 111.288262 
L 160.416215 111.431451 
L 161.768227 111.565127 
L 163.120238 111.689331 
L 164.47225 111.804183 
L 165.824262 111.909878 
L 167.176274 112.006667 
L 168.528286 112.094854 
L 169.880298 112.174782 
L 171.23231 112.246825 
L 172.584322 112.311383 
L 173.936334 112.368872 
L 175.288346 112.419719 
L 176.640358 112.464359 
L 177.99237 112.503225 
L 179.344382 112.536751 
L 180.696393 112.565363 
L 182.048405 112.589477 
L 183.400417 112.6095 
L 184.752429 112.625824 
L 186.104441 112.638825 
L 187.456453 112.648864 
L 188.808465 112.656284 
L 190.160477 112.661412 
L 191.512489 112.664553 
L 192.864501 112.665996 
L 194.216513 112.666011 
L 195.568525 112.664849 
L 196.920537 112.662743 
L 198.272548 112.659908 
L 199.62456 112.656542 
L 200.976572 112.652826 
L 202.328584 112.648923 
L 203.680596 112.644981 
L 205.032608 112.641134 
L 206.38462 112.6375 
L 207.736632 112.634181 
L 209.088644 112.631268 
L 210.440656 112.628837 
L 211.792668 112.626951 
L 213.14468 112.62566 
L 214.496692 112.625002 
L 215.848703 112.625002 
L 217.200715 112.625002 
L 218.552727 112.625002 
" style="fill:none;opacity:0.8;stroke:#0000ff;stroke-linecap:square;"/>
   </g>
   <g id="patch_8">
    <path d="M 45.36 120.96 
L 45.36 105.84 
" style="fill:none;stroke:#000000;stroke-linecap:square;stroke-linejoin:miter;stroke-width:0.8;"/>
   </g>
   <g id="patch_9">
    <path d="M 226.8 120.96 
L 226.8 105.84 
" style="fill:none;stroke:#000000;stroke-linecap:square;stroke-linejoin:miter;stroke-width:0.8;"/>
   </g>
   <g id="patch_10">
    <path d="M 45.36 120.96 
L 226.8 120.96 
" style="fill:none;stroke:#000000;stroke-linecap:square;stroke-linejoin:miter;stroke-width:0.8;"/>
   </g>
   <g id="patch_11">
    <path d="M 45.36 105.84 
L 226.8 105.84 
" style="fill:none;stroke:#000000;stroke-linecap:square;stroke-linejoin:miter;stroke-width:0.8;"/>
   </g>
   <g id="text_21">
    <!-- Speed Profile -->
    <defs>
     <path d="M 45.84375 67.71875 
L 45.84375 44.828125 
L 44.046875 44.828125 
Q 43.171875 51.421875 40.890625 55.328125 
Q 38.625 59.234375 34.421875 61.515625 
Q 30.21875 63.8125 25.734375 63.8125 
Q 20.65625 63.8125 17.328125 60.71875 
Q 14.015625 57.625 14.015625 53.65625 
Q 14.015625 50.640625 16.109375 48.140625 
Q 19.140625 44.484375 30.515625 38.375 
Q 39.796875 33.40625 43.1875 30.734375 
Q 46.578125 28.078125 48.40625 24.453125 
Q 50.25 20.84375 50.25 16.890625 
Q 50.25 9.375 44.40625 3.921875 
Q 38.578125 -1.515625 29.390625 -1.515625 
Q 26.515625 -1.515625 23.96875 -1.078125 
Q 22.46875 -0.828125 17.703125 0.703125 
Q 12.9375 2.25 11.671875 2.25 
Q 10.453125 2.25 9.734375 1.515625 
Q 9.03125 0.78125 8.6875 -1.515625 
L 6.890625 -1.515625 
L 6.890625 21.1875 
L 8.6875 21.1875 
Q 9.96875 14.0625 12.109375 10.515625 
Q 14.265625 6.984375 18.671875 4.640625 
Q 23.09375 2.296875 28.375 2.296875 
Q 34.46875 2.296875 38 5.515625 
Q 41.546875 8.734375 41.546875 13.140625 
Q 41.546875 15.578125 40.203125 18.0625 
Q 38.875 20.5625 36.03125 22.703125 
Q 34.125 24.171875 25.625 28.921875 
Q 17.140625 33.6875 13.546875 36.515625 
Q 9.96875 39.359375 8.109375 42.765625 
Q 6.25 46.1875 6.25 50.296875 
Q 6.25 57.421875 11.71875 62.5625 
Q 17.1875 67.71875 25.640625 67.71875 
Q 30.90625 67.71875 36.8125 65.140625 
Q 39.546875 63.921875 40.671875 63.921875 
Q 41.9375 63.921875 42.75 64.671875 
Q 43.5625 65.4375 44.046875 67.71875 
z
" id="TimesNewRomanPSMT-53"/>
     <path d="M 34.71875 5.03125 
Q 31.453125 1.609375 28.328125 0.109375 
Q 25.203125 -1.375 21.578125 -1.375 
Q 14.265625 -1.375 8.796875 4.75 
Q 3.328125 10.890625 3.328125 20.515625 
Q 3.328125 30.125 9.375 38.109375 
Q 15.4375 46.09375 24.953125 46.09375 
Q 30.859375 46.09375 34.71875 42.328125 
L 34.71875 50.59375 
Q 34.71875 58.25 34.34375 60 
Q 33.984375 61.765625 33.203125 62.390625 
Q 32.421875 63.03125 31.25 63.03125 
Q 29.984375 63.03125 27.875 62.25 
L 27.25 63.96875 
L 40.578125 69.4375 
L 42.78125 69.4375 
L 42.78125 17.71875 
Q 42.78125 9.859375 43.140625 8.125 
Q 43.5 6.390625 44.3125 5.703125 
Q 45.125 5.03125 46.1875 5.03125 
Q 47.515625 5.03125 49.703125 5.859375 
L 50.25 4.15625 
L 36.96875 -1.375 
L 34.71875 -1.375 
z
M 34.71875 8.453125 
L 34.71875 31.5 
Q 34.421875 34.8125 32.953125 37.546875 
Q 31.5 40.28125 29.078125 41.671875 
Q 26.65625 43.0625 24.359375 43.0625 
Q 20.0625 43.0625 16.703125 39.203125 
Q 12.25 34.125 12.25 24.359375 
Q 12.25 14.5 16.546875 9.25 
Q 20.84375 4 26.125 4 
Q 30.5625 4 34.71875 8.453125 
z
" id="TimesNewRomanPSMT-64"/>
     <path d="M 20.515625 31 
L 20.515625 11.71875 
Q 20.515625 5.46875 21.875 3.953125 
Q 23.734375 1.8125 27.484375 1.8125 
L 30.03125 1.8125 
L 30.03125 0 
L 1.65625 0 
L 1.65625 1.8125 
L 4.15625 1.8125 
Q 8.34375 1.8125 10.15625 4.546875 
Q 11.140625 6.0625 11.140625 11.71875 
L 11.140625 54.5 
Q 11.140625 60.75 9.8125 62.25 
Q 7.90625 64.40625 4.15625 64.40625 
L 1.65625 64.40625 
L 1.65625 66.21875 
L 25.921875 66.21875 
Q 34.8125 66.21875 39.9375 64.375 
Q 45.0625 62.546875 48.578125 58.203125 
Q 52.09375 53.859375 52.09375 47.90625 
Q 52.09375 39.796875 46.75 34.71875 
Q 41.40625 29.640625 31.640625 29.640625 
Q 29.25 29.640625 26.46875 29.984375 
Q 23.6875 30.328125 20.515625 31 
z
M 20.515625 33.796875 
Q 23.09375 33.296875 25.09375 33.046875 
Q 27.09375 32.8125 28.515625 32.8125 
Q 33.59375 32.8125 37.28125 36.734375 
Q 40.96875 40.671875 40.96875 46.921875 
Q 40.96875 51.21875 39.203125 54.90625 
Q 37.453125 58.59375 34.21875 60.421875 
Q 31 62.25 26.90625 62.25 
Q 24.421875 62.25 20.515625 61.328125 
z
" id="TimesNewRomanPSMT-50"/>
     <path d="M 25 46.046875 
Q 35.15625 46.046875 41.3125 38.328125 
Q 46.53125 31.734375 46.53125 23.1875 
Q 46.53125 17.1875 43.640625 11.03125 
Q 40.765625 4.890625 35.71875 1.75 
Q 30.671875 -1.375 24.46875 -1.375 
Q 14.359375 -1.375 8.40625 6.6875 
Q 3.375 13.484375 3.375 21.921875 
Q 3.375 28.078125 6.421875 34.15625 
Q 9.46875 40.234375 14.453125 43.140625 
Q 19.4375 46.046875 25 46.046875 
z
M 23.484375 42.875 
Q 20.90625 42.875 18.28125 41.328125 
Q 15.671875 39.796875 14.0625 35.9375 
Q 12.453125 32.078125 12.453125 26.03125 
Q 12.453125 16.265625 16.328125 9.171875 
Q 20.21875 2.09375 26.5625 2.09375 
Q 31.296875 2.09375 34.375 6 
Q 37.453125 9.90625 37.453125 19.4375 
Q 37.453125 31.34375 32.328125 38.1875 
Q 28.859375 42.875 23.484375 42.875 
z
" id="TimesNewRomanPSMT-6f"/>
     <path d="M 20.609375 41.21875 
L 20.609375 11.8125 
Q 20.609375 5.5625 21.96875 3.90625 
Q 23.78125 1.765625 26.8125 1.765625 
L 30.859375 1.765625 
L 30.859375 0 
L 4.15625 0 
L 4.15625 1.765625 
L 6.15625 1.765625 
Q 8.109375 1.765625 9.71875 2.734375 
Q 11.328125 3.71875 11.9375 5.375 
Q 12.546875 7.03125 12.546875 11.8125 
L 12.546875 41.21875 
L 3.859375 41.21875 
L 3.859375 44.734375 
L 12.546875 44.734375 
L 12.546875 47.65625 
Q 12.546875 54.34375 14.6875 58.984375 
Q 16.84375 63.625 21.265625 66.484375 
Q 25.6875 69.34375 31.203125 69.34375 
Q 36.328125 69.34375 40.625 66.015625 
Q 43.453125 63.8125 43.453125 61.078125 
Q 43.453125 59.625 42.1875 58.328125 
Q 40.921875 57.03125 39.453125 57.03125 
Q 38.328125 57.03125 37.078125 57.828125 
Q 35.84375 58.640625 34.03125 61.296875 
Q 32.234375 63.96875 30.71875 64.890625 
Q 29.203125 65.828125 27.34375 65.828125 
Q 25.09375 65.828125 23.53125 64.625 
Q 21.96875 63.421875 21.28125 60.90625 
Q 20.609375 58.40625 20.609375 47.953125 
L 20.609375 44.734375 
L 32.125 44.734375 
L 32.125 41.21875 
z
" id="TimesNewRomanPSMT-66"/>
     <path d="M 18.5 69.4375 
L 18.5 10.109375 
Q 18.5 5.90625 19.109375 4.53125 
Q 19.734375 3.171875 21 2.46875 
Q 22.265625 1.765625 25.734375 1.765625 
L 25.734375 0 
L 3.8125 0 
L 3.8125 1.765625 
Q 6.890625 1.765625 8 2.390625 
Q 9.125 3.03125 9.765625 4.484375 
Q 10.40625 5.953125 10.40625 10.109375 
L 10.40625 50.734375 
Q 10.40625 58.296875 10.0625 60.03125 
Q 9.71875 61.765625 8.953125 62.390625 
Q 8.203125 63.03125 7.03125 63.03125 
Q 5.765625 63.03125 3.8125 62.25 
L 2.984375 63.96875 
L 16.3125 69.4375 
z
" id="TimesNewRomanPSMT-6c"/>
    </defs>
    <g transform="translate(109.002656 99.84)scale(0.1 -0.1)">
     <use xlink:href="#TimesNewRomanPSMT-53"/>
     <use x="55.615234" xlink:href="#TimesNewRomanPSMT-70"/>
     <use x="105.615234" xlink:href="#TimesNewRomanPSMT-65"/>
     <use x="150" xlink:href="#TimesNewRomanPSMT-65"/>
     <use x="194.384766" xlink:href="#TimesNewRomanPSMT-64"/>
     <use x="244.384766" xlink:href="#TimesNewRomanPSMT-20"/>
     <use x="269.384766" xlink:href="#TimesNewRomanPSMT-50"/>
     <use x="325" xlink:href="#TimesNewRomanPSMT-72"/>
     <use x="358.300781" xlink:href="#TimesNewRomanPSMT-6f"/>
     <use x="408.300781" xlink:href="#TimesNewRomanPSMT-66"/>
     <use x="441.601562" xlink:href="#TimesNewRomanPSMT-69"/>
     <use x="469.384766" xlink:href="#TimesNewRomanPSMT-6c"/>
     <use x="497.167969" xlink:href="#TimesNewRomanPSMT-65"/>
    </g>
   </g>
  </g>
  <g id="axes_3">
   <g id="patch_12">
    <path d="M 45.36 196.56 
L 226.8 196.56 
L 226.8 181.44 
L 45.36 181.44 
z
" style="fill:#ffffff;"/>
   </g>
   <g id="matplotlib.axis_5">
    <g id="xtick_11">
     <g id="line2d_33">
      <path clip-path="url(#p0931504850)" d="M 61.786386 196.56 
L 61.786386 181.44 
" style="fill:none;stroke:#b0b0b0;stroke-dasharray:1.85,0.8;stroke-dashoffset:0;stroke-width:0.5;"/>
     </g>
     <g id="line2d_34">
      <g>
       <use style="stroke:#000000;stroke-width:0.8;" x="61.786386" xlink:href="#m5e52d5da3a" y="196.56"/>
      </g>
     </g>
     <g id="text_22">
      <!-- 40.0 -->
      <g transform="translate(53.036386 210.50375)scale(0.1 -0.1)">
       <use xlink:href="#TimesNewRomanPSMT-34"/>
       <use x="50" xlink:href="#TimesNewRomanPSMT-30"/>
       <use x="100" xlink:href="#TimesNewRomanPSMT-2e"/>
       <use x="125" xlink:href="#TimesNewRomanPSMT-30"/>
      </g>
     </g>
    </g>
    <g id="xtick_12">
     <g id="line2d_35">
      <path clip-path="url(#p0931504850)" d="M 95.866026 196.56 
L 95.866026 181.44 
" style="fill:none;stroke:#b0b0b0;stroke-dasharray:1.85,0.8;stroke-dashoffset:0;stroke-width:0.5;"/>
     </g>
     <g id="line2d_36">
      <g>
       <use style="stroke:#000000;stroke-width:0.8;" x="95.866026" xlink:href="#m5e52d5da3a" y="196.56"/>
      </g>
     </g>
     <g id="text_23">
      <!-- 42.5 -->
      <g transform="translate(87.116026 210.50375)scale(0.1 -0.1)">
       <use xlink:href="#TimesNewRomanPSMT-34"/>
       <use x="50" xlink:href="#TimesNewRomanPSMT-32"/>
       <use x="100" xlink:href="#TimesNewRomanPSMT-2e"/>
       <use x="125" xlink:href="#TimesNewRomanPSMT-35"/>
      </g>
     </g>
    </g>
    <g id="xtick_13">
     <g id="line2d_37">
      <path clip-path="url(#p0931504850)" d="M 129.945665 196.56 
L 129.945665 181.44 
" style="fill:none;stroke:#b0b0b0;stroke-dasharray:1.85,0.8;stroke-dashoffset:0;stroke-width:0.5;"/>
     </g>
     <g id="line2d_38">
      <g>
       <use style="stroke:#000000;stroke-width:0.8;" x="129.945665" xlink:href="#m5e52d5da3a" y="196.56"/>
      </g>
     </g>
     <g id="text_24">
      <!-- 45.0 -->
      <g transform="translate(121.195665 210.50375)scale(0.1 -0.1)">
       <use xlink:href="#TimesNewRomanPSMT-34"/>
       <use x="50" xlink:href="#TimesNewRomanPSMT-35"/>
       <use x="100" xlink:href="#TimesNewRomanPSMT-2e"/>
       <use x="125" xlink:href="#TimesNewRomanPSMT-30"/>
      </g>
     </g>
    </g>
    <g id="xtick_14">
     <g id="line2d_39">
      <path clip-path="url(#p0931504850)" d="M 164.025304 196.56 
L 164.025304 181.44 
" style="fill:none;stroke:#b0b0b0;stroke-dasharray:1.85,0.8;stroke-dashoffset:0;stroke-width:0.5;"/>
     </g>
     <g id="line2d_40">
      <g>
       <use style="stroke:#000000;stroke-width:0.8;" x="164.025304" xlink:href="#m5e52d5da3a" y="196.56"/>
      </g>
     </g>
     <g id="text_25">
      <!-- 47.5 -->
      <g transform="translate(155.275304 210.50375)scale(0.1 -0.1)">
       <use xlink:href="#TimesNewRomanPSMT-34"/>
       <use x="50" xlink:href="#TimesNewRomanPSMT-37"/>
       <use x="100" xlink:href="#TimesNewRomanPSMT-2e"/>
       <use x="125" xlink:href="#TimesNewRomanPSMT-35"/>
      </g>
     </g>
    </g>
    <g id="xtick_15">
     <g id="line2d_41">
      <path clip-path="url(#p0931504850)" d="M 198.104944 196.56 
L 198.104944 181.44 
" style="fill:none;stroke:#b0b0b0;stroke-dasharray:1.85,0.8;stroke-dashoffset:0;stroke-width:0.5;"/>
     </g>
     <g id="line2d_42">
      <g>
       <use style="stroke:#000000;stroke-width:0.8;" x="198.104944" xlink:href="#m5e52d5da3a" y="196.56"/>
      </g>
     </g>
     <g id="text_26">
      <!-- 50.0 -->
      <g transform="translate(189.354944 210.50375)scale(0.1 -0.1)">
       <use xlink:href="#TimesNewRomanPSMT-35"/>
       <use x="50" xlink:href="#TimesNewRomanPSMT-30"/>
       <use x="100" xlink:href="#TimesNewRomanPSMT-2e"/>
       <use x="125" xlink:href="#TimesNewRomanPSMT-30"/>
      </g>
     </g>
    </g>
    <g id="text_27">
     <!-- Time (s) -->
     <g transform="translate(119.005 223.586563)scale(0.1 -0.1)">
      <use xlink:href="#TimesNewRomanPSMT-54"/>
      <use x="61.037109" xlink:href="#TimesNewRomanPSMT-69"/>
      <use x="88.820312" xlink:href="#TimesNewRomanPSMT-6d"/>
      <use x="166.603516" xlink:href="#TimesNewRomanPSMT-65"/>
      <use x="210.988281" xlink:href="#TimesNewRomanPSMT-20"/>
      <use x="235.988281" xlink:href="#TimesNewRomanPSMT-28"/>
      <use x="269.289062" xlink:href="#TimesNewRomanPSMT-73"/>
      <use x="308.205078" xlink:href="#TimesNewRomanPSMT-29"/>
     </g>
    </g>
   </g>
   <g id="matplotlib.axis_6">
    <g id="ytick_6">
     <g id="line2d_43">
      <path clip-path="url(#p0931504850)" d="M 45.36 190.678604 
L 226.8 190.678604 
" style="fill:none;stroke:#b0b0b0;stroke-dasharray:1.85,0.8;stroke-dashoffset:0;stroke-width:0.5;"/>
     </g>
     <g id="line2d_44">
      <g>
       <use style="stroke:#000000;stroke-width:0.8;" x="45.36" xlink:href="#md428c37c40" y="190.678604"/>
      </g>
     </g>
     <g id="text_28">
      <!-- 0.0 -->
      <g transform="translate(25.86 194.150479)scale(0.1 -0.1)">
       <use xlink:href="#TimesNewRomanPSMT-30"/>
       <use x="50" xlink:href="#TimesNewRomanPSMT-2e"/>
       <use x="75" xlink:href="#TimesNewRomanPSMT-30"/>
      </g>
     </g>
    </g>
    <g id="ytick_7">
     <g id="line2d_45">
      <path clip-path="url(#p0931504850)" d="M 45.36 182.127273 
L 226.8 182.127273 
" style="fill:none;stroke:#b0b0b0;stroke-dasharray:1.85,0.8;stroke-dashoffset:0;stroke-width:0.5;"/>
     </g>
     <g id="line2d_46">
      <g>
       <use style="stroke:#000000;stroke-width:0.8;" x="45.36" xlink:href="#md428c37c40" y="182.127273"/>
      </g>
     </g>
     <g id="text_29">
      <!-- 2.5 -->
      <g transform="translate(25.86 185.599148)scale(0.1 -0.1)">
       <use xlink:href="#TimesNewRomanPSMT-32"/>
       <use x="50" xlink:href="#TimesNewRomanPSMT-2e"/>
       <use x="75" xlink:href="#TimesNewRomanPSMT-35"/>
      </g>
     </g>
    </g>
    <g id="text_30">
     <!-- a (m/s$\mathrm{^2}$) -->
     <defs>
      <path d="M 19.1875 8.296875 
L 53.609375 8.296875 
L 53.609375 0 
L 7.328125 0 
L 7.328125 8.296875 
Q 12.9375 14.109375 22.625 23.890625 
Q 32.328125 33.6875 34.8125 36.53125 
Q 39.546875 41.84375 41.421875 45.53125 
Q 43.3125 49.21875 43.3125 52.78125 
Q 43.3125 58.59375 39.234375 62.25 
Q 35.15625 65.921875 28.609375 65.921875 
Q 23.96875 65.921875 18.8125 64.3125 
Q 13.671875 62.703125 7.8125 59.421875 
L 7.8125 69.390625 
Q 13.765625 71.78125 18.9375 73 
Q 24.125 74.21875 28.421875 74.21875 
Q 39.75 74.21875 46.484375 68.546875 
Q 53.21875 62.890625 53.21875 53.421875 
Q 53.21875 48.921875 51.53125 44.890625 
Q 49.859375 40.875 45.40625 35.40625 
Q 44.1875 33.984375 37.640625 27.21875 
Q 31.109375 20.453125 19.1875 8.296875 
z
" id="DejaVuSans-32"/>
     </defs>
     <g transform="translate(19.66 205.45)rotate(-90)scale(0.1 -0.1)">
      <use transform="translate(0 0.765625)" xlink:href="#TimesNewRomanPSMT-61"/>
      <use transform="translate(44.384766 0.765625)" xlink:href="#TimesNewRomanPSMT-20"/>
      <use transform="translate(69.384766 0.765625)" xlink:href="#TimesNewRomanPSMT-28"/>
      <use transform="translate(102.685547 0.765625)" xlink:href="#TimesNewRomanPSMT-6d"/>
      <use transform="translate(180.46875 0.765625)" xlink:href="#TimesNewRomanPSMT-2f"/>
      <use transform="translate(208.251953 0.765625)" xlink:href="#TimesNewRomanPSMT-73"/>
      <use transform="translate(248.125 39.046875)scale(0.7)" xlink:href="#DejaVuSans-32"/>
      <use transform="translate(295.395508 0.765625)" xlink:href="#TimesNewRomanPSMT-29"/>
     </g>
    </g>
   </g>
   <g id="line2d_47">
    <path clip-path="url(#p0931504850)" d="M 53.607273 190.678604 
L 54.970458 190.678604 
L 56.333644 188.968337 
L 57.696829 187.258071 
L 59.060015 185.547805 
L 60.423201 183.886131 
L 61.786386 182.774188 
L 63.149572 182.193603 
L 64.512757 182.127273 
L 65.875943 182.127273 
L 67.239128 182.127273 
L 68.602314 182.127273 
L 69.9655 182.127273 
L 71.328685 182.127273 
L 72.691871 182.127273 
L 74.055056 182.127273 
L 75.418242 182.127273 
L 76.781427 182.127273 
L 78.144613 182.127273 
L 79.507799 182.127273 
L 80.870984 182.127273 
L 82.23417 182.127273 
L 83.597355 182.127273 
L 84.960541 182.127273 
L 86.323727 182.127273 
L 87.686912 182.127273 
L 89.050098 182.127273 
L 90.413283 182.127273 
L 91.776469 182.127273 
L 93.139654 182.127273 
L 94.50284 182.127273 
L 95.866026 182.127273 
L 97.229211 182.127273 
L 98.592397 182.127273 
L 99.955582 182.127273 
L 101.318768 182.129323 
L 102.681953 182.284743 
L 104.045139 182.581565 
L 105.408325 183.00071 
L 106.77151 183.524026 
L 108.134696 184.134235 
L 109.497881 184.814859 
L 110.861067 185.550146 
L 112.224252 186.324986 
L 113.587438 187.124819 
L 114.950624 187.935547 
L 116.313809 188.743439 
L 117.676995 189.535033 
L 119.04018 190.297046 
L 120.403366 191.01628 
L 121.766551 191.679532 
L 123.129737 192.273508 
L 124.492923 192.803749 
L 125.856108 193.275572 
L 127.219294 193.694025 
L 128.582479 194.06384 
L 129.945665 194.3894 
L 131.30885 194.674707 
L 132.672036 194.923349 
L 134.035222 195.138478 
L 135.398407 195.322791 
L 136.761593 195.478504 
L 138.124778 195.607344 
L 139.487964 195.710527 
L 140.85115 195.788754 
L 142.214335 195.842196 
L 143.577521 195.870489 
L 144.940706 195.872727 
L 146.303892 195.847459 
L 147.667077 195.792687 
L 149.030263 195.705867 
L 150.393449 195.58391 
L 151.756634 195.432693 
L 153.11982 195.257572 
L 154.483005 195.063402 
L 155.846191 194.854565 
L 157.209376 194.634986 
L 158.572562 194.408164 
L 159.935748 194.177194 
L 161.298933 193.944794 
L 162.662119 193.713332 
L 164.025304 193.484848 
L 165.38849 193.261084 
L 166.751675 193.043504 
L 168.114861 192.833321 
L 169.478047 192.631519 
L 170.841232 192.438875 
L 172.204418 192.255979 
L 173.567603 192.083255 
L 174.930789 191.92098 
L 176.293974 191.7693 
L 177.65716 191.628249 
L 179.020346 191.497761 
L 180.383531 191.377686 
L 181.746717 191.267804 
L 183.109902 191.167832 
L 184.473088 191.077441 
L 185.836273 190.996262 
L 187.199459 190.923894 
L 188.562645 190.859914 
L 189.92583 190.803883 
L 191.289016 190.755352 
L 192.652201 190.713866 
L 194.015387 190.678971 
L 195.378573 190.650214 
L 196.741758 190.62715 
L 198.104944 190.609341 
L 199.468129 190.59636 
L 200.831315 190.587793 
L 202.1945 190.583236 
L 203.557686 190.5823 
L 204.920872 190.584609 
L 206.284057 190.5898 
L 207.647243 190.597521 
L 209.010428 190.607433 
L 210.373614 190.619206 
L 211.736799 190.632519 
L 213.099985 190.647061 
L 214.463171 190.662523 
L 215.826356 190.678604 
L 217.189542 190.678604 
L 218.552727 190.678604 
" style="fill:none;opacity:0.8;stroke:#0000ff;stroke-linecap:square;"/>
   </g>
   <g id="patch_13">
    <path d="M 45.36 196.56 
L 45.36 181.44 
" style="fill:none;stroke:#000000;stroke-linecap:square;stroke-linejoin:miter;stroke-width:0.8;"/>
   </g>
   <g id="patch_14">
    <path d="M 226.8 196.56 
L 226.8 181.44 
" style="fill:none;stroke:#000000;stroke-linecap:square;stroke-linejoin:miter;stroke-width:0.8;"/>
   </g>
   <g id="patch_15">
    <path d="M 45.36 196.56 
L 226.8 196.56 
" style="fill:none;stroke:#000000;stroke-linecap:square;stroke-linejoin:miter;stroke-width:0.8;"/>
   </g>
   <g id="patch_16">
    <path d="M 45.36 181.44 
L 226.8 181.44 
" style="fill:none;stroke:#000000;stroke-linecap:square;stroke-linejoin:miter;stroke-width:0.8;"/>
   </g>
   <g id="text_31">
    <!-- Acceleration Profile -->
    <defs>
     <path d="M 45.75 22.171875 
L 20.125 22.171875 
L 15.625 11.71875 
Q 13.96875 7.859375 13.96875 5.953125 
Q 13.96875 4.4375 15.40625 3.296875 
Q 16.84375 2.15625 21.625 1.8125 
L 21.625 0 
L 0.78125 0 
L 0.78125 1.8125 
Q 4.9375 2.546875 6.15625 3.71875 
Q 8.640625 6.0625 11.671875 13.234375 
L 34.96875 67.71875 
L 36.671875 67.71875 
L 59.71875 12.640625 
Q 62.5 6 64.765625 4.015625 
Q 67.046875 2.046875 71.09375 1.8125 
L 71.09375 0 
L 44.96875 0 
L 44.96875 1.8125 
Q 48.921875 2 50.3125 3.125 
Q 51.703125 4.25 51.703125 5.859375 
Q 51.703125 8.015625 49.75 12.640625 
z
M 44.390625 25.78125 
L 33.15625 52.546875 
L 21.625 25.78125 
z
" id="TimesNewRomanPSMT-41"/>
     <path d="M 41.109375 17 
Q 39.3125 8.15625 34.03125 3.390625 
Q 28.765625 -1.375 22.359375 -1.375 
Q 14.75 -1.375 9.078125 5.015625 
Q 3.421875 11.421875 3.421875 22.3125 
Q 3.421875 32.859375 9.6875 39.453125 
Q 15.96875 46.046875 24.75 46.046875 
Q 31.34375 46.046875 35.59375 42.546875 
Q 39.84375 39.0625 39.84375 35.296875 
Q 39.84375 33.453125 38.640625 32.296875 
Q 37.453125 31.15625 35.296875 31.15625 
Q 32.421875 31.15625 30.953125 33.015625 
Q 30.125 34.03125 29.859375 36.90625 
Q 29.59375 39.796875 27.875 41.3125 
Q 26.171875 42.78125 23.140625 42.78125 
Q 18.265625 42.78125 15.28125 39.15625 
Q 11.328125 34.375 11.328125 26.515625 
Q 11.328125 18.5 15.25 12.375 
Q 19.1875 6.25 25.875 6.25 
Q 30.671875 6.25 34.46875 9.515625 
Q 37.15625 11.765625 39.703125 17.671875 
z
" id="TimesNewRomanPSMT-63"/>
     <path d="M 16.15625 36.578125 
Q 24.03125 46.046875 31.15625 46.046875 
Q 34.8125 46.046875 37.453125 44.21875 
Q 40.09375 42.390625 41.65625 38.1875 
Q 42.71875 35.25 42.71875 29.203125 
L 42.71875 10.109375 
Q 42.71875 5.859375 43.40625 4.34375 
Q 43.953125 3.125 45.140625 2.4375 
Q 46.34375 1.765625 49.5625 1.765625 
L 49.5625 0 
L 27.4375 0 
L 27.4375 1.765625 
L 28.375 1.765625 
Q 31.5 1.765625 32.734375 2.703125 
Q 33.984375 3.65625 34.46875 5.515625 
Q 34.671875 6.25 34.671875 10.109375 
L 34.671875 28.421875 
Q 34.671875 34.515625 33.078125 37.28125 
Q 31.5 40.046875 27.734375 40.046875 
Q 21.921875 40.046875 16.15625 33.6875 
L 16.15625 10.109375 
Q 16.15625 5.5625 16.703125 4.5 
Q 17.390625 3.078125 18.578125 2.421875 
Q 19.78125 1.765625 23.4375 1.765625 
L 23.4375 0 
L 1.3125 0 
L 1.3125 1.765625 
L 2.296875 1.765625 
Q 5.71875 1.765625 6.90625 3.484375 
Q 8.109375 5.21875 8.109375 10.109375 
L 8.109375 26.703125 
Q 8.109375 34.765625 7.734375 36.515625 
Q 7.375 38.28125 6.609375 38.90625 
Q 5.859375 39.546875 4.59375 39.546875 
Q 3.21875 39.546875 1.3125 38.8125 
L 0.59375 40.578125 
L 14.0625 46.046875 
L 16.15625 46.046875 
z
" id="TimesNewRomanPSMT-6e"/>
    </defs>
    <g transform="translate(95.681562 175.44)scale(0.1 -0.1)">
     <use xlink:href="#TimesNewRomanPSMT-41"/>
     <use x="72.216797" xlink:href="#TimesNewRomanPSMT-63"/>
     <use x="116.601562" xlink:href="#TimesNewRomanPSMT-63"/>
     <use x="160.986328" xlink:href="#TimesNewRomanPSMT-65"/>
     <use x="205.371094" xlink:href="#TimesNewRomanPSMT-6c"/>
     <use x="233.154297" xlink:href="#TimesNewRomanPSMT-65"/>
     <use x="277.539062" xlink:href="#TimesNewRomanPSMT-72"/>
     <use x="310.839844" xlink:href="#TimesNewRomanPSMT-61"/>
     <use x="355.224609" xlink:href="#TimesNewRomanPSMT-74"/>
     <use x="383.007812" xlink:href="#TimesNewRomanPSMT-69"/>
     <use x="410.791016" xlink:href="#TimesNewRomanPSMT-6f"/>
     <use x="460.791016" xlink:href="#TimesNewRomanPSMT-6e"/>
     <use x="510.791016" xlink:href="#TimesNewRomanPSMT-20"/>
     <use x="535.791016" xlink:href="#TimesNewRomanPSMT-50"/>
     <use x="591.40625" xlink:href="#TimesNewRomanPSMT-72"/>
     <use x="624.707031" xlink:href="#TimesNewRomanPSMT-6f"/>
     <use x="674.707031" xlink:href="#TimesNewRomanPSMT-66"/>
     <use x="708.007812" xlink:href="#TimesNewRomanPSMT-69"/>
     <use x="735.791016" xlink:href="#TimesNewRomanPSMT-6c"/>
     <use x="763.574219" xlink:href="#TimesNewRomanPSMT-65"/>
    </g>
   </g>
  </g>
  <g id="axes_4">
   <g id="patch_17">
    <path d="M 45.36 272.16 
L 226.8 272.16 
L 226.8 257.04 
L 45.36 257.04 
z
" style="fill:#ffffff;"/>
   </g>
   <g id="matplotlib.axis_7">
    <g id="xtick_16">
     <g id="line2d_48">
      <path clip-path="url(#p3cb94154df)" d="M 61.854545 272.16 
L 61.854545 257.04 
" style="fill:none;stroke:#b0b0b0;stroke-dasharray:1.85,0.8;stroke-dashoffset:0;stroke-width:0.5;"/>
     </g>
     <g id="line2d_49">
      <g>
       <use style="stroke:#000000;stroke-width:0.8;" x="61.854545" xlink:href="#m5e52d5da3a" y="272.16"/>
      </g>
     </g>
     <g id="text_32">
      <!-- 40.0 -->
      <g transform="translate(53.104545 286.10375)scale(0.1 -0.1)">
       <use xlink:href="#TimesNewRomanPSMT-34"/>
       <use x="50" xlink:href="#TimesNewRomanPSMT-30"/>
       <use x="100" xlink:href="#TimesNewRomanPSMT-2e"/>
       <use x="125" xlink:href="#TimesNewRomanPSMT-30"/>
      </g>
     </g>
    </g>
    <g id="xtick_17">
     <g id="line2d_50">
      <path clip-path="url(#p3cb94154df)" d="M 96.218182 272.16 
L 96.218182 257.04 
" style="fill:none;stroke:#b0b0b0;stroke-dasharray:1.85,0.8;stroke-dashoffset:0;stroke-width:0.5;"/>
     </g>
     <g id="line2d_51">
      <g>
       <use style="stroke:#000000;stroke-width:0.8;" x="96.218182" xlink:href="#m5e52d5da3a" y="272.16"/>
      </g>
     </g>
     <g id="text_33">
      <!-- 42.5 -->
      <g transform="translate(87.468182 286.10375)scale(0.1 -0.1)">
       <use xlink:href="#TimesNewRomanPSMT-34"/>
       <use x="50" xlink:href="#TimesNewRomanPSMT-32"/>
       <use x="100" xlink:href="#TimesNewRomanPSMT-2e"/>
       <use x="125" xlink:href="#TimesNewRomanPSMT-35"/>
      </g>
     </g>
    </g>
    <g id="xtick_18">
     <g id="line2d_52">
      <path clip-path="url(#p3cb94154df)" d="M 130.581818 272.16 
L 130.581818 257.04 
" style="fill:none;stroke:#b0b0b0;stroke-dasharray:1.85,0.8;stroke-dashoffset:0;stroke-width:0.5;"/>
     </g>
     <g id="line2d_53">
      <g>
       <use style="stroke:#000000;stroke-width:0.8;" x="130.581818" xlink:href="#m5e52d5da3a" y="272.16"/>
      </g>
     </g>
     <g id="text_34">
      <!-- 45.0 -->
      <g transform="translate(121.831818 286.10375)scale(0.1 -0.1)">
       <use xlink:href="#TimesNewRomanPSMT-34"/>
       <use x="50" xlink:href="#TimesNewRomanPSMT-35"/>
       <use x="100" xlink:href="#TimesNewRomanPSMT-2e"/>
       <use x="125" xlink:href="#TimesNewRomanPSMT-30"/>
      </g>
     </g>
    </g>
    <g id="xtick_19">
     <g id="line2d_54">
      <path clip-path="url(#p3cb94154df)" d="M 164.945455 272.16 
L 164.945455 257.04 
" style="fill:none;stroke:#b0b0b0;stroke-dasharray:1.85,0.8;stroke-dashoffset:0;stroke-width:0.5;"/>
     </g>
     <g id="line2d_55">
      <g>
       <use style="stroke:#000000;stroke-width:0.8;" x="164.945455" xlink:href="#m5e52d5da3a" y="272.16"/>
      </g>
     </g>
     <g id="text_35">
      <!-- 47.5 -->
      <g transform="translate(156.195455 286.10375)scale(0.1 -0.1)">
       <use xlink:href="#TimesNewRomanPSMT-34"/>
       <use x="50" xlink:href="#TimesNewRomanPSMT-37"/>
       <use x="100" xlink:href="#TimesNewRomanPSMT-2e"/>
       <use x="125" xlink:href="#TimesNewRomanPSMT-35"/>
      </g>
     </g>
    </g>
    <g id="xtick_20">
     <g id="line2d_56">
      <path clip-path="url(#p3cb94154df)" d="M 199.309091 272.16 
L 199.309091 257.04 
" style="fill:none;stroke:#b0b0b0;stroke-dasharray:1.85,0.8;stroke-dashoffset:0;stroke-width:0.5;"/>
     </g>
     <g id="line2d_57">
      <g>
       <use style="stroke:#000000;stroke-width:0.8;" x="199.309091" xlink:href="#m5e52d5da3a" y="272.16"/>
      </g>
     </g>
     <g id="text_36">
      <!-- 50.0 -->
      <g transform="translate(190.559091 286.10375)scale(0.1 -0.1)">
       <use xlink:href="#TimesNewRomanPSMT-35"/>
       <use x="50" xlink:href="#TimesNewRomanPSMT-30"/>
       <use x="100" xlink:href="#TimesNewRomanPSMT-2e"/>
       <use x="125" xlink:href="#TimesNewRomanPSMT-30"/>
      </g>
     </g>
    </g>
    <g id="text_37">
     <!-- Time (s) -->
     <g transform="translate(119.005 299.186563)scale(0.1 -0.1)">
      <use xlink:href="#TimesNewRomanPSMT-54"/>
      <use x="61.037109" xlink:href="#TimesNewRomanPSMT-69"/>
      <use x="88.820312" xlink:href="#TimesNewRomanPSMT-6d"/>
      <use x="166.603516" xlink:href="#TimesNewRomanPSMT-65"/>
      <use x="210.988281" xlink:href="#TimesNewRomanPSMT-20"/>
      <use x="235.988281" xlink:href="#TimesNewRomanPSMT-28"/>
      <use x="269.289062" xlink:href="#TimesNewRomanPSMT-73"/>
      <use x="308.205078" xlink:href="#TimesNewRomanPSMT-29"/>
     </g>
    </g>
   </g>
   <g id="matplotlib.axis_8">
    <g id="ytick_8">
     <g id="line2d_58">
      <path clip-path="url(#p3cb94154df)" d="M 45.36 267.052317 
L 226.8 267.052317 
" style="fill:none;stroke:#b0b0b0;stroke-dasharray:1.85,0.8;stroke-dashoffset:0;stroke-width:0.5;"/>
     </g>
     <g id="line2d_59">
      <g>
       <use style="stroke:#000000;stroke-width:0.8;" x="45.36" xlink:href="#md428c37c40" y="267.052317"/>
      </g>
     </g>
     <g id="text_38">
      <!-- 0 -->
      <g transform="translate(33.36 270.524192)scale(0.1 -0.1)">
       <use xlink:href="#TimesNewRomanPSMT-30"/>
      </g>
     </g>
    </g>
    <g id="ytick_9">
     <g id="line2d_60">
      <path clip-path="url(#p3cb94154df)" d="M 45.36 257.727273 
L 226.8 257.727273 
" style="fill:none;stroke:#b0b0b0;stroke-dasharray:1.85,0.8;stroke-dashoffset:0;stroke-width:0.5;"/>
     </g>
     <g id="line2d_61">
      <g>
       <use style="stroke:#000000;stroke-width:0.8;" x="45.36" xlink:href="#md428c37c40" y="257.727273"/>
      </g>
     </g>
     <g id="text_39">
      <!-- 5 -->
      <g transform="translate(33.36 261.199148)scale(0.1 -0.1)">
       <use xlink:href="#TimesNewRomanPSMT-35"/>
      </g>
     </g>
    </g>
    <g id="text_40">
     <!-- jerk (m/s$\mathrm{^3}$) -->
     <defs>
      <path d="M 14.453125 69.484375 
Q 16.546875 69.484375 18.015625 68.015625 
Q 19.484375 66.546875 19.484375 64.453125 
Q 19.484375 62.40625 18.015625 60.9375 
Q 16.546875 59.46875 14.453125 59.46875 
Q 12.40625 59.46875 10.9375 60.9375 
Q 9.46875 62.40625 9.46875 64.453125 
Q 9.46875 66.546875 10.9375 68.015625 
Q 12.40625 69.484375 14.453125 69.484375 
z
M 18.65625 46.046875 
L 18.65625 1.03125 
Q 18.65625 -10.453125 13.765625 -16.015625 
Q 8.890625 -21.578125 1.078125 -21.578125 
Q -3.375 -21.578125 -5.515625 -19.96875 
Q -7.671875 -18.359375 -7.671875 -16.65625 
Q -7.671875 -14.9375 -6.46875 -13.71875 
Q -5.28125 -12.5 -3.65625 -12.5 
Q -2.390625 -12.5 -1.078125 -13.140625 
Q -0.25 -13.484375 2.125 -15.59375 
Q 4.5 -17.71875 6.109375 -17.71875 
Q 7.28125 -17.71875 8.390625 -16.8125 
Q 9.515625 -15.921875 10.046875 -13.796875 
Q 10.59375 -11.671875 10.59375 -4.59375 
L 10.59375 27.25 
Q 10.59375 34.625 10.15625 36.71875 
Q 9.8125 38.328125 9.078125 38.9375 
Q 8.34375 39.546875 7.078125 39.546875 
Q 5.71875 39.546875 3.765625 38.8125 
L 3.078125 40.578125 
L 16.546875 46.046875 
z
" id="TimesNewRomanPSMT-6a"/>
      <path d="M 16.359375 69.4375 
L 16.359375 24.90625 
L 27.734375 35.296875 
Q 31.34375 38.625 31.9375 39.5 
Q 32.328125 40.09375 32.328125 40.671875 
Q 32.328125 41.65625 31.515625 42.359375 
Q 30.71875 43.0625 28.859375 43.171875 
L 28.859375 44.734375 
L 48.296875 44.734375 
L 48.296875 43.171875 
Q 44.28125 43.0625 41.625 41.9375 
Q 38.96875 40.828125 35.796875 37.9375 
L 24.3125 27.34375 
L 35.796875 12.84375 
Q 40.578125 6.84375 42.234375 5.21875 
Q 44.578125 2.9375 46.34375 2.25 
Q 47.5625 1.765625 50.59375 1.765625 
L 50.59375 0 
L 28.859375 0 
L 28.859375 1.765625 
Q 30.71875 1.8125 31.375 2.3125 
Q 32.03125 2.828125 32.03125 3.765625 
Q 32.03125 4.890625 30.078125 7.375 
L 16.359375 24.90625 
L 16.359375 10.0625 
Q 16.359375 5.71875 16.96875 4.34375 
Q 17.578125 2.984375 18.703125 2.390625 
Q 19.828125 1.8125 23.578125 1.765625 
L 23.578125 0 
L 0.828125 0 
L 0.828125 1.765625 
Q 4.25 1.765625 5.953125 2.59375 
Q 6.984375 3.125 7.515625 4.25 
Q 8.25 5.859375 8.25 9.8125 
L 8.25 50.53125 
Q 8.25 58.296875 7.90625 60.03125 
Q 7.5625 61.765625 6.78125 62.421875 
Q 6 63.09375 4.734375 63.09375 
Q 3.71875 63.09375 1.65625 62.25 
L 0.828125 63.96875 
L 14.109375 69.4375 
z
" id="TimesNewRomanPSMT-6b"/>
      <path d="M 40.578125 39.3125 
Q 47.65625 37.796875 51.625 33 
Q 55.609375 28.21875 55.609375 21.1875 
Q 55.609375 10.40625 48.1875 4.484375 
Q 40.765625 -1.421875 27.09375 -1.421875 
Q 22.515625 -1.421875 17.65625 -0.515625 
Q 12.796875 0.390625 7.625 2.203125 
L 7.625 11.71875 
Q 11.71875 9.328125 16.59375 8.109375 
Q 21.484375 6.890625 26.8125 6.890625 
Q 36.078125 6.890625 40.9375 10.546875 
Q 45.796875 14.203125 45.796875 21.1875 
Q 45.796875 27.640625 41.28125 31.265625 
Q 36.765625 34.90625 28.71875 34.90625 
L 20.21875 34.90625 
L 20.21875 43.015625 
L 29.109375 43.015625 
Q 36.375 43.015625 40.234375 45.921875 
Q 44.09375 48.828125 44.09375 54.296875 
Q 44.09375 59.90625 40.109375 62.90625 
Q 36.140625 65.921875 28.71875 65.921875 
Q 24.65625 65.921875 20.015625 65.03125 
Q 15.375 64.15625 9.8125 62.3125 
L 9.8125 71.09375 
Q 15.4375 72.65625 20.34375 73.4375 
Q 25.25 74.21875 29.59375 74.21875 
Q 40.828125 74.21875 47.359375 69.109375 
Q 53.90625 64.015625 53.90625 55.328125 
Q 53.90625 49.265625 50.4375 45.09375 
Q 46.96875 40.921875 40.578125 39.3125 
z
" id="DejaVuSans-33"/>
     </defs>
     <g transform="translate(27.16 286.6)rotate(-90)scale(0.1 -0.1)">
      <use transform="translate(0 0.765625)" xlink:href="#TimesNewRomanPSMT-6a"/>
      <use transform="translate(27.783203 0.765625)" xlink:href="#TimesNewRomanPSMT-65"/>
      <use transform="translate(72.167969 0.765625)" xlink:href="#TimesNewRomanPSMT-72"/>
      <use transform="translate(105.46875 0.765625)" xlink:href="#TimesNewRomanPSMT-6b"/>
      <use transform="translate(155.46875 0.765625)" xlink:href="#TimesNewRomanPSMT-20"/>
      <use transform="translate(180.46875 0.765625)" xlink:href="#TimesNewRomanPSMT-28"/>
      <use transform="translate(213.769531 0.765625)" xlink:href="#TimesNewRomanPSMT-6d"/>
      <use transform="translate(291.552734 0.765625)" xlink:href="#TimesNewRomanPSMT-2f"/>
      <use transform="translate(319.335938 0.765625)" xlink:href="#TimesNewRomanPSMT-73"/>
      <use transform="translate(359.208984 39.046875)scale(0.7)" xlink:href="#DejaVuSans-33"/>
      <use transform="translate(406.479492 0.765625)" xlink:href="#TimesNewRomanPSMT-29"/>
     </g>
    </g>
   </g>
   <g id="line2d_62">
    <path clip-path="url(#p3cb94154df)" d="M 53.607273 267.052317 
L 54.981818 257.727273 
L 56.356364 257.727273 
L 57.730909 257.727273 
L 59.105455 257.992218 
L 60.48 260.989562 
L 61.854545 263.886743 
L 63.229091 266.690656 
L 64.603636 267.052317 
L 65.978182 267.052317 
L 67.352727 267.052317 
L 68.727273 267.052317 
L 70.101818 267.052317 
L 71.476364 267.052317 
L 72.850909 267.052317 
L 74.225455 267.052317 
L 75.6 267.052317 
L 76.974545 267.052317 
L 78.349091 267.052317 
L 79.723636 267.052317 
L 81.098182 267.052317 
L 82.472727 267.052317 
L 83.847273 267.052317 
L 85.221818 267.052317 
L 86.596364 267.052317 
L 87.970909 267.052317 
L 89.345455 267.052317 
L 90.72 267.052317 
L 92.094545 267.052317 
L 93.469091 267.052317 
L 94.843636 267.052317 
L 96.218182 267.052317 
L 97.592727 267.052317 
L 98.967273 267.052317 
L 100.341818 267.063493 
L 101.716364 267.899732 
L 103.090909 268.670708 
L 104.465455 269.337659 
L 105.84 269.905643 
L 107.214545 270.379415 
L 108.589091 270.763347 
L 109.963636 271.061393 
L 111.338182 271.277047 
L 112.712727 271.413322 
L 114.087273 271.472727 
L 115.461818 271.45726 
L 116.836364 271.3684 
L 118.210909 271.207114 
L 119.585455 270.973864 
L 120.96 270.668625 
L 122.334545 270.290908 
L 123.709091 269.9434 
L 125.083636 269.624885 
L 126.458182 269.333885 
L 127.832727 269.068694 
L 129.207273 268.827401 
L 130.581818 268.607921 
L 131.956364 268.40801 
L 133.330909 268.225289 
L 134.705455 268.057262 
L 136.08 267.901328 
L 137.454545 267.7548 
L 138.829091 267.614913 
L 140.203636 267.478842 
L 141.578182 267.343705 
L 142.952727 267.206582 
L 144.327273 267.06452 
L 145.701818 266.914546 
L 147.076364 266.753679 
L 148.450909 266.578938 
L 149.825455 266.387362 
L 151.2 266.227822 
L 152.574545 266.097485 
L 153.949091 265.993629 
L 155.323636 265.913653 
L 156.698182 265.855086 
L 158.072727 265.815593 
L 159.447273 265.792978 
L 160.821818 265.785183 
L 162.196364 265.790294 
L 163.570909 265.806534 
L 164.945455 265.832266 
L 166.32 265.865986 
L 167.694545 265.906318 
L 169.069091 265.952014 
L 170.443636 266.001944 
L 171.818182 266.055094 
L 173.192727 266.110558 
L 174.567273 266.167529 
L 175.941818 266.2253 
L 177.316364 266.283252 
L 178.690909 266.340846 
L 180.065455 266.397623 
L 181.44 266.453194 
L 182.814545 266.507232 
L 184.189091 266.55947 
L 185.563636 266.609695 
L 186.938182 266.657737 
L 188.312727 266.703474 
L 189.687273 266.746815 
L 191.061818 266.787707 
L 192.436364 266.826121 
L 193.810909 266.862055 
L 195.185455 266.895524 
L 196.56 266.926562 
L 197.934545 266.955215 
L 199.309091 266.981541 
L 200.683636 267.005603 
L 202.058182 267.027471 
L 203.432727 267.047215 
L 204.807273 267.064908 
L 206.181818 267.080619 
L 207.556364 267.094415 
L 208.930909 267.10636 
L 210.305455 267.116508 
L 211.68 267.124909 
L 213.054545 267.131604 
L 214.429091 267.136624 
L 215.803636 267.139992 
L 217.178182 267.052317 
L 218.552727 267.052317 
" style="fill:none;opacity:0.8;stroke:#0000ff;stroke-linecap:square;"/>
   </g>
   <g id="patch_18">
    <path d="M 45.36 272.16 
L 45.36 257.04 
" style="fill:none;stroke:#000000;stroke-linecap:square;stroke-linejoin:miter;stroke-width:0.8;"/>
   </g>
   <g id="patch_19">
    <path d="M 226.8 272.16 
L 226.8 257.04 
" style="fill:none;stroke:#000000;stroke-linecap:square;stroke-linejoin:miter;stroke-width:0.8;"/>
   </g>
   <g id="patch_20">
    <path d="M 45.36 272.16 
L 226.8 272.16 
" style="fill:none;stroke:#000000;stroke-linecap:square;stroke-linejoin:miter;stroke-width:0.8;"/>
   </g>
   <g id="patch_21">
    <path d="M 45.36 257.04 
L 226.8 257.04 
" style="fill:none;stroke:#000000;stroke-linecap:square;stroke-linejoin:miter;stroke-width:0.8;"/>
   </g>
   <g id="text_41">
    <!-- Jerk Profile -->
    <defs>
     <path d="M 9.96875 64.40625 
L 9.96875 66.21875 
L 38.328125 66.21875 
L 38.328125 64.40625 
L 35.9375 64.40625 
Q 31.890625 64.40625 30.03125 62.015625 
Q 28.859375 60.453125 28.859375 54.5 
L 28.859375 22.125 
Q 28.859375 14.65625 27.21875 10.015625 
Q 25.59375 5.375 21.578125 1.921875 
Q 17.578125 -1.515625 11.921875 -1.515625 
Q 7.328125 -1.515625 4.6875 0.75 
Q 2.046875 3.03125 2.046875 5.953125 
Q 2.046875 8.34375 3.265625 9.578125 
Q 4.890625 11.078125 7.03125 11.078125 
Q 8.59375 11.078125 9.828125 10.046875 
Q 11.078125 9.03125 12.984375 4.59375 
Q 14.109375 1.953125 15.875 1.953125 
Q 17.1875 1.953125 18.328125 3.5625 
Q 19.484375 5.171875 19.484375 9.28125 
L 19.484375 54.5 
Q 19.484375 59.515625 18.84375 61.140625 
Q 18.359375 62.359375 16.796875 63.234375 
Q 14.703125 64.40625 12.359375 64.40625 
z
" id="TimesNewRomanPSMT-4a"/>
    </defs>
    <g transform="translate(112.891719 251.04)scale(0.1 -0.1)">
     <use xlink:href="#TimesNewRomanPSMT-4a"/>
     <use x="38.916016" xlink:href="#TimesNewRomanPSMT-65"/>
     <use x="83.300781" xlink:href="#TimesNewRomanPSMT-72"/>
     <use x="116.601562" xlink:href="#TimesNewRomanPSMT-6b"/>
     <use x="166.601562" xlink:href="#TimesNewRomanPSMT-20"/>
     <use x="191.601562" xlink:href="#TimesNewRomanPSMT-50"/>
     <use x="247.216797" xlink:href="#TimesNewRomanPSMT-72"/>
     <use x="280.517578" xlink:href="#TimesNewRomanPSMT-6f"/>
     <use x="330.517578" xlink:href="#TimesNewRomanPSMT-66"/>
     <use x="363.818359" xlink:href="#TimesNewRomanPSMT-69"/>
     <use x="391.601562" xlink:href="#TimesNewRomanPSMT-6c"/>
     <use x="419.384766" xlink:href="#TimesNewRomanPSMT-65"/>
    </g>
   </g>
  </g>
 </g>
 <defs>
  <clipPath id="p8e6d7e7399">
   <rect height="30.24" width="181.44" x="45.36" y="15.12"/>
  </clipPath>
  <clipPath id="p40407b82bf">
   <rect height="15.12" width="181.44" x="45.36" y="105.84"/>
  </clipPath>
  <clipPath id="p0931504850">
   <rect height="15.12" width="181.44" x="45.36" y="181.44"/>
  </clipPath>
  <clipPath id="p3cb94154df">
   <rect height="15.12" width="181.44" x="45.36" y="257.04"/>
  </clipPath>
 </defs>
</svg>
