<?xml version="1.0" encoding="UTF-8" standalone="no"?>
<!DOCTYPE svg PUBLIC "-//W3C//DTD SVG 1.1//EN" "http://www.w3.org/Graphics/SVG/1.1/DTD/svg11.dtd">
<!-- 由 Microsoft Visio, SVG Export 生成 曲线 - 副本.svg Page-1 -->
<svg xmlns="http://www.w3.org/2000/svg" xmlns:xlink="http://www.w3.org/1999/xlink" xmlns:ev="http://www.w3.org/2001/xml-events"
		xmlns:v="http://schemas.microsoft.com/visio/2003/SVGExtensions/" width="3.5in" height="3.5in" viewBox="0 0 252 252"
		xml:space="preserve" color-interpolation-filters="sRGB" class="st30">
	<v:documentProperties v:langID="2052" v:metric="true" v:viewMarkup="false">
		<v:userDefs>
			<v:ud v:nameU="msvNoAutoConnect" v:val="VT0(0):26"/>
		</v:userDefs>
	</v:documentProperties>

	<style type="text/css">
	<![CDATA[
		.st1 {fill:#7f7f7f;stroke:none;stroke-linecap:round;stroke-linejoin:round;stroke-width:0.5}
		.st2 {stroke:#ffffff;stroke-dasharray:7,5;stroke-linecap:round;stroke-linejoin:round;stroke-width:1}
		.st3 {stroke:#000000;stroke-linecap:round;stroke-linejoin:round;stroke-width:1.5}
		.st4 {fill:#64bc56;stroke:none;stroke-linecap:butt;stroke-width:0.75}
		.st5 {fill:#454545;stroke:none;stroke-linecap:butt;stroke-width:0.75}
		.st6 {fill:#383838;stroke:none;stroke-linecap:butt;stroke-width:0.75}
		.st7 {fill:#000000;fill-opacity:0.5;stroke:none;stroke-linecap:butt;stroke-width:0.75}
		.st8 {fill:#101014;stroke:none;stroke-linecap:butt;stroke-width:0.75}
		.st9 {fill:#000000;fill-opacity:0.2;stroke:none;stroke-linecap:butt;stroke-width:0.75}
		.st10 {fill:#b2021c;stroke:none;stroke-linecap:butt;stroke-width:0.75}
		.st11 {fill:#262823;stroke:none;stroke-linecap:butt;stroke-width:0.75}
		.st12 {fill:#ffffff;stroke:none;stroke-linecap:butt;stroke-width:0.75}
		.st13 {fill:#ffffff;stroke:#000000;stroke-linecap:round;stroke-linejoin:round;stroke-width:0.75}
		.st14 {marker-end:url(#mrkr13-43);stroke:#ea700d;stroke-linecap:round;stroke-linejoin:round;stroke-width:0.75}
		.st15 {fill:#ea700d;fill-opacity:1;stroke:#ea700d;stroke-opacity:1;stroke-width:0.34246575342466}
		.st16 {marker-end:url(#mrkr13-49);stroke:#ea700d;stroke-linecap:round;stroke-linejoin:round;stroke-width:0.5}
		.st17 {fill:#ea700d;fill-opacity:1;stroke:#ea700d;stroke-opacity:1;stroke-width:0.25773195876289}
		.st18 {stroke:#ffc000;stroke-linecap:round;stroke-linejoin:round;stroke-width:0.5}
		.st19 {stroke:#fbca06;stroke-linecap:round;stroke-linejoin:round;stroke-width:0.5}
		.st20 {stroke:#0000ff;stroke-dasharray:1.75,1.25;stroke-linecap:round;stroke-linejoin:round;stroke-width:0.25}
		.st21 {stroke:#0000ff;stroke-dasharray:1.75,1.25;stroke-linecap:round;stroke-linejoin:round;stroke-opacity:0.78;stroke-width:0.25}
		.st22 {fill:#12dea0;stroke:none;stroke-linecap:round;stroke-linejoin:round;stroke-width:0.75}
		.st23 {fill:none;stroke:none;stroke-linecap:round;stroke-linejoin:round;stroke-width:0.75}
		.st24 {fill:#000000;font-family:Times New Roman;font-size:0.833336em}
		.st25 {marker-end:url(#mrkr13-319);marker-start:url(#mrkr13-317);stroke:#0000ff;stroke-linecap:round;stroke-linejoin:round;stroke-width:0.25}
		.st26 {fill:#0000ff;fill-opacity:1;stroke:#0000ff;stroke-opacity:1;stroke-width:0.14792899408284}
		.st27 {font-size:1em}
		.st28 {marker-end:url(#mrkr13-332);stroke:#000000;stroke-linecap:round;stroke-linejoin:round;stroke-width:0.75}
		.st29 {fill:#000000;fill-opacity:1;stroke:#000000;stroke-opacity:1;stroke-width:0.34246575342466}
		.st30 {fill:none;fill-rule:evenodd;font-size:12px;overflow:visible;stroke-linecap:square;stroke-miterlimit:3}
	]]>
	</style>

	<defs id="Markers">
		<g id="lend13">
			<path d="M 3 1 L 0 0 L 3 -1 L 3 1 " style="stroke:none"/>
		</g>
		<marker id="mrkr13-43" class="st15" v:arrowType="13" v:arrowSize="0" v:setback="8.28" refX="-8.28" orient="auto"
				markerUnits="strokeWidth" overflow="visible">
			<use xlink:href="#lend13" transform="scale(-2.92,-2.92) "/>
		</marker>
		<marker id="mrkr13-49" class="st17" v:arrowType="13" v:arrowSize="0" v:setback="11.64" refX="-11.64" orient="auto"
				markerUnits="strokeWidth" overflow="visible">
			<use xlink:href="#lend13" transform="scale(-3.88,-3.88) "/>
		</marker>
		<marker id="mrkr13-317" class="st26" v:arrowType="13" v:arrowSize="0" v:setback="18.84" refX="18.84" orient="auto"
				markerUnits="strokeWidth" overflow="visible">
			<use xlink:href="#lend13" transform="scale(6.76) "/>
		</marker>
		<marker id="mrkr13-319" class="st26" v:arrowType="13" v:arrowSize="0" v:setback="20.28" refX="-20.28" orient="auto"
				markerUnits="strokeWidth" overflow="visible">
			<use xlink:href="#lend13" transform="scale(-6.76,-6.76) "/>
		</marker>
		<marker id="mrkr13-332" class="st29" v:arrowType="13" v:arrowSize="0" v:setback="8.76" refX="-8.76" orient="auto"
				markerUnits="strokeWidth" overflow="visible">
			<use xlink:href="#lend13" transform="scale(-2.92,-2.92) "/>
		</marker>
	</defs>
	<g v:mID="0" v:index="1" v:groupContext="foregroundPage">
		<v:userDefs>
			<v:ud v:nameU="APrec" v:val="VT0(1):26"/>
			<v:ud v:nameU="AUnits" v:val="VT0(1):26"/>
			<v:ud v:nameU="LPrec" v:val="VT0(2):26"/>
			<v:ud v:nameU="LUnits" v:val="VT0(0):26"/>
			<v:ud v:nameU="ShowUnits" v:val="VT0(0):26"/>
		</v:userDefs>
		<title>页-1</title>
		<v:pageProperties v:drawingScale="0.0393701" v:pageScale="0.0393701" v:drawingUnits="24" v:shadowOffsetX="8.50394"
				v:shadowOffsetY="-8.50394"/>
		<v:layer v:name="尺寸" v:index="0"/>
		<v:layer v:name="机动车" v:index="1"/>
		<v:layer v:name="连接线" v:index="2"/>
		<g id="shape22-1" v:mID="22" v:groupContext="shape">
			<title>工作表.22</title>
			<rect x="0" y="11.0551" width="251.858" height="240.945" class="st1"/>
		</g>
		<g id="shape1-3" v:mID="1" v:groupContext="shape" transform="translate(-129.23,18.889) rotate(-44.2098)">
			<title>工作表.1</title>
			<path d="M0 252 A170.312 50.0003 4.05 0 1 234.72 252" class="st2"/>
		</g>
		<g id="shape18-6" v:mID="18" v:groupContext="shape" transform="translate(-113.466,28.5197) rotate(-45)">
			<title>工作表.18</title>
			<path d="M-0 252 A162.064 49.9871 4.3 0 1 223.29 252" class="st2"/>
		</g>
		<g id="shape19-9" v:mID="19" v:groupContext="shape" transform="translate(-144.673,14.1248) rotate(-45)">
			<title>工作表.19</title>
			<path d="M0 252 A176.318 50.0087 3.89 0 1 243.04 252" class="st3"/>
		</g>
		<g id="shape20-12" v:mID="20" v:groupContext="shape" transform="translate(-99.2924,39.3361) rotate(-45)">
			<title>工作表.20</title>
			<path d="M-0 252 A157.244 49.9782 4.46 0 1 216.61 252" class="st3"/>
		</g>
		<g id="group25-15" transform="translate(-157.45,80.836) rotate(-60)" v:mID="25" v:groupContext="group" v:layerMember="1">
			<v:custProps>
				<v:cp v:nameU="ShapeClass" v:lbl="形状类" v:invis="true" v:langID="2052" v:val="VT4(现场工作)"/>
				<v:cp v:nameU="ShapeType" v:lbl="形状类型" v:invis="true" v:langID="2052" v:val="VT4(机动车)"/>
				<v:cp v:nameU="SubShapeType" v:lbl="子形状类型" v:invis="true" v:langID="2052" v:val="VT4()"/>
			</v:custProps>
			<v:userDefs>
				<v:ud v:nameU="AntiScale" v:val="VT0(100):26"/>
				<v:ud v:nameU="HasText" v:val="VT0(0):5"/>
				<v:ud v:nameU="visVersion" v:val="VT0(16):26"/>
				<v:ud v:nameU="SolSH" v:val="VT4({5D50005D-537C-4738-9C46-130C74335A6D})"/>
				<v:ud v:nameU="ShapeClass" v:prompt="现场工作" v:val="VT0(7):26"/>
				<v:ud v:nameU="ShapeType" v:prompt="机动车" v:val="VT0(43):26"/>
				<v:ud v:nameU="SubShapeType" v:prompt="" v:val="VT0(0):26"/>
				<v:ud v:nameU="AntiScale" v:prompt="" v:val="VT0(1):26"/>
			</v:userDefs>
			<title>小型轿车</title>
			<g id="shape26-16" v:mID="26" v:groupContext="shape" v:layerMember="1">
				<title>工作表.26</title>
				<path d="M9.72 250.62 L10.38 250.62 L10.38 250.53 L9.72 250.54 L9.72 250.62 ZM9.72 240.04 L9.72 240.11 L10.38 240.11
							 L10.38 240.04 L9.72 240.04 ZM23.96 244.06 C24.03 244.46 24.08 244.9 24.08 245.32 C24.08 245.75 24.03
							 246.19 23.96 246.58 C23.6 248.42 22.48 249.88 21.08 250.29 C21.08 250.29 20.74 250.54 20.26 250.58 C19.77
							 250.61 19.31 250.64 19.31 250.64 L16.59 250.52 L16.06 250.52 C16.19 251.68 15.5 251.99 15.5 251.99 C15.18
							 252.05 15.23 251.86 15.23 251.86 L15.48 250.52 L15.48 250.52 L10.79 250.53 C10.75 250.67 10.63 250.78
							 10.49 250.78 L9.7 250.78 C9.56 250.78 9.43 250.67 9.39 250.54 L4.62 250.55 L3.47 250.59 C2.42 250.65
							 0.46 250.29 0.04 247.07 L0 245.32 L0.04 243.58 C0.46 240.36 2.42 240 3.47 240.05 L4.62 240.1 L9.4 240.11
							 C9.45 239.99 9.56 239.89 9.7 239.89 L10.49 239.89 C10.62 239.89 10.74 239.99 10.79 240.11 L15.48 240.12
							 L15.48 240.12 L15.23 238.78 C15.23 238.78 15.18 238.59 15.5 238.66 C15.5 238.66 16.19 238.96 16.06 240.13
							 L16.59 240.13 L19.31 240.01 C19.31 240.01 19.77 240.04 20.26 240.07 C20.74 240.1 21.08 240.36 21.08
							 240.36 C22.48 240.76 23.59 242.23 23.96 244.06 Z" class="st4"/>
			</g>
			<g id="shape27-18" v:mID="27" v:groupContext="shape" v:layerMember="1" transform="translate(0.69317,-1.4608)">
				<title>工作表.27</title>
				<path d="M7.48 241.94 C7.44 241.89 7.3 241.81 7.3 241.57 L7.33 241.57 C7.33 241.82 7.54 241.94 7.54 241.94 L7.48
							 241.94 ZM0.7 246.8 C0.69 250 1.99 250.5 1.99 250.5 L1.52 250.72 C1.52 250.72 0 250.37 0 246.8 C0 243.44
							 1.52 242.75 1.52 242.75 L1.95 243.05 C1.95 243.05 0.7 243.31 0.7 246.8 ZM7.15 241.91 C7.15 241.91 6.9
							 242.29 6.93 242.73 L4.59 242.26 L7.15 241.91 ZM7.15 242.73 C7.15 242.73 7.17 242.35 7.48 241.94 L16.61
							 241.94 C16.61 241.94 14.74 242.79 7.15 242.73 ZM4.59 251.31 L6.93 250.84 C6.9 251.28 7.15 251.65 7.15
							 251.65 L4.59 251.31 ZM7.15 250.84 C14.74 250.78 16.61 251.63 16.61 251.63 L7.54 251.63 C7.52 251.64
							 7.33 251.76 7.33 252 L7.3 252 C7.3 251.76 7.44 251.68 7.48 251.63 C7.17 251.22 7.15 250.84 7.15 250.84
							 Z" class="st5"/>
			</g>
			<g id="shape28-20" v:mID="28" v:groupContext="shape" v:layerMember="1" transform="translate(14.1698,-2.15811)">
				<title>工作表.28</title>
				<path d="M5.5 247.32 C5.61 251.38 4.03 252 4.03 252 L0 251.4 C0 251.4 0.47 249.23 0.47 247.34 C0.47 244.98 0 243.48
							 0 243.48 L4.03 242.96 C4.03 242.96 5.38 243.08 5.5 247.32 Z" class="st6"/>
			</g>
			<g id="shape29-22" v:mID="29" v:groupContext="shape" v:layerMember="1" transform="translate(14.1698,-2.76206)">
				<title>工作表.29</title>
				<path d="M4.03 243.57 L0 252 C0 252 0.47 249.83 0.47 247.94 C0.47 245.59 0 244.08 0 244.08 L4.03 243.57 Z"
						class="st7"/>
			</g>
			<g id="shape30-24" v:mID="30" v:groupContext="shape" v:layerMember="1" transform="translate(1.38653,-2.1583)">
				<title>工作表.30</title>
				<path d="M0.25 247.5 C0.25 250.86 1.62 251.05 1.62 251.05 L1.29 251.2 C0.9 250.97 0 250.31 0 247.5 C0 244.51 0.88
							 243.86 1.25 243.74 L1.62 243.96 C1.62 243.96 0.25 244.01 0.25 247.5 ZM18.29 247.38 C18.35 251.3 16.81
							 252 16.81 252 L16.21 251.91 C16.57 251.64 17.67 250.54 17.58 247.38 C17.5 244.25 16.69 243.23 16.35
							 243.02 L16.81 242.96 C16.81 242.96 18.22 243.17 18.29 247.38 Z" class="st8"/>
			</g>
			<g id="shape31-26" v:mID="31" v:groupContext="shape" v:layerMember="1" transform="translate(19.3582,-1.36395)">
				<title>工作表.31</title>
				<path d="M0.89 241.44 C0.51 241.41 0.14 241.39 0 241.38 L0.09 241.38 C0.09 241.38 0.56 241.4 1.04 241.44 C1.53 241.47
							 1.87 241.73 1.87 241.73 C3.27 242.13 4.38 243.6 4.74 245.43 C4.82 245.82 4.86 246.27 4.86 246.69 C4.86
							 247.11 4.82 247.56 4.74 247.95 C4.38 249.78 3.27 251.25 1.87 251.65 C1.87 251.65 1.53 251.91 1.04 251.94
							 C0.56 251.97 0.09 252 0.09 252 L0 252 C0.14 251.99 0.51 251.96 0.89 251.94 C1.37 251.91 1.71 251.65
							 1.71 251.65 C3.11 251.25 4.22 249.78 4.59 247.95 C4.66 247.56 4.71 247.11 4.71 246.69 C4.71 246.27 4.66
							 245.82 4.59 245.43 C4.22 243.6 3.11 242.13 1.71 241.73 C1.71 241.73 1.37 241.47 0.89 241.44 Z"
						class="st5"/>
			</g>
			<g id="shape32-28" v:mID="32" v:groupContext="shape" v:layerMember="1" transform="translate(0.1434,-2.02071)">
				<title>工作表.32</title>
				<path d="M3.18 243.98 L13.76 243.33 C13.9 243.9 14.21 245.13 14.21 247.16 C14.21 248.9 13.86 250.6 13.73 251.23 L3.23
							 250.8 C3.23 250.8 1.98 250.55 2.03 247.33 C2.08 244.15 3.18 243.98 3.18 243.98 ZM0.32 247.2 a0.16026
							 0.161171 0 1 1 -0.320521 0 a0.16026 0.161171 0 1 1 0.320521 0 ZM18.6 252 L18.06 251.87 C18.06 251.87
							 20.29 251.71 23.15 250.4 C23.15 250.4 22.69 251.36 21.65 251.99 L18.6 252 ZM21.65 242.7 C22.69 243.33
							 23.15 244.3 23.15 244.3 C20.29 242.99 18.06 242.83 18.06 242.83 L18.6 242.7 L21.65 242.7 Z"
						class="st9"/>
			</g>
			<g id="shape33-30" v:mID="33" v:groupContext="shape" v:layerMember="1" transform="translate(0.709254,-1.50966)">
				<title>工作表.33</title>
				<path d="M1.26 251.2 C0.6 250.98 0 250.4 0 250.4 C0.44 251.52 1.5 251.87 1.5 251.87 C2.56 252.23 2.43 251.75 2.31
							 251.56 C2.16 251.31 1.52 251.29 1.26 251.2 ZM1.26 242.47 C0.6 242.69 0 243.27 0 243.27 C0.44 242.14
							 1.5 241.8 1.5 241.8 C2.56 241.43 2.43 241.92 2.31 242.11 C2.16 242.35 1.52 242.38 1.26 242.47 Z"
						class="st10"/>
			</g>
			<g id="shape34-32" v:mID="34" v:groupContext="shape" v:layerMember="1" transform="translate(1.76054,-6.62782)">
				<title>工作表.34</title>
				<path d="M1.48 251.81 C1.53 251.81 1.58 251.85 1.58 251.9 C1.58 251.96 1.53 252 1.48 252 L1.06 252 C1.02 252 0.99
							 251.98 0.98 251.94 L0.55 251.94 L0.55 251.93 L0.01 251.93 C0.01 251.93 0 251.92 0 251.92 C0 251.91 0.01
							 251.9 0.01 251.9 L0.55 251.9 L0.55 251.89 L0.97 251.89 C0.98 251.84 1.02 251.81 1.07 251.81 L1.48 251.81
							 Z" class="st11"/>
			</g>
			<g id="shape35-34" v:mID="35" v:groupContext="shape" v:layerMember="1" transform="translate(21.0664,-1.70597)">
				<title>工作表.35</title>
				<path d="M0.31 251.68 C1.02 251.25 1.46 250.66 1.67 250.33 C1.85 250.25 2.04 250.17 2.23 250.09 C2.23 250.09 1.77
							 251.05 0.72 251.68 C0.46 251.86 0 252 0 252 L0.31 251.68 ZM1.67 243.74 C1.46 243.41 1.02 242.82 0.31
							 242.39 L0 242.07 C0 242.07 0.46 242.21 0.72 242.39 C1.77 243.02 2.23 243.98 2.23 243.98 C2.04 243.9
							 1.85 243.81 1.67 243.74 Z" class="st12"/>
			</g>
		</g>
		<g id="shape55-36" v:mID="55" v:groupContext="shape" transform="translate(56.5295,-51.8506)">
			<title>工作表.55</title>
			<ellipse cx="1.55905" cy="250.398" rx="1.55905" ry="1.60236" class="st13"/>
		</g>
		<g id="shape86-38" v:mID="86" v:groupContext="shape" v:layerMember="2" transform="translate(58.0084,-52.8365)">
			<title>动态连接线.86</title>
			<path d="M0 252 C14.74 220.25 42.88 187.16 74.04 158.96 C101.02 134.54 130.26 113.79 150.47 101.4 L150.78 101.21"
					class="st14"/>
		</g>
		<g id="shape88-44" v:mID="88" v:groupContext="shape" transform="translate(-165.583,82.4098) rotate(-62.5361)">
			<title>工作表.88</title>
			<path d="M0 252 L30.55 252" class="st16"/>
		</g>
		<g id="shape89-50" v:mID="89" v:groupContext="shape" transform="translate(-78.6001,410.835) rotate(-147.24)">
			<title>工作表.89</title>
			<path d="M0 252 L32.08 252" class="st16"/>
		</g>
		<g id="shape254-55" v:mID="254" v:groupContext="shape" transform="translate(-71.7045,-14.1355) rotate(-31.2954)">
			<title>工作表.254</title>
			<path d="M0 249.55 C3.95 247.3 8.15 247.35 11.87 247.79 C15.56 248.23 18.77 249.07 21.34 249.81 C25.2 250.92 27.63 251.81
						 32.05 252 C36.27 252.18 42.31 251.71 47.04 249.55" class="st18"/>
		</g>
		<g id="shape255-58" v:mID="255" v:groupContext="shape" transform="translate(-94.5757,-0.658217) rotate(-37.3719)">
			<title>工作表.255</title>
			<path d="M0 251 C0.32 251.09 0.71 250.89 1.1 250.71 C7.74 247.65 11.95 248.22 15.29 248.9 C18.99 249.65 21.62 250.55
						 24.47 251.13 C31.25 252.51 39.28 252.11 45.3 251" class="st19"/>
		</g>
		<g id="shape258-61" v:mID="258" v:groupContext="shape" transform="translate(-117.559,18.1365) rotate(-44.0947)">
			<title>工作表.258</title>
			<path d="M0 251.78 C4.29 250.41 9.76 249.75 13.59 249.58 C16.51 249.45 18.48 249.61 20.88 249.88 C22.65 250.09 24.66
						 250.35 26.43 250.62 C29.04 251.01 31.16 251.4 33.8 251.69 C36.58 251.99 39.94 252.19 44.4 251.78"
					class="st19"/>
		</g>
		<g id="shape261-64" v:mID="261" v:groupContext="shape" v:layerMember="2" transform="translate(57.7804,-53.4651)">
			<title>动态连接线.261</title>
			<path d="M0 252 C6.52 242.65 12.15 235.91 16.7 230.66 C20.58 226.19 23.67 222.8 27.07 218.13" class="st19"/>
		</g>
		<g id="shape264-67" v:mID="264" v:groupContext="shape" v:layerMember="2" transform="translate(125.954,-109.875)">
			<title>动态连接线.264</title>
			<path d="M0 252 C-4.96 257.39 -10.47 262.51 -15.57 266.5 C-20.98 270.73 -25.94 273.69 -31.83 281.06" class="st19"/>
		</g>
		<g id="shape265-70" v:mID="265" v:groupContext="shape" v:layerMember="2" transform="translate(118.017,-117.528)">
			<title>动态连接线.265</title>
			<path d="M0 252 C-4.39 257.1 -9.48 266.38 -13.35 273.02 C-17.19 279.62 -19.84 283.61 -23.98 288.58" class="st19"/>
		</g>
		<g id="shape267-73" v:mID="267" v:groupContext="shape" v:layerMember="2" transform="translate(114.332,-121.497)">
			<title>动态连接线.267</title>
			<path d="M0 252 C-4.54 256.82 -7.2 265.44 -9.8 272.65 C-12.52 280.18 -15.17 286.16 -20.41 292.54" class="st19"/>
		</g>
		<g id="shape268-76" v:mID="268" v:groupContext="shape" v:layerMember="2" transform="translate(107.061,-129.008)">
			<title>动态连接线.268</title>
			<path d="M-0.89 252 C-5.34 258.52 -5.09 265.75 -6.08 275.1 C-7.04 284.17 -9.17 295.23 -13.28 300.47" class="st19"/>
		</g>
		<g id="shape269-79" v:mID="269" v:groupContext="shape" v:layerMember="2" transform="translate(80.8828,-90.5422)">
			<title>动态连接线.269</title>
			<path d="M0 252 C-6.18 260.87 -11.12 268.02 -15.14 274.98 C-18.44 280.67 -21.12 286.24 -22.68 289.36" class="st19"/>
		</g>
		<g id="shape270-82" v:mID="270" v:groupContext="shape" v:layerMember="2" transform="translate(76.0639,-93.5753)">
			<title>动态连接线.270</title>
			<path d="M0 252 C-6.38 261.64 -8.37 266.81 -10.08 272.05 C-11.77 277.22 -13.18 282.47 -18.05 292.3" class="st19"/>
		</g>
		<g id="shape271-85" v:mID="271" v:groupContext="shape" v:layerMember="2" transform="translate(71.4613,-98.8194)">
			<title>动态连接线.271</title>
			<path d="M-0.5 252 C-6.88 262.06 -7.38 269.13 -7.88 275.69 C-8.37 282.09 -8.86 288 -13.67 297.47" class="st19"/>
		</g>
		<g id="shape272-88" v:mID="272" v:groupContext="shape" v:layerMember="2" transform="translate(68.7647,-102.788)">
			<title>动态连接线.272</title>
			<path d="M-3.05 252 C-9 262.77 -9.7 271.92 -9.25 279.92 C-8.84 287.36 -7.44 293.81 -11.13 301.8" class="st19"/>
		</g>
		<g id="shape273-91" v:mID="273" v:groupContext="shape" v:layerMember="2" transform="translate(98.1741,-77.4178)">
			<title>动态连接线</title>
			<path d="M0 252 C5.53 245.62 8.19 242.06 12.61 236.81 C16.89 231.73 22.82 225.07 27.5 219.4" class="st19"/>
		</g>
		<g id="shape274-94" v:mID="274" v:groupContext="shape" v:layerMember="2" transform="translate(98.1741,-77.5596)">
			<title>动态连接线.274</title>
			<path d="M0 252 C4.39 246.05 6.87 239.36 10.68 232.52 C14.3 226.03 19.13 219.4 23.81 215.86" class="st19"/>
		</g>
		<g id="shape275-97" v:mID="275" v:groupContext="shape" v:layerMember="2" transform="translate(97.8907,-77.4178)">
			<title>动态连接线.275</title>
			<path d="M0 252 C4.68 246.19 5.21 240.31 7.63 233.22 C10.08 226.06 14.46 217.67 20.13 211.89" class="st19"/>
		</g>
		<g id="shape276-100" v:mID="276" v:groupContext="shape" v:layerMember="2" transform="translate(98.3159,-77.7296)">
			<title>动态连接线.276</title>
			<path d="M0 252 C3.4 247.21 3.19 241.65 5.1 233.03 C7.02 224.42 11.06 212.77 15.73 208.37" class="st19"/>
		</g>
		<g id="shape280-103" v:mID="280" v:groupContext="shape" v:layerMember="2" transform="translate(111.213,-125.465)">
			<title>动态连接线.280</title>
			<path d="M-0.85 252 C-6.52 258.38 -8.04 268.52 -8.82 277.92 C-9.57 286.91 -9.64 295.23 -13.32 300.05" class="st19"/>
		</g>
		<g id="shape281-106" v:mID="281" v:groupContext="shape" v:layerMember="2" transform="translate(109.051,-128.867)">
			<title>动态连接线.281</title>
			<path d="M-2.94 252 C-9.03 259.09 -9.07 269.43 -8.6 279.19 C-8.13 288.69 -7.19 297.64 -11.23 303.63" class="st19"/>
		</g>
		<g id="shape283-109" v:mID="283" v:groupContext="shape" v:layerMember="2" transform="translate(121.928,-113.418)">
			<title>动态连接线.283</title>
			<path d="M0 252 C-4.2 256.68 -10.25 262.91 -15.55 269.37 C-20.55 275.47 -24.89 281.76 -27.82 284.65" class="st19"/>
		</g>
		<g id="shape284-112" v:mID="284" v:groupContext="shape" v:layerMember="2" transform="translate(110.363,-125.182)">
			<title>动态连接线.284</title>
			<path d="M0 252 C-4.82 257.39 -6.59 267.27 -8.73 276.18 C-10.79 284.72 -13.18 292.37 -16.44 296.41" class="st19"/>
		</g>
		<g id="shape288-115" v:mID="288" v:groupContext="shape" v:layerMember="2" transform="translate(96.6151,-138.93)">
			<title>动态连接线.288</title>
			<path d="M0 252 C-4.68 257.39 -10.61 264.14 -16.11 270.54 C-21.52 276.82 -26.5 282.76 -30.28 287.95" class="st19"/>
		</g>
		<g id="shape289-118" v:mID="289" v:groupContext="shape" v:layerMember="2" transform="translate(101.15,-134.252)">
			<title>动态连接线.289</title>
			<path d="M0 252 C-4.68 257.81 -12.59 263.22 -19.47 268.71 C-26.01 273.93 -31.61 279.21 -35.01 283.39" class="st19"/>
		</g>
		<g id="shape290-121" v:mID="290" v:groupContext="shape" v:layerMember="2" transform="translate(106.111,-129.008)">
			<title>动态连接线.290</title>
			<path d="M0 252 C-5.39 258.38 -15.53 262.03 -23.43 265.98 C-30.85 269.7 -36.28 273.69 -39.85 278.27" class="st19"/>
		</g>
		<g id="shape291-124" v:mID="291" v:groupContext="shape" v:layerMember="2" transform="translate(110.363,-125.182)">
			<title>动态连接线.291</title>
			<path d="M0 252 C-5.1 257.67 -16.06 260.28 -25.08 263.49 C-33.69 266.54 -40.54 270.14 -44.1 274.2" class="st19"/>
		</g>
		<g id="shape292-127" v:mID="292" v:groupContext="shape" v:layerMember="2" transform="translate(114.048,-121.497)">
			<title>动态连接线.292</title>
			<path d="M0 252 C-4.54 257.1 -13.05 258.91 -23.33 261.44 C-33.24 263.89 -44.79 267.02 -48.03 270.63" class="st19"/>
		</g>
		<g id="shape293-130" v:mID="293" v:groupContext="shape" v:layerMember="2" transform="translate(96.4733,-138.788)">
			<title>动态连接线.293</title>
			<path d="M0 252 C-3.4 256.03 -5.57 263.58 -9.96 271.24 C-14.45 279.07 -21.26 287.01 -25.15 291.87" class="st19"/>
		</g>
		<g id="shape294-133" v:mID="294" v:groupContext="shape" v:layerMember="2" transform="translate(101.179,-134.139)">
			<title>动态连接线.294</title>
			<path d="M0 252 C-4.99 258.41 -11.15 265.5 -16.1 271.37 C-20.99 277.18 -24.69 281.79 -29.86 287.47" class="st19"/>
		</g>
		<g id="shape295-136" v:mID="295" v:groupContext="shape" v:layerMember="2" transform="translate(106.111,-129.15)">
			<title>动态连接线.295</title>
			<path d="M0 252 C-3.54 257.24 -11.17 263.77 -17.58 268.52 C-24.27 273.48 -29.62 276.52 -34.92 282.23" class="st19"/>
		</g>
		<g id="shape296-139" v:mID="296" v:groupContext="shape" v:layerMember="2" transform="translate(110.363,-125.182)">
			<title>动态连接线.296</title>
			<path d="M0 252 C-4.68 256.82 -13.26 262.35 -20.52 266.22 C-27.96 270.19 -34.02 272.41 -38.92 278.63" class="st19"/>
		</g>
		<g id="shape297-142" v:mID="297" v:groupContext="shape" v:layerMember="2" transform="translate(114.048,-121.213)">
			<title>动态连接线.297</title>
			<path d="M0 252 C-5.53 257.39 -12.68 260.32 -20.68 263.19 C-28.7 266.07 -37.56 268.87 -42.99 274.58" class="st19"/>
		</g>
		<g id="shape298-145" v:mID="298" v:groupContext="shape" v:layerMember="2" transform="translate(96.7568,-139.071)">
			<title>动态连接线.298</title>
			<path d="M0 252 C-4.82 257.67 -6.31 267.21 -9.1 275.61 C-11.85 283.93 -15.87 291.12 -20.03 296.6" class="st19"/>
		</g>
		<g id="shape299-148" v:mID="299" v:groupContext="shape" v:layerMember="2" transform="translate(101.292,-134.252)">
			<title>动态连接线.299</title>
			<path d="M0 252 C-3.97 256.54 -7.02 262.99 -11.07 270.73 C-15.1 278.45 -20.13 287.43 -24.18 291.77" class="st19"/>
		</g>
		<g id="shape300-151" v:mID="300" v:groupContext="shape" v:layerMember="2" transform="translate(106.395,-129.434)">
			<title>动态连接线.300</title>
			<path d="M0 252 L-29.53 287.08" class="st19"/>
		</g>
		<g id="shape301-154" v:mID="301" v:groupContext="shape" v:layerMember="2" transform="translate(110.363,-125.465)">
			<title>动态连接线.301</title>
			<path d="M0 252 C-5.67 258.52 -11.69 262.82 -17.41 267.55 C-23.02 272.18 -28.35 277.23 -33.5 283.11" class="st19"/>
		</g>
		<g id="shape302-157" v:mID="302" v:groupContext="shape" v:layerMember="2" transform="translate(114.332,-121.497)">
			<title>动态连接线.302</title>
			<path d="M0 252 C-4.25 256.54 -11.5 261.46 -18.61 265.83 C-25.82 270.26 -32.88 274.11 -37.47 279.14" class="st19"/>
		</g>
		<g id="shape303-160" v:mID="303" v:groupContext="shape" v:layerMember="2" transform="translate(118.017,-117.528)">
			<title>动态连接线.303</title>
			<path d="M0 252 C-4.82 257.39 -13.81 260.19 -22.07 263.44 C-30.09 266.58 -37.42 270.14 -41.03 275.17" class="st19"/>
		</g>
		<g id="shape304-163" v:mID="304" v:groupContext="shape" v:layerMember="2" transform="translate(121.985,-113.843)">
			<title>动态连接线.304</title>
			<path d="M0 252 C-3.97 256.54 -14.46 259.23 -23.07 261.38 C-32.14 263.65 -39.12 265.32 -44.87 271.49" class="st19"/>
		</g>
		<g id="shape305-166" v:mID="305" v:groupContext="shape" v:layerMember="2" transform="translate(96.4733,-139.071)">
			<title>动态连接线.305</title>
			<path d="M0 252 C-5.39 258.52 -4.4 267.7 -5.66 276.33 C-6.93 285 -10.49 293.1 -15.4 300" class="st19"/>
		</g>
		<g id="shape306-169" v:mID="306" v:groupContext="shape" v:layerMember="2" transform="translate(101.15,-134.196)">
			<title>动态连接线.306</title>
			<path d="M0 252 C-5.81 259.03 -5.45 265.79 -7.87 273.43 C-10.21 280.84 -15.17 289.08 -20.27 295.12" class="st19"/>
		</g>
		<g id="shape307-172" v:mID="307" v:groupContext="shape" v:layerMember="2" transform="translate(106.395,-129.15)">
			<title>动态连接线.307</title>
			<path d="M0 252 C-6.24 259.09 -9.66 266.44 -13.09 272.49 C-16.46 278.47 -19.84 283.18 -25.13 290.27" class="st19"/>
		</g>
		<g id="shape308-175" v:mID="308" v:groupContext="shape" v:layerMember="2" transform="translate(110.363,-125.182)">
			<title>动态连接线.308</title>
			<path d="M0 252 C-4.82 257.1 -9.47 262.31 -14.39 268.08 C-19.38 273.93 -24.66 280.35 -29.67 285.92" class="st19"/>
		</g>
		<g id="shape309-178" v:mID="309" v:groupContext="shape" v:layerMember="2" transform="translate(114.048,-121.213)">
			<title>动态连接线.309</title>
			<path d="M0 252 C-4.68 257.39 -10.07 262.23 -16.42 267.53 C-22.51 272.6 -29.48 278.08 -32.98 282.33" class="st19"/>
		</g>
		<g id="shape310-181" v:mID="310" v:groupContext="shape" v:layerMember="2" transform="translate(118.017,-117.812)">
			<title>动态连接线.310</title>
			<path d="M0 252 C-3.83 257.1 -12.48 261.78 -19.48 265.77 C-26.7 269.88 -32.17 273.26 -37.08 278.9" class="st19"/>
		</g>
		<g id="shape311-184" v:mID="311" v:groupContext="shape" v:layerMember="2" transform="translate(121.843,-113.701)">
			<title>动态连接线.311</title>
			<path d="M0 252 C-4.82 256.96 -13.95 260.92 -22.07 264.29 C-29.94 267.56 -36.85 270.28 -40.54 274.79" class="st19"/>
		</g>
		<g id="shape312-187" v:mID="312" v:groupContext="shape" v:layerMember="2" transform="translate(125.954,-110.016)">
			<title>动态连接线.312</title>
			<path d="M0 252 C-5.1 257.53 -15.07 260.37 -23.89 262.65 C-32.63 264.91 -40.25 266.6 -45.27 271.23" class="st19"/>
		</g>
		<g id="shape285-190" v:mID="285" v:groupContext="shape" v:layerMember="2" transform="translate(97.9769,-139.071)">
			<title>动态连接线.285</title>
			<path d="M-1.22 252 C-5.76 257.53 -4.14 269.46 -4.9 279.37 C-5.66 289.4 -8.87 297.35 -12.95 303.54" class="st19"/>
		</g>
		<g id="shape315-193" v:mID="315" v:groupContext="shape" v:layerMember="2" transform="translate(125.954,-110.016)">
			<title>动态连接线.315</title>
			<path d="M0 252 C-3.97 256.39 -11.69 262.29 -18.57 266.52 C-25.59 270.83 -31.75 273.4 -36.52 277.94" class="st19"/>
		</g>
		<g id="shape316-196" v:mID="316" v:groupContext="shape" v:layerMember="2" transform="translate(101.292,-134.394)">
			<title>动态连接线.316</title>
			<path d="M0 252 C-4.25 257.24 -4.68 269.05 -6.67 278.28 C-8.66 287.45 -12.19 294.09 -16.25 299.1" class="st19"/>
		</g>
		<g id="shape317-199" v:mID="317" v:groupContext="shape" v:layerMember="2" transform="translate(106.111,-129.15)">
			<title>动态连接线.317</title>
			<path d="M0 252 C-4.54 257.39 -5.89 264.14 -8.98 272.13 C-12.02 279.97 -16.72 288.99 -21.07 293.67" class="st19"/>
		</g>
		<g id="shape318-202" v:mID="318" v:groupContext="shape" v:layerMember="2" transform="translate(110.363,-124.898)">
			<title>动态连接线.318</title>
			<path d="M0 252 C-6.24 257.95 -9.81 264.66 -13.37 271.08 C-16.89 277.41 -20.41 283.46 -25.32 289.61" class="st19"/>
		</g>
		<g id="shape319-205" v:mID="319" v:groupContext="shape" v:layerMember="2" transform="translate(114.048,-121.213)">
			<title>动态连接线.319</title>
			<path d="M0 252 C-4.39 256.54 -10.05 263.44 -15.35 269.62 C-20.61 275.76 -25.51 281.2 -29.01 286.11" class="st19"/>
		</g>
		<g id="shape320-208" v:mID="320" v:groupContext="shape" v:layerMember="2" transform="translate(118.017,-117.528)">
			<title>动态连接线.320</title>
			<path d="M0 252 C-4.54 257.39 -8.96 260.67 -15.1 265.67 C-21.17 270.61 -28.91 277.23 -32.98 282.43" class="st19"/>
		</g>
		<g id="shape321-211" v:mID="321" v:groupContext="shape" v:layerMember="2" transform="translate(121.843,-113.701)">
			<title>动态连接线.321</title>
			<path d="M0 252 C-4.39 256.11 -12.56 259.6 -19.79 264.1 C-26.93 268.54 -33.17 273.97 -36.84 278.29" class="st19"/>
		</g>
		<g id="shape322-214" v:mID="322" v:groupContext="shape" v:layerMember="2" transform="translate(125.67,-110.158)">
			<title>动态连接线.322</title>
			<path d="M0 252 C-4.68 256.82 -12.72 258.93 -20.83 262.26 C-28.8 265.54 -36.85 270 -40.79 274.75" class="st19"/>
		</g>
		<g id="shape323-217" v:mID="323" v:groupContext="shape" v:layerMember="2" transform="translate(106.395,-129.15)">
			<title>动态连接线.323</title>
			<path d="M0 252 C-5.24 257.81 -6.52 267.82 -8.61 276.85 C-10.6 285.41 -13.32 293.1 -16.83 297.07" class="st19"/>
		</g>
		<g id="shape324-220" v:mID="324" v:groupContext="shape" v:layerMember="2" transform="translate(110.505,-125.465)">
			<title>动态连接线.324</title>
			<path d="M0 252 C-3.83 256.54 -5.24 265.04 -8.51 273.27 C-11.77 281.48 -16.87 289.42 -21.02 293.76" class="st19"/>
		</g>
		<g id="shape325-223" v:mID="325" v:groupContext="shape" v:layerMember="2" transform="translate(114.332,-121.78)">
			<title>动态连接线.325</title>
			<path d="M0 252 C-4.54 257.39 -5.59 263.11 -9.82 270.47 C-13.87 277.5 -20.83 286.02 -24.52 289.84" class="st19"/>
		</g>
		<g id="shape326-226" v:mID="326" v:groupContext="shape" v:layerMember="2" transform="translate(118.3,-117.528)">
			<title>动态连接线.326</title>
			<path d="M0 252 C-4.54 256.68 -8.41 262.2 -13.26 268.08 C-18.17 274.03 -24.09 280.35 -28.91 285.45" class="st19"/>
		</g>
		<g id="shape327-229" v:mID="327" v:groupContext="shape" v:layerMember="2" transform="translate(121.702,-113.701)">
			<title>动态连接线.327</title>
			<path d="M0 252 C-4.25 256.96 -12.3 263.89 -17.99 268.74 C-23.84 273.72 -27.21 276.52 -32.39 281.87" class="st19"/>
		</g>
		<g id="shape328-232" v:mID="328" v:groupContext="shape" transform="translate(303.446,-102.457) rotate(49.1197)">
			<title>工作表.328</title>
			<path d="M0 252 L119.97 252" class="st20"/>
		</g>
		<g id="shape329-235" v:mID="329" v:groupContext="shape" transform="translate(355.595,-113.026) rotate(54.4308)">
			<title>工作表.329</title>
			<path d="M0 252 L119.88 252" class="st21"/>
		</g>
		<g id="shape330-238" v:mID="330" v:groupContext="shape" transform="translate(77.7647,-75.2918)">
			<title>工作表.330</title>
			<path d="M0 170.08 L12.47 182.41 L83.62 252" class="st21"/>
		</g>
		<g id="shape331-241" v:mID="331" v:groupContext="shape" transform="translate(49.1348,-46.4823)">
			<title>工作表.331</title>
			<path d="M0 182.32 L10.95 190.97 L87.31 252" class="st21"/>
		</g>
		<g id="shape98-244" v:mID="98" v:groupContext="shape" transform="translate(64.5015,-101.609)">
			<title>工作表.98</title>
			<ellipse cx="1.41732" cy="250.583" rx="1.41732" ry="1.41732" class="st22"/>
		</g>
		<g id="shape246-246" v:mID="246" v:groupContext="shape" transform="translate(96.5778,-75.9483)">
			<title>工作表.246</title>
			<ellipse cx="1.41732" cy="250.583" rx="1.41732" ry="1.41732" class="st22"/>
		</g>
		<g id="shape247-248" v:mID="247" v:groupContext="shape" transform="translate(92.6242,-79.2305)">
			<title>工作表.247</title>
			<ellipse cx="1.41732" cy="250.583" rx="1.41732" ry="1.41732" class="st22"/>
		</g>
		<g id="shape248-250" v:mID="248" v:groupContext="shape" transform="translate(88.2976,-82.6619)">
			<title>工作表.248</title>
			<ellipse cx="1.41732" cy="250.583" rx="1.41732" ry="1.41732" class="st22"/>
		</g>
		<g id="shape249-252" v:mID="249" v:groupContext="shape" transform="translate(83.6302,-86.1943)">
			<title>工作表.249</title>
			<ellipse cx="1.41732" cy="250.583" rx="1.41732" ry="1.41732" class="st22"/>
		</g>
		<g id="shape250-254" v:mID="250" v:groupContext="shape" transform="translate(79.5699,-89.5248)">
			<title>工作表.250</title>
			<ellipse cx="1.41732" cy="250.583" rx="1.41732" ry="1.41732" class="st22"/>
		</g>
		<g id="shape251-256" v:mID="251" v:groupContext="shape" transform="translate(75.5417,-92.9562)">
			<title>工作表.251</title>
			<ellipse cx="1.41732" cy="250.583" rx="1.41732" ry="1.41732" class="st22"/>
		</g>
		<g id="shape252-258" v:mID="252" v:groupContext="shape" transform="translate(69.7978,-97.3573)">
			<title>工作表.252</title>
			<ellipse cx="1.41732" cy="250.583" rx="1.41732" ry="1.41732" class="st22"/>
		</g>
		<g id="shape99-260" v:mID="99" v:groupContext="shape" transform="translate(99.7108,-132.641)">
			<title>工作表.99</title>
			<ellipse cx="1.41732" cy="250.583" rx="1.41732" ry="1.41732" class="st22"/>
		</g>
		<g id="shape100-262" v:mID="100" v:groupContext="shape" transform="translate(95.235,-137.341)">
			<title>工作表.100</title>
			<ellipse cx="1.41732" cy="250.583" rx="1.41732" ry="1.41732" class="st22"/>
		</g>
		<g id="shape240-264" v:mID="240" v:groupContext="shape" transform="translate(104.933,-127.569)">
			<title>工作表.240</title>
			<ellipse cx="1.41732" cy="250.583" rx="1.41732" ry="1.41732" class="st22"/>
		</g>
		<g id="shape241-266" v:mID="241" v:groupContext="shape" transform="translate(108.961,-123.69)">
			<title>工作表.241</title>
			<ellipse cx="1.41732" cy="250.583" rx="1.41732" ry="1.41732" class="st22"/>
		</g>
		<g id="shape242-268" v:mID="242" v:groupContext="shape" transform="translate(112.84,-120.034)">
			<title>工作表.242</title>
			<ellipse cx="1.41732" cy="250.583" rx="1.41732" ry="1.41732" class="st22"/>
		</g>
		<g id="shape243-270" v:mID="243" v:groupContext="shape" transform="translate(116.644,-116.081)">
			<title>工作表.243</title>
			<ellipse cx="1.41732" cy="250.583" rx="1.41732" ry="1.41732" class="st22"/>
		</g>
		<g id="shape244-272" v:mID="244" v:groupContext="shape" transform="translate(120.598,-112.202)">
			<title>工作表.244</title>
			<ellipse cx="1.41732" cy="250.583" rx="1.41732" ry="1.41732" class="st22"/>
		</g>
		<g id="shape245-274" v:mID="245" v:groupContext="shape" transform="translate(124.327,-108.547)">
			<title>工作表.245</title>
			<ellipse cx="1.41732" cy="250.583" rx="1.41732" ry="1.41732" class="st22"/>
		</g>
		<g id="shape96-276" v:mID="96" v:groupContext="shape" transform="translate(128.654,-168.223)">
			<title>工作表.96</title>
			<ellipse cx="1.41732" cy="250.583" rx="1.41732" ry="1.41732" class="st22"/>
		</g>
		<g id="shape97-278" v:mID="97" v:groupContext="shape" transform="translate(132.458,-163.673)">
			<title>工作表.97</title>
			<ellipse cx="1.41732" cy="250.583" rx="1.41732" ry="1.41732" class="st22"/>
		</g>
		<g id="shape101-280" v:mID="101" v:groupContext="shape" transform="translate(144.492,-149.975)">
			<title>工作表.101</title>
			<ellipse cx="1.41732" cy="250.583" rx="1.41732" ry="1.41732" class="st22"/>
		</g>
		<g id="shape102-282" v:mID="102" v:groupContext="shape" transform="translate(140.962,-153.901)">
			<title>工作表.102</title>
			<ellipse cx="1.41732" cy="250.583" rx="1.41732" ry="1.41732" class="st22"/>
		</g>
		<g id="shape103-284" v:mID="103" v:groupContext="shape" transform="translate(137.382,-158.302)">
			<title>工作表.103</title>
			<ellipse cx="1.41732" cy="250.583" rx="1.41732" ry="1.41732" class="st22"/>
		</g>
		<g id="shape234-286" v:mID="234" v:groupContext="shape" transform="translate(154.879,-137.999)">
			<title>工作表.234</title>
			<ellipse cx="1.41732" cy="250.583" rx="1.41732" ry="1.41732" class="st22"/>
		</g>
		<g id="shape237-288" v:mID="237" v:groupContext="shape" transform="translate(151.636,-141.623)">
			<title>工作表.237</title>
			<ellipse cx="1.41732" cy="250.583" rx="1.41732" ry="1.41732" class="st22"/>
		</g>
		<g id="shape238-290" v:mID="238" v:groupContext="shape" transform="translate(148.234,-145.704)">
			<title>工作表.238</title>
			<ellipse cx="1.41732" cy="250.583" rx="1.41732" ry="1.41732" class="st22"/>
		</g>
		<g id="shape111-292" v:mID="111" v:groupContext="shape" transform="translate(164.115,-195.93)">
			<title>工作表.111</title>
			<ellipse cx="1.41732" cy="250.583" rx="1.41732" ry="1.41732" class="st22"/>
		</g>
		<g id="shape112-294" v:mID="112" v:groupContext="shape" transform="translate(177.977,-176.653)">
			<title>工作表.112</title>
			<ellipse cx="1.41732" cy="250.583" rx="1.41732" ry="1.41732" class="st22"/>
		</g>
		<g id="shape114-296" v:mID="114" v:groupContext="shape" transform="translate(187.172,-163.905)">
			<title>工作表.114</title>
			<ellipse cx="1.41732" cy="250.583" rx="1.41732" ry="1.41732" class="st22"/>
		</g>
		<g id="shape116-298" v:mID="116" v:groupContext="shape" transform="translate(181.02,-172.326)">
			<title>工作表.116</title>
			<ellipse cx="1.41732" cy="250.583" rx="1.41732" ry="1.41732" class="st22"/>
		</g>
		<g id="shape117-300" v:mID="117" v:groupContext="shape" transform="translate(167.536,-191.163)">
			<title>工作表.117</title>
			<ellipse cx="1.41732" cy="250.583" rx="1.41732" ry="1.41732" class="st22"/>
		</g>
		<g id="shape119-302" v:mID="119" v:groupContext="shape" transform="translate(175.276,-180.606)">
			<title>工作表.119</title>
			<ellipse cx="1.41732" cy="250.583" rx="1.41732" ry="1.41732" class="st22"/>
		</g>
		<g id="shape120-304" v:mID="120" v:groupContext="shape" transform="translate(184.438,-167.853)">
			<title>工作表.120</title>
			<ellipse cx="1.41732" cy="250.583" rx="1.41732" ry="1.41732" class="st22"/>
		</g>
		<g id="shape239-306" v:mID="239" v:groupContext="shape" transform="translate(171.77,-185.231)">
			<title>工作表.239</title>
			<ellipse cx="1.41732" cy="250.583" rx="1.41732" ry="1.41732" class="st22"/>
		</g>
		<g id="shape332-308" v:mID="332" v:groupContext="shape" transform="translate(56.776,-129.865)">
			<title>工作表.332</title>
			<desc>ds</desc>
			<v:textBlock v:margins="rect(4,4,4,4)" v:tabSpace="42.5197"/>
			<v:textRect cx="9.78569" cy="248.031" width="19.58" height="7.93701"/>
			<rect x="0" y="244.063" width="19.5714" height="7.93701" class="st23"/>
			<text x="5.34" y="251.03" class="st24" v:langID="2052"><v:paragraph v:horizAlign="1"/><v:tabList/>ds</text>		</g>
		<g id="shape334-311" v:mID="334" v:groupContext="shape" transform="translate(-136.041,-21.3504) rotate(-49.7245)">
			<title>工作表.334</title>
			<path d="M4.71 252 L5.07 252 L43.6 252" class="st25"/>
		</g>
		<g id="shape335-320" v:mID="335" v:groupContext="shape" transform="translate(206.085,-206.715)">
			<title>工作表.335</title>
			<desc>station</desc>
			<v:textBlock v:margins="rect(4,4,4,4)" v:tabSpace="42.5197"/>
			<v:textRect cx="20.5512" cy="247.181" width="41.11" height="9.6378"/>
			<rect x="0" y="242.362" width="41.1024" height="9.6378" class="st23"/>
			<text x="7.22" y="250.18" class="st24" v:langID="2052"><v:paragraph v:horizAlign="1"/><v:tabList/>station</text>		</g>
		<g id="shape336-323" v:mID="336" v:groupContext="shape" transform="translate(-8.50394,-72.9431)">
			<title>工作表.336</title>
			<desc>lateral offset</desc>
			<v:textBlock v:margins="rect(4,4,4,4)" v:tabSpace="42.5197"/>
			<v:textRect cx="28.5713" cy="236.981" width="57.15" height="30.0371"/>
			<rect x="0" y="221.963" width="57.1426" height="30.0371" class="st23"/>
			<text x="16.08" y="233.98" class="st24" v:langID="2052"><v:paragraph v:horizAlign="1"/><v:tabList/>lateral <tspan
						x="17.19" dy="1.2em" class="st27">offset</tspan></text>		</g>
		<g id="shape337-327" v:mID="337" v:groupContext="shape" transform="translate(23.8058,-11.3386)">
			<title>工作表.337</title>
			<path d="M0 252 L27.72 252" class="st28"/>
		</g>
		<g id="shape338-333" v:mID="338" v:groupContext="shape" transform="translate(-228.194,240.661) rotate(-90)">
			<title>工作表.338</title>
			<path d="M0 252 L24.52 252" class="st28"/>
		</g>
		<g id="shape340-338" v:mID="340" v:groupContext="shape" transform="translate(45.3543,-1.41732)">
			<title>工作表.340</title>
			<desc>x</desc>
			<v:textBlock v:margins="rect(4,4,4,4)" v:tabSpace="42.5197"/>
			<v:textRect cx="8.50394" cy="247.748" width="17.01" height="8.50394"/>
			<rect x="0" y="243.496" width="17.0079" height="8.50394" class="st23"/>
			<text x="6" y="250.75" class="st24" v:langID="2052"><v:paragraph v:horizAlign="1"/><v:tabList/>x</text>		</g>
		<g id="shape341-341" v:mID="341" v:groupContext="shape" transform="translate(10.6299,-35.4331)">
			<title>工作表.341</title>
			<desc>y</desc>
			<v:textBlock v:margins="rect(4,4,4,4)" v:tabSpace="42.5197"/>
			<v:textRect cx="6.37795" cy="247.748" width="12.76" height="8.50394"/>
			<rect x="0" y="243.496" width="12.7559" height="8.50394" class="st23"/>
			<text x="4" y="250.75" class="st24" v:langID="2052"><v:paragraph v:horizAlign="1"/><v:tabList/>y</text>		</g>
		<g id="shape343-344" v:mID="343" v:groupContext="shape" transform="translate(10.2047,-8.22047)">
			<title>工作表.343</title>
			<desc>o</desc>
			<v:textBlock v:margins="rect(4,4,4,4)" v:tabSpace="42.5197"/>
			<v:textRect cx="6.23622" cy="248.315" width="12.48" height="7.37008"/>
			<rect x="0" y="244.63" width="12.4724" height="7.37008" class="st23"/>
			<text x="4" y="251.32" class="st24" v:langID="2052"><v:paragraph v:horizAlign="1"/><v:tabList/>o</text>		</g>
	</g>
</svg>
