<?xml version="1.0" encoding="utf-8" standalone="no"?>
<!DOCTYPE svg PUBLIC "-//W3C//DTD SVG 1.1//EN"
  "http://www.w3.org/Graphics/SVG/1.1/DTD/svg11.dtd">
<!-- Created with matplotlib (http://matplotlib.org/) -->
<svg height="429pt" version="1.1" viewBox="0 0 576 429" width="576pt" xmlns="http://www.w3.org/2000/svg" xmlns:xlink="http://www.w3.org/1999/xlink">
 <defs>
  <style type="text/css">
*{stroke-linecap:butt;stroke-linejoin:round;stroke-miterlimit:100000;}
  </style>
 </defs>
 <g id="figure_1">
  <g id="patch_1">
   <path d="M 0 429.3 
L 576 429.3 
L 576 0 
L 0 0 
z
" style="fill:#ffffff;"/>
  </g>
  <g id="axes_1">
   <g id="patch_2">
    <path d="M 72 386.37 
L 518.4 386.37 
L 518.4 42.93 
L 72 42.93 
z
" style="fill:#ffffff;"/>
   </g>
   <g id="line2d_1">
    <path clip-path="url(#pb0b56bbb2c)" d="M 72 170.01 
L 89.855564 170.103623 
L 101.011481 170.396093 
L 109.927923 170.845809 
L 118.829038 171.534126 
L 127.704701 172.495779 
L 134.337404 173.4129 
L 140.943089 174.50767 
L 147.515637 175.786355 
L 154.048804 177.252985 
L 160.536431 178.909459 
L 166.972639 180.75565 
L 173.352022 182.789539 
L 179.669827 185.007347 
L 185.92211 187.403686 
L 192.105871 189.971711 
L 198.21917 192.703279 
L 206.259411 196.583567 
L 214.174514 200.713266 
L 221.969762 205.065113 
L 229.654254 209.609805 
L 239.123825 215.514644 
L 248.472493 221.609317 
L 261.432367 230.335611 
L 283.63289 245.319098 
L 293.006359 251.375478 
L 300.603088 256.065457 
L 308.308866 260.57385 
L 316.140751 264.859209 
L 322.10554 267.901424 
L 328.152719 270.776293 
L 334.284612 273.46563 
L 340.501812 275.951284 
L 346.803059 278.215283 
L 353.185162 280.240016 
L 359.642938 282.008427 
L 366.169198 283.504237 
L 372.754772 284.712177 
L 379.38858 285.618234 
L 386.057743 286.209896 
L 392.747759 286.4764 
L 397.211544 286.468998 
L 401.672534 286.31106 
L 406.125532 286.000971 
L 410.565193 285.537596 
L 414.986077 284.920297 
L 419.382699 284.148947 
L 423.749575 283.22394 
L 428.081286 282.146197 
L 432.372526 280.917166 
L 436.618163 279.538819 
L 440.813295 278.013642 
L 444.953309 276.344622 
L 449.033931 274.535229 
L 453.051289 272.589393 
L 458.951345 269.424464 
L 464.692053 265.978844 
L 470.266864 262.270716 
L 475.672381 258.31978 
L 480.908606 254.146976 
L 485.979131 249.774218 
L 490.891266 245.224152 
L 495.656113 240.519973 
L 500.288584 235.685287 
L 506.292092 229.077541 
L 513.596568 220.640361 
L 517.921915 215.528832 
L 517.921915 215.528832 
" style="fill:none;stroke:#ff0000;stroke-linecap:square;"/>
   </g>
   <g id="line2d_2">
    <path clip-path="url(#pb0b56bbb2c)" d="M 72 170.01 
L 89.8556 170.0997 
L 101.011858 170.379692 
L 109.929282 170.809911 
L 118.832715 171.467939 
L 127.712964 172.386642 
L 134.351289 173.262274 
L 140.965098 174.306978 
L 147.548893 175.526552 
L 154.097091 176.924661 
L 160.604211 178.50293 
L 167.065058 180.261052 
L 173.474898 182.19691 
L 179.829617 184.306706 
L 186.125865 186.585104 
L 192.361179 189.025366 
L 200.577735 192.516868 
L 208.682885 196.259851 
L 216.679565 200.229431 
L 224.574249 204.398304 
L 234.314576 209.844912 
L 243.937557 215.4965 
L 257.27652 223.631449 
L 283.899321 239.991208 
L 293.530737 245.628351 
L 301.327592 249.977515 
L 309.225246 254.140652 
L 317.238305 258.076859 
L 323.330529 260.855106 
L 329.496852 263.46466 
L 335.738724 265.887839 
L 342.055934 268.107084 
L 348.446512 270.105106 
L 354.906663 271.865058 
L 361.430722 273.370731 
L 368.011149 274.606759 
L 374.638574 275.558845 
L 381.301868 276.213985 
L 387.988271 276.560704 
L 394.683563 276.589274 
L 401.372281 276.291927 
L 405.819686 275.909759 
L 410.251819 275.379089 
L 414.663538 274.699286 
L 419.049653 273.870206 
L 423.40498 272.892202 
L 427.724391 271.766125 
L 432.002867 270.493331 
L 436.235553 269.075675 
L 440.417809 267.515501 
L 444.545263 265.815633 
L 450.624943 263.011213 
L 456.560277 259.912906 
L 462.341503 256.535681 
L 467.961459 252.896324 
L 473.415891 249.013193 
L 478.703702 244.905961 
L 483.827162 240.595358 
L 488.792057 236.102942 
L 493.607793 231.450893 
L 498.287434 226.661876 
L 504.344655 220.103391 
L 510.239506 213.398374 
L 517.472325 204.899514 
L 517.472325 204.899514 
" style="fill:none;stroke:#ff0000;stroke-linecap:square;"/>
   </g>
   <g id="line2d_3">
    <path clip-path="url(#pb0b56bbb2c)" d="M 72 170.01 
L 89.855637 170.095474 
L 101.012245 170.362059 
L 109.930673 170.771377 
L 118.83647 171.397003 
L 127.72138 172.269849 
L 136.575431 173.413652 
L 143.189047 174.459687 
L 149.774133 175.672373 
L 156.325779 177.054345 
L 162.839242 178.606333 
L 169.310122 180.327267 
L 175.734507 182.214394 
L 182.109116 184.263407 
L 190.526911 187.237141 
L 198.848205 190.471212 
L 207.072382 193.944969 
L 215.201987 197.634758 
L 223.242776 201.514412 
L 233.182669 206.587761 
L 243.02153 211.854596 
L 256.683809 219.434065 
L 282.023226 233.570071 
L 291.872733 238.81691 
L 299.832334 242.86058 
L 307.880344 246.725119 
L 316.029822 250.37059 
L 322.214452 252.936607 
L 328.464232 255.339489 
L 334.780323 257.562114 
L 341.162353 259.587511 
L 347.60832 261.399001 
L 354.114526 262.980361 
L 360.675541 264.315999 
L 367.284197 265.39115 
L 373.931623 266.192079 
L 380.607312 266.706294 
L 387.299241 266.922758 
L 393.994024 266.832092 
L 400.677114 266.426774 
L 407.33304 265.701309 
L 413.945693 264.65238 
L 420.49863 263.27896 
L 426.975424 261.582393 
L 433.360022 259.566425 
L 439.637125 257.237193 
L 445.792568 254.60317 
L 451.813699 251.675059 
L 457.689748 248.465647 
L 463.412164 244.989623 
L 468.974933 241.263368 
L 474.374855 237.304722 
L 479.61178 233.132745 
L 484.688795 228.767487 
L 489.612365 224.229773 
L 494.392418 219.541032 
L 499.042388 214.723171 
L 505.069737 208.137172 
L 512.397971 199.720654 
L 518.170022 192.909461 
L 518.170022 192.909461 
" style="fill:none;stroke:#ff0000;stroke-linecap:square;"/>
   </g>
   <g id="line2d_4">
    <path clip-path="url(#pb0b56bbb2c)" d="M 72 170.01 
L 89.855674 170.090968 
L 101.012636 170.343291 
L 109.932075 170.730418 
L 118.840246 171.3217 
L 127.729825 172.146029 
L 136.591999 173.225451 
L 145.416976 174.575438 
L 154.194572 176.205195 
L 162.914852 178.118025 
L 171.568749 180.311739 
L 180.148653 182.779112 
L 188.648907 185.508378 
L 197.066222 188.483731 
L 205.399961 191.685842 
L 213.652314 195.092342 
L 221.828347 198.678277 
L 231.9533 203.371511 
L 243.99234 209.236889 
L 261.924089 218.291011 
L 279.872502 227.311892 
L 289.924099 232.160396 
L 300.073351 236.800677 
L 308.281275 240.312828 
L 316.579779 243.605011 
L 324.976385 246.637976 
L 331.340583 248.718969 
L 337.762083 250.61565 
L 344.239382 252.311863 
L 350.769439 253.791856 
L 357.347626 255.040438 
L 363.967711 256.043155 
L 370.621877 256.786477 
L 377.300772 257.257986 
L 383.993599 257.446573 
L 390.688244 257.34263 
L 397.371443 256.938231 
L 404.028992 256.227304 
L 410.645984 255.205773 
L 417.207091 253.871681 
L 423.696864 252.225276 
L 430.100067 250.26906 
L 436.402014 248.0078 
L 442.588931 245.448493 
L 448.648303 242.600295 
L 454.569229 239.474403 
L 460.342747 236.083905 
L 465.962148 232.4436 
L 471.423254 228.56979 
L 476.724661 224.480069 
L 481.867943 220.193101 
L 486.857812 215.728417 
L 491.702229 211.106233 
L 496.412476 206.347314 
L 502.50983 199.826142 
L 508.438761 193.151272 
L 517.136567 182.968429 
L 517.136567 182.968429 
" style="fill:none;stroke:#ff0000;stroke-linecap:square;"/>
   </g>
   <g id="line2d_5">
    <path clip-path="url(#pb0b56bbb2c)" d="M 72 170.01 
L 92.08749 170.117606 
L 103.243772 170.398214 
L 112.162252 170.806967 
L 121.069347 171.414465 
L 129.958291 172.245868 
L 138.821154 173.319911 
L 147.649317 174.649183 
L 156.434025 176.240446 
L 165.166943 178.09499 
L 173.840709 180.209033 
L 182.449425 182.574154 
L 190.989074 185.177749 
L 199.457849 188.003496 
L 207.856362 191.031812 
L 216.187758 194.240288 
L 226.51649 198.466197 
L 238.807828 203.782557 
L 255.085324 211.122609 
L 279.494523 222.148077 
L 289.746257 226.55767 
L 300.08626 230.755761 
L 308.437056 233.913221 
L 316.867479 236.85122 
L 325.383113 239.531926 
L 331.827095 241.350934 
L 338.319564 242.988335 
L 344.85852 244.428758 
L 351.440542 245.657277 
L 358.060753 246.659567 
L 364.712813 247.422062 
L 371.388938 247.932128 
L 378.079961 248.178239 
L 384.775418 248.150155 
L 391.463676 247.839093 
L 398.13209 247.237893 
L 404.767208 246.341167 
L 411.354989 245.145428 
L 417.881073 243.64919 
L 424.331054 241.853048 
L 430.690796 239.759712 
L 436.946743 237.374013 
L 443.086249 234.702864 
L 449.097907 231.755194 
L 454.971868 228.541831 
L 460.700143 225.075367 
L 466.276895 221.369989 
L 471.69869 217.44129 
L 476.964727 213.306075 
L 482.077024 208.982162 
L 487.040569 204.488196 
L 491.863425 199.843491 
L 496.556793 195.067903 
L 502.638464 188.532068 
L 508.558492 181.84928 
L 517.252075 171.662813 
L 517.252075 171.662813 
" style="fill:none;stroke:#ff0000;stroke-linecap:square;"/>
   </g>
   <g id="line2d_6">
    <path clip-path="url(#pb0b56bbb2c)" d="M 72 170.01 
L 92.087555 170.110536 
L 103.244316 170.372458 
L 114.392632 170.87685 
L 123.29915 171.493028 
L 132.188346 172.322029 
L 141.053244 173.379441 
L 149.88644 174.675153 
L 158.680589 176.213669 
L 167.428902 177.994455 
L 176.125604 180.01232 
L 184.766353 182.25782 
L 193.348571 184.717673 
L 201.871691 187.375183 
L 212.445132 190.94475 
L 222.936871 194.748021 
L 235.438001 199.550394 
L 252.008596 206.202362 
L 276.851365 216.212831 
L 289.361617 220.991257 
L 299.871659 224.743433 
L 308.348687 227.544414 
L 316.894478 230.127742 
L 325.512845 232.45719 
L 332.024666 234.016047 
L 338.576492 235.396993 
L 345.165913 236.585484 
L 351.789226 237.567455 
L 358.441401 238.329458 
L 365.116086 238.858814 
L 371.805631 239.14377 
L 378.501143 239.173658 
L 385.192582 238.939053 
L 391.868872 238.431933 
L 398.518063 237.64582 
L 405.127506 236.575915 
L 411.684073 235.219209 
L 418.174392 233.574574 
L 424.585111 231.642823 
L 430.903176 229.426743 
L 437.116127 226.931095 
L 443.212392 224.162576 
L 449.181592 221.129754 
L 455.014829 217.842963 
L 460.704969 214.314179 
L 466.246904 210.556864 
L 471.637786 206.585799 
L 476.877238 202.416907 
L 481.967531 198.067072 
L 486.91372 193.553981 
L 491.723749 188.89597 
L 497.944576 182.492568 
L 503.977089 175.91126 
L 511.31974 167.507308 
L 517.10037 160.703401 
L 517.10037 160.703401 
" style="fill:none;stroke:#ff0000;stroke-linecap:square;"/>
   </g>
   <g id="line2d_7">
    <path clip-path="url(#pb0b56bbb2c)" d="M 72 170.01 
L 92.087617 170.103215 
L 103.24484 170.345811 
L 114.394839 170.812497 
L 123.304488 171.382053 
L 132.199408 172.147619 
L 141.073728 173.12318 
L 149.921263 174.317401 
L 158.735932 175.733927 
L 167.512191 177.371706 
L 176.245421 179.225343 
L 184.932281 181.285466 
L 193.570985 183.539107 
L 204.30178 186.603347 
L 214.961492 189.906648 
L 227.671819 194.12422 
L 242.41839 199.286044 
L 280.28637 212.705378 
L 290.888941 216.187845 
L 301.563574 219.442318 
L 310.164311 221.836619 
L 318.824075 224.007456 
L 327.544343 225.920444 
L 334.123365 227.165573 
L 340.733573 228.232649 
L 347.371841 229.108134 
L 354.033866 229.77903 
L 360.714148 230.233007 
L 367.406007 230.458548 
L 374.101623 230.445084 
L 380.792099 230.183145 
L 387.467557 229.6645 
L 394.117261 228.882291 
L 400.729769 227.83116 
L 407.29311 226.507357 
L 413.794991 224.908837 
L 420.223019 223.035322 
L 426.564947 220.888351 
L 432.808935 218.471296 
L 438.943815 215.789344 
L 444.959366 212.84946 
L 450.84658 209.66031 
L 456.597934 206.232162 
L 462.207631 202.576767 
L 467.671841 198.707212 
L 472.988903 194.637768 
L 478.159516 190.383733 
L 483.186887 185.96127 
L 488.076853 181.387273 
L 492.837972 176.679239 
L 499.005675 170.224576 
L 504.999303 163.607778 
L 512.313127 155.178663 
L 518.085531 148.367765 
L 518.085531 148.367765 
" style="fill:none;stroke:#ff0000;stroke-linecap:square;"/>
   </g>
   <g id="line2d_8">
    <path clip-path="url(#pb0b56bbb2c)" d="M 72 170.01 
L 92.087677 170.09566 
L 105.476315 170.385819 
L 116.625991 170.860724 
L 127.761535 171.594781 
L 136.65392 172.389511 
L 145.526653 173.379694 
L 154.374701 174.570399 
L 163.193356 175.962192 
L 171.978582 177.551449 
L 180.727327 179.330685 
L 191.609334 181.80481 
L 202.431275 184.529937 
L 213.196633 187.470891 
L 226.050984 191.226845 
L 243.114738 196.486244 
L 275.089784 206.410194 
L 287.957915 210.118425 
L 298.745422 212.97672 
L 307.425387 215.065754 
L 316.153394 216.943665 
L 324.930219 218.577897 
L 333.753844 219.936419 
L 340.399341 220.755608 
L 347.065035 221.389525 
L 353.746532 221.826059 
L 360.438373 222.053759 
L 367.134054 222.061958 
L 373.826064 221.840907 
L 380.505946 221.381899 
L 387.16439 220.677396 
L 393.791342 219.72115 
L 400.376149 218.50831 
L 406.907713 217.035521 
L 413.374685 215.301001 
L 419.76566 213.304604 
L 426.069405 211.047856 
L 432.275085 208.533968 
L 438.372513 205.767824 
L 444.352384 202.755941 
L 450.20653 199.506407 
L 455.92815 196.028791 
L 461.512041 192.334035 
L 466.954811 188.43433 
L 472.255068 184.342979 
L 477.413592 180.074256 
L 482.433478 175.643271 
L 487.320251 171.06584 
L 492.081951 166.358379 
L 498.255038 159.908845 
L 504.257242 153.29982 
L 511.581982 144.880197 
L 517.359223 138.073405 
L 517.359223 138.073405 
" style="fill:none;stroke:#ff0000;stroke-linecap:square;"/>
   </g>
   <g id="line2d_9">
    <path clip-path="url(#pb0b56bbb2c)" d="M 72 170.01 
L 94.319556 170.115937 
L 107.707888 170.420633 
L 118.85759 170.895535 
L 129.994398 171.610854 
L 141.110988 172.591026 
L 149.984436 173.575087 
L 158.836061 174.739212 
L 169.864785 176.444046 
L 180.849184 178.414555 
L 191.786763 180.630468 
L 202.677973 183.064302 
L 215.691563 186.224582 
L 230.813192 190.154201 
L 280.436357 203.299222 
L 291.301249 205.847925 
L 302.219308 208.157749 
L 310.996031 209.793176 
L 319.811183 211.206495 
L 328.66304 212.367422 
L 337.547246 213.246436 
L 344.22742 213.703568 
L 350.917699 213.974721 
L 357.613032 214.04909 
L 364.307442 213.916583 
L 370.994056 213.567941 
L 377.665158 212.994847 
L 384.312265 212.190039 
L 390.926221 211.147419 
L 397.497319 209.862152 
L 404.015436 208.330751 
L 410.470194 206.551154 
L 416.851137 204.522779 
L 423.147925 202.246569 
L 429.350534 199.725003 
L 435.449471 196.962095 
L 441.435992 193.963372 
L 447.302322 190.735819 
L 453.041867 187.287812 
L 458.649428 183.629033 
L 464.121389 179.77036 
L 469.455906 175.723756 
L 474.653068 171.502143 
L 479.715036 167.119286 
L 484.646162 162.58967 
L 489.453086 157.928402 
L 495.68499 151.535706 
L 501.740249 144.975291 
L 509.115626 136.600056 
L 517.796906 126.403035 
L 517.796906 126.403035 
" style="fill:none;stroke:#ff0000;stroke-linecap:square;"/>
   </g>
   <g id="patch_3">
    <path d="M 72 42.93 
L 518.4 42.93 
" style="fill:none;stroke:#000000;stroke-linecap:square;stroke-linejoin:miter;"/>
   </g>
   <g id="patch_4">
    <path d="M 72 386.37 
L 518.4 386.37 
" style="fill:none;stroke:#000000;stroke-linecap:square;stroke-linejoin:miter;"/>
   </g>
   <g id="patch_5">
    <path d="M 518.4 386.37 
L 518.4 42.93 
" style="fill:none;stroke:#000000;stroke-linecap:square;stroke-linejoin:miter;"/>
   </g>
   <g id="patch_6">
    <path d="M 72 386.37 
L 72 42.93 
" style="fill:none;stroke:#000000;stroke-linecap:square;stroke-linejoin:miter;"/>
   </g>
   <g id="matplotlib.axis_1">
    <g id="xtick_1">
     <g id="line2d_10">
      <path clip-path="url(#pb0b56bbb2c)" d="M 72 386.37 
L 72 42.93 
" style="fill:none;stroke:#000000;stroke-dasharray:1.000000,3.000000;stroke-dashoffset:0.0;stroke-width:0.5;"/>
     </g>
     <g id="line2d_11">
      <defs>
       <path d="M 0 0 
L 0 -4 
" id="m6f58b60abc" style="stroke:#000000;stroke-width:0.5;"/>
      </defs>
      <g>
       <use style="stroke:#000000;stroke-width:0.5;" x="72.0" xlink:href="#m6f58b60abc" y="386.37"/>
      </g>
     </g>
     <g id="line2d_12">
      <defs>
       <path d="M 0 0 
L 0 4 
" id="mbac8708ec4" style="stroke:#000000;stroke-width:0.5;"/>
      </defs>
      <g>
       <use style="stroke:#000000;stroke-width:0.5;" x="72.0" xlink:href="#mbac8708ec4" y="42.93"/>
      </g>
     </g>
     <g id="text_1">
      <!-- 0 -->
      <defs>
       <path d="M 31.78125 66.40625 
Q 24.171875 66.40625 20.328125 58.90625 
Q 16.5 51.421875 16.5 36.375 
Q 16.5 21.390625 20.328125 13.890625 
Q 24.171875 6.390625 31.78125 6.390625 
Q 39.453125 6.390625 43.28125 13.890625 
Q 47.125 21.390625 47.125 36.375 
Q 47.125 51.421875 43.28125 58.90625 
Q 39.453125 66.40625 31.78125 66.40625 
M 31.78125 74.21875 
Q 44.046875 74.21875 50.515625 64.515625 
Q 56.984375 54.828125 56.984375 36.375 
Q 56.984375 17.96875 50.515625 8.265625 
Q 44.046875 -1.421875 31.78125 -1.421875 
Q 19.53125 -1.421875 13.0625 8.265625 
Q 6.59375 17.96875 6.59375 36.375 
Q 6.59375 54.828125 13.0625 64.515625 
Q 19.53125 74.21875 31.78125 74.21875 
" id="BitstreamVeraSans-Roman-30"/>
      </defs>
      <g transform="translate(68.1825 399.488125)scale(0.12 -0.12)">
       <use xlink:href="#BitstreamVeraSans-Roman-30"/>
      </g>
     </g>
    </g>
    <g id="xtick_2">
     <g id="line2d_13">
      <path clip-path="url(#pb0b56bbb2c)" d="M 183.6 386.37 
L 183.6 42.93 
" style="fill:none;stroke:#000000;stroke-dasharray:1.000000,3.000000;stroke-dashoffset:0.0;stroke-width:0.5;"/>
     </g>
     <g id="line2d_14">
      <g>
       <use style="stroke:#000000;stroke-width:0.5;" x="183.6" xlink:href="#m6f58b60abc" y="386.37"/>
      </g>
     </g>
     <g id="line2d_15">
      <g>
       <use style="stroke:#000000;stroke-width:0.5;" x="183.6" xlink:href="#mbac8708ec4" y="42.93"/>
      </g>
     </g>
     <g id="text_2">
      <!-- 5 -->
      <defs>
       <path d="M 10.796875 72.90625 
L 49.515625 72.90625 
L 49.515625 64.59375 
L 19.828125 64.59375 
L 19.828125 46.734375 
Q 21.96875 47.46875 24.109375 47.828125 
Q 26.265625 48.1875 28.421875 48.1875 
Q 40.625 48.1875 47.75 41.5 
Q 54.890625 34.8125 54.890625 23.390625 
Q 54.890625 11.625 47.5625 5.09375 
Q 40.234375 -1.421875 26.90625 -1.421875 
Q 22.3125 -1.421875 17.546875 -0.640625 
Q 12.796875 0.140625 7.71875 1.703125 
L 7.71875 11.625 
Q 12.109375 9.234375 16.796875 8.0625 
Q 21.484375 6.890625 26.703125 6.890625 
Q 35.15625 6.890625 40.078125 11.328125 
Q 45.015625 15.765625 45.015625 23.390625 
Q 45.015625 31 40.078125 35.4375 
Q 35.15625 39.890625 26.703125 39.890625 
Q 22.75 39.890625 18.8125 39.015625 
Q 14.890625 38.140625 10.796875 36.28125 
z
" id="BitstreamVeraSans-Roman-35"/>
      </defs>
      <g transform="translate(179.7825 399.488125)scale(0.12 -0.12)">
       <use xlink:href="#BitstreamVeraSans-Roman-35"/>
      </g>
     </g>
    </g>
    <g id="xtick_3">
     <g id="line2d_16">
      <path clip-path="url(#pb0b56bbb2c)" d="M 295.2 386.37 
L 295.2 42.93 
" style="fill:none;stroke:#000000;stroke-dasharray:1.000000,3.000000;stroke-dashoffset:0.0;stroke-width:0.5;"/>
     </g>
     <g id="line2d_17">
      <g>
       <use style="stroke:#000000;stroke-width:0.5;" x="295.2" xlink:href="#m6f58b60abc" y="386.37"/>
      </g>
     </g>
     <g id="line2d_18">
      <g>
       <use style="stroke:#000000;stroke-width:0.5;" x="295.2" xlink:href="#mbac8708ec4" y="42.93"/>
      </g>
     </g>
     <g id="text_3">
      <!-- 10 -->
      <defs>
       <path d="M 12.40625 8.296875 
L 28.515625 8.296875 
L 28.515625 63.921875 
L 10.984375 60.40625 
L 10.984375 69.390625 
L 28.421875 72.90625 
L 38.28125 72.90625 
L 38.28125 8.296875 
L 54.390625 8.296875 
L 54.390625 0 
L 12.40625 0 
z
" id="BitstreamVeraSans-Roman-31"/>
      </defs>
      <g transform="translate(287.565 399.488125)scale(0.12 -0.12)">
       <use xlink:href="#BitstreamVeraSans-Roman-31"/>
       <use x="63.623046875" xlink:href="#BitstreamVeraSans-Roman-30"/>
      </g>
     </g>
    </g>
    <g id="xtick_4">
     <g id="line2d_19">
      <path clip-path="url(#pb0b56bbb2c)" d="M 406.8 386.37 
L 406.8 42.93 
" style="fill:none;stroke:#000000;stroke-dasharray:1.000000,3.000000;stroke-dashoffset:0.0;stroke-width:0.5;"/>
     </g>
     <g id="line2d_20">
      <g>
       <use style="stroke:#000000;stroke-width:0.5;" x="406.8" xlink:href="#m6f58b60abc" y="386.37"/>
      </g>
     </g>
     <g id="line2d_21">
      <g>
       <use style="stroke:#000000;stroke-width:0.5;" x="406.8" xlink:href="#mbac8708ec4" y="42.93"/>
      </g>
     </g>
     <g id="text_4">
      <!-- 15 -->
      <g transform="translate(399.165 399.488125)scale(0.12 -0.12)">
       <use xlink:href="#BitstreamVeraSans-Roman-31"/>
       <use x="63.623046875" xlink:href="#BitstreamVeraSans-Roman-35"/>
      </g>
     </g>
    </g>
    <g id="xtick_5">
     <g id="line2d_22">
      <path clip-path="url(#pb0b56bbb2c)" d="M 518.4 386.37 
L 518.4 42.93 
" style="fill:none;stroke:#000000;stroke-dasharray:1.000000,3.000000;stroke-dashoffset:0.0;stroke-width:0.5;"/>
     </g>
     <g id="line2d_23">
      <g>
       <use style="stroke:#000000;stroke-width:0.5;" x="518.4" xlink:href="#m6f58b60abc" y="386.37"/>
      </g>
     </g>
     <g id="line2d_24">
      <g>
       <use style="stroke:#000000;stroke-width:0.5;" x="518.4" xlink:href="#mbac8708ec4" y="42.93"/>
      </g>
     </g>
     <g id="text_5">
      <!-- 20 -->
      <defs>
       <path d="M 19.1875 8.296875 
L 53.609375 8.296875 
L 53.609375 0 
L 7.328125 0 
L 7.328125 8.296875 
Q 12.9375 14.109375 22.625 23.890625 
Q 32.328125 33.6875 34.8125 36.53125 
Q 39.546875 41.84375 41.421875 45.53125 
Q 43.3125 49.21875 43.3125 52.78125 
Q 43.3125 58.59375 39.234375 62.25 
Q 35.15625 65.921875 28.609375 65.921875 
Q 23.96875 65.921875 18.8125 64.3125 
Q 13.671875 62.703125 7.8125 59.421875 
L 7.8125 69.390625 
Q 13.765625 71.78125 18.9375 73 
Q 24.125 74.21875 28.421875 74.21875 
Q 39.75 74.21875 46.484375 68.546875 
Q 53.21875 62.890625 53.21875 53.421875 
Q 53.21875 48.921875 51.53125 44.890625 
Q 49.859375 40.875 45.40625 35.40625 
Q 44.1875 33.984375 37.640625 27.21875 
Q 31.109375 20.453125 19.1875 8.296875 
" id="BitstreamVeraSans-Roman-32"/>
      </defs>
      <g transform="translate(510.765 399.488125)scale(0.12 -0.12)">
       <use xlink:href="#BitstreamVeraSans-Roman-32"/>
       <use x="63.623046875" xlink:href="#BitstreamVeraSans-Roman-30"/>
      </g>
     </g>
    </g>
   </g>
   <g id="matplotlib.axis_2">
    <g id="ytick_1">
     <g id="line2d_25">
      <path clip-path="url(#pb0b56bbb2c)" d="M 72 348.57 
L 518.4 348.57 
" style="fill:none;stroke:#000000;stroke-dasharray:1.000000,3.000000;stroke-dashoffset:0.0;stroke-width:0.5;"/>
     </g>
     <g id="line2d_26">
      <defs>
       <path d="M 0 0 
L 4 0 
" id="md40d8d629d" style="stroke:#000000;stroke-width:0.5;"/>
      </defs>
      <g>
       <use style="stroke:#000000;stroke-width:0.5;" x="72.0" xlink:href="#md40d8d629d" y="348.57"/>
      </g>
     </g>
     <g id="line2d_27">
      <defs>
       <path d="M 0 0 
L -4 0 
" id="m7d4523a263" style="stroke:#000000;stroke-width:0.5;"/>
      </defs>
      <g>
       <use style="stroke:#000000;stroke-width:0.5;" x="518.4" xlink:href="#m7d4523a263" y="348.57"/>
      </g>
     </g>
     <g id="text_6">
      <!-- −8 -->
      <defs>
       <path d="M 10.59375 35.5 
L 73.1875 35.5 
L 73.1875 27.203125 
L 10.59375 27.203125 
z
" id="BitstreamVeraSans-Roman-2212"/>
       <path d="M 31.78125 34.625 
Q 24.75 34.625 20.71875 30.859375 
Q 16.703125 27.09375 16.703125 20.515625 
Q 16.703125 13.921875 20.71875 10.15625 
Q 24.75 6.390625 31.78125 6.390625 
Q 38.8125 6.390625 42.859375 10.171875 
Q 46.921875 13.96875 46.921875 20.515625 
Q 46.921875 27.09375 42.890625 30.859375 
Q 38.875 34.625 31.78125 34.625 
M 21.921875 38.8125 
Q 15.578125 40.375 12.03125 44.71875 
Q 8.5 49.078125 8.5 55.328125 
Q 8.5 64.0625 14.71875 69.140625 
Q 20.953125 74.21875 31.78125 74.21875 
Q 42.671875 74.21875 48.875 69.140625 
Q 55.078125 64.0625 55.078125 55.328125 
Q 55.078125 49.078125 51.53125 44.71875 
Q 48 40.375 41.703125 38.8125 
Q 48.828125 37.15625 52.796875 32.3125 
Q 56.78125 27.484375 56.78125 20.515625 
Q 56.78125 9.90625 50.3125 4.234375 
Q 43.84375 -1.421875 31.78125 -1.421875 
Q 19.734375 -1.421875 13.25 4.234375 
Q 6.78125 9.90625 6.78125 20.515625 
Q 6.78125 27.484375 10.78125 32.3125 
Q 14.796875 37.15625 21.921875 38.8125 
M 18.3125 54.390625 
Q 18.3125 48.734375 21.84375 45.5625 
Q 25.390625 42.390625 31.78125 42.390625 
Q 38.140625 42.390625 41.71875 45.5625 
Q 45.3125 48.734375 45.3125 54.390625 
Q 45.3125 60.0625 41.71875 63.234375 
Q 38.140625 66.40625 31.78125 66.40625 
Q 25.390625 66.40625 21.84375 63.234375 
Q 18.3125 60.0625 18.3125 54.390625 
" id="BitstreamVeraSans-Roman-38"/>
      </defs>
      <g transform="translate(50.309375 351.88125)scale(0.12 -0.12)">
       <use xlink:href="#BitstreamVeraSans-Roman-2212"/>
       <use x="83.7890625" xlink:href="#BitstreamVeraSans-Roman-38"/>
      </g>
     </g>
    </g>
    <g id="ytick_2">
     <g id="line2d_28">
      <path clip-path="url(#pb0b56bbb2c)" d="M 72 303.93 
L 518.4 303.93 
" style="fill:none;stroke:#000000;stroke-dasharray:1.000000,3.000000;stroke-dashoffset:0.0;stroke-width:0.5;"/>
     </g>
     <g id="line2d_29">
      <g>
       <use style="stroke:#000000;stroke-width:0.5;" x="72.0" xlink:href="#md40d8d629d" y="303.93"/>
      </g>
     </g>
     <g id="line2d_30">
      <g>
       <use style="stroke:#000000;stroke-width:0.5;" x="518.4" xlink:href="#m7d4523a263" y="303.93"/>
      </g>
     </g>
     <g id="text_7">
      <!-- −6 -->
      <defs>
       <path d="M 33.015625 40.375 
Q 26.375 40.375 22.484375 35.828125 
Q 18.609375 31.296875 18.609375 23.390625 
Q 18.609375 15.53125 22.484375 10.953125 
Q 26.375 6.390625 33.015625 6.390625 
Q 39.65625 6.390625 43.53125 10.953125 
Q 47.40625 15.53125 47.40625 23.390625 
Q 47.40625 31.296875 43.53125 35.828125 
Q 39.65625 40.375 33.015625 40.375 
M 52.59375 71.296875 
L 52.59375 62.3125 
Q 48.875 64.0625 45.09375 64.984375 
Q 41.3125 65.921875 37.59375 65.921875 
Q 27.828125 65.921875 22.671875 59.328125 
Q 17.53125 52.734375 16.796875 39.40625 
Q 19.671875 43.65625 24.015625 45.921875 
Q 28.375 48.1875 33.59375 48.1875 
Q 44.578125 48.1875 50.953125 41.515625 
Q 57.328125 34.859375 57.328125 23.390625 
Q 57.328125 12.15625 50.6875 5.359375 
Q 44.046875 -1.421875 33.015625 -1.421875 
Q 20.359375 -1.421875 13.671875 8.265625 
Q 6.984375 17.96875 6.984375 36.375 
Q 6.984375 53.65625 15.1875 63.9375 
Q 23.390625 74.21875 37.203125 74.21875 
Q 40.921875 74.21875 44.703125 73.484375 
Q 48.484375 72.75 52.59375 71.296875 
" id="BitstreamVeraSans-Roman-36"/>
      </defs>
      <g transform="translate(50.309375 307.24125)scale(0.12 -0.12)">
       <use xlink:href="#BitstreamVeraSans-Roman-2212"/>
       <use x="83.7890625" xlink:href="#BitstreamVeraSans-Roman-36"/>
      </g>
     </g>
    </g>
    <g id="ytick_3">
     <g id="line2d_31">
      <path clip-path="url(#pb0b56bbb2c)" d="M 72 259.29 
L 518.4 259.29 
" style="fill:none;stroke:#000000;stroke-dasharray:1.000000,3.000000;stroke-dashoffset:0.0;stroke-width:0.5;"/>
     </g>
     <g id="line2d_32">
      <g>
       <use style="stroke:#000000;stroke-width:0.5;" x="72.0" xlink:href="#md40d8d629d" y="259.29"/>
      </g>
     </g>
     <g id="line2d_33">
      <g>
       <use style="stroke:#000000;stroke-width:0.5;" x="518.4" xlink:href="#m7d4523a263" y="259.29"/>
      </g>
     </g>
     <g id="text_8">
      <!-- −4 -->
      <defs>
       <path d="M 37.796875 64.3125 
L 12.890625 25.390625 
L 37.796875 25.390625 
z
M 35.203125 72.90625 
L 47.609375 72.90625 
L 47.609375 25.390625 
L 58.015625 25.390625 
L 58.015625 17.1875 
L 47.609375 17.1875 
L 47.609375 0 
L 37.796875 0 
L 37.796875 17.1875 
L 4.890625 17.1875 
L 4.890625 26.703125 
z
" id="BitstreamVeraSans-Roman-34"/>
      </defs>
      <g transform="translate(50.309375 262.60125)scale(0.12 -0.12)">
       <use xlink:href="#BitstreamVeraSans-Roman-2212"/>
       <use x="83.7890625" xlink:href="#BitstreamVeraSans-Roman-34"/>
      </g>
     </g>
    </g>
    <g id="ytick_4">
     <g id="line2d_34">
      <path clip-path="url(#pb0b56bbb2c)" d="M 72 214.65 
L 518.4 214.65 
" style="fill:none;stroke:#000000;stroke-dasharray:1.000000,3.000000;stroke-dashoffset:0.0;stroke-width:0.5;"/>
     </g>
     <g id="line2d_35">
      <g>
       <use style="stroke:#000000;stroke-width:0.5;" x="72.0" xlink:href="#md40d8d629d" y="214.65"/>
      </g>
     </g>
     <g id="line2d_36">
      <g>
       <use style="stroke:#000000;stroke-width:0.5;" x="518.4" xlink:href="#m7d4523a263" y="214.65"/>
      </g>
     </g>
     <g id="text_9">
      <!-- −2 -->
      <g transform="translate(50.309375 217.96125)scale(0.12 -0.12)">
       <use xlink:href="#BitstreamVeraSans-Roman-2212"/>
       <use x="83.7890625" xlink:href="#BitstreamVeraSans-Roman-32"/>
      </g>
     </g>
    </g>
    <g id="ytick_5">
     <g id="line2d_37">
      <path clip-path="url(#pb0b56bbb2c)" d="M 72 170.01 
L 518.4 170.01 
" style="fill:none;stroke:#000000;stroke-dasharray:1.000000,3.000000;stroke-dashoffset:0.0;stroke-width:0.5;"/>
     </g>
     <g id="line2d_38">
      <g>
       <use style="stroke:#000000;stroke-width:0.5;" x="72.0" xlink:href="#md40d8d629d" y="170.01"/>
      </g>
     </g>
     <g id="line2d_39">
      <g>
       <use style="stroke:#000000;stroke-width:0.5;" x="518.4" xlink:href="#m7d4523a263" y="170.01"/>
      </g>
     </g>
     <g id="text_10">
      <!-- 0 -->
      <g transform="translate(60.365 173.32125)scale(0.12 -0.12)">
       <use xlink:href="#BitstreamVeraSans-Roman-30"/>
      </g>
     </g>
    </g>
    <g id="ytick_6">
     <g id="line2d_40">
      <path clip-path="url(#pb0b56bbb2c)" d="M 72 125.37 
L 518.4 125.37 
" style="fill:none;stroke:#000000;stroke-dasharray:1.000000,3.000000;stroke-dashoffset:0.0;stroke-width:0.5;"/>
     </g>
     <g id="line2d_41">
      <g>
       <use style="stroke:#000000;stroke-width:0.5;" x="72.0" xlink:href="#md40d8d629d" y="125.37"/>
      </g>
     </g>
     <g id="line2d_42">
      <g>
       <use style="stroke:#000000;stroke-width:0.5;" x="518.4" xlink:href="#m7d4523a263" y="125.37"/>
      </g>
     </g>
     <g id="text_11">
      <!-- 2 -->
      <g transform="translate(60.365 128.68125)scale(0.12 -0.12)">
       <use xlink:href="#BitstreamVeraSans-Roman-32"/>
      </g>
     </g>
    </g>
    <g id="ytick_7">
     <g id="line2d_43">
      <path clip-path="url(#pb0b56bbb2c)" d="M 72 80.73 
L 518.4 80.73 
" style="fill:none;stroke:#000000;stroke-dasharray:1.000000,3.000000;stroke-dashoffset:0.0;stroke-width:0.5;"/>
     </g>
     <g id="line2d_44">
      <g>
       <use style="stroke:#000000;stroke-width:0.5;" x="72.0" xlink:href="#md40d8d629d" y="80.73"/>
      </g>
     </g>
     <g id="line2d_45">
      <g>
       <use style="stroke:#000000;stroke-width:0.5;" x="518.4" xlink:href="#m7d4523a263" y="80.73"/>
      </g>
     </g>
     <g id="text_12">
      <!-- 4 -->
      <g transform="translate(60.365 84.04125)scale(0.12 -0.12)">
       <use xlink:href="#BitstreamVeraSans-Roman-34"/>
      </g>
     </g>
    </g>
   </g>
  </g>
 </g>
 <defs>
  <clipPath id="pb0b56bbb2c">
   <rect height="343.44" width="446.4" x="72.0" y="42.93"/>
  </clipPath>
 </defs>
</svg>
